%TF.GenerationSoftware,KiCad,Pcbnew,9.0.6*%
%TF.CreationDate,2026-04-28T12:11:22+02:00*%
%TF.ProjectId,CANSAT-M2-2026,43414e53-4154-42d4-9d32-2d323032362e,rev?*%
%TF.SameCoordinates,Original*%
%TF.FileFunction,Legend,Bot*%
%TF.FilePolarity,Positive*%
%FSLAX46Y46*%
G04 Gerber Fmt 4.6, Leading zero omitted, Abs format (unit mm)*
G04 Created by KiCad (PCBNEW 9.0.6) date 2026-04-28 12:11:22*
%MOMM*%
%LPD*%
G01*
G04 APERTURE LIST*
%ADD10C,0.150000*%
%ADD11C,0.125000*%
%ADD12C,0.120000*%
%ADD13C,0.127000*%
%ADD14C,0.200000*%
%ADD15C,0.152400*%
%ADD16C,0.000000*%
%ADD17C,0.160000*%
G04 APERTURE END LIST*
D10*
X119842857Y-81429580D02*
X119890476Y-81477200D01*
X119890476Y-81477200D02*
X120033333Y-81524819D01*
X120033333Y-81524819D02*
X120128571Y-81524819D01*
X120128571Y-81524819D02*
X120271428Y-81477200D01*
X120271428Y-81477200D02*
X120366666Y-81381961D01*
X120366666Y-81381961D02*
X120414285Y-81286723D01*
X120414285Y-81286723D02*
X120461904Y-81096247D01*
X120461904Y-81096247D02*
X120461904Y-80953390D01*
X120461904Y-80953390D02*
X120414285Y-80762914D01*
X120414285Y-80762914D02*
X120366666Y-80667676D01*
X120366666Y-80667676D02*
X120271428Y-80572438D01*
X120271428Y-80572438D02*
X120128571Y-80524819D01*
X120128571Y-80524819D02*
X120033333Y-80524819D01*
X120033333Y-80524819D02*
X119890476Y-80572438D01*
X119890476Y-80572438D02*
X119842857Y-80620057D01*
X119509523Y-80524819D02*
X118842857Y-80524819D01*
X118842857Y-80524819D02*
X119271428Y-81524819D01*
X117938095Y-81524819D02*
X118509523Y-81524819D01*
X118223809Y-81524819D02*
X118223809Y-80524819D01*
X118223809Y-80524819D02*
X118319047Y-80667676D01*
X118319047Y-80667676D02*
X118414285Y-80762914D01*
X118414285Y-80762914D02*
X118509523Y-80810533D01*
X152923333Y-118394819D02*
X152923333Y-119109104D01*
X152923333Y-119109104D02*
X152970952Y-119251961D01*
X152970952Y-119251961D02*
X153066190Y-119347200D01*
X153066190Y-119347200D02*
X153209047Y-119394819D01*
X153209047Y-119394819D02*
X153304285Y-119394819D01*
X152542380Y-118394819D02*
X151923333Y-118394819D01*
X151923333Y-118394819D02*
X152256666Y-118775771D01*
X152256666Y-118775771D02*
X152113809Y-118775771D01*
X152113809Y-118775771D02*
X152018571Y-118823390D01*
X152018571Y-118823390D02*
X151970952Y-118871009D01*
X151970952Y-118871009D02*
X151923333Y-118966247D01*
X151923333Y-118966247D02*
X151923333Y-119204342D01*
X151923333Y-119204342D02*
X151970952Y-119299580D01*
X151970952Y-119299580D02*
X152018571Y-119347200D01*
X152018571Y-119347200D02*
X152113809Y-119394819D01*
X152113809Y-119394819D02*
X152399523Y-119394819D01*
X152399523Y-119394819D02*
X152494761Y-119347200D01*
X152494761Y-119347200D02*
X152542380Y-119299580D01*
D11*
X123227190Y-75298571D02*
X123251000Y-75274762D01*
X123251000Y-75274762D02*
X123274809Y-75203333D01*
X123274809Y-75203333D02*
X123274809Y-75155714D01*
X123274809Y-75155714D02*
X123251000Y-75084286D01*
X123251000Y-75084286D02*
X123203380Y-75036667D01*
X123203380Y-75036667D02*
X123155761Y-75012857D01*
X123155761Y-75012857D02*
X123060523Y-74989048D01*
X123060523Y-74989048D02*
X122989095Y-74989048D01*
X122989095Y-74989048D02*
X122893857Y-75012857D01*
X122893857Y-75012857D02*
X122846238Y-75036667D01*
X122846238Y-75036667D02*
X122798619Y-75084286D01*
X122798619Y-75084286D02*
X122774809Y-75155714D01*
X122774809Y-75155714D02*
X122774809Y-75203333D01*
X122774809Y-75203333D02*
X122798619Y-75274762D01*
X122798619Y-75274762D02*
X122822428Y-75298571D01*
X122774809Y-75750952D02*
X122774809Y-75512857D01*
X122774809Y-75512857D02*
X123012904Y-75489048D01*
X123012904Y-75489048D02*
X122989095Y-75512857D01*
X122989095Y-75512857D02*
X122965285Y-75560476D01*
X122965285Y-75560476D02*
X122965285Y-75679524D01*
X122965285Y-75679524D02*
X122989095Y-75727143D01*
X122989095Y-75727143D02*
X123012904Y-75750952D01*
X123012904Y-75750952D02*
X123060523Y-75774762D01*
X123060523Y-75774762D02*
X123179571Y-75774762D01*
X123179571Y-75774762D02*
X123227190Y-75750952D01*
X123227190Y-75750952D02*
X123251000Y-75727143D01*
X123251000Y-75727143D02*
X123274809Y-75679524D01*
X123274809Y-75679524D02*
X123274809Y-75560476D01*
X123274809Y-75560476D02*
X123251000Y-75512857D01*
X123251000Y-75512857D02*
X123227190Y-75489048D01*
X123274809Y-76250952D02*
X123274809Y-75965238D01*
X123274809Y-76108095D02*
X122774809Y-76108095D01*
X122774809Y-76108095D02*
X122846238Y-76060476D01*
X122846238Y-76060476D02*
X122893857Y-76012857D01*
X122893857Y-76012857D02*
X122917666Y-75965238D01*
D10*
X119986666Y-75289580D02*
X120034285Y-75337200D01*
X120034285Y-75337200D02*
X120177142Y-75384819D01*
X120177142Y-75384819D02*
X120272380Y-75384819D01*
X120272380Y-75384819D02*
X120415237Y-75337200D01*
X120415237Y-75337200D02*
X120510475Y-75241961D01*
X120510475Y-75241961D02*
X120558094Y-75146723D01*
X120558094Y-75146723D02*
X120605713Y-74956247D01*
X120605713Y-74956247D02*
X120605713Y-74813390D01*
X120605713Y-74813390D02*
X120558094Y-74622914D01*
X120558094Y-74622914D02*
X120510475Y-74527676D01*
X120510475Y-74527676D02*
X120415237Y-74432438D01*
X120415237Y-74432438D02*
X120272380Y-74384819D01*
X120272380Y-74384819D02*
X120177142Y-74384819D01*
X120177142Y-74384819D02*
X120034285Y-74432438D01*
X120034285Y-74432438D02*
X119986666Y-74480057D01*
X119653332Y-74384819D02*
X118986666Y-74384819D01*
X118986666Y-74384819D02*
X119415237Y-75384819D01*
X116639580Y-69797142D02*
X116687200Y-69749523D01*
X116687200Y-69749523D02*
X116734819Y-69606666D01*
X116734819Y-69606666D02*
X116734819Y-69511428D01*
X116734819Y-69511428D02*
X116687200Y-69368571D01*
X116687200Y-69368571D02*
X116591961Y-69273333D01*
X116591961Y-69273333D02*
X116496723Y-69225714D01*
X116496723Y-69225714D02*
X116306247Y-69178095D01*
X116306247Y-69178095D02*
X116163390Y-69178095D01*
X116163390Y-69178095D02*
X115972914Y-69225714D01*
X115972914Y-69225714D02*
X115877676Y-69273333D01*
X115877676Y-69273333D02*
X115782438Y-69368571D01*
X115782438Y-69368571D02*
X115734819Y-69511428D01*
X115734819Y-69511428D02*
X115734819Y-69606666D01*
X115734819Y-69606666D02*
X115782438Y-69749523D01*
X115782438Y-69749523D02*
X115830057Y-69797142D01*
X115734819Y-70654285D02*
X115734819Y-70463809D01*
X115734819Y-70463809D02*
X115782438Y-70368571D01*
X115782438Y-70368571D02*
X115830057Y-70320952D01*
X115830057Y-70320952D02*
X115972914Y-70225714D01*
X115972914Y-70225714D02*
X116163390Y-70178095D01*
X116163390Y-70178095D02*
X116544342Y-70178095D01*
X116544342Y-70178095D02*
X116639580Y-70225714D01*
X116639580Y-70225714D02*
X116687200Y-70273333D01*
X116687200Y-70273333D02*
X116734819Y-70368571D01*
X116734819Y-70368571D02*
X116734819Y-70559047D01*
X116734819Y-70559047D02*
X116687200Y-70654285D01*
X116687200Y-70654285D02*
X116639580Y-70701904D01*
X116639580Y-70701904D02*
X116544342Y-70749523D01*
X116544342Y-70749523D02*
X116306247Y-70749523D01*
X116306247Y-70749523D02*
X116211009Y-70701904D01*
X116211009Y-70701904D02*
X116163390Y-70654285D01*
X116163390Y-70654285D02*
X116115771Y-70559047D01*
X116115771Y-70559047D02*
X116115771Y-70368571D01*
X116115771Y-70368571D02*
X116163390Y-70273333D01*
X116163390Y-70273333D02*
X116211009Y-70225714D01*
X116211009Y-70225714D02*
X116306247Y-70178095D01*
X116734819Y-71701904D02*
X116734819Y-71130476D01*
X116734819Y-71416190D02*
X115734819Y-71416190D01*
X115734819Y-71416190D02*
X115877676Y-71320952D01*
X115877676Y-71320952D02*
X115972914Y-71225714D01*
X115972914Y-71225714D02*
X116020533Y-71130476D01*
X115339580Y-68687142D02*
X115387200Y-68639523D01*
X115387200Y-68639523D02*
X115434819Y-68496666D01*
X115434819Y-68496666D02*
X115434819Y-68401428D01*
X115434819Y-68401428D02*
X115387200Y-68258571D01*
X115387200Y-68258571D02*
X115291961Y-68163333D01*
X115291961Y-68163333D02*
X115196723Y-68115714D01*
X115196723Y-68115714D02*
X115006247Y-68068095D01*
X115006247Y-68068095D02*
X114863390Y-68068095D01*
X114863390Y-68068095D02*
X114672914Y-68115714D01*
X114672914Y-68115714D02*
X114577676Y-68163333D01*
X114577676Y-68163333D02*
X114482438Y-68258571D01*
X114482438Y-68258571D02*
X114434819Y-68401428D01*
X114434819Y-68401428D02*
X114434819Y-68496666D01*
X114434819Y-68496666D02*
X114482438Y-68639523D01*
X114482438Y-68639523D02*
X114530057Y-68687142D01*
X114434819Y-69020476D02*
X114434819Y-69687142D01*
X114434819Y-69687142D02*
X115434819Y-69258571D01*
X114434819Y-70258571D02*
X114434819Y-70353809D01*
X114434819Y-70353809D02*
X114482438Y-70449047D01*
X114482438Y-70449047D02*
X114530057Y-70496666D01*
X114530057Y-70496666D02*
X114625295Y-70544285D01*
X114625295Y-70544285D02*
X114815771Y-70591904D01*
X114815771Y-70591904D02*
X115053866Y-70591904D01*
X115053866Y-70591904D02*
X115244342Y-70544285D01*
X115244342Y-70544285D02*
X115339580Y-70496666D01*
X115339580Y-70496666D02*
X115387200Y-70449047D01*
X115387200Y-70449047D02*
X115434819Y-70353809D01*
X115434819Y-70353809D02*
X115434819Y-70258571D01*
X115434819Y-70258571D02*
X115387200Y-70163333D01*
X115387200Y-70163333D02*
X115339580Y-70115714D01*
X115339580Y-70115714D02*
X115244342Y-70068095D01*
X115244342Y-70068095D02*
X115053866Y-70020476D01*
X115053866Y-70020476D02*
X114815771Y-70020476D01*
X114815771Y-70020476D02*
X114625295Y-70068095D01*
X114625295Y-70068095D02*
X114530057Y-70115714D01*
X114530057Y-70115714D02*
X114482438Y-70163333D01*
X114482438Y-70163333D02*
X114434819Y-70258571D01*
X105199047Y-81719580D02*
X105246666Y-81767200D01*
X105246666Y-81767200D02*
X105389523Y-81814819D01*
X105389523Y-81814819D02*
X105484761Y-81814819D01*
X105484761Y-81814819D02*
X105627618Y-81767200D01*
X105627618Y-81767200D02*
X105722856Y-81671961D01*
X105722856Y-81671961D02*
X105770475Y-81576723D01*
X105770475Y-81576723D02*
X105818094Y-81386247D01*
X105818094Y-81386247D02*
X105818094Y-81243390D01*
X105818094Y-81243390D02*
X105770475Y-81052914D01*
X105770475Y-81052914D02*
X105722856Y-80957676D01*
X105722856Y-80957676D02*
X105627618Y-80862438D01*
X105627618Y-80862438D02*
X105484761Y-80814819D01*
X105484761Y-80814819D02*
X105389523Y-80814819D01*
X105389523Y-80814819D02*
X105246666Y-80862438D01*
X105246666Y-80862438D02*
X105199047Y-80910057D01*
X104246666Y-81814819D02*
X104818094Y-81814819D01*
X104532380Y-81814819D02*
X104532380Y-80814819D01*
X104532380Y-80814819D02*
X104627618Y-80957676D01*
X104627618Y-80957676D02*
X104722856Y-81052914D01*
X104722856Y-81052914D02*
X104818094Y-81100533D01*
X103294285Y-81814819D02*
X103865713Y-81814819D01*
X103579999Y-81814819D02*
X103579999Y-80814819D01*
X103579999Y-80814819D02*
X103675237Y-80957676D01*
X103675237Y-80957676D02*
X103770475Y-81052914D01*
X103770475Y-81052914D02*
X103865713Y-81100533D01*
X102675237Y-80814819D02*
X102579999Y-80814819D01*
X102579999Y-80814819D02*
X102484761Y-80862438D01*
X102484761Y-80862438D02*
X102437142Y-80910057D01*
X102437142Y-80910057D02*
X102389523Y-81005295D01*
X102389523Y-81005295D02*
X102341904Y-81195771D01*
X102341904Y-81195771D02*
X102341904Y-81433866D01*
X102341904Y-81433866D02*
X102389523Y-81624342D01*
X102389523Y-81624342D02*
X102437142Y-81719580D01*
X102437142Y-81719580D02*
X102484761Y-81767200D01*
X102484761Y-81767200D02*
X102579999Y-81814819D01*
X102579999Y-81814819D02*
X102675237Y-81814819D01*
X102675237Y-81814819D02*
X102770475Y-81767200D01*
X102770475Y-81767200D02*
X102818094Y-81719580D01*
X102818094Y-81719580D02*
X102865713Y-81624342D01*
X102865713Y-81624342D02*
X102913332Y-81433866D01*
X102913332Y-81433866D02*
X102913332Y-81195771D01*
X102913332Y-81195771D02*
X102865713Y-81005295D01*
X102865713Y-81005295D02*
X102818094Y-80910057D01*
X102818094Y-80910057D02*
X102770475Y-80862438D01*
X102770475Y-80862438D02*
X102675237Y-80814819D01*
X136636666Y-85584819D02*
X136969999Y-85108628D01*
X137208094Y-85584819D02*
X137208094Y-84584819D01*
X137208094Y-84584819D02*
X136827142Y-84584819D01*
X136827142Y-84584819D02*
X136731904Y-84632438D01*
X136731904Y-84632438D02*
X136684285Y-84680057D01*
X136684285Y-84680057D02*
X136636666Y-84775295D01*
X136636666Y-84775295D02*
X136636666Y-84918152D01*
X136636666Y-84918152D02*
X136684285Y-85013390D01*
X136684285Y-85013390D02*
X136731904Y-85061009D01*
X136731904Y-85061009D02*
X136827142Y-85108628D01*
X136827142Y-85108628D02*
X137208094Y-85108628D01*
X135779523Y-84584819D02*
X135969999Y-84584819D01*
X135969999Y-84584819D02*
X136065237Y-84632438D01*
X136065237Y-84632438D02*
X136112856Y-84680057D01*
X136112856Y-84680057D02*
X136208094Y-84822914D01*
X136208094Y-84822914D02*
X136255713Y-85013390D01*
X136255713Y-85013390D02*
X136255713Y-85394342D01*
X136255713Y-85394342D02*
X136208094Y-85489580D01*
X136208094Y-85489580D02*
X136160475Y-85537200D01*
X136160475Y-85537200D02*
X136065237Y-85584819D01*
X136065237Y-85584819D02*
X135874761Y-85584819D01*
X135874761Y-85584819D02*
X135779523Y-85537200D01*
X135779523Y-85537200D02*
X135731904Y-85489580D01*
X135731904Y-85489580D02*
X135684285Y-85394342D01*
X135684285Y-85394342D02*
X135684285Y-85156247D01*
X135684285Y-85156247D02*
X135731904Y-85061009D01*
X135731904Y-85061009D02*
X135779523Y-85013390D01*
X135779523Y-85013390D02*
X135874761Y-84965771D01*
X135874761Y-84965771D02*
X136065237Y-84965771D01*
X136065237Y-84965771D02*
X136160475Y-85013390D01*
X136160475Y-85013390D02*
X136208094Y-85061009D01*
X136208094Y-85061009D02*
X136255713Y-85156247D01*
X113349580Y-72227142D02*
X113397200Y-72179523D01*
X113397200Y-72179523D02*
X113444819Y-72036666D01*
X113444819Y-72036666D02*
X113444819Y-71941428D01*
X113444819Y-71941428D02*
X113397200Y-71798571D01*
X113397200Y-71798571D02*
X113301961Y-71703333D01*
X113301961Y-71703333D02*
X113206723Y-71655714D01*
X113206723Y-71655714D02*
X113016247Y-71608095D01*
X113016247Y-71608095D02*
X112873390Y-71608095D01*
X112873390Y-71608095D02*
X112682914Y-71655714D01*
X112682914Y-71655714D02*
X112587676Y-71703333D01*
X112587676Y-71703333D02*
X112492438Y-71798571D01*
X112492438Y-71798571D02*
X112444819Y-71941428D01*
X112444819Y-71941428D02*
X112444819Y-72036666D01*
X112444819Y-72036666D02*
X112492438Y-72179523D01*
X112492438Y-72179523D02*
X112540057Y-72227142D01*
X112444819Y-73084285D02*
X112444819Y-72893809D01*
X112444819Y-72893809D02*
X112492438Y-72798571D01*
X112492438Y-72798571D02*
X112540057Y-72750952D01*
X112540057Y-72750952D02*
X112682914Y-72655714D01*
X112682914Y-72655714D02*
X112873390Y-72608095D01*
X112873390Y-72608095D02*
X113254342Y-72608095D01*
X113254342Y-72608095D02*
X113349580Y-72655714D01*
X113349580Y-72655714D02*
X113397200Y-72703333D01*
X113397200Y-72703333D02*
X113444819Y-72798571D01*
X113444819Y-72798571D02*
X113444819Y-72989047D01*
X113444819Y-72989047D02*
X113397200Y-73084285D01*
X113397200Y-73084285D02*
X113349580Y-73131904D01*
X113349580Y-73131904D02*
X113254342Y-73179523D01*
X113254342Y-73179523D02*
X113016247Y-73179523D01*
X113016247Y-73179523D02*
X112921009Y-73131904D01*
X112921009Y-73131904D02*
X112873390Y-73084285D01*
X112873390Y-73084285D02*
X112825771Y-72989047D01*
X112825771Y-72989047D02*
X112825771Y-72798571D01*
X112825771Y-72798571D02*
X112873390Y-72703333D01*
X112873390Y-72703333D02*
X112921009Y-72655714D01*
X112921009Y-72655714D02*
X113016247Y-72608095D01*
X112444819Y-74084285D02*
X112444819Y-73608095D01*
X112444819Y-73608095D02*
X112921009Y-73560476D01*
X112921009Y-73560476D02*
X112873390Y-73608095D01*
X112873390Y-73608095D02*
X112825771Y-73703333D01*
X112825771Y-73703333D02*
X112825771Y-73941428D01*
X112825771Y-73941428D02*
X112873390Y-74036666D01*
X112873390Y-74036666D02*
X112921009Y-74084285D01*
X112921009Y-74084285D02*
X113016247Y-74131904D01*
X113016247Y-74131904D02*
X113254342Y-74131904D01*
X113254342Y-74131904D02*
X113349580Y-74084285D01*
X113349580Y-74084285D02*
X113397200Y-74036666D01*
X113397200Y-74036666D02*
X113444819Y-73941428D01*
X113444819Y-73941428D02*
X113444819Y-73703333D01*
X113444819Y-73703333D02*
X113397200Y-73608095D01*
X113397200Y-73608095D02*
X113349580Y-73560476D01*
X129782857Y-79349580D02*
X129830476Y-79397200D01*
X129830476Y-79397200D02*
X129973333Y-79444819D01*
X129973333Y-79444819D02*
X130068571Y-79444819D01*
X130068571Y-79444819D02*
X130211428Y-79397200D01*
X130211428Y-79397200D02*
X130306666Y-79301961D01*
X130306666Y-79301961D02*
X130354285Y-79206723D01*
X130354285Y-79206723D02*
X130401904Y-79016247D01*
X130401904Y-79016247D02*
X130401904Y-78873390D01*
X130401904Y-78873390D02*
X130354285Y-78682914D01*
X130354285Y-78682914D02*
X130306666Y-78587676D01*
X130306666Y-78587676D02*
X130211428Y-78492438D01*
X130211428Y-78492438D02*
X130068571Y-78444819D01*
X130068571Y-78444819D02*
X129973333Y-78444819D01*
X129973333Y-78444819D02*
X129830476Y-78492438D01*
X129830476Y-78492438D02*
X129782857Y-78540057D01*
X129449523Y-78444819D02*
X128782857Y-78444819D01*
X128782857Y-78444819D02*
X129211428Y-79444819D01*
X127973333Y-78444819D02*
X128163809Y-78444819D01*
X128163809Y-78444819D02*
X128259047Y-78492438D01*
X128259047Y-78492438D02*
X128306666Y-78540057D01*
X128306666Y-78540057D02*
X128401904Y-78682914D01*
X128401904Y-78682914D02*
X128449523Y-78873390D01*
X128449523Y-78873390D02*
X128449523Y-79254342D01*
X128449523Y-79254342D02*
X128401904Y-79349580D01*
X128401904Y-79349580D02*
X128354285Y-79397200D01*
X128354285Y-79397200D02*
X128259047Y-79444819D01*
X128259047Y-79444819D02*
X128068571Y-79444819D01*
X128068571Y-79444819D02*
X127973333Y-79397200D01*
X127973333Y-79397200D02*
X127925714Y-79349580D01*
X127925714Y-79349580D02*
X127878095Y-79254342D01*
X127878095Y-79254342D02*
X127878095Y-79016247D01*
X127878095Y-79016247D02*
X127925714Y-78921009D01*
X127925714Y-78921009D02*
X127973333Y-78873390D01*
X127973333Y-78873390D02*
X128068571Y-78825771D01*
X128068571Y-78825771D02*
X128259047Y-78825771D01*
X128259047Y-78825771D02*
X128354285Y-78873390D01*
X128354285Y-78873390D02*
X128401904Y-78921009D01*
X128401904Y-78921009D02*
X128449523Y-79016247D01*
X117208094Y-63379919D02*
X117208094Y-64189442D01*
X117208094Y-64189442D02*
X117160475Y-64284680D01*
X117160475Y-64284680D02*
X117112856Y-64332300D01*
X117112856Y-64332300D02*
X117017618Y-64379919D01*
X117017618Y-64379919D02*
X116827142Y-64379919D01*
X116827142Y-64379919D02*
X116731904Y-64332300D01*
X116731904Y-64332300D02*
X116684285Y-64284680D01*
X116684285Y-64284680D02*
X116636666Y-64189442D01*
X116636666Y-64189442D02*
X116636666Y-63379919D01*
X115636666Y-64379919D02*
X116208094Y-64379919D01*
X115922380Y-64379919D02*
X115922380Y-63379919D01*
X115922380Y-63379919D02*
X116017618Y-63522776D01*
X116017618Y-63522776D02*
X116112856Y-63618014D01*
X116112856Y-63618014D02*
X116208094Y-63665633D01*
X114684285Y-64379919D02*
X115255713Y-64379919D01*
X114969999Y-64379919D02*
X114969999Y-63379919D01*
X114969999Y-63379919D02*
X115065237Y-63522776D01*
X115065237Y-63522776D02*
X115160475Y-63618014D01*
X115160475Y-63618014D02*
X115255713Y-63665633D01*
X118954499Y-61629919D02*
X118954499Y-61868014D01*
X119192594Y-61772776D02*
X118954499Y-61868014D01*
X118954499Y-61868014D02*
X118716404Y-61772776D01*
X119097356Y-62058490D02*
X118954499Y-61868014D01*
X118954499Y-61868014D02*
X118811642Y-62058490D01*
X118954499Y-61629919D02*
X118954499Y-61868014D01*
X119192594Y-61772776D02*
X118954499Y-61868014D01*
X118954499Y-61868014D02*
X118716404Y-61772776D01*
X119097356Y-62058490D02*
X118954499Y-61868014D01*
X118954499Y-61868014D02*
X118811642Y-62058490D01*
X126349580Y-73117142D02*
X126397200Y-73069523D01*
X126397200Y-73069523D02*
X126444819Y-72926666D01*
X126444819Y-72926666D02*
X126444819Y-72831428D01*
X126444819Y-72831428D02*
X126397200Y-72688571D01*
X126397200Y-72688571D02*
X126301961Y-72593333D01*
X126301961Y-72593333D02*
X126206723Y-72545714D01*
X126206723Y-72545714D02*
X126016247Y-72498095D01*
X126016247Y-72498095D02*
X125873390Y-72498095D01*
X125873390Y-72498095D02*
X125682914Y-72545714D01*
X125682914Y-72545714D02*
X125587676Y-72593333D01*
X125587676Y-72593333D02*
X125492438Y-72688571D01*
X125492438Y-72688571D02*
X125444819Y-72831428D01*
X125444819Y-72831428D02*
X125444819Y-72926666D01*
X125444819Y-72926666D02*
X125492438Y-73069523D01*
X125492438Y-73069523D02*
X125540057Y-73117142D01*
X125444819Y-74021904D02*
X125444819Y-73545714D01*
X125444819Y-73545714D02*
X125921009Y-73498095D01*
X125921009Y-73498095D02*
X125873390Y-73545714D01*
X125873390Y-73545714D02*
X125825771Y-73640952D01*
X125825771Y-73640952D02*
X125825771Y-73879047D01*
X125825771Y-73879047D02*
X125873390Y-73974285D01*
X125873390Y-73974285D02*
X125921009Y-74021904D01*
X125921009Y-74021904D02*
X126016247Y-74069523D01*
X126016247Y-74069523D02*
X126254342Y-74069523D01*
X126254342Y-74069523D02*
X126349580Y-74021904D01*
X126349580Y-74021904D02*
X126397200Y-73974285D01*
X126397200Y-73974285D02*
X126444819Y-73879047D01*
X126444819Y-73879047D02*
X126444819Y-73640952D01*
X126444819Y-73640952D02*
X126397200Y-73545714D01*
X126397200Y-73545714D02*
X126349580Y-73498095D01*
X125444819Y-74402857D02*
X125444819Y-75069523D01*
X125444819Y-75069523D02*
X126444819Y-74640952D01*
X138874580Y-54697142D02*
X138922200Y-54649523D01*
X138922200Y-54649523D02*
X138969819Y-54506666D01*
X138969819Y-54506666D02*
X138969819Y-54411428D01*
X138969819Y-54411428D02*
X138922200Y-54268571D01*
X138922200Y-54268571D02*
X138826961Y-54173333D01*
X138826961Y-54173333D02*
X138731723Y-54125714D01*
X138731723Y-54125714D02*
X138541247Y-54078095D01*
X138541247Y-54078095D02*
X138398390Y-54078095D01*
X138398390Y-54078095D02*
X138207914Y-54125714D01*
X138207914Y-54125714D02*
X138112676Y-54173333D01*
X138112676Y-54173333D02*
X138017438Y-54268571D01*
X138017438Y-54268571D02*
X137969819Y-54411428D01*
X137969819Y-54411428D02*
X137969819Y-54506666D01*
X137969819Y-54506666D02*
X138017438Y-54649523D01*
X138017438Y-54649523D02*
X138065057Y-54697142D01*
X138969819Y-55173333D02*
X138969819Y-55363809D01*
X138969819Y-55363809D02*
X138922200Y-55459047D01*
X138922200Y-55459047D02*
X138874580Y-55506666D01*
X138874580Y-55506666D02*
X138731723Y-55601904D01*
X138731723Y-55601904D02*
X138541247Y-55649523D01*
X138541247Y-55649523D02*
X138160295Y-55649523D01*
X138160295Y-55649523D02*
X138065057Y-55601904D01*
X138065057Y-55601904D02*
X138017438Y-55554285D01*
X138017438Y-55554285D02*
X137969819Y-55459047D01*
X137969819Y-55459047D02*
X137969819Y-55268571D01*
X137969819Y-55268571D02*
X138017438Y-55173333D01*
X138017438Y-55173333D02*
X138065057Y-55125714D01*
X138065057Y-55125714D02*
X138160295Y-55078095D01*
X138160295Y-55078095D02*
X138398390Y-55078095D01*
X138398390Y-55078095D02*
X138493628Y-55125714D01*
X138493628Y-55125714D02*
X138541247Y-55173333D01*
X138541247Y-55173333D02*
X138588866Y-55268571D01*
X138588866Y-55268571D02*
X138588866Y-55459047D01*
X138588866Y-55459047D02*
X138541247Y-55554285D01*
X138541247Y-55554285D02*
X138493628Y-55601904D01*
X138493628Y-55601904D02*
X138398390Y-55649523D01*
X138303152Y-56506666D02*
X138969819Y-56506666D01*
X137922200Y-56268571D02*
X138636485Y-56030476D01*
X138636485Y-56030476D02*
X138636485Y-56649523D01*
X118587080Y-57583433D02*
X117872795Y-57583433D01*
X117872795Y-57583433D02*
X117729938Y-57631052D01*
X117729938Y-57631052D02*
X117634700Y-57726290D01*
X117634700Y-57726290D02*
X117587080Y-57869147D01*
X117587080Y-57869147D02*
X117587080Y-57964385D01*
X118587080Y-57202480D02*
X118587080Y-56535814D01*
X118587080Y-56535814D02*
X117587080Y-56964385D01*
X126704580Y-54712141D02*
X126752200Y-54664522D01*
X126752200Y-54664522D02*
X126799819Y-54521665D01*
X126799819Y-54521665D02*
X126799819Y-54426427D01*
X126799819Y-54426427D02*
X126752200Y-54283570D01*
X126752200Y-54283570D02*
X126656961Y-54188332D01*
X126656961Y-54188332D02*
X126561723Y-54140713D01*
X126561723Y-54140713D02*
X126371247Y-54093094D01*
X126371247Y-54093094D02*
X126228390Y-54093094D01*
X126228390Y-54093094D02*
X126037914Y-54140713D01*
X126037914Y-54140713D02*
X125942676Y-54188332D01*
X125942676Y-54188332D02*
X125847438Y-54283570D01*
X125847438Y-54283570D02*
X125799819Y-54426427D01*
X125799819Y-54426427D02*
X125799819Y-54521665D01*
X125799819Y-54521665D02*
X125847438Y-54664522D01*
X125847438Y-54664522D02*
X125895057Y-54712141D01*
X126228390Y-55283570D02*
X126180771Y-55188332D01*
X126180771Y-55188332D02*
X126133152Y-55140713D01*
X126133152Y-55140713D02*
X126037914Y-55093094D01*
X126037914Y-55093094D02*
X125990295Y-55093094D01*
X125990295Y-55093094D02*
X125895057Y-55140713D01*
X125895057Y-55140713D02*
X125847438Y-55188332D01*
X125847438Y-55188332D02*
X125799819Y-55283570D01*
X125799819Y-55283570D02*
X125799819Y-55474046D01*
X125799819Y-55474046D02*
X125847438Y-55569284D01*
X125847438Y-55569284D02*
X125895057Y-55616903D01*
X125895057Y-55616903D02*
X125990295Y-55664522D01*
X125990295Y-55664522D02*
X126037914Y-55664522D01*
X126037914Y-55664522D02*
X126133152Y-55616903D01*
X126133152Y-55616903D02*
X126180771Y-55569284D01*
X126180771Y-55569284D02*
X126228390Y-55474046D01*
X126228390Y-55474046D02*
X126228390Y-55283570D01*
X126228390Y-55283570D02*
X126276009Y-55188332D01*
X126276009Y-55188332D02*
X126323628Y-55140713D01*
X126323628Y-55140713D02*
X126418866Y-55093094D01*
X126418866Y-55093094D02*
X126609342Y-55093094D01*
X126609342Y-55093094D02*
X126704580Y-55140713D01*
X126704580Y-55140713D02*
X126752200Y-55188332D01*
X126752200Y-55188332D02*
X126799819Y-55283570D01*
X126799819Y-55283570D02*
X126799819Y-55474046D01*
X126799819Y-55474046D02*
X126752200Y-55569284D01*
X126752200Y-55569284D02*
X126704580Y-55616903D01*
X126704580Y-55616903D02*
X126609342Y-55664522D01*
X126609342Y-55664522D02*
X126418866Y-55664522D01*
X126418866Y-55664522D02*
X126323628Y-55616903D01*
X126323628Y-55616903D02*
X126276009Y-55569284D01*
X126276009Y-55569284D02*
X126228390Y-55474046D01*
X126228390Y-56235951D02*
X126180771Y-56140713D01*
X126180771Y-56140713D02*
X126133152Y-56093094D01*
X126133152Y-56093094D02*
X126037914Y-56045475D01*
X126037914Y-56045475D02*
X125990295Y-56045475D01*
X125990295Y-56045475D02*
X125895057Y-56093094D01*
X125895057Y-56093094D02*
X125847438Y-56140713D01*
X125847438Y-56140713D02*
X125799819Y-56235951D01*
X125799819Y-56235951D02*
X125799819Y-56426427D01*
X125799819Y-56426427D02*
X125847438Y-56521665D01*
X125847438Y-56521665D02*
X125895057Y-56569284D01*
X125895057Y-56569284D02*
X125990295Y-56616903D01*
X125990295Y-56616903D02*
X126037914Y-56616903D01*
X126037914Y-56616903D02*
X126133152Y-56569284D01*
X126133152Y-56569284D02*
X126180771Y-56521665D01*
X126180771Y-56521665D02*
X126228390Y-56426427D01*
X126228390Y-56426427D02*
X126228390Y-56235951D01*
X126228390Y-56235951D02*
X126276009Y-56140713D01*
X126276009Y-56140713D02*
X126323628Y-56093094D01*
X126323628Y-56093094D02*
X126418866Y-56045475D01*
X126418866Y-56045475D02*
X126609342Y-56045475D01*
X126609342Y-56045475D02*
X126704580Y-56093094D01*
X126704580Y-56093094D02*
X126752200Y-56140713D01*
X126752200Y-56140713D02*
X126799819Y-56235951D01*
X126799819Y-56235951D02*
X126799819Y-56426427D01*
X126799819Y-56426427D02*
X126752200Y-56521665D01*
X126752200Y-56521665D02*
X126704580Y-56569284D01*
X126704580Y-56569284D02*
X126609342Y-56616903D01*
X126609342Y-56616903D02*
X126418866Y-56616903D01*
X126418866Y-56616903D02*
X126323628Y-56569284D01*
X126323628Y-56569284D02*
X126276009Y-56521665D01*
X126276009Y-56521665D02*
X126228390Y-56426427D01*
X123902856Y-66671580D02*
X123950475Y-66719200D01*
X123950475Y-66719200D02*
X124093332Y-66766819D01*
X124093332Y-66766819D02*
X124188570Y-66766819D01*
X124188570Y-66766819D02*
X124331427Y-66719200D01*
X124331427Y-66719200D02*
X124426665Y-66623961D01*
X124426665Y-66623961D02*
X124474284Y-66528723D01*
X124474284Y-66528723D02*
X124521903Y-66338247D01*
X124521903Y-66338247D02*
X124521903Y-66195390D01*
X124521903Y-66195390D02*
X124474284Y-66004914D01*
X124474284Y-66004914D02*
X124426665Y-65909676D01*
X124426665Y-65909676D02*
X124331427Y-65814438D01*
X124331427Y-65814438D02*
X124188570Y-65766819D01*
X124188570Y-65766819D02*
X124093332Y-65766819D01*
X124093332Y-65766819D02*
X123950475Y-65814438D01*
X123950475Y-65814438D02*
X123902856Y-65862057D01*
X123569522Y-65766819D02*
X122950475Y-65766819D01*
X122950475Y-65766819D02*
X123283808Y-66147771D01*
X123283808Y-66147771D02*
X123140951Y-66147771D01*
X123140951Y-66147771D02*
X123045713Y-66195390D01*
X123045713Y-66195390D02*
X122998094Y-66243009D01*
X122998094Y-66243009D02*
X122950475Y-66338247D01*
X122950475Y-66338247D02*
X122950475Y-66576342D01*
X122950475Y-66576342D02*
X122998094Y-66671580D01*
X122998094Y-66671580D02*
X123045713Y-66719200D01*
X123045713Y-66719200D02*
X123140951Y-66766819D01*
X123140951Y-66766819D02*
X123426665Y-66766819D01*
X123426665Y-66766819D02*
X123521903Y-66719200D01*
X123521903Y-66719200D02*
X123569522Y-66671580D01*
X122331427Y-65766819D02*
X122236189Y-65766819D01*
X122236189Y-65766819D02*
X122140951Y-65814438D01*
X122140951Y-65814438D02*
X122093332Y-65862057D01*
X122093332Y-65862057D02*
X122045713Y-65957295D01*
X122045713Y-65957295D02*
X121998094Y-66147771D01*
X121998094Y-66147771D02*
X121998094Y-66385866D01*
X121998094Y-66385866D02*
X122045713Y-66576342D01*
X122045713Y-66576342D02*
X122093332Y-66671580D01*
X122093332Y-66671580D02*
X122140951Y-66719200D01*
X122140951Y-66719200D02*
X122236189Y-66766819D01*
X122236189Y-66766819D02*
X122331427Y-66766819D01*
X122331427Y-66766819D02*
X122426665Y-66719200D01*
X122426665Y-66719200D02*
X122474284Y-66671580D01*
X122474284Y-66671580D02*
X122521903Y-66576342D01*
X122521903Y-66576342D02*
X122569522Y-66385866D01*
X122569522Y-66385866D02*
X122569522Y-66147771D01*
X122569522Y-66147771D02*
X122521903Y-65957295D01*
X122521903Y-65957295D02*
X122474284Y-65862057D01*
X122474284Y-65862057D02*
X122426665Y-65814438D01*
X122426665Y-65814438D02*
X122331427Y-65766819D01*
D11*
X128021428Y-78167190D02*
X128045237Y-78191000D01*
X128045237Y-78191000D02*
X128116666Y-78214809D01*
X128116666Y-78214809D02*
X128164285Y-78214809D01*
X128164285Y-78214809D02*
X128235713Y-78191000D01*
X128235713Y-78191000D02*
X128283332Y-78143380D01*
X128283332Y-78143380D02*
X128307142Y-78095761D01*
X128307142Y-78095761D02*
X128330951Y-78000523D01*
X128330951Y-78000523D02*
X128330951Y-77929095D01*
X128330951Y-77929095D02*
X128307142Y-77833857D01*
X128307142Y-77833857D02*
X128283332Y-77786238D01*
X128283332Y-77786238D02*
X128235713Y-77738619D01*
X128235713Y-77738619D02*
X128164285Y-77714809D01*
X128164285Y-77714809D02*
X128116666Y-77714809D01*
X128116666Y-77714809D02*
X128045237Y-77738619D01*
X128045237Y-77738619D02*
X128021428Y-77762428D01*
X127854761Y-77714809D02*
X127521428Y-77714809D01*
X127521428Y-77714809D02*
X127735713Y-78214809D01*
X127092857Y-77714809D02*
X127330952Y-77714809D01*
X127330952Y-77714809D02*
X127354761Y-77952904D01*
X127354761Y-77952904D02*
X127330952Y-77929095D01*
X127330952Y-77929095D02*
X127283333Y-77905285D01*
X127283333Y-77905285D02*
X127164285Y-77905285D01*
X127164285Y-77905285D02*
X127116666Y-77929095D01*
X127116666Y-77929095D02*
X127092857Y-77952904D01*
X127092857Y-77952904D02*
X127069047Y-78000523D01*
X127069047Y-78000523D02*
X127069047Y-78119571D01*
X127069047Y-78119571D02*
X127092857Y-78167190D01*
X127092857Y-78167190D02*
X127116666Y-78191000D01*
X127116666Y-78191000D02*
X127164285Y-78214809D01*
X127164285Y-78214809D02*
X127283333Y-78214809D01*
X127283333Y-78214809D02*
X127330952Y-78191000D01*
X127330952Y-78191000D02*
X127354761Y-78167190D01*
D10*
X138764819Y-84303333D02*
X138288628Y-83970000D01*
X138764819Y-83731905D02*
X137764819Y-83731905D01*
X137764819Y-83731905D02*
X137764819Y-84112857D01*
X137764819Y-84112857D02*
X137812438Y-84208095D01*
X137812438Y-84208095D02*
X137860057Y-84255714D01*
X137860057Y-84255714D02*
X137955295Y-84303333D01*
X137955295Y-84303333D02*
X138098152Y-84303333D01*
X138098152Y-84303333D02*
X138193390Y-84255714D01*
X138193390Y-84255714D02*
X138241009Y-84208095D01*
X138241009Y-84208095D02*
X138288628Y-84112857D01*
X138288628Y-84112857D02*
X138288628Y-83731905D01*
X137860057Y-84684286D02*
X137812438Y-84731905D01*
X137812438Y-84731905D02*
X137764819Y-84827143D01*
X137764819Y-84827143D02*
X137764819Y-85065238D01*
X137764819Y-85065238D02*
X137812438Y-85160476D01*
X137812438Y-85160476D02*
X137860057Y-85208095D01*
X137860057Y-85208095D02*
X137955295Y-85255714D01*
X137955295Y-85255714D02*
X138050533Y-85255714D01*
X138050533Y-85255714D02*
X138193390Y-85208095D01*
X138193390Y-85208095D02*
X138764819Y-84636667D01*
X138764819Y-84636667D02*
X138764819Y-85255714D01*
X129602857Y-77159580D02*
X129650476Y-77207200D01*
X129650476Y-77207200D02*
X129793333Y-77254819D01*
X129793333Y-77254819D02*
X129888571Y-77254819D01*
X129888571Y-77254819D02*
X130031428Y-77207200D01*
X130031428Y-77207200D02*
X130126666Y-77111961D01*
X130126666Y-77111961D02*
X130174285Y-77016723D01*
X130174285Y-77016723D02*
X130221904Y-76826247D01*
X130221904Y-76826247D02*
X130221904Y-76683390D01*
X130221904Y-76683390D02*
X130174285Y-76492914D01*
X130174285Y-76492914D02*
X130126666Y-76397676D01*
X130126666Y-76397676D02*
X130031428Y-76302438D01*
X130031428Y-76302438D02*
X129888571Y-76254819D01*
X129888571Y-76254819D02*
X129793333Y-76254819D01*
X129793333Y-76254819D02*
X129650476Y-76302438D01*
X129650476Y-76302438D02*
X129602857Y-76350057D01*
X129269523Y-76254819D02*
X128602857Y-76254819D01*
X128602857Y-76254819D02*
X129031428Y-77254819D01*
X127793333Y-76588152D02*
X127793333Y-77254819D01*
X128031428Y-76207200D02*
X128269523Y-76921485D01*
X128269523Y-76921485D02*
X127650476Y-76921485D01*
X148822857Y-116654580D02*
X148870476Y-116702200D01*
X148870476Y-116702200D02*
X149013333Y-116749819D01*
X149013333Y-116749819D02*
X149108571Y-116749819D01*
X149108571Y-116749819D02*
X149251428Y-116702200D01*
X149251428Y-116702200D02*
X149346666Y-116606961D01*
X149346666Y-116606961D02*
X149394285Y-116511723D01*
X149394285Y-116511723D02*
X149441904Y-116321247D01*
X149441904Y-116321247D02*
X149441904Y-116178390D01*
X149441904Y-116178390D02*
X149394285Y-115987914D01*
X149394285Y-115987914D02*
X149346666Y-115892676D01*
X149346666Y-115892676D02*
X149251428Y-115797438D01*
X149251428Y-115797438D02*
X149108571Y-115749819D01*
X149108571Y-115749819D02*
X149013333Y-115749819D01*
X149013333Y-115749819D02*
X148870476Y-115797438D01*
X148870476Y-115797438D02*
X148822857Y-115845057D01*
X147870476Y-116749819D02*
X148441904Y-116749819D01*
X148156190Y-116749819D02*
X148156190Y-115749819D01*
X148156190Y-115749819D02*
X148251428Y-115892676D01*
X148251428Y-115892676D02*
X148346666Y-115987914D01*
X148346666Y-115987914D02*
X148441904Y-116035533D01*
X147251428Y-115749819D02*
X147156190Y-115749819D01*
X147156190Y-115749819D02*
X147060952Y-115797438D01*
X147060952Y-115797438D02*
X147013333Y-115845057D01*
X147013333Y-115845057D02*
X146965714Y-115940295D01*
X146965714Y-115940295D02*
X146918095Y-116130771D01*
X146918095Y-116130771D02*
X146918095Y-116368866D01*
X146918095Y-116368866D02*
X146965714Y-116559342D01*
X146965714Y-116559342D02*
X147013333Y-116654580D01*
X147013333Y-116654580D02*
X147060952Y-116702200D01*
X147060952Y-116702200D02*
X147156190Y-116749819D01*
X147156190Y-116749819D02*
X147251428Y-116749819D01*
X147251428Y-116749819D02*
X147346666Y-116702200D01*
X147346666Y-116702200D02*
X147394285Y-116654580D01*
X147394285Y-116654580D02*
X147441904Y-116559342D01*
X147441904Y-116559342D02*
X147489523Y-116368866D01*
X147489523Y-116368866D02*
X147489523Y-116130771D01*
X147489523Y-116130771D02*
X147441904Y-115940295D01*
X147441904Y-115940295D02*
X147394285Y-115845057D01*
X147394285Y-115845057D02*
X147346666Y-115797438D01*
X147346666Y-115797438D02*
X147251428Y-115749819D01*
D11*
X127061428Y-80167190D02*
X127085237Y-80191000D01*
X127085237Y-80191000D02*
X127156666Y-80214809D01*
X127156666Y-80214809D02*
X127204285Y-80214809D01*
X127204285Y-80214809D02*
X127275713Y-80191000D01*
X127275713Y-80191000D02*
X127323332Y-80143380D01*
X127323332Y-80143380D02*
X127347142Y-80095761D01*
X127347142Y-80095761D02*
X127370951Y-80000523D01*
X127370951Y-80000523D02*
X127370951Y-79929095D01*
X127370951Y-79929095D02*
X127347142Y-79833857D01*
X127347142Y-79833857D02*
X127323332Y-79786238D01*
X127323332Y-79786238D02*
X127275713Y-79738619D01*
X127275713Y-79738619D02*
X127204285Y-79714809D01*
X127204285Y-79714809D02*
X127156666Y-79714809D01*
X127156666Y-79714809D02*
X127085237Y-79738619D01*
X127085237Y-79738619D02*
X127061428Y-79762428D01*
X126894761Y-79714809D02*
X126561428Y-79714809D01*
X126561428Y-79714809D02*
X126775713Y-80214809D01*
X126394761Y-79762428D02*
X126370952Y-79738619D01*
X126370952Y-79738619D02*
X126323333Y-79714809D01*
X126323333Y-79714809D02*
X126204285Y-79714809D01*
X126204285Y-79714809D02*
X126156666Y-79738619D01*
X126156666Y-79738619D02*
X126132857Y-79762428D01*
X126132857Y-79762428D02*
X126109047Y-79810047D01*
X126109047Y-79810047D02*
X126109047Y-79857666D01*
X126109047Y-79857666D02*
X126132857Y-79929095D01*
X126132857Y-79929095D02*
X126418571Y-80214809D01*
X126418571Y-80214809D02*
X126109047Y-80214809D01*
D10*
X146766666Y-118074580D02*
X146814285Y-118122200D01*
X146814285Y-118122200D02*
X146957142Y-118169819D01*
X146957142Y-118169819D02*
X147052380Y-118169819D01*
X147052380Y-118169819D02*
X147195237Y-118122200D01*
X147195237Y-118122200D02*
X147290475Y-118026961D01*
X147290475Y-118026961D02*
X147338094Y-117931723D01*
X147338094Y-117931723D02*
X147385713Y-117741247D01*
X147385713Y-117741247D02*
X147385713Y-117598390D01*
X147385713Y-117598390D02*
X147338094Y-117407914D01*
X147338094Y-117407914D02*
X147290475Y-117312676D01*
X147290475Y-117312676D02*
X147195237Y-117217438D01*
X147195237Y-117217438D02*
X147052380Y-117169819D01*
X147052380Y-117169819D02*
X146957142Y-117169819D01*
X146957142Y-117169819D02*
X146814285Y-117217438D01*
X146814285Y-117217438D02*
X146766666Y-117265057D01*
X146290475Y-118169819D02*
X146099999Y-118169819D01*
X146099999Y-118169819D02*
X146004761Y-118122200D01*
X146004761Y-118122200D02*
X145957142Y-118074580D01*
X145957142Y-118074580D02*
X145861904Y-117931723D01*
X145861904Y-117931723D02*
X145814285Y-117741247D01*
X145814285Y-117741247D02*
X145814285Y-117360295D01*
X145814285Y-117360295D02*
X145861904Y-117265057D01*
X145861904Y-117265057D02*
X145909523Y-117217438D01*
X145909523Y-117217438D02*
X146004761Y-117169819D01*
X146004761Y-117169819D02*
X146195237Y-117169819D01*
X146195237Y-117169819D02*
X146290475Y-117217438D01*
X146290475Y-117217438D02*
X146338094Y-117265057D01*
X146338094Y-117265057D02*
X146385713Y-117360295D01*
X146385713Y-117360295D02*
X146385713Y-117598390D01*
X146385713Y-117598390D02*
X146338094Y-117693628D01*
X146338094Y-117693628D02*
X146290475Y-117741247D01*
X146290475Y-117741247D02*
X146195237Y-117788866D01*
X146195237Y-117788866D02*
X146004761Y-117788866D01*
X146004761Y-117788866D02*
X145909523Y-117741247D01*
X145909523Y-117741247D02*
X145861904Y-117693628D01*
X145861904Y-117693628D02*
X145814285Y-117598390D01*
X145582857Y-42894580D02*
X145630476Y-42942200D01*
X145630476Y-42942200D02*
X145773333Y-42989819D01*
X145773333Y-42989819D02*
X145868571Y-42989819D01*
X145868571Y-42989819D02*
X146011428Y-42942200D01*
X146011428Y-42942200D02*
X146106666Y-42846961D01*
X146106666Y-42846961D02*
X146154285Y-42751723D01*
X146154285Y-42751723D02*
X146201904Y-42561247D01*
X146201904Y-42561247D02*
X146201904Y-42418390D01*
X146201904Y-42418390D02*
X146154285Y-42227914D01*
X146154285Y-42227914D02*
X146106666Y-42132676D01*
X146106666Y-42132676D02*
X146011428Y-42037438D01*
X146011428Y-42037438D02*
X145868571Y-41989819D01*
X145868571Y-41989819D02*
X145773333Y-41989819D01*
X145773333Y-41989819D02*
X145630476Y-42037438D01*
X145630476Y-42037438D02*
X145582857Y-42085057D01*
X144630476Y-42989819D02*
X145201904Y-42989819D01*
X144916190Y-42989819D02*
X144916190Y-41989819D01*
X144916190Y-41989819D02*
X145011428Y-42132676D01*
X145011428Y-42132676D02*
X145106666Y-42227914D01*
X145106666Y-42227914D02*
X145201904Y-42275533D01*
X144297142Y-41989819D02*
X143630476Y-41989819D01*
X143630476Y-41989819D02*
X144059047Y-42989819D01*
X126099580Y-81137142D02*
X126147200Y-81089523D01*
X126147200Y-81089523D02*
X126194819Y-80946666D01*
X126194819Y-80946666D02*
X126194819Y-80851428D01*
X126194819Y-80851428D02*
X126147200Y-80708571D01*
X126147200Y-80708571D02*
X126051961Y-80613333D01*
X126051961Y-80613333D02*
X125956723Y-80565714D01*
X125956723Y-80565714D02*
X125766247Y-80518095D01*
X125766247Y-80518095D02*
X125623390Y-80518095D01*
X125623390Y-80518095D02*
X125432914Y-80565714D01*
X125432914Y-80565714D02*
X125337676Y-80613333D01*
X125337676Y-80613333D02*
X125242438Y-80708571D01*
X125242438Y-80708571D02*
X125194819Y-80851428D01*
X125194819Y-80851428D02*
X125194819Y-80946666D01*
X125194819Y-80946666D02*
X125242438Y-81089523D01*
X125242438Y-81089523D02*
X125290057Y-81137142D01*
X125194819Y-81470476D02*
X125194819Y-82137142D01*
X125194819Y-82137142D02*
X126194819Y-81708571D01*
X125194819Y-82422857D02*
X125194819Y-83041904D01*
X125194819Y-83041904D02*
X125575771Y-82708571D01*
X125575771Y-82708571D02*
X125575771Y-82851428D01*
X125575771Y-82851428D02*
X125623390Y-82946666D01*
X125623390Y-82946666D02*
X125671009Y-82994285D01*
X125671009Y-82994285D02*
X125766247Y-83041904D01*
X125766247Y-83041904D02*
X126004342Y-83041904D01*
X126004342Y-83041904D02*
X126099580Y-82994285D01*
X126099580Y-82994285D02*
X126147200Y-82946666D01*
X126147200Y-82946666D02*
X126194819Y-82851428D01*
X126194819Y-82851428D02*
X126194819Y-82565714D01*
X126194819Y-82565714D02*
X126147200Y-82470476D01*
X126147200Y-82470476D02*
X126099580Y-82422857D01*
X147552858Y-45214580D02*
X147600477Y-45262200D01*
X147600477Y-45262200D02*
X147743334Y-45309819D01*
X147743334Y-45309819D02*
X147838572Y-45309819D01*
X147838572Y-45309819D02*
X147981429Y-45262200D01*
X147981429Y-45262200D02*
X148076667Y-45166961D01*
X148076667Y-45166961D02*
X148124286Y-45071723D01*
X148124286Y-45071723D02*
X148171905Y-44881247D01*
X148171905Y-44881247D02*
X148171905Y-44738390D01*
X148171905Y-44738390D02*
X148124286Y-44547914D01*
X148124286Y-44547914D02*
X148076667Y-44452676D01*
X148076667Y-44452676D02*
X147981429Y-44357438D01*
X147981429Y-44357438D02*
X147838572Y-44309819D01*
X147838572Y-44309819D02*
X147743334Y-44309819D01*
X147743334Y-44309819D02*
X147600477Y-44357438D01*
X147600477Y-44357438D02*
X147552858Y-44405057D01*
X146600477Y-45309819D02*
X147171905Y-45309819D01*
X146886191Y-45309819D02*
X146886191Y-44309819D01*
X146886191Y-44309819D02*
X146981429Y-44452676D01*
X146981429Y-44452676D02*
X147076667Y-44547914D01*
X147076667Y-44547914D02*
X147171905Y-44595533D01*
X145743334Y-44309819D02*
X145933810Y-44309819D01*
X145933810Y-44309819D02*
X146029048Y-44357438D01*
X146029048Y-44357438D02*
X146076667Y-44405057D01*
X146076667Y-44405057D02*
X146171905Y-44547914D01*
X146171905Y-44547914D02*
X146219524Y-44738390D01*
X146219524Y-44738390D02*
X146219524Y-45119342D01*
X146219524Y-45119342D02*
X146171905Y-45214580D01*
X146171905Y-45214580D02*
X146124286Y-45262200D01*
X146124286Y-45262200D02*
X146029048Y-45309819D01*
X146029048Y-45309819D02*
X145838572Y-45309819D01*
X145838572Y-45309819D02*
X145743334Y-45262200D01*
X145743334Y-45262200D02*
X145695715Y-45214580D01*
X145695715Y-45214580D02*
X145648096Y-45119342D01*
X145648096Y-45119342D02*
X145648096Y-44881247D01*
X145648096Y-44881247D02*
X145695715Y-44786009D01*
X145695715Y-44786009D02*
X145743334Y-44738390D01*
X145743334Y-44738390D02*
X145838572Y-44690771D01*
X145838572Y-44690771D02*
X146029048Y-44690771D01*
X146029048Y-44690771D02*
X146124286Y-44738390D01*
X146124286Y-44738390D02*
X146171905Y-44786009D01*
X146171905Y-44786009D02*
X146219524Y-44881247D01*
X121089580Y-54707142D02*
X121137200Y-54659523D01*
X121137200Y-54659523D02*
X121184819Y-54516666D01*
X121184819Y-54516666D02*
X121184819Y-54421428D01*
X121184819Y-54421428D02*
X121137200Y-54278571D01*
X121137200Y-54278571D02*
X121041961Y-54183333D01*
X121041961Y-54183333D02*
X120946723Y-54135714D01*
X120946723Y-54135714D02*
X120756247Y-54088095D01*
X120756247Y-54088095D02*
X120613390Y-54088095D01*
X120613390Y-54088095D02*
X120422914Y-54135714D01*
X120422914Y-54135714D02*
X120327676Y-54183333D01*
X120327676Y-54183333D02*
X120232438Y-54278571D01*
X120232438Y-54278571D02*
X120184819Y-54421428D01*
X120184819Y-54421428D02*
X120184819Y-54516666D01*
X120184819Y-54516666D02*
X120232438Y-54659523D01*
X120232438Y-54659523D02*
X120280057Y-54707142D01*
X121184819Y-55183333D02*
X121184819Y-55373809D01*
X121184819Y-55373809D02*
X121137200Y-55469047D01*
X121137200Y-55469047D02*
X121089580Y-55516666D01*
X121089580Y-55516666D02*
X120946723Y-55611904D01*
X120946723Y-55611904D02*
X120756247Y-55659523D01*
X120756247Y-55659523D02*
X120375295Y-55659523D01*
X120375295Y-55659523D02*
X120280057Y-55611904D01*
X120280057Y-55611904D02*
X120232438Y-55564285D01*
X120232438Y-55564285D02*
X120184819Y-55469047D01*
X120184819Y-55469047D02*
X120184819Y-55278571D01*
X120184819Y-55278571D02*
X120232438Y-55183333D01*
X120232438Y-55183333D02*
X120280057Y-55135714D01*
X120280057Y-55135714D02*
X120375295Y-55088095D01*
X120375295Y-55088095D02*
X120613390Y-55088095D01*
X120613390Y-55088095D02*
X120708628Y-55135714D01*
X120708628Y-55135714D02*
X120756247Y-55183333D01*
X120756247Y-55183333D02*
X120803866Y-55278571D01*
X120803866Y-55278571D02*
X120803866Y-55469047D01*
X120803866Y-55469047D02*
X120756247Y-55564285D01*
X120756247Y-55564285D02*
X120708628Y-55611904D01*
X120708628Y-55611904D02*
X120613390Y-55659523D01*
X120184819Y-56278571D02*
X120184819Y-56373809D01*
X120184819Y-56373809D02*
X120232438Y-56469047D01*
X120232438Y-56469047D02*
X120280057Y-56516666D01*
X120280057Y-56516666D02*
X120375295Y-56564285D01*
X120375295Y-56564285D02*
X120565771Y-56611904D01*
X120565771Y-56611904D02*
X120803866Y-56611904D01*
X120803866Y-56611904D02*
X120994342Y-56564285D01*
X120994342Y-56564285D02*
X121089580Y-56516666D01*
X121089580Y-56516666D02*
X121137200Y-56469047D01*
X121137200Y-56469047D02*
X121184819Y-56373809D01*
X121184819Y-56373809D02*
X121184819Y-56278571D01*
X121184819Y-56278571D02*
X121137200Y-56183333D01*
X121137200Y-56183333D02*
X121089580Y-56135714D01*
X121089580Y-56135714D02*
X120994342Y-56088095D01*
X120994342Y-56088095D02*
X120803866Y-56040476D01*
X120803866Y-56040476D02*
X120565771Y-56040476D01*
X120565771Y-56040476D02*
X120375295Y-56088095D01*
X120375295Y-56088095D02*
X120280057Y-56135714D01*
X120280057Y-56135714D02*
X120232438Y-56183333D01*
X120232438Y-56183333D02*
X120184819Y-56278571D01*
X110079580Y-82762142D02*
X110127200Y-82714523D01*
X110127200Y-82714523D02*
X110174819Y-82571666D01*
X110174819Y-82571666D02*
X110174819Y-82476428D01*
X110174819Y-82476428D02*
X110127200Y-82333571D01*
X110127200Y-82333571D02*
X110031961Y-82238333D01*
X110031961Y-82238333D02*
X109936723Y-82190714D01*
X109936723Y-82190714D02*
X109746247Y-82143095D01*
X109746247Y-82143095D02*
X109603390Y-82143095D01*
X109603390Y-82143095D02*
X109412914Y-82190714D01*
X109412914Y-82190714D02*
X109317676Y-82238333D01*
X109317676Y-82238333D02*
X109222438Y-82333571D01*
X109222438Y-82333571D02*
X109174819Y-82476428D01*
X109174819Y-82476428D02*
X109174819Y-82571666D01*
X109174819Y-82571666D02*
X109222438Y-82714523D01*
X109222438Y-82714523D02*
X109270057Y-82762142D01*
X109603390Y-83333571D02*
X109555771Y-83238333D01*
X109555771Y-83238333D02*
X109508152Y-83190714D01*
X109508152Y-83190714D02*
X109412914Y-83143095D01*
X109412914Y-83143095D02*
X109365295Y-83143095D01*
X109365295Y-83143095D02*
X109270057Y-83190714D01*
X109270057Y-83190714D02*
X109222438Y-83238333D01*
X109222438Y-83238333D02*
X109174819Y-83333571D01*
X109174819Y-83333571D02*
X109174819Y-83524047D01*
X109174819Y-83524047D02*
X109222438Y-83619285D01*
X109222438Y-83619285D02*
X109270057Y-83666904D01*
X109270057Y-83666904D02*
X109365295Y-83714523D01*
X109365295Y-83714523D02*
X109412914Y-83714523D01*
X109412914Y-83714523D02*
X109508152Y-83666904D01*
X109508152Y-83666904D02*
X109555771Y-83619285D01*
X109555771Y-83619285D02*
X109603390Y-83524047D01*
X109603390Y-83524047D02*
X109603390Y-83333571D01*
X109603390Y-83333571D02*
X109651009Y-83238333D01*
X109651009Y-83238333D02*
X109698628Y-83190714D01*
X109698628Y-83190714D02*
X109793866Y-83143095D01*
X109793866Y-83143095D02*
X109984342Y-83143095D01*
X109984342Y-83143095D02*
X110079580Y-83190714D01*
X110079580Y-83190714D02*
X110127200Y-83238333D01*
X110127200Y-83238333D02*
X110174819Y-83333571D01*
X110174819Y-83333571D02*
X110174819Y-83524047D01*
X110174819Y-83524047D02*
X110127200Y-83619285D01*
X110127200Y-83619285D02*
X110079580Y-83666904D01*
X110079580Y-83666904D02*
X109984342Y-83714523D01*
X109984342Y-83714523D02*
X109793866Y-83714523D01*
X109793866Y-83714523D02*
X109698628Y-83666904D01*
X109698628Y-83666904D02*
X109651009Y-83619285D01*
X109651009Y-83619285D02*
X109603390Y-83524047D01*
X109174819Y-84333571D02*
X109174819Y-84428809D01*
X109174819Y-84428809D02*
X109222438Y-84524047D01*
X109222438Y-84524047D02*
X109270057Y-84571666D01*
X109270057Y-84571666D02*
X109365295Y-84619285D01*
X109365295Y-84619285D02*
X109555771Y-84666904D01*
X109555771Y-84666904D02*
X109793866Y-84666904D01*
X109793866Y-84666904D02*
X109984342Y-84619285D01*
X109984342Y-84619285D02*
X110079580Y-84571666D01*
X110079580Y-84571666D02*
X110127200Y-84524047D01*
X110127200Y-84524047D02*
X110174819Y-84428809D01*
X110174819Y-84428809D02*
X110174819Y-84333571D01*
X110174819Y-84333571D02*
X110127200Y-84238333D01*
X110127200Y-84238333D02*
X110079580Y-84190714D01*
X110079580Y-84190714D02*
X109984342Y-84143095D01*
X109984342Y-84143095D02*
X109793866Y-84095476D01*
X109793866Y-84095476D02*
X109555771Y-84095476D01*
X109555771Y-84095476D02*
X109365295Y-84143095D01*
X109365295Y-84143095D02*
X109270057Y-84190714D01*
X109270057Y-84190714D02*
X109222438Y-84238333D01*
X109222438Y-84238333D02*
X109174819Y-84333571D01*
X137344579Y-54677142D02*
X137392199Y-54629523D01*
X137392199Y-54629523D02*
X137439818Y-54486666D01*
X137439818Y-54486666D02*
X137439818Y-54391428D01*
X137439818Y-54391428D02*
X137392199Y-54248571D01*
X137392199Y-54248571D02*
X137296960Y-54153333D01*
X137296960Y-54153333D02*
X137201722Y-54105714D01*
X137201722Y-54105714D02*
X137011246Y-54058095D01*
X137011246Y-54058095D02*
X136868389Y-54058095D01*
X136868389Y-54058095D02*
X136677913Y-54105714D01*
X136677913Y-54105714D02*
X136582675Y-54153333D01*
X136582675Y-54153333D02*
X136487437Y-54248571D01*
X136487437Y-54248571D02*
X136439818Y-54391428D01*
X136439818Y-54391428D02*
X136439818Y-54486666D01*
X136439818Y-54486666D02*
X136487437Y-54629523D01*
X136487437Y-54629523D02*
X136535056Y-54677142D01*
X137439818Y-55153333D02*
X137439818Y-55343809D01*
X137439818Y-55343809D02*
X137392199Y-55439047D01*
X137392199Y-55439047D02*
X137344579Y-55486666D01*
X137344579Y-55486666D02*
X137201722Y-55581904D01*
X137201722Y-55581904D02*
X137011246Y-55629523D01*
X137011246Y-55629523D02*
X136630294Y-55629523D01*
X136630294Y-55629523D02*
X136535056Y-55581904D01*
X136535056Y-55581904D02*
X136487437Y-55534285D01*
X136487437Y-55534285D02*
X136439818Y-55439047D01*
X136439818Y-55439047D02*
X136439818Y-55248571D01*
X136439818Y-55248571D02*
X136487437Y-55153333D01*
X136487437Y-55153333D02*
X136535056Y-55105714D01*
X136535056Y-55105714D02*
X136630294Y-55058095D01*
X136630294Y-55058095D02*
X136868389Y-55058095D01*
X136868389Y-55058095D02*
X136963627Y-55105714D01*
X136963627Y-55105714D02*
X137011246Y-55153333D01*
X137011246Y-55153333D02*
X137058865Y-55248571D01*
X137058865Y-55248571D02*
X137058865Y-55439047D01*
X137058865Y-55439047D02*
X137011246Y-55534285D01*
X137011246Y-55534285D02*
X136963627Y-55581904D01*
X136963627Y-55581904D02*
X136868389Y-55629523D01*
X136439818Y-56534285D02*
X136439818Y-56058095D01*
X136439818Y-56058095D02*
X136916008Y-56010476D01*
X136916008Y-56010476D02*
X136868389Y-56058095D01*
X136868389Y-56058095D02*
X136820770Y-56153333D01*
X136820770Y-56153333D02*
X136820770Y-56391428D01*
X136820770Y-56391428D02*
X136868389Y-56486666D01*
X136868389Y-56486666D02*
X136916008Y-56534285D01*
X136916008Y-56534285D02*
X137011246Y-56581904D01*
X137011246Y-56581904D02*
X137249341Y-56581904D01*
X137249341Y-56581904D02*
X137344579Y-56534285D01*
X137344579Y-56534285D02*
X137392199Y-56486666D01*
X137392199Y-56486666D02*
X137439818Y-56391428D01*
X137439818Y-56391428D02*
X137439818Y-56153333D01*
X137439818Y-56153333D02*
X137392199Y-56058095D01*
X137392199Y-56058095D02*
X137344579Y-56010476D01*
X121915180Y-94591904D02*
X121105657Y-94591904D01*
X121105657Y-94591904D02*
X121010419Y-94544285D01*
X121010419Y-94544285D02*
X120962800Y-94496666D01*
X120962800Y-94496666D02*
X120915180Y-94401428D01*
X120915180Y-94401428D02*
X120915180Y-94210952D01*
X120915180Y-94210952D02*
X120962800Y-94115714D01*
X120962800Y-94115714D02*
X121010419Y-94068095D01*
X121010419Y-94068095D02*
X121105657Y-94020476D01*
X121105657Y-94020476D02*
X121915180Y-94020476D01*
X121819942Y-93591904D02*
X121867561Y-93544285D01*
X121867561Y-93544285D02*
X121915180Y-93449047D01*
X121915180Y-93449047D02*
X121915180Y-93210952D01*
X121915180Y-93210952D02*
X121867561Y-93115714D01*
X121867561Y-93115714D02*
X121819942Y-93068095D01*
X121819942Y-93068095D02*
X121724704Y-93020476D01*
X121724704Y-93020476D02*
X121629466Y-93020476D01*
X121629466Y-93020476D02*
X121486609Y-93068095D01*
X121486609Y-93068095D02*
X120915180Y-93639523D01*
X120915180Y-93639523D02*
X120915180Y-93020476D01*
X123364180Y-93041998D02*
X123126085Y-93041998D01*
X123221323Y-93280093D02*
X123126085Y-93041998D01*
X123126085Y-93041998D02*
X123221323Y-92803903D01*
X122935609Y-93184855D02*
X123126085Y-93041998D01*
X123126085Y-93041998D02*
X122935609Y-92899141D01*
X122273819Y-93041999D02*
X122511914Y-93041999D01*
X122416676Y-92803904D02*
X122511914Y-93041999D01*
X122511914Y-93041999D02*
X122416676Y-93280094D01*
X122702390Y-92899142D02*
X122511914Y-93041999D01*
X122511914Y-93041999D02*
X122702390Y-93184856D01*
X134474819Y-84313333D02*
X133998628Y-83980000D01*
X134474819Y-83741905D02*
X133474819Y-83741905D01*
X133474819Y-83741905D02*
X133474819Y-84122857D01*
X133474819Y-84122857D02*
X133522438Y-84218095D01*
X133522438Y-84218095D02*
X133570057Y-84265714D01*
X133570057Y-84265714D02*
X133665295Y-84313333D01*
X133665295Y-84313333D02*
X133808152Y-84313333D01*
X133808152Y-84313333D02*
X133903390Y-84265714D01*
X133903390Y-84265714D02*
X133951009Y-84218095D01*
X133951009Y-84218095D02*
X133998628Y-84122857D01*
X133998628Y-84122857D02*
X133998628Y-83741905D01*
X134474819Y-85265714D02*
X134474819Y-84694286D01*
X134474819Y-84980000D02*
X133474819Y-84980000D01*
X133474819Y-84980000D02*
X133617676Y-84884762D01*
X133617676Y-84884762D02*
X133712914Y-84789524D01*
X133712914Y-84789524D02*
X133760533Y-84694286D01*
X122546141Y-62801580D02*
X122593760Y-62849200D01*
X122593760Y-62849200D02*
X122736617Y-62896819D01*
X122736617Y-62896819D02*
X122831855Y-62896819D01*
X122831855Y-62896819D02*
X122974712Y-62849200D01*
X122974712Y-62849200D02*
X123069950Y-62753961D01*
X123069950Y-62753961D02*
X123117569Y-62658723D01*
X123117569Y-62658723D02*
X123165188Y-62468247D01*
X123165188Y-62468247D02*
X123165188Y-62325390D01*
X123165188Y-62325390D02*
X123117569Y-62134914D01*
X123117569Y-62134914D02*
X123069950Y-62039676D01*
X123069950Y-62039676D02*
X122974712Y-61944438D01*
X122974712Y-61944438D02*
X122831855Y-61896819D01*
X122831855Y-61896819D02*
X122736617Y-61896819D01*
X122736617Y-61896819D02*
X122593760Y-61944438D01*
X122593760Y-61944438D02*
X122546141Y-61992057D01*
X122165188Y-61992057D02*
X122117569Y-61944438D01*
X122117569Y-61944438D02*
X122022331Y-61896819D01*
X122022331Y-61896819D02*
X121784236Y-61896819D01*
X121784236Y-61896819D02*
X121688998Y-61944438D01*
X121688998Y-61944438D02*
X121641379Y-61992057D01*
X121641379Y-61992057D02*
X121593760Y-62087295D01*
X121593760Y-62087295D02*
X121593760Y-62182533D01*
X121593760Y-62182533D02*
X121641379Y-62325390D01*
X121641379Y-62325390D02*
X122212807Y-62896819D01*
X122212807Y-62896819D02*
X121593760Y-62896819D01*
X121022331Y-62325390D02*
X121117569Y-62277771D01*
X121117569Y-62277771D02*
X121165188Y-62230152D01*
X121165188Y-62230152D02*
X121212807Y-62134914D01*
X121212807Y-62134914D02*
X121212807Y-62087295D01*
X121212807Y-62087295D02*
X121165188Y-61992057D01*
X121165188Y-61992057D02*
X121117569Y-61944438D01*
X121117569Y-61944438D02*
X121022331Y-61896819D01*
X121022331Y-61896819D02*
X120831855Y-61896819D01*
X120831855Y-61896819D02*
X120736617Y-61944438D01*
X120736617Y-61944438D02*
X120688998Y-61992057D01*
X120688998Y-61992057D02*
X120641379Y-62087295D01*
X120641379Y-62087295D02*
X120641379Y-62134914D01*
X120641379Y-62134914D02*
X120688998Y-62230152D01*
X120688998Y-62230152D02*
X120736617Y-62277771D01*
X120736617Y-62277771D02*
X120831855Y-62325390D01*
X120831855Y-62325390D02*
X121022331Y-62325390D01*
X121022331Y-62325390D02*
X121117569Y-62373009D01*
X121117569Y-62373009D02*
X121165188Y-62420628D01*
X121165188Y-62420628D02*
X121212807Y-62515866D01*
X121212807Y-62515866D02*
X121212807Y-62706342D01*
X121212807Y-62706342D02*
X121165188Y-62801580D01*
X121165188Y-62801580D02*
X121117569Y-62849200D01*
X121117569Y-62849200D02*
X121022331Y-62896819D01*
X121022331Y-62896819D02*
X120831855Y-62896819D01*
X120831855Y-62896819D02*
X120736617Y-62849200D01*
X120736617Y-62849200D02*
X120688998Y-62801580D01*
X120688998Y-62801580D02*
X120641379Y-62706342D01*
X120641379Y-62706342D02*
X120641379Y-62515866D01*
X120641379Y-62515866D02*
X120688998Y-62420628D01*
X120688998Y-62420628D02*
X120736617Y-62373009D01*
X120736617Y-62373009D02*
X120831855Y-62325390D01*
X139146666Y-81334819D02*
X139479999Y-80858628D01*
X139718094Y-81334819D02*
X139718094Y-80334819D01*
X139718094Y-80334819D02*
X139337142Y-80334819D01*
X139337142Y-80334819D02*
X139241904Y-80382438D01*
X139241904Y-80382438D02*
X139194285Y-80430057D01*
X139194285Y-80430057D02*
X139146666Y-80525295D01*
X139146666Y-80525295D02*
X139146666Y-80668152D01*
X139146666Y-80668152D02*
X139194285Y-80763390D01*
X139194285Y-80763390D02*
X139241904Y-80811009D01*
X139241904Y-80811009D02*
X139337142Y-80858628D01*
X139337142Y-80858628D02*
X139718094Y-80858628D01*
X138575237Y-80763390D02*
X138670475Y-80715771D01*
X138670475Y-80715771D02*
X138718094Y-80668152D01*
X138718094Y-80668152D02*
X138765713Y-80572914D01*
X138765713Y-80572914D02*
X138765713Y-80525295D01*
X138765713Y-80525295D02*
X138718094Y-80430057D01*
X138718094Y-80430057D02*
X138670475Y-80382438D01*
X138670475Y-80382438D02*
X138575237Y-80334819D01*
X138575237Y-80334819D02*
X138384761Y-80334819D01*
X138384761Y-80334819D02*
X138289523Y-80382438D01*
X138289523Y-80382438D02*
X138241904Y-80430057D01*
X138241904Y-80430057D02*
X138194285Y-80525295D01*
X138194285Y-80525295D02*
X138194285Y-80572914D01*
X138194285Y-80572914D02*
X138241904Y-80668152D01*
X138241904Y-80668152D02*
X138289523Y-80715771D01*
X138289523Y-80715771D02*
X138384761Y-80763390D01*
X138384761Y-80763390D02*
X138575237Y-80763390D01*
X138575237Y-80763390D02*
X138670475Y-80811009D01*
X138670475Y-80811009D02*
X138718094Y-80858628D01*
X138718094Y-80858628D02*
X138765713Y-80953866D01*
X138765713Y-80953866D02*
X138765713Y-81144342D01*
X138765713Y-81144342D02*
X138718094Y-81239580D01*
X138718094Y-81239580D02*
X138670475Y-81287200D01*
X138670475Y-81287200D02*
X138575237Y-81334819D01*
X138575237Y-81334819D02*
X138384761Y-81334819D01*
X138384761Y-81334819D02*
X138289523Y-81287200D01*
X138289523Y-81287200D02*
X138241904Y-81239580D01*
X138241904Y-81239580D02*
X138194285Y-81144342D01*
X138194285Y-81144342D02*
X138194285Y-80953866D01*
X138194285Y-80953866D02*
X138241904Y-80858628D01*
X138241904Y-80858628D02*
X138289523Y-80811009D01*
X138289523Y-80811009D02*
X138384761Y-80763390D01*
D11*
X123737190Y-77378571D02*
X123761000Y-77354762D01*
X123761000Y-77354762D02*
X123784809Y-77283333D01*
X123784809Y-77283333D02*
X123784809Y-77235714D01*
X123784809Y-77235714D02*
X123761000Y-77164286D01*
X123761000Y-77164286D02*
X123713380Y-77116667D01*
X123713380Y-77116667D02*
X123665761Y-77092857D01*
X123665761Y-77092857D02*
X123570523Y-77069048D01*
X123570523Y-77069048D02*
X123499095Y-77069048D01*
X123499095Y-77069048D02*
X123403857Y-77092857D01*
X123403857Y-77092857D02*
X123356238Y-77116667D01*
X123356238Y-77116667D02*
X123308619Y-77164286D01*
X123308619Y-77164286D02*
X123284809Y-77235714D01*
X123284809Y-77235714D02*
X123284809Y-77283333D01*
X123284809Y-77283333D02*
X123308619Y-77354762D01*
X123308619Y-77354762D02*
X123332428Y-77378571D01*
X123284809Y-77830952D02*
X123284809Y-77592857D01*
X123284809Y-77592857D02*
X123522904Y-77569048D01*
X123522904Y-77569048D02*
X123499095Y-77592857D01*
X123499095Y-77592857D02*
X123475285Y-77640476D01*
X123475285Y-77640476D02*
X123475285Y-77759524D01*
X123475285Y-77759524D02*
X123499095Y-77807143D01*
X123499095Y-77807143D02*
X123522904Y-77830952D01*
X123522904Y-77830952D02*
X123570523Y-77854762D01*
X123570523Y-77854762D02*
X123689571Y-77854762D01*
X123689571Y-77854762D02*
X123737190Y-77830952D01*
X123737190Y-77830952D02*
X123761000Y-77807143D01*
X123761000Y-77807143D02*
X123784809Y-77759524D01*
X123784809Y-77759524D02*
X123784809Y-77640476D01*
X123784809Y-77640476D02*
X123761000Y-77592857D01*
X123761000Y-77592857D02*
X123737190Y-77569048D01*
X123784809Y-78092857D02*
X123784809Y-78188095D01*
X123784809Y-78188095D02*
X123761000Y-78235714D01*
X123761000Y-78235714D02*
X123737190Y-78259523D01*
X123737190Y-78259523D02*
X123665761Y-78307142D01*
X123665761Y-78307142D02*
X123570523Y-78330952D01*
X123570523Y-78330952D02*
X123380047Y-78330952D01*
X123380047Y-78330952D02*
X123332428Y-78307142D01*
X123332428Y-78307142D02*
X123308619Y-78283333D01*
X123308619Y-78283333D02*
X123284809Y-78235714D01*
X123284809Y-78235714D02*
X123284809Y-78140476D01*
X123284809Y-78140476D02*
X123308619Y-78092857D01*
X123308619Y-78092857D02*
X123332428Y-78069047D01*
X123332428Y-78069047D02*
X123380047Y-78045238D01*
X123380047Y-78045238D02*
X123499095Y-78045238D01*
X123499095Y-78045238D02*
X123546714Y-78069047D01*
X123546714Y-78069047D02*
X123570523Y-78092857D01*
X123570523Y-78092857D02*
X123594333Y-78140476D01*
X123594333Y-78140476D02*
X123594333Y-78235714D01*
X123594333Y-78235714D02*
X123570523Y-78283333D01*
X123570523Y-78283333D02*
X123546714Y-78307142D01*
X123546714Y-78307142D02*
X123499095Y-78330952D01*
D10*
X116039580Y-74787142D02*
X116087200Y-74739523D01*
X116087200Y-74739523D02*
X116134819Y-74596666D01*
X116134819Y-74596666D02*
X116134819Y-74501428D01*
X116134819Y-74501428D02*
X116087200Y-74358571D01*
X116087200Y-74358571D02*
X115991961Y-74263333D01*
X115991961Y-74263333D02*
X115896723Y-74215714D01*
X115896723Y-74215714D02*
X115706247Y-74168095D01*
X115706247Y-74168095D02*
X115563390Y-74168095D01*
X115563390Y-74168095D02*
X115372914Y-74215714D01*
X115372914Y-74215714D02*
X115277676Y-74263333D01*
X115277676Y-74263333D02*
X115182438Y-74358571D01*
X115182438Y-74358571D02*
X115134819Y-74501428D01*
X115134819Y-74501428D02*
X115134819Y-74596666D01*
X115134819Y-74596666D02*
X115182438Y-74739523D01*
X115182438Y-74739523D02*
X115230057Y-74787142D01*
X115134819Y-75644285D02*
X115134819Y-75453809D01*
X115134819Y-75453809D02*
X115182438Y-75358571D01*
X115182438Y-75358571D02*
X115230057Y-75310952D01*
X115230057Y-75310952D02*
X115372914Y-75215714D01*
X115372914Y-75215714D02*
X115563390Y-75168095D01*
X115563390Y-75168095D02*
X115944342Y-75168095D01*
X115944342Y-75168095D02*
X116039580Y-75215714D01*
X116039580Y-75215714D02*
X116087200Y-75263333D01*
X116087200Y-75263333D02*
X116134819Y-75358571D01*
X116134819Y-75358571D02*
X116134819Y-75549047D01*
X116134819Y-75549047D02*
X116087200Y-75644285D01*
X116087200Y-75644285D02*
X116039580Y-75691904D01*
X116039580Y-75691904D02*
X115944342Y-75739523D01*
X115944342Y-75739523D02*
X115706247Y-75739523D01*
X115706247Y-75739523D02*
X115611009Y-75691904D01*
X115611009Y-75691904D02*
X115563390Y-75644285D01*
X115563390Y-75644285D02*
X115515771Y-75549047D01*
X115515771Y-75549047D02*
X115515771Y-75358571D01*
X115515771Y-75358571D02*
X115563390Y-75263333D01*
X115563390Y-75263333D02*
X115611009Y-75215714D01*
X115611009Y-75215714D02*
X115706247Y-75168095D01*
X115134819Y-76072857D02*
X115134819Y-76691904D01*
X115134819Y-76691904D02*
X115515771Y-76358571D01*
X115515771Y-76358571D02*
X115515771Y-76501428D01*
X115515771Y-76501428D02*
X115563390Y-76596666D01*
X115563390Y-76596666D02*
X115611009Y-76644285D01*
X115611009Y-76644285D02*
X115706247Y-76691904D01*
X115706247Y-76691904D02*
X115944342Y-76691904D01*
X115944342Y-76691904D02*
X116039580Y-76644285D01*
X116039580Y-76644285D02*
X116087200Y-76596666D01*
X116087200Y-76596666D02*
X116134819Y-76501428D01*
X116134819Y-76501428D02*
X116134819Y-76215714D01*
X116134819Y-76215714D02*
X116087200Y-76120476D01*
X116087200Y-76120476D02*
X116039580Y-76072857D01*
X123032857Y-68149580D02*
X123080476Y-68197200D01*
X123080476Y-68197200D02*
X123223333Y-68244819D01*
X123223333Y-68244819D02*
X123318571Y-68244819D01*
X123318571Y-68244819D02*
X123461428Y-68197200D01*
X123461428Y-68197200D02*
X123556666Y-68101961D01*
X123556666Y-68101961D02*
X123604285Y-68006723D01*
X123604285Y-68006723D02*
X123651904Y-67816247D01*
X123651904Y-67816247D02*
X123651904Y-67673390D01*
X123651904Y-67673390D02*
X123604285Y-67482914D01*
X123604285Y-67482914D02*
X123556666Y-67387676D01*
X123556666Y-67387676D02*
X123461428Y-67292438D01*
X123461428Y-67292438D02*
X123318571Y-67244819D01*
X123318571Y-67244819D02*
X123223333Y-67244819D01*
X123223333Y-67244819D02*
X123080476Y-67292438D01*
X123080476Y-67292438D02*
X123032857Y-67340057D01*
X122175714Y-67244819D02*
X122366190Y-67244819D01*
X122366190Y-67244819D02*
X122461428Y-67292438D01*
X122461428Y-67292438D02*
X122509047Y-67340057D01*
X122509047Y-67340057D02*
X122604285Y-67482914D01*
X122604285Y-67482914D02*
X122651904Y-67673390D01*
X122651904Y-67673390D02*
X122651904Y-68054342D01*
X122651904Y-68054342D02*
X122604285Y-68149580D01*
X122604285Y-68149580D02*
X122556666Y-68197200D01*
X122556666Y-68197200D02*
X122461428Y-68244819D01*
X122461428Y-68244819D02*
X122270952Y-68244819D01*
X122270952Y-68244819D02*
X122175714Y-68197200D01*
X122175714Y-68197200D02*
X122128095Y-68149580D01*
X122128095Y-68149580D02*
X122080476Y-68054342D01*
X122080476Y-68054342D02*
X122080476Y-67816247D01*
X122080476Y-67816247D02*
X122128095Y-67721009D01*
X122128095Y-67721009D02*
X122175714Y-67673390D01*
X122175714Y-67673390D02*
X122270952Y-67625771D01*
X122270952Y-67625771D02*
X122461428Y-67625771D01*
X122461428Y-67625771D02*
X122556666Y-67673390D01*
X122556666Y-67673390D02*
X122604285Y-67721009D01*
X122604285Y-67721009D02*
X122651904Y-67816247D01*
X121223333Y-67244819D02*
X121413809Y-67244819D01*
X121413809Y-67244819D02*
X121509047Y-67292438D01*
X121509047Y-67292438D02*
X121556666Y-67340057D01*
X121556666Y-67340057D02*
X121651904Y-67482914D01*
X121651904Y-67482914D02*
X121699523Y-67673390D01*
X121699523Y-67673390D02*
X121699523Y-68054342D01*
X121699523Y-68054342D02*
X121651904Y-68149580D01*
X121651904Y-68149580D02*
X121604285Y-68197200D01*
X121604285Y-68197200D02*
X121509047Y-68244819D01*
X121509047Y-68244819D02*
X121318571Y-68244819D01*
X121318571Y-68244819D02*
X121223333Y-68197200D01*
X121223333Y-68197200D02*
X121175714Y-68149580D01*
X121175714Y-68149580D02*
X121128095Y-68054342D01*
X121128095Y-68054342D02*
X121128095Y-67816247D01*
X121128095Y-67816247D02*
X121175714Y-67721009D01*
X121175714Y-67721009D02*
X121223333Y-67673390D01*
X121223333Y-67673390D02*
X121318571Y-67625771D01*
X121318571Y-67625771D02*
X121509047Y-67625771D01*
X121509047Y-67625771D02*
X121604285Y-67673390D01*
X121604285Y-67673390D02*
X121651904Y-67721009D01*
X121651904Y-67721009D02*
X121699523Y-67816247D01*
X129949619Y-55369676D02*
X129949619Y-55887771D01*
X129949619Y-55887771D02*
X129919142Y-55948723D01*
X129919142Y-55948723D02*
X129888666Y-55979200D01*
X129888666Y-55979200D02*
X129827714Y-56009676D01*
X129827714Y-56009676D02*
X129705809Y-56009676D01*
X129705809Y-56009676D02*
X129644857Y-55979200D01*
X129644857Y-55979200D02*
X129614380Y-55948723D01*
X129614380Y-55948723D02*
X129583904Y-55887771D01*
X129583904Y-55887771D02*
X129583904Y-55369676D01*
X128943904Y-56009676D02*
X129309619Y-56009676D01*
X129126762Y-56009676D02*
X129126762Y-55369676D01*
X129126762Y-55369676D02*
X129187714Y-55461104D01*
X129187714Y-55461104D02*
X129248666Y-55522057D01*
X129248666Y-55522057D02*
X129309619Y-55552533D01*
X105782295Y-84819524D02*
X106429914Y-84819524D01*
X106429914Y-84819524D02*
X106506104Y-84857619D01*
X106506104Y-84857619D02*
X106544200Y-84895714D01*
X106544200Y-84895714D02*
X106582295Y-84971905D01*
X106582295Y-84971905D02*
X106582295Y-85124286D01*
X106582295Y-85124286D02*
X106544200Y-85200476D01*
X106544200Y-85200476D02*
X106506104Y-85238571D01*
X106506104Y-85238571D02*
X106429914Y-85276667D01*
X106429914Y-85276667D02*
X105782295Y-85276667D01*
X106582295Y-86076666D02*
X106582295Y-85619523D01*
X106582295Y-85848095D02*
X105782295Y-85848095D01*
X105782295Y-85848095D02*
X105896580Y-85771904D01*
X105896580Y-85771904D02*
X105972771Y-85695714D01*
X105972771Y-85695714D02*
X106010866Y-85619523D01*
X105858485Y-86381428D02*
X105820390Y-86419524D01*
X105820390Y-86419524D02*
X105782295Y-86495714D01*
X105782295Y-86495714D02*
X105782295Y-86686190D01*
X105782295Y-86686190D02*
X105820390Y-86762381D01*
X105820390Y-86762381D02*
X105858485Y-86800476D01*
X105858485Y-86800476D02*
X105934676Y-86838571D01*
X105934676Y-86838571D02*
X106010866Y-86838571D01*
X106010866Y-86838571D02*
X106125152Y-86800476D01*
X106125152Y-86800476D02*
X106582295Y-86343333D01*
X106582295Y-86343333D02*
X106582295Y-86838571D01*
X133734819Y-49927142D02*
X133258628Y-49593809D01*
X133734819Y-49355714D02*
X132734819Y-49355714D01*
X132734819Y-49355714D02*
X132734819Y-49736666D01*
X132734819Y-49736666D02*
X132782438Y-49831904D01*
X132782438Y-49831904D02*
X132830057Y-49879523D01*
X132830057Y-49879523D02*
X132925295Y-49927142D01*
X132925295Y-49927142D02*
X133068152Y-49927142D01*
X133068152Y-49927142D02*
X133163390Y-49879523D01*
X133163390Y-49879523D02*
X133211009Y-49831904D01*
X133211009Y-49831904D02*
X133258628Y-49736666D01*
X133258628Y-49736666D02*
X133258628Y-49355714D01*
X132734819Y-50260476D02*
X132734819Y-50879523D01*
X132734819Y-50879523D02*
X133115771Y-50546190D01*
X133115771Y-50546190D02*
X133115771Y-50689047D01*
X133115771Y-50689047D02*
X133163390Y-50784285D01*
X133163390Y-50784285D02*
X133211009Y-50831904D01*
X133211009Y-50831904D02*
X133306247Y-50879523D01*
X133306247Y-50879523D02*
X133544342Y-50879523D01*
X133544342Y-50879523D02*
X133639580Y-50831904D01*
X133639580Y-50831904D02*
X133687200Y-50784285D01*
X133687200Y-50784285D02*
X133734819Y-50689047D01*
X133734819Y-50689047D02*
X133734819Y-50403333D01*
X133734819Y-50403333D02*
X133687200Y-50308095D01*
X133687200Y-50308095D02*
X133639580Y-50260476D01*
X132830057Y-51260476D02*
X132782438Y-51308095D01*
X132782438Y-51308095D02*
X132734819Y-51403333D01*
X132734819Y-51403333D02*
X132734819Y-51641428D01*
X132734819Y-51641428D02*
X132782438Y-51736666D01*
X132782438Y-51736666D02*
X132830057Y-51784285D01*
X132830057Y-51784285D02*
X132925295Y-51831904D01*
X132925295Y-51831904D02*
X133020533Y-51831904D01*
X133020533Y-51831904D02*
X133163390Y-51784285D01*
X133163390Y-51784285D02*
X133734819Y-51212857D01*
X133734819Y-51212857D02*
X133734819Y-51831904D01*
X122632856Y-64951580D02*
X122680475Y-64999200D01*
X122680475Y-64999200D02*
X122823332Y-65046819D01*
X122823332Y-65046819D02*
X122918570Y-65046819D01*
X122918570Y-65046819D02*
X123061427Y-64999200D01*
X123061427Y-64999200D02*
X123156665Y-64903961D01*
X123156665Y-64903961D02*
X123204284Y-64808723D01*
X123204284Y-64808723D02*
X123251903Y-64618247D01*
X123251903Y-64618247D02*
X123251903Y-64475390D01*
X123251903Y-64475390D02*
X123204284Y-64284914D01*
X123204284Y-64284914D02*
X123156665Y-64189676D01*
X123156665Y-64189676D02*
X123061427Y-64094438D01*
X123061427Y-64094438D02*
X122918570Y-64046819D01*
X122918570Y-64046819D02*
X122823332Y-64046819D01*
X122823332Y-64046819D02*
X122680475Y-64094438D01*
X122680475Y-64094438D02*
X122632856Y-64142057D01*
X122251903Y-64142057D02*
X122204284Y-64094438D01*
X122204284Y-64094438D02*
X122109046Y-64046819D01*
X122109046Y-64046819D02*
X121870951Y-64046819D01*
X121870951Y-64046819D02*
X121775713Y-64094438D01*
X121775713Y-64094438D02*
X121728094Y-64142057D01*
X121728094Y-64142057D02*
X121680475Y-64237295D01*
X121680475Y-64237295D02*
X121680475Y-64332533D01*
X121680475Y-64332533D02*
X121728094Y-64475390D01*
X121728094Y-64475390D02*
X122299522Y-65046819D01*
X122299522Y-65046819D02*
X121680475Y-65046819D01*
X121347141Y-64046819D02*
X120680475Y-64046819D01*
X120680475Y-64046819D02*
X121109046Y-65046819D01*
X125414578Y-54692142D02*
X125462198Y-54644523D01*
X125462198Y-54644523D02*
X125509817Y-54501666D01*
X125509817Y-54501666D02*
X125509817Y-54406428D01*
X125509817Y-54406428D02*
X125462198Y-54263571D01*
X125462198Y-54263571D02*
X125366959Y-54168333D01*
X125366959Y-54168333D02*
X125271721Y-54120714D01*
X125271721Y-54120714D02*
X125081245Y-54073095D01*
X125081245Y-54073095D02*
X124938388Y-54073095D01*
X124938388Y-54073095D02*
X124747912Y-54120714D01*
X124747912Y-54120714D02*
X124652674Y-54168333D01*
X124652674Y-54168333D02*
X124557436Y-54263571D01*
X124557436Y-54263571D02*
X124509817Y-54406428D01*
X124509817Y-54406428D02*
X124509817Y-54501666D01*
X124509817Y-54501666D02*
X124557436Y-54644523D01*
X124557436Y-54644523D02*
X124605055Y-54692142D01*
X124938388Y-55263571D02*
X124890769Y-55168333D01*
X124890769Y-55168333D02*
X124843150Y-55120714D01*
X124843150Y-55120714D02*
X124747912Y-55073095D01*
X124747912Y-55073095D02*
X124700293Y-55073095D01*
X124700293Y-55073095D02*
X124605055Y-55120714D01*
X124605055Y-55120714D02*
X124557436Y-55168333D01*
X124557436Y-55168333D02*
X124509817Y-55263571D01*
X124509817Y-55263571D02*
X124509817Y-55454047D01*
X124509817Y-55454047D02*
X124557436Y-55549285D01*
X124557436Y-55549285D02*
X124605055Y-55596904D01*
X124605055Y-55596904D02*
X124700293Y-55644523D01*
X124700293Y-55644523D02*
X124747912Y-55644523D01*
X124747912Y-55644523D02*
X124843150Y-55596904D01*
X124843150Y-55596904D02*
X124890769Y-55549285D01*
X124890769Y-55549285D02*
X124938388Y-55454047D01*
X124938388Y-55454047D02*
X124938388Y-55263571D01*
X124938388Y-55263571D02*
X124986007Y-55168333D01*
X124986007Y-55168333D02*
X125033626Y-55120714D01*
X125033626Y-55120714D02*
X125128864Y-55073095D01*
X125128864Y-55073095D02*
X125319340Y-55073095D01*
X125319340Y-55073095D02*
X125414578Y-55120714D01*
X125414578Y-55120714D02*
X125462198Y-55168333D01*
X125462198Y-55168333D02*
X125509817Y-55263571D01*
X125509817Y-55263571D02*
X125509817Y-55454047D01*
X125509817Y-55454047D02*
X125462198Y-55549285D01*
X125462198Y-55549285D02*
X125414578Y-55596904D01*
X125414578Y-55596904D02*
X125319340Y-55644523D01*
X125319340Y-55644523D02*
X125128864Y-55644523D01*
X125128864Y-55644523D02*
X125033626Y-55596904D01*
X125033626Y-55596904D02*
X124986007Y-55549285D01*
X124986007Y-55549285D02*
X124938388Y-55454047D01*
X125509817Y-56120714D02*
X125509817Y-56311190D01*
X125509817Y-56311190D02*
X125462198Y-56406428D01*
X125462198Y-56406428D02*
X125414578Y-56454047D01*
X125414578Y-56454047D02*
X125271721Y-56549285D01*
X125271721Y-56549285D02*
X125081245Y-56596904D01*
X125081245Y-56596904D02*
X124700293Y-56596904D01*
X124700293Y-56596904D02*
X124605055Y-56549285D01*
X124605055Y-56549285D02*
X124557436Y-56501666D01*
X124557436Y-56501666D02*
X124509817Y-56406428D01*
X124509817Y-56406428D02*
X124509817Y-56215952D01*
X124509817Y-56215952D02*
X124557436Y-56120714D01*
X124557436Y-56120714D02*
X124605055Y-56073095D01*
X124605055Y-56073095D02*
X124700293Y-56025476D01*
X124700293Y-56025476D02*
X124938388Y-56025476D01*
X124938388Y-56025476D02*
X125033626Y-56073095D01*
X125033626Y-56073095D02*
X125081245Y-56120714D01*
X125081245Y-56120714D02*
X125128864Y-56215952D01*
X125128864Y-56215952D02*
X125128864Y-56406428D01*
X125128864Y-56406428D02*
X125081245Y-56501666D01*
X125081245Y-56501666D02*
X125033626Y-56549285D01*
X125033626Y-56549285D02*
X124938388Y-56596904D01*
X120229580Y-82317142D02*
X120277200Y-82269523D01*
X120277200Y-82269523D02*
X120324819Y-82126666D01*
X120324819Y-82126666D02*
X120324819Y-82031428D01*
X120324819Y-82031428D02*
X120277200Y-81888571D01*
X120277200Y-81888571D02*
X120181961Y-81793333D01*
X120181961Y-81793333D02*
X120086723Y-81745714D01*
X120086723Y-81745714D02*
X119896247Y-81698095D01*
X119896247Y-81698095D02*
X119753390Y-81698095D01*
X119753390Y-81698095D02*
X119562914Y-81745714D01*
X119562914Y-81745714D02*
X119467676Y-81793333D01*
X119467676Y-81793333D02*
X119372438Y-81888571D01*
X119372438Y-81888571D02*
X119324819Y-82031428D01*
X119324819Y-82031428D02*
X119324819Y-82126666D01*
X119324819Y-82126666D02*
X119372438Y-82269523D01*
X119372438Y-82269523D02*
X119420057Y-82317142D01*
X119324819Y-83174285D02*
X119324819Y-82983809D01*
X119324819Y-82983809D02*
X119372438Y-82888571D01*
X119372438Y-82888571D02*
X119420057Y-82840952D01*
X119420057Y-82840952D02*
X119562914Y-82745714D01*
X119562914Y-82745714D02*
X119753390Y-82698095D01*
X119753390Y-82698095D02*
X120134342Y-82698095D01*
X120134342Y-82698095D02*
X120229580Y-82745714D01*
X120229580Y-82745714D02*
X120277200Y-82793333D01*
X120277200Y-82793333D02*
X120324819Y-82888571D01*
X120324819Y-82888571D02*
X120324819Y-83079047D01*
X120324819Y-83079047D02*
X120277200Y-83174285D01*
X120277200Y-83174285D02*
X120229580Y-83221904D01*
X120229580Y-83221904D02*
X120134342Y-83269523D01*
X120134342Y-83269523D02*
X119896247Y-83269523D01*
X119896247Y-83269523D02*
X119801009Y-83221904D01*
X119801009Y-83221904D02*
X119753390Y-83174285D01*
X119753390Y-83174285D02*
X119705771Y-83079047D01*
X119705771Y-83079047D02*
X119705771Y-82888571D01*
X119705771Y-82888571D02*
X119753390Y-82793333D01*
X119753390Y-82793333D02*
X119801009Y-82745714D01*
X119801009Y-82745714D02*
X119896247Y-82698095D01*
X120324819Y-83745714D02*
X120324819Y-83936190D01*
X120324819Y-83936190D02*
X120277200Y-84031428D01*
X120277200Y-84031428D02*
X120229580Y-84079047D01*
X120229580Y-84079047D02*
X120086723Y-84174285D01*
X120086723Y-84174285D02*
X119896247Y-84221904D01*
X119896247Y-84221904D02*
X119515295Y-84221904D01*
X119515295Y-84221904D02*
X119420057Y-84174285D01*
X119420057Y-84174285D02*
X119372438Y-84126666D01*
X119372438Y-84126666D02*
X119324819Y-84031428D01*
X119324819Y-84031428D02*
X119324819Y-83840952D01*
X119324819Y-83840952D02*
X119372438Y-83745714D01*
X119372438Y-83745714D02*
X119420057Y-83698095D01*
X119420057Y-83698095D02*
X119515295Y-83650476D01*
X119515295Y-83650476D02*
X119753390Y-83650476D01*
X119753390Y-83650476D02*
X119848628Y-83698095D01*
X119848628Y-83698095D02*
X119896247Y-83745714D01*
X119896247Y-83745714D02*
X119943866Y-83840952D01*
X119943866Y-83840952D02*
X119943866Y-84031428D01*
X119943866Y-84031428D02*
X119896247Y-84126666D01*
X119896247Y-84126666D02*
X119848628Y-84174285D01*
X119848628Y-84174285D02*
X119753390Y-84221904D01*
X121322857Y-76559580D02*
X121370476Y-76607200D01*
X121370476Y-76607200D02*
X121513333Y-76654819D01*
X121513333Y-76654819D02*
X121608571Y-76654819D01*
X121608571Y-76654819D02*
X121751428Y-76607200D01*
X121751428Y-76607200D02*
X121846666Y-76511961D01*
X121846666Y-76511961D02*
X121894285Y-76416723D01*
X121894285Y-76416723D02*
X121941904Y-76226247D01*
X121941904Y-76226247D02*
X121941904Y-76083390D01*
X121941904Y-76083390D02*
X121894285Y-75892914D01*
X121894285Y-75892914D02*
X121846666Y-75797676D01*
X121846666Y-75797676D02*
X121751428Y-75702438D01*
X121751428Y-75702438D02*
X121608571Y-75654819D01*
X121608571Y-75654819D02*
X121513333Y-75654819D01*
X121513333Y-75654819D02*
X121370476Y-75702438D01*
X121370476Y-75702438D02*
X121322857Y-75750057D01*
X120418095Y-75654819D02*
X120894285Y-75654819D01*
X120894285Y-75654819D02*
X120941904Y-76131009D01*
X120941904Y-76131009D02*
X120894285Y-76083390D01*
X120894285Y-76083390D02*
X120799047Y-76035771D01*
X120799047Y-76035771D02*
X120560952Y-76035771D01*
X120560952Y-76035771D02*
X120465714Y-76083390D01*
X120465714Y-76083390D02*
X120418095Y-76131009D01*
X120418095Y-76131009D02*
X120370476Y-76226247D01*
X120370476Y-76226247D02*
X120370476Y-76464342D01*
X120370476Y-76464342D02*
X120418095Y-76559580D01*
X120418095Y-76559580D02*
X120465714Y-76607200D01*
X120465714Y-76607200D02*
X120560952Y-76654819D01*
X120560952Y-76654819D02*
X120799047Y-76654819D01*
X120799047Y-76654819D02*
X120894285Y-76607200D01*
X120894285Y-76607200D02*
X120941904Y-76559580D01*
X120037142Y-75654819D02*
X119418095Y-75654819D01*
X119418095Y-75654819D02*
X119751428Y-76035771D01*
X119751428Y-76035771D02*
X119608571Y-76035771D01*
X119608571Y-76035771D02*
X119513333Y-76083390D01*
X119513333Y-76083390D02*
X119465714Y-76131009D01*
X119465714Y-76131009D02*
X119418095Y-76226247D01*
X119418095Y-76226247D02*
X119418095Y-76464342D01*
X119418095Y-76464342D02*
X119465714Y-76559580D01*
X119465714Y-76559580D02*
X119513333Y-76607200D01*
X119513333Y-76607200D02*
X119608571Y-76654819D01*
X119608571Y-76654819D02*
X119894285Y-76654819D01*
X119894285Y-76654819D02*
X119989523Y-76607200D01*
X119989523Y-76607200D02*
X120037142Y-76559580D01*
X120755666Y-87859879D02*
X120803285Y-87907499D01*
X120803285Y-87907499D02*
X120946142Y-87955118D01*
X120946142Y-87955118D02*
X121041380Y-87955118D01*
X121041380Y-87955118D02*
X121184237Y-87907499D01*
X121184237Y-87907499D02*
X121279475Y-87812260D01*
X121279475Y-87812260D02*
X121327094Y-87717022D01*
X121327094Y-87717022D02*
X121374713Y-87526546D01*
X121374713Y-87526546D02*
X121374713Y-87383689D01*
X121374713Y-87383689D02*
X121327094Y-87193213D01*
X121327094Y-87193213D02*
X121279475Y-87097975D01*
X121279475Y-87097975D02*
X121184237Y-87002737D01*
X121184237Y-87002737D02*
X121041380Y-86955118D01*
X121041380Y-86955118D02*
X120946142Y-86955118D01*
X120946142Y-86955118D02*
X120803285Y-87002737D01*
X120803285Y-87002737D02*
X120755666Y-87050356D01*
X119898523Y-87288451D02*
X119898523Y-87955118D01*
X120136618Y-86907499D02*
X120374713Y-87621784D01*
X120374713Y-87621784D02*
X119755666Y-87621784D01*
X131566666Y-85574819D02*
X131899999Y-85098628D01*
X132138094Y-85574819D02*
X132138094Y-84574819D01*
X132138094Y-84574819D02*
X131757142Y-84574819D01*
X131757142Y-84574819D02*
X131661904Y-84622438D01*
X131661904Y-84622438D02*
X131614285Y-84670057D01*
X131614285Y-84670057D02*
X131566666Y-84765295D01*
X131566666Y-84765295D02*
X131566666Y-84908152D01*
X131566666Y-84908152D02*
X131614285Y-85003390D01*
X131614285Y-85003390D02*
X131661904Y-85051009D01*
X131661904Y-85051009D02*
X131757142Y-85098628D01*
X131757142Y-85098628D02*
X132138094Y-85098628D01*
X131090475Y-85574819D02*
X130899999Y-85574819D01*
X130899999Y-85574819D02*
X130804761Y-85527200D01*
X130804761Y-85527200D02*
X130757142Y-85479580D01*
X130757142Y-85479580D02*
X130661904Y-85336723D01*
X130661904Y-85336723D02*
X130614285Y-85146247D01*
X130614285Y-85146247D02*
X130614285Y-84765295D01*
X130614285Y-84765295D02*
X130661904Y-84670057D01*
X130661904Y-84670057D02*
X130709523Y-84622438D01*
X130709523Y-84622438D02*
X130804761Y-84574819D01*
X130804761Y-84574819D02*
X130995237Y-84574819D01*
X130995237Y-84574819D02*
X131090475Y-84622438D01*
X131090475Y-84622438D02*
X131138094Y-84670057D01*
X131138094Y-84670057D02*
X131185713Y-84765295D01*
X131185713Y-84765295D02*
X131185713Y-85003390D01*
X131185713Y-85003390D02*
X131138094Y-85098628D01*
X131138094Y-85098628D02*
X131090475Y-85146247D01*
X131090475Y-85146247D02*
X130995237Y-85193866D01*
X130995237Y-85193866D02*
X130804761Y-85193866D01*
X130804761Y-85193866D02*
X130709523Y-85146247D01*
X130709523Y-85146247D02*
X130661904Y-85098628D01*
X130661904Y-85098628D02*
X130614285Y-85003390D01*
X126843513Y-63315238D02*
X127148275Y-63315238D01*
X126508275Y-63101905D02*
X126843513Y-63315238D01*
X126843513Y-63315238D02*
X126508275Y-63528572D01*
X127148275Y-64077143D02*
X127148275Y-63711428D01*
X127148275Y-63894285D02*
X126508275Y-63894285D01*
X126508275Y-63894285D02*
X126599703Y-63833333D01*
X126599703Y-63833333D02*
X126660656Y-63772381D01*
X126660656Y-63772381D02*
X126691132Y-63711428D01*
X132952857Y-71714819D02*
X133286190Y-71238628D01*
X133524285Y-71714819D02*
X133524285Y-70714819D01*
X133524285Y-70714819D02*
X133143333Y-70714819D01*
X133143333Y-70714819D02*
X133048095Y-70762438D01*
X133048095Y-70762438D02*
X133000476Y-70810057D01*
X133000476Y-70810057D02*
X132952857Y-70905295D01*
X132952857Y-70905295D02*
X132952857Y-71048152D01*
X132952857Y-71048152D02*
X133000476Y-71143390D01*
X133000476Y-71143390D02*
X133048095Y-71191009D01*
X133048095Y-71191009D02*
X133143333Y-71238628D01*
X133143333Y-71238628D02*
X133524285Y-71238628D01*
X132000476Y-71714819D02*
X132571904Y-71714819D01*
X132286190Y-71714819D02*
X132286190Y-70714819D01*
X132286190Y-70714819D02*
X132381428Y-70857676D01*
X132381428Y-70857676D02*
X132476666Y-70952914D01*
X132476666Y-70952914D02*
X132571904Y-71000533D01*
X131619523Y-70810057D02*
X131571904Y-70762438D01*
X131571904Y-70762438D02*
X131476666Y-70714819D01*
X131476666Y-70714819D02*
X131238571Y-70714819D01*
X131238571Y-70714819D02*
X131143333Y-70762438D01*
X131143333Y-70762438D02*
X131095714Y-70810057D01*
X131095714Y-70810057D02*
X131048095Y-70905295D01*
X131048095Y-70905295D02*
X131048095Y-71000533D01*
X131048095Y-71000533D02*
X131095714Y-71143390D01*
X131095714Y-71143390D02*
X131667142Y-71714819D01*
X131667142Y-71714819D02*
X131048095Y-71714819D01*
X123989580Y-82497142D02*
X124037200Y-82449523D01*
X124037200Y-82449523D02*
X124084819Y-82306666D01*
X124084819Y-82306666D02*
X124084819Y-82211428D01*
X124084819Y-82211428D02*
X124037200Y-82068571D01*
X124037200Y-82068571D02*
X123941961Y-81973333D01*
X123941961Y-81973333D02*
X123846723Y-81925714D01*
X123846723Y-81925714D02*
X123656247Y-81878095D01*
X123656247Y-81878095D02*
X123513390Y-81878095D01*
X123513390Y-81878095D02*
X123322914Y-81925714D01*
X123322914Y-81925714D02*
X123227676Y-81973333D01*
X123227676Y-81973333D02*
X123132438Y-82068571D01*
X123132438Y-82068571D02*
X123084819Y-82211428D01*
X123084819Y-82211428D02*
X123084819Y-82306666D01*
X123084819Y-82306666D02*
X123132438Y-82449523D01*
X123132438Y-82449523D02*
X123180057Y-82497142D01*
X123084819Y-83401904D02*
X123084819Y-82925714D01*
X123084819Y-82925714D02*
X123561009Y-82878095D01*
X123561009Y-82878095D02*
X123513390Y-82925714D01*
X123513390Y-82925714D02*
X123465771Y-83020952D01*
X123465771Y-83020952D02*
X123465771Y-83259047D01*
X123465771Y-83259047D02*
X123513390Y-83354285D01*
X123513390Y-83354285D02*
X123561009Y-83401904D01*
X123561009Y-83401904D02*
X123656247Y-83449523D01*
X123656247Y-83449523D02*
X123894342Y-83449523D01*
X123894342Y-83449523D02*
X123989580Y-83401904D01*
X123989580Y-83401904D02*
X124037200Y-83354285D01*
X124037200Y-83354285D02*
X124084819Y-83259047D01*
X124084819Y-83259047D02*
X124084819Y-83020952D01*
X124084819Y-83020952D02*
X124037200Y-82925714D01*
X124037200Y-82925714D02*
X123989580Y-82878095D01*
X123084819Y-84306666D02*
X123084819Y-84116190D01*
X123084819Y-84116190D02*
X123132438Y-84020952D01*
X123132438Y-84020952D02*
X123180057Y-83973333D01*
X123180057Y-83973333D02*
X123322914Y-83878095D01*
X123322914Y-83878095D02*
X123513390Y-83830476D01*
X123513390Y-83830476D02*
X123894342Y-83830476D01*
X123894342Y-83830476D02*
X123989580Y-83878095D01*
X123989580Y-83878095D02*
X124037200Y-83925714D01*
X124037200Y-83925714D02*
X124084819Y-84020952D01*
X124084819Y-84020952D02*
X124084819Y-84211428D01*
X124084819Y-84211428D02*
X124037200Y-84306666D01*
X124037200Y-84306666D02*
X123989580Y-84354285D01*
X123989580Y-84354285D02*
X123894342Y-84401904D01*
X123894342Y-84401904D02*
X123656247Y-84401904D01*
X123656247Y-84401904D02*
X123561009Y-84354285D01*
X123561009Y-84354285D02*
X123513390Y-84306666D01*
X123513390Y-84306666D02*
X123465771Y-84211428D01*
X123465771Y-84211428D02*
X123465771Y-84020952D01*
X123465771Y-84020952D02*
X123513390Y-83925714D01*
X123513390Y-83925714D02*
X123561009Y-83878095D01*
X123561009Y-83878095D02*
X123656247Y-83830476D01*
X123306141Y-61311580D02*
X123353760Y-61359200D01*
X123353760Y-61359200D02*
X123496617Y-61406819D01*
X123496617Y-61406819D02*
X123591855Y-61406819D01*
X123591855Y-61406819D02*
X123734712Y-61359200D01*
X123734712Y-61359200D02*
X123829950Y-61263961D01*
X123829950Y-61263961D02*
X123877569Y-61168723D01*
X123877569Y-61168723D02*
X123925188Y-60978247D01*
X123925188Y-60978247D02*
X123925188Y-60835390D01*
X123925188Y-60835390D02*
X123877569Y-60644914D01*
X123877569Y-60644914D02*
X123829950Y-60549676D01*
X123829950Y-60549676D02*
X123734712Y-60454438D01*
X123734712Y-60454438D02*
X123591855Y-60406819D01*
X123591855Y-60406819D02*
X123496617Y-60406819D01*
X123496617Y-60406819D02*
X123353760Y-60454438D01*
X123353760Y-60454438D02*
X123306141Y-60502057D01*
X122925188Y-60502057D02*
X122877569Y-60454438D01*
X122877569Y-60454438D02*
X122782331Y-60406819D01*
X122782331Y-60406819D02*
X122544236Y-60406819D01*
X122544236Y-60406819D02*
X122448998Y-60454438D01*
X122448998Y-60454438D02*
X122401379Y-60502057D01*
X122401379Y-60502057D02*
X122353760Y-60597295D01*
X122353760Y-60597295D02*
X122353760Y-60692533D01*
X122353760Y-60692533D02*
X122401379Y-60835390D01*
X122401379Y-60835390D02*
X122972807Y-61406819D01*
X122972807Y-61406819D02*
X122353760Y-61406819D01*
X121877569Y-61406819D02*
X121687093Y-61406819D01*
X121687093Y-61406819D02*
X121591855Y-61359200D01*
X121591855Y-61359200D02*
X121544236Y-61311580D01*
X121544236Y-61311580D02*
X121448998Y-61168723D01*
X121448998Y-61168723D02*
X121401379Y-60978247D01*
X121401379Y-60978247D02*
X121401379Y-60597295D01*
X121401379Y-60597295D02*
X121448998Y-60502057D01*
X121448998Y-60502057D02*
X121496617Y-60454438D01*
X121496617Y-60454438D02*
X121591855Y-60406819D01*
X121591855Y-60406819D02*
X121782331Y-60406819D01*
X121782331Y-60406819D02*
X121877569Y-60454438D01*
X121877569Y-60454438D02*
X121925188Y-60502057D01*
X121925188Y-60502057D02*
X121972807Y-60597295D01*
X121972807Y-60597295D02*
X121972807Y-60835390D01*
X121972807Y-60835390D02*
X121925188Y-60930628D01*
X121925188Y-60930628D02*
X121877569Y-60978247D01*
X121877569Y-60978247D02*
X121782331Y-61025866D01*
X121782331Y-61025866D02*
X121591855Y-61025866D01*
X121591855Y-61025866D02*
X121496617Y-60978247D01*
X121496617Y-60978247D02*
X121448998Y-60930628D01*
X121448998Y-60930628D02*
X121401379Y-60835390D01*
X115199580Y-81717142D02*
X115247200Y-81669523D01*
X115247200Y-81669523D02*
X115294819Y-81526666D01*
X115294819Y-81526666D02*
X115294819Y-81431428D01*
X115294819Y-81431428D02*
X115247200Y-81288571D01*
X115247200Y-81288571D02*
X115151961Y-81193333D01*
X115151961Y-81193333D02*
X115056723Y-81145714D01*
X115056723Y-81145714D02*
X114866247Y-81098095D01*
X114866247Y-81098095D02*
X114723390Y-81098095D01*
X114723390Y-81098095D02*
X114532914Y-81145714D01*
X114532914Y-81145714D02*
X114437676Y-81193333D01*
X114437676Y-81193333D02*
X114342438Y-81288571D01*
X114342438Y-81288571D02*
X114294819Y-81431428D01*
X114294819Y-81431428D02*
X114294819Y-81526666D01*
X114294819Y-81526666D02*
X114342438Y-81669523D01*
X114342438Y-81669523D02*
X114390057Y-81717142D01*
X114723390Y-82288571D02*
X114675771Y-82193333D01*
X114675771Y-82193333D02*
X114628152Y-82145714D01*
X114628152Y-82145714D02*
X114532914Y-82098095D01*
X114532914Y-82098095D02*
X114485295Y-82098095D01*
X114485295Y-82098095D02*
X114390057Y-82145714D01*
X114390057Y-82145714D02*
X114342438Y-82193333D01*
X114342438Y-82193333D02*
X114294819Y-82288571D01*
X114294819Y-82288571D02*
X114294819Y-82479047D01*
X114294819Y-82479047D02*
X114342438Y-82574285D01*
X114342438Y-82574285D02*
X114390057Y-82621904D01*
X114390057Y-82621904D02*
X114485295Y-82669523D01*
X114485295Y-82669523D02*
X114532914Y-82669523D01*
X114532914Y-82669523D02*
X114628152Y-82621904D01*
X114628152Y-82621904D02*
X114675771Y-82574285D01*
X114675771Y-82574285D02*
X114723390Y-82479047D01*
X114723390Y-82479047D02*
X114723390Y-82288571D01*
X114723390Y-82288571D02*
X114771009Y-82193333D01*
X114771009Y-82193333D02*
X114818628Y-82145714D01*
X114818628Y-82145714D02*
X114913866Y-82098095D01*
X114913866Y-82098095D02*
X115104342Y-82098095D01*
X115104342Y-82098095D02*
X115199580Y-82145714D01*
X115199580Y-82145714D02*
X115247200Y-82193333D01*
X115247200Y-82193333D02*
X115294819Y-82288571D01*
X115294819Y-82288571D02*
X115294819Y-82479047D01*
X115294819Y-82479047D02*
X115247200Y-82574285D01*
X115247200Y-82574285D02*
X115199580Y-82621904D01*
X115199580Y-82621904D02*
X115104342Y-82669523D01*
X115104342Y-82669523D02*
X114913866Y-82669523D01*
X114913866Y-82669523D02*
X114818628Y-82621904D01*
X114818628Y-82621904D02*
X114771009Y-82574285D01*
X114771009Y-82574285D02*
X114723390Y-82479047D01*
X115294819Y-83621904D02*
X115294819Y-83050476D01*
X115294819Y-83336190D02*
X114294819Y-83336190D01*
X114294819Y-83336190D02*
X114437676Y-83240952D01*
X114437676Y-83240952D02*
X114532914Y-83145714D01*
X114532914Y-83145714D02*
X114580533Y-83050476D01*
X127132857Y-86989580D02*
X127180476Y-87037200D01*
X127180476Y-87037200D02*
X127323333Y-87084819D01*
X127323333Y-87084819D02*
X127418571Y-87084819D01*
X127418571Y-87084819D02*
X127561428Y-87037200D01*
X127561428Y-87037200D02*
X127656666Y-86941961D01*
X127656666Y-86941961D02*
X127704285Y-86846723D01*
X127704285Y-86846723D02*
X127751904Y-86656247D01*
X127751904Y-86656247D02*
X127751904Y-86513390D01*
X127751904Y-86513390D02*
X127704285Y-86322914D01*
X127704285Y-86322914D02*
X127656666Y-86227676D01*
X127656666Y-86227676D02*
X127561428Y-86132438D01*
X127561428Y-86132438D02*
X127418571Y-86084819D01*
X127418571Y-86084819D02*
X127323333Y-86084819D01*
X127323333Y-86084819D02*
X127180476Y-86132438D01*
X127180476Y-86132438D02*
X127132857Y-86180057D01*
X126799523Y-86084819D02*
X126132857Y-86084819D01*
X126132857Y-86084819D02*
X126561428Y-87084819D01*
X125609047Y-86513390D02*
X125704285Y-86465771D01*
X125704285Y-86465771D02*
X125751904Y-86418152D01*
X125751904Y-86418152D02*
X125799523Y-86322914D01*
X125799523Y-86322914D02*
X125799523Y-86275295D01*
X125799523Y-86275295D02*
X125751904Y-86180057D01*
X125751904Y-86180057D02*
X125704285Y-86132438D01*
X125704285Y-86132438D02*
X125609047Y-86084819D01*
X125609047Y-86084819D02*
X125418571Y-86084819D01*
X125418571Y-86084819D02*
X125323333Y-86132438D01*
X125323333Y-86132438D02*
X125275714Y-86180057D01*
X125275714Y-86180057D02*
X125228095Y-86275295D01*
X125228095Y-86275295D02*
X125228095Y-86322914D01*
X125228095Y-86322914D02*
X125275714Y-86418152D01*
X125275714Y-86418152D02*
X125323333Y-86465771D01*
X125323333Y-86465771D02*
X125418571Y-86513390D01*
X125418571Y-86513390D02*
X125609047Y-86513390D01*
X125609047Y-86513390D02*
X125704285Y-86561009D01*
X125704285Y-86561009D02*
X125751904Y-86608628D01*
X125751904Y-86608628D02*
X125799523Y-86703866D01*
X125799523Y-86703866D02*
X125799523Y-86894342D01*
X125799523Y-86894342D02*
X125751904Y-86989580D01*
X125751904Y-86989580D02*
X125704285Y-87037200D01*
X125704285Y-87037200D02*
X125609047Y-87084819D01*
X125609047Y-87084819D02*
X125418571Y-87084819D01*
X125418571Y-87084819D02*
X125323333Y-87037200D01*
X125323333Y-87037200D02*
X125275714Y-86989580D01*
X125275714Y-86989580D02*
X125228095Y-86894342D01*
X125228095Y-86894342D02*
X125228095Y-86703866D01*
X125228095Y-86703866D02*
X125275714Y-86608628D01*
X125275714Y-86608628D02*
X125323333Y-86561009D01*
X125323333Y-86561009D02*
X125418571Y-86513390D01*
X120162857Y-78989580D02*
X120210476Y-79037200D01*
X120210476Y-79037200D02*
X120353333Y-79084819D01*
X120353333Y-79084819D02*
X120448571Y-79084819D01*
X120448571Y-79084819D02*
X120591428Y-79037200D01*
X120591428Y-79037200D02*
X120686666Y-78941961D01*
X120686666Y-78941961D02*
X120734285Y-78846723D01*
X120734285Y-78846723D02*
X120781904Y-78656247D01*
X120781904Y-78656247D02*
X120781904Y-78513390D01*
X120781904Y-78513390D02*
X120734285Y-78322914D01*
X120734285Y-78322914D02*
X120686666Y-78227676D01*
X120686666Y-78227676D02*
X120591428Y-78132438D01*
X120591428Y-78132438D02*
X120448571Y-78084819D01*
X120448571Y-78084819D02*
X120353333Y-78084819D01*
X120353333Y-78084819D02*
X120210476Y-78132438D01*
X120210476Y-78132438D02*
X120162857Y-78180057D01*
X119258095Y-78084819D02*
X119734285Y-78084819D01*
X119734285Y-78084819D02*
X119781904Y-78561009D01*
X119781904Y-78561009D02*
X119734285Y-78513390D01*
X119734285Y-78513390D02*
X119639047Y-78465771D01*
X119639047Y-78465771D02*
X119400952Y-78465771D01*
X119400952Y-78465771D02*
X119305714Y-78513390D01*
X119305714Y-78513390D02*
X119258095Y-78561009D01*
X119258095Y-78561009D02*
X119210476Y-78656247D01*
X119210476Y-78656247D02*
X119210476Y-78894342D01*
X119210476Y-78894342D02*
X119258095Y-78989580D01*
X119258095Y-78989580D02*
X119305714Y-79037200D01*
X119305714Y-79037200D02*
X119400952Y-79084819D01*
X119400952Y-79084819D02*
X119639047Y-79084819D01*
X119639047Y-79084819D02*
X119734285Y-79037200D01*
X119734285Y-79037200D02*
X119781904Y-78989580D01*
X118305714Y-78084819D02*
X118781904Y-78084819D01*
X118781904Y-78084819D02*
X118829523Y-78561009D01*
X118829523Y-78561009D02*
X118781904Y-78513390D01*
X118781904Y-78513390D02*
X118686666Y-78465771D01*
X118686666Y-78465771D02*
X118448571Y-78465771D01*
X118448571Y-78465771D02*
X118353333Y-78513390D01*
X118353333Y-78513390D02*
X118305714Y-78561009D01*
X118305714Y-78561009D02*
X118258095Y-78656247D01*
X118258095Y-78656247D02*
X118258095Y-78894342D01*
X118258095Y-78894342D02*
X118305714Y-78989580D01*
X118305714Y-78989580D02*
X118353333Y-79037200D01*
X118353333Y-79037200D02*
X118448571Y-79084819D01*
X118448571Y-79084819D02*
X118686666Y-79084819D01*
X118686666Y-79084819D02*
X118781904Y-79037200D01*
X118781904Y-79037200D02*
X118829523Y-78989580D01*
D11*
X125361428Y-76367190D02*
X125385237Y-76391000D01*
X125385237Y-76391000D02*
X125456666Y-76414809D01*
X125456666Y-76414809D02*
X125504285Y-76414809D01*
X125504285Y-76414809D02*
X125575713Y-76391000D01*
X125575713Y-76391000D02*
X125623332Y-76343380D01*
X125623332Y-76343380D02*
X125647142Y-76295761D01*
X125647142Y-76295761D02*
X125670951Y-76200523D01*
X125670951Y-76200523D02*
X125670951Y-76129095D01*
X125670951Y-76129095D02*
X125647142Y-76033857D01*
X125647142Y-76033857D02*
X125623332Y-75986238D01*
X125623332Y-75986238D02*
X125575713Y-75938619D01*
X125575713Y-75938619D02*
X125504285Y-75914809D01*
X125504285Y-75914809D02*
X125456666Y-75914809D01*
X125456666Y-75914809D02*
X125385237Y-75938619D01*
X125385237Y-75938619D02*
X125361428Y-75962428D01*
X124909047Y-75914809D02*
X125147142Y-75914809D01*
X125147142Y-75914809D02*
X125170951Y-76152904D01*
X125170951Y-76152904D02*
X125147142Y-76129095D01*
X125147142Y-76129095D02*
X125099523Y-76105285D01*
X125099523Y-76105285D02*
X124980475Y-76105285D01*
X124980475Y-76105285D02*
X124932856Y-76129095D01*
X124932856Y-76129095D02*
X124909047Y-76152904D01*
X124909047Y-76152904D02*
X124885237Y-76200523D01*
X124885237Y-76200523D02*
X124885237Y-76319571D01*
X124885237Y-76319571D02*
X124909047Y-76367190D01*
X124909047Y-76367190D02*
X124932856Y-76391000D01*
X124932856Y-76391000D02*
X124980475Y-76414809D01*
X124980475Y-76414809D02*
X125099523Y-76414809D01*
X125099523Y-76414809D02*
X125147142Y-76391000D01*
X125147142Y-76391000D02*
X125170951Y-76367190D01*
X124599523Y-76129095D02*
X124647142Y-76105285D01*
X124647142Y-76105285D02*
X124670952Y-76081476D01*
X124670952Y-76081476D02*
X124694761Y-76033857D01*
X124694761Y-76033857D02*
X124694761Y-76010047D01*
X124694761Y-76010047D02*
X124670952Y-75962428D01*
X124670952Y-75962428D02*
X124647142Y-75938619D01*
X124647142Y-75938619D02*
X124599523Y-75914809D01*
X124599523Y-75914809D02*
X124504285Y-75914809D01*
X124504285Y-75914809D02*
X124456666Y-75938619D01*
X124456666Y-75938619D02*
X124432857Y-75962428D01*
X124432857Y-75962428D02*
X124409047Y-76010047D01*
X124409047Y-76010047D02*
X124409047Y-76033857D01*
X124409047Y-76033857D02*
X124432857Y-76081476D01*
X124432857Y-76081476D02*
X124456666Y-76105285D01*
X124456666Y-76105285D02*
X124504285Y-76129095D01*
X124504285Y-76129095D02*
X124599523Y-76129095D01*
X124599523Y-76129095D02*
X124647142Y-76152904D01*
X124647142Y-76152904D02*
X124670952Y-76176714D01*
X124670952Y-76176714D02*
X124694761Y-76224333D01*
X124694761Y-76224333D02*
X124694761Y-76319571D01*
X124694761Y-76319571D02*
X124670952Y-76367190D01*
X124670952Y-76367190D02*
X124647142Y-76391000D01*
X124647142Y-76391000D02*
X124599523Y-76414809D01*
X124599523Y-76414809D02*
X124504285Y-76414809D01*
X124504285Y-76414809D02*
X124456666Y-76391000D01*
X124456666Y-76391000D02*
X124432857Y-76367190D01*
X124432857Y-76367190D02*
X124409047Y-76319571D01*
X124409047Y-76319571D02*
X124409047Y-76224333D01*
X124409047Y-76224333D02*
X124432857Y-76176714D01*
X124432857Y-76176714D02*
X124456666Y-76152904D01*
X124456666Y-76152904D02*
X124504285Y-76129095D01*
D10*
X127492857Y-84129580D02*
X127540476Y-84177200D01*
X127540476Y-84177200D02*
X127683333Y-84224819D01*
X127683333Y-84224819D02*
X127778571Y-84224819D01*
X127778571Y-84224819D02*
X127921428Y-84177200D01*
X127921428Y-84177200D02*
X128016666Y-84081961D01*
X128016666Y-84081961D02*
X128064285Y-83986723D01*
X128064285Y-83986723D02*
X128111904Y-83796247D01*
X128111904Y-83796247D02*
X128111904Y-83653390D01*
X128111904Y-83653390D02*
X128064285Y-83462914D01*
X128064285Y-83462914D02*
X128016666Y-83367676D01*
X128016666Y-83367676D02*
X127921428Y-83272438D01*
X127921428Y-83272438D02*
X127778571Y-83224819D01*
X127778571Y-83224819D02*
X127683333Y-83224819D01*
X127683333Y-83224819D02*
X127540476Y-83272438D01*
X127540476Y-83272438D02*
X127492857Y-83320057D01*
X126635714Y-83224819D02*
X126826190Y-83224819D01*
X126826190Y-83224819D02*
X126921428Y-83272438D01*
X126921428Y-83272438D02*
X126969047Y-83320057D01*
X126969047Y-83320057D02*
X127064285Y-83462914D01*
X127064285Y-83462914D02*
X127111904Y-83653390D01*
X127111904Y-83653390D02*
X127111904Y-84034342D01*
X127111904Y-84034342D02*
X127064285Y-84129580D01*
X127064285Y-84129580D02*
X127016666Y-84177200D01*
X127016666Y-84177200D02*
X126921428Y-84224819D01*
X126921428Y-84224819D02*
X126730952Y-84224819D01*
X126730952Y-84224819D02*
X126635714Y-84177200D01*
X126635714Y-84177200D02*
X126588095Y-84129580D01*
X126588095Y-84129580D02*
X126540476Y-84034342D01*
X126540476Y-84034342D02*
X126540476Y-83796247D01*
X126540476Y-83796247D02*
X126588095Y-83701009D01*
X126588095Y-83701009D02*
X126635714Y-83653390D01*
X126635714Y-83653390D02*
X126730952Y-83605771D01*
X126730952Y-83605771D02*
X126921428Y-83605771D01*
X126921428Y-83605771D02*
X127016666Y-83653390D01*
X127016666Y-83653390D02*
X127064285Y-83701009D01*
X127064285Y-83701009D02*
X127111904Y-83796247D01*
X125969047Y-83653390D02*
X126064285Y-83605771D01*
X126064285Y-83605771D02*
X126111904Y-83558152D01*
X126111904Y-83558152D02*
X126159523Y-83462914D01*
X126159523Y-83462914D02*
X126159523Y-83415295D01*
X126159523Y-83415295D02*
X126111904Y-83320057D01*
X126111904Y-83320057D02*
X126064285Y-83272438D01*
X126064285Y-83272438D02*
X125969047Y-83224819D01*
X125969047Y-83224819D02*
X125778571Y-83224819D01*
X125778571Y-83224819D02*
X125683333Y-83272438D01*
X125683333Y-83272438D02*
X125635714Y-83320057D01*
X125635714Y-83320057D02*
X125588095Y-83415295D01*
X125588095Y-83415295D02*
X125588095Y-83462914D01*
X125588095Y-83462914D02*
X125635714Y-83558152D01*
X125635714Y-83558152D02*
X125683333Y-83605771D01*
X125683333Y-83605771D02*
X125778571Y-83653390D01*
X125778571Y-83653390D02*
X125969047Y-83653390D01*
X125969047Y-83653390D02*
X126064285Y-83701009D01*
X126064285Y-83701009D02*
X126111904Y-83748628D01*
X126111904Y-83748628D02*
X126159523Y-83843866D01*
X126159523Y-83843866D02*
X126159523Y-84034342D01*
X126159523Y-84034342D02*
X126111904Y-84129580D01*
X126111904Y-84129580D02*
X126064285Y-84177200D01*
X126064285Y-84177200D02*
X125969047Y-84224819D01*
X125969047Y-84224819D02*
X125778571Y-84224819D01*
X125778571Y-84224819D02*
X125683333Y-84177200D01*
X125683333Y-84177200D02*
X125635714Y-84129580D01*
X125635714Y-84129580D02*
X125588095Y-84034342D01*
X125588095Y-84034342D02*
X125588095Y-83843866D01*
X125588095Y-83843866D02*
X125635714Y-83748628D01*
X125635714Y-83748628D02*
X125683333Y-83701009D01*
X125683333Y-83701009D02*
X125778571Y-83653390D01*
X142084819Y-82233333D02*
X141608628Y-81900000D01*
X142084819Y-81661905D02*
X141084819Y-81661905D01*
X141084819Y-81661905D02*
X141084819Y-82042857D01*
X141084819Y-82042857D02*
X141132438Y-82138095D01*
X141132438Y-82138095D02*
X141180057Y-82185714D01*
X141180057Y-82185714D02*
X141275295Y-82233333D01*
X141275295Y-82233333D02*
X141418152Y-82233333D01*
X141418152Y-82233333D02*
X141513390Y-82185714D01*
X141513390Y-82185714D02*
X141561009Y-82138095D01*
X141561009Y-82138095D02*
X141608628Y-82042857D01*
X141608628Y-82042857D02*
X141608628Y-81661905D01*
X141084819Y-82566667D02*
X141084819Y-83185714D01*
X141084819Y-83185714D02*
X141465771Y-82852381D01*
X141465771Y-82852381D02*
X141465771Y-82995238D01*
X141465771Y-82995238D02*
X141513390Y-83090476D01*
X141513390Y-83090476D02*
X141561009Y-83138095D01*
X141561009Y-83138095D02*
X141656247Y-83185714D01*
X141656247Y-83185714D02*
X141894342Y-83185714D01*
X141894342Y-83185714D02*
X141989580Y-83138095D01*
X141989580Y-83138095D02*
X142037200Y-83090476D01*
X142037200Y-83090476D02*
X142084819Y-82995238D01*
X142084819Y-82995238D02*
X142084819Y-82709524D01*
X142084819Y-82709524D02*
X142037200Y-82614286D01*
X142037200Y-82614286D02*
X141989580Y-82566667D01*
X137266666Y-83424819D02*
X137599999Y-82948628D01*
X137838094Y-83424819D02*
X137838094Y-82424819D01*
X137838094Y-82424819D02*
X137457142Y-82424819D01*
X137457142Y-82424819D02*
X137361904Y-82472438D01*
X137361904Y-82472438D02*
X137314285Y-82520057D01*
X137314285Y-82520057D02*
X137266666Y-82615295D01*
X137266666Y-82615295D02*
X137266666Y-82758152D01*
X137266666Y-82758152D02*
X137314285Y-82853390D01*
X137314285Y-82853390D02*
X137361904Y-82901009D01*
X137361904Y-82901009D02*
X137457142Y-82948628D01*
X137457142Y-82948628D02*
X137838094Y-82948628D01*
X136933332Y-82424819D02*
X136266666Y-82424819D01*
X136266666Y-82424819D02*
X136695237Y-83424819D01*
X128184580Y-48852142D02*
X128232200Y-48804523D01*
X128232200Y-48804523D02*
X128279819Y-48661666D01*
X128279819Y-48661666D02*
X128279819Y-48566428D01*
X128279819Y-48566428D02*
X128232200Y-48423571D01*
X128232200Y-48423571D02*
X128136961Y-48328333D01*
X128136961Y-48328333D02*
X128041723Y-48280714D01*
X128041723Y-48280714D02*
X127851247Y-48233095D01*
X127851247Y-48233095D02*
X127708390Y-48233095D01*
X127708390Y-48233095D02*
X127517914Y-48280714D01*
X127517914Y-48280714D02*
X127422676Y-48328333D01*
X127422676Y-48328333D02*
X127327438Y-48423571D01*
X127327438Y-48423571D02*
X127279819Y-48566428D01*
X127279819Y-48566428D02*
X127279819Y-48661666D01*
X127279819Y-48661666D02*
X127327438Y-48804523D01*
X127327438Y-48804523D02*
X127375057Y-48852142D01*
X127708390Y-49423571D02*
X127660771Y-49328333D01*
X127660771Y-49328333D02*
X127613152Y-49280714D01*
X127613152Y-49280714D02*
X127517914Y-49233095D01*
X127517914Y-49233095D02*
X127470295Y-49233095D01*
X127470295Y-49233095D02*
X127375057Y-49280714D01*
X127375057Y-49280714D02*
X127327438Y-49328333D01*
X127327438Y-49328333D02*
X127279819Y-49423571D01*
X127279819Y-49423571D02*
X127279819Y-49614047D01*
X127279819Y-49614047D02*
X127327438Y-49709285D01*
X127327438Y-49709285D02*
X127375057Y-49756904D01*
X127375057Y-49756904D02*
X127470295Y-49804523D01*
X127470295Y-49804523D02*
X127517914Y-49804523D01*
X127517914Y-49804523D02*
X127613152Y-49756904D01*
X127613152Y-49756904D02*
X127660771Y-49709285D01*
X127660771Y-49709285D02*
X127708390Y-49614047D01*
X127708390Y-49614047D02*
X127708390Y-49423571D01*
X127708390Y-49423571D02*
X127756009Y-49328333D01*
X127756009Y-49328333D02*
X127803628Y-49280714D01*
X127803628Y-49280714D02*
X127898866Y-49233095D01*
X127898866Y-49233095D02*
X128089342Y-49233095D01*
X128089342Y-49233095D02*
X128184580Y-49280714D01*
X128184580Y-49280714D02*
X128232200Y-49328333D01*
X128232200Y-49328333D02*
X128279819Y-49423571D01*
X128279819Y-49423571D02*
X128279819Y-49614047D01*
X128279819Y-49614047D02*
X128232200Y-49709285D01*
X128232200Y-49709285D02*
X128184580Y-49756904D01*
X128184580Y-49756904D02*
X128089342Y-49804523D01*
X128089342Y-49804523D02*
X127898866Y-49804523D01*
X127898866Y-49804523D02*
X127803628Y-49756904D01*
X127803628Y-49756904D02*
X127756009Y-49709285D01*
X127756009Y-49709285D02*
X127708390Y-49614047D01*
X127279819Y-50137857D02*
X127279819Y-50804523D01*
X127279819Y-50804523D02*
X128279819Y-50375952D01*
X108345833Y-83991009D02*
X108679166Y-83991009D01*
X108679166Y-84514819D02*
X108679166Y-83514819D01*
X108679166Y-83514819D02*
X108202976Y-83514819D01*
X107488690Y-83991009D02*
X107345833Y-84038628D01*
X107345833Y-84038628D02*
X107298214Y-84086247D01*
X107298214Y-84086247D02*
X107250595Y-84181485D01*
X107250595Y-84181485D02*
X107250595Y-84324342D01*
X107250595Y-84324342D02*
X107298214Y-84419580D01*
X107298214Y-84419580D02*
X107345833Y-84467200D01*
X107345833Y-84467200D02*
X107441071Y-84514819D01*
X107441071Y-84514819D02*
X107822023Y-84514819D01*
X107822023Y-84514819D02*
X107822023Y-83514819D01*
X107822023Y-83514819D02*
X107488690Y-83514819D01*
X107488690Y-83514819D02*
X107393452Y-83562438D01*
X107393452Y-83562438D02*
X107345833Y-83610057D01*
X107345833Y-83610057D02*
X107298214Y-83705295D01*
X107298214Y-83705295D02*
X107298214Y-83800533D01*
X107298214Y-83800533D02*
X107345833Y-83895771D01*
X107345833Y-83895771D02*
X107393452Y-83943390D01*
X107393452Y-83943390D02*
X107488690Y-83991009D01*
X107488690Y-83991009D02*
X107822023Y-83991009D01*
X106298214Y-84514819D02*
X106869642Y-84514819D01*
X106583928Y-84514819D02*
X106583928Y-83514819D01*
X106583928Y-83514819D02*
X106679166Y-83657676D01*
X106679166Y-83657676D02*
X106774404Y-83752914D01*
X106774404Y-83752914D02*
X106869642Y-83800533D01*
X105599047Y-90389580D02*
X105646666Y-90437200D01*
X105646666Y-90437200D02*
X105789523Y-90484819D01*
X105789523Y-90484819D02*
X105884761Y-90484819D01*
X105884761Y-90484819D02*
X106027618Y-90437200D01*
X106027618Y-90437200D02*
X106122856Y-90341961D01*
X106122856Y-90341961D02*
X106170475Y-90246723D01*
X106170475Y-90246723D02*
X106218094Y-90056247D01*
X106218094Y-90056247D02*
X106218094Y-89913390D01*
X106218094Y-89913390D02*
X106170475Y-89722914D01*
X106170475Y-89722914D02*
X106122856Y-89627676D01*
X106122856Y-89627676D02*
X106027618Y-89532438D01*
X106027618Y-89532438D02*
X105884761Y-89484819D01*
X105884761Y-89484819D02*
X105789523Y-89484819D01*
X105789523Y-89484819D02*
X105646666Y-89532438D01*
X105646666Y-89532438D02*
X105599047Y-89580057D01*
X104646666Y-90484819D02*
X105218094Y-90484819D01*
X104932380Y-90484819D02*
X104932380Y-89484819D01*
X104932380Y-89484819D02*
X105027618Y-89627676D01*
X105027618Y-89627676D02*
X105122856Y-89722914D01*
X105122856Y-89722914D02*
X105218094Y-89770533D01*
X104027618Y-89484819D02*
X103932380Y-89484819D01*
X103932380Y-89484819D02*
X103837142Y-89532438D01*
X103837142Y-89532438D02*
X103789523Y-89580057D01*
X103789523Y-89580057D02*
X103741904Y-89675295D01*
X103741904Y-89675295D02*
X103694285Y-89865771D01*
X103694285Y-89865771D02*
X103694285Y-90103866D01*
X103694285Y-90103866D02*
X103741904Y-90294342D01*
X103741904Y-90294342D02*
X103789523Y-90389580D01*
X103789523Y-90389580D02*
X103837142Y-90437200D01*
X103837142Y-90437200D02*
X103932380Y-90484819D01*
X103932380Y-90484819D02*
X104027618Y-90484819D01*
X104027618Y-90484819D02*
X104122856Y-90437200D01*
X104122856Y-90437200D02*
X104170475Y-90389580D01*
X104170475Y-90389580D02*
X104218094Y-90294342D01*
X104218094Y-90294342D02*
X104265713Y-90103866D01*
X104265713Y-90103866D02*
X104265713Y-89865771D01*
X104265713Y-89865771D02*
X104218094Y-89675295D01*
X104218094Y-89675295D02*
X104170475Y-89580057D01*
X104170475Y-89580057D02*
X104122856Y-89532438D01*
X104122856Y-89532438D02*
X104027618Y-89484819D01*
X103218094Y-90484819D02*
X103027618Y-90484819D01*
X103027618Y-90484819D02*
X102932380Y-90437200D01*
X102932380Y-90437200D02*
X102884761Y-90389580D01*
X102884761Y-90389580D02*
X102789523Y-90246723D01*
X102789523Y-90246723D02*
X102741904Y-90056247D01*
X102741904Y-90056247D02*
X102741904Y-89675295D01*
X102741904Y-89675295D02*
X102789523Y-89580057D01*
X102789523Y-89580057D02*
X102837142Y-89532438D01*
X102837142Y-89532438D02*
X102932380Y-89484819D01*
X102932380Y-89484819D02*
X103122856Y-89484819D01*
X103122856Y-89484819D02*
X103218094Y-89532438D01*
X103218094Y-89532438D02*
X103265713Y-89580057D01*
X103265713Y-89580057D02*
X103313332Y-89675295D01*
X103313332Y-89675295D02*
X103313332Y-89913390D01*
X103313332Y-89913390D02*
X103265713Y-90008628D01*
X103265713Y-90008628D02*
X103218094Y-90056247D01*
X103218094Y-90056247D02*
X103122856Y-90103866D01*
X103122856Y-90103866D02*
X102932380Y-90103866D01*
X102932380Y-90103866D02*
X102837142Y-90056247D01*
X102837142Y-90056247D02*
X102789523Y-90008628D01*
X102789523Y-90008628D02*
X102741904Y-89913390D01*
X105244047Y-78889580D02*
X105291666Y-78937200D01*
X105291666Y-78937200D02*
X105434523Y-78984819D01*
X105434523Y-78984819D02*
X105529761Y-78984819D01*
X105529761Y-78984819D02*
X105672618Y-78937200D01*
X105672618Y-78937200D02*
X105767856Y-78841961D01*
X105767856Y-78841961D02*
X105815475Y-78746723D01*
X105815475Y-78746723D02*
X105863094Y-78556247D01*
X105863094Y-78556247D02*
X105863094Y-78413390D01*
X105863094Y-78413390D02*
X105815475Y-78222914D01*
X105815475Y-78222914D02*
X105767856Y-78127676D01*
X105767856Y-78127676D02*
X105672618Y-78032438D01*
X105672618Y-78032438D02*
X105529761Y-77984819D01*
X105529761Y-77984819D02*
X105434523Y-77984819D01*
X105434523Y-77984819D02*
X105291666Y-78032438D01*
X105291666Y-78032438D02*
X105244047Y-78080057D01*
X104291666Y-78984819D02*
X104863094Y-78984819D01*
X104577380Y-78984819D02*
X104577380Y-77984819D01*
X104577380Y-77984819D02*
X104672618Y-78127676D01*
X104672618Y-78127676D02*
X104767856Y-78222914D01*
X104767856Y-78222914D02*
X104863094Y-78270533D01*
X103339285Y-78984819D02*
X103910713Y-78984819D01*
X103624999Y-78984819D02*
X103624999Y-77984819D01*
X103624999Y-77984819D02*
X103720237Y-78127676D01*
X103720237Y-78127676D02*
X103815475Y-78222914D01*
X103815475Y-78222914D02*
X103910713Y-78270533D01*
X102386904Y-78984819D02*
X102958332Y-78984819D01*
X102672618Y-78984819D02*
X102672618Y-77984819D01*
X102672618Y-77984819D02*
X102767856Y-78127676D01*
X102767856Y-78127676D02*
X102863094Y-78222914D01*
X102863094Y-78222914D02*
X102958332Y-78270533D01*
X122344580Y-54717142D02*
X122392200Y-54669523D01*
X122392200Y-54669523D02*
X122439819Y-54526666D01*
X122439819Y-54526666D02*
X122439819Y-54431428D01*
X122439819Y-54431428D02*
X122392200Y-54288571D01*
X122392200Y-54288571D02*
X122296961Y-54193333D01*
X122296961Y-54193333D02*
X122201723Y-54145714D01*
X122201723Y-54145714D02*
X122011247Y-54098095D01*
X122011247Y-54098095D02*
X121868390Y-54098095D01*
X121868390Y-54098095D02*
X121677914Y-54145714D01*
X121677914Y-54145714D02*
X121582676Y-54193333D01*
X121582676Y-54193333D02*
X121487438Y-54288571D01*
X121487438Y-54288571D02*
X121439819Y-54431428D01*
X121439819Y-54431428D02*
X121439819Y-54526666D01*
X121439819Y-54526666D02*
X121487438Y-54669523D01*
X121487438Y-54669523D02*
X121535057Y-54717142D01*
X122439819Y-55193333D02*
X122439819Y-55383809D01*
X122439819Y-55383809D02*
X122392200Y-55479047D01*
X122392200Y-55479047D02*
X122344580Y-55526666D01*
X122344580Y-55526666D02*
X122201723Y-55621904D01*
X122201723Y-55621904D02*
X122011247Y-55669523D01*
X122011247Y-55669523D02*
X121630295Y-55669523D01*
X121630295Y-55669523D02*
X121535057Y-55621904D01*
X121535057Y-55621904D02*
X121487438Y-55574285D01*
X121487438Y-55574285D02*
X121439819Y-55479047D01*
X121439819Y-55479047D02*
X121439819Y-55288571D01*
X121439819Y-55288571D02*
X121487438Y-55193333D01*
X121487438Y-55193333D02*
X121535057Y-55145714D01*
X121535057Y-55145714D02*
X121630295Y-55098095D01*
X121630295Y-55098095D02*
X121868390Y-55098095D01*
X121868390Y-55098095D02*
X121963628Y-55145714D01*
X121963628Y-55145714D02*
X122011247Y-55193333D01*
X122011247Y-55193333D02*
X122058866Y-55288571D01*
X122058866Y-55288571D02*
X122058866Y-55479047D01*
X122058866Y-55479047D02*
X122011247Y-55574285D01*
X122011247Y-55574285D02*
X121963628Y-55621904D01*
X121963628Y-55621904D02*
X121868390Y-55669523D01*
X121535057Y-56050476D02*
X121487438Y-56098095D01*
X121487438Y-56098095D02*
X121439819Y-56193333D01*
X121439819Y-56193333D02*
X121439819Y-56431428D01*
X121439819Y-56431428D02*
X121487438Y-56526666D01*
X121487438Y-56526666D02*
X121535057Y-56574285D01*
X121535057Y-56574285D02*
X121630295Y-56621904D01*
X121630295Y-56621904D02*
X121725533Y-56621904D01*
X121725533Y-56621904D02*
X121868390Y-56574285D01*
X121868390Y-56574285D02*
X122439819Y-56002857D01*
X122439819Y-56002857D02*
X122439819Y-56621904D01*
X129501666Y-60659819D02*
X129977856Y-60659819D01*
X129977856Y-60659819D02*
X129977856Y-59659819D01*
X128644523Y-60659819D02*
X129215951Y-60659819D01*
X128930237Y-60659819D02*
X128930237Y-59659819D01*
X128930237Y-59659819D02*
X129025475Y-59802676D01*
X129025475Y-59802676D02*
X129120713Y-59897914D01*
X129120713Y-59897914D02*
X129215951Y-59945533D01*
X113319580Y-76907142D02*
X113367200Y-76859523D01*
X113367200Y-76859523D02*
X113414819Y-76716666D01*
X113414819Y-76716666D02*
X113414819Y-76621428D01*
X113414819Y-76621428D02*
X113367200Y-76478571D01*
X113367200Y-76478571D02*
X113271961Y-76383333D01*
X113271961Y-76383333D02*
X113176723Y-76335714D01*
X113176723Y-76335714D02*
X112986247Y-76288095D01*
X112986247Y-76288095D02*
X112843390Y-76288095D01*
X112843390Y-76288095D02*
X112652914Y-76335714D01*
X112652914Y-76335714D02*
X112557676Y-76383333D01*
X112557676Y-76383333D02*
X112462438Y-76478571D01*
X112462438Y-76478571D02*
X112414819Y-76621428D01*
X112414819Y-76621428D02*
X112414819Y-76716666D01*
X112414819Y-76716666D02*
X112462438Y-76859523D01*
X112462438Y-76859523D02*
X112510057Y-76907142D01*
X112414819Y-77764285D02*
X112414819Y-77573809D01*
X112414819Y-77573809D02*
X112462438Y-77478571D01*
X112462438Y-77478571D02*
X112510057Y-77430952D01*
X112510057Y-77430952D02*
X112652914Y-77335714D01*
X112652914Y-77335714D02*
X112843390Y-77288095D01*
X112843390Y-77288095D02*
X113224342Y-77288095D01*
X113224342Y-77288095D02*
X113319580Y-77335714D01*
X113319580Y-77335714D02*
X113367200Y-77383333D01*
X113367200Y-77383333D02*
X113414819Y-77478571D01*
X113414819Y-77478571D02*
X113414819Y-77669047D01*
X113414819Y-77669047D02*
X113367200Y-77764285D01*
X113367200Y-77764285D02*
X113319580Y-77811904D01*
X113319580Y-77811904D02*
X113224342Y-77859523D01*
X113224342Y-77859523D02*
X112986247Y-77859523D01*
X112986247Y-77859523D02*
X112891009Y-77811904D01*
X112891009Y-77811904D02*
X112843390Y-77764285D01*
X112843390Y-77764285D02*
X112795771Y-77669047D01*
X112795771Y-77669047D02*
X112795771Y-77478571D01*
X112795771Y-77478571D02*
X112843390Y-77383333D01*
X112843390Y-77383333D02*
X112891009Y-77335714D01*
X112891009Y-77335714D02*
X112986247Y-77288095D01*
X112510057Y-78240476D02*
X112462438Y-78288095D01*
X112462438Y-78288095D02*
X112414819Y-78383333D01*
X112414819Y-78383333D02*
X112414819Y-78621428D01*
X112414819Y-78621428D02*
X112462438Y-78716666D01*
X112462438Y-78716666D02*
X112510057Y-78764285D01*
X112510057Y-78764285D02*
X112605295Y-78811904D01*
X112605295Y-78811904D02*
X112700533Y-78811904D01*
X112700533Y-78811904D02*
X112843390Y-78764285D01*
X112843390Y-78764285D02*
X113414819Y-78192857D01*
X113414819Y-78192857D02*
X113414819Y-78811904D01*
X134544580Y-54702142D02*
X134592200Y-54654523D01*
X134592200Y-54654523D02*
X134639819Y-54511666D01*
X134639819Y-54511666D02*
X134639819Y-54416428D01*
X134639819Y-54416428D02*
X134592200Y-54273571D01*
X134592200Y-54273571D02*
X134496961Y-54178333D01*
X134496961Y-54178333D02*
X134401723Y-54130714D01*
X134401723Y-54130714D02*
X134211247Y-54083095D01*
X134211247Y-54083095D02*
X134068390Y-54083095D01*
X134068390Y-54083095D02*
X133877914Y-54130714D01*
X133877914Y-54130714D02*
X133782676Y-54178333D01*
X133782676Y-54178333D02*
X133687438Y-54273571D01*
X133687438Y-54273571D02*
X133639819Y-54416428D01*
X133639819Y-54416428D02*
X133639819Y-54511666D01*
X133639819Y-54511666D02*
X133687438Y-54654523D01*
X133687438Y-54654523D02*
X133735057Y-54702142D01*
X134639819Y-55178333D02*
X134639819Y-55368809D01*
X134639819Y-55368809D02*
X134592200Y-55464047D01*
X134592200Y-55464047D02*
X134544580Y-55511666D01*
X134544580Y-55511666D02*
X134401723Y-55606904D01*
X134401723Y-55606904D02*
X134211247Y-55654523D01*
X134211247Y-55654523D02*
X133830295Y-55654523D01*
X133830295Y-55654523D02*
X133735057Y-55606904D01*
X133735057Y-55606904D02*
X133687438Y-55559285D01*
X133687438Y-55559285D02*
X133639819Y-55464047D01*
X133639819Y-55464047D02*
X133639819Y-55273571D01*
X133639819Y-55273571D02*
X133687438Y-55178333D01*
X133687438Y-55178333D02*
X133735057Y-55130714D01*
X133735057Y-55130714D02*
X133830295Y-55083095D01*
X133830295Y-55083095D02*
X134068390Y-55083095D01*
X134068390Y-55083095D02*
X134163628Y-55130714D01*
X134163628Y-55130714D02*
X134211247Y-55178333D01*
X134211247Y-55178333D02*
X134258866Y-55273571D01*
X134258866Y-55273571D02*
X134258866Y-55464047D01*
X134258866Y-55464047D02*
X134211247Y-55559285D01*
X134211247Y-55559285D02*
X134163628Y-55606904D01*
X134163628Y-55606904D02*
X134068390Y-55654523D01*
X133639819Y-55987857D02*
X133639819Y-56654523D01*
X133639819Y-56654523D02*
X134639819Y-56225952D01*
X133444819Y-86133333D02*
X132968628Y-85800000D01*
X133444819Y-85561905D02*
X132444819Y-85561905D01*
X132444819Y-85561905D02*
X132444819Y-85942857D01*
X132444819Y-85942857D02*
X132492438Y-86038095D01*
X132492438Y-86038095D02*
X132540057Y-86085714D01*
X132540057Y-86085714D02*
X132635295Y-86133333D01*
X132635295Y-86133333D02*
X132778152Y-86133333D01*
X132778152Y-86133333D02*
X132873390Y-86085714D01*
X132873390Y-86085714D02*
X132921009Y-86038095D01*
X132921009Y-86038095D02*
X132968628Y-85942857D01*
X132968628Y-85942857D02*
X132968628Y-85561905D01*
X132778152Y-86990476D02*
X133444819Y-86990476D01*
X132397200Y-86752381D02*
X133111485Y-86514286D01*
X133111485Y-86514286D02*
X133111485Y-87133333D01*
X112289580Y-79747142D02*
X112337200Y-79699523D01*
X112337200Y-79699523D02*
X112384819Y-79556666D01*
X112384819Y-79556666D02*
X112384819Y-79461428D01*
X112384819Y-79461428D02*
X112337200Y-79318571D01*
X112337200Y-79318571D02*
X112241961Y-79223333D01*
X112241961Y-79223333D02*
X112146723Y-79175714D01*
X112146723Y-79175714D02*
X111956247Y-79128095D01*
X111956247Y-79128095D02*
X111813390Y-79128095D01*
X111813390Y-79128095D02*
X111622914Y-79175714D01*
X111622914Y-79175714D02*
X111527676Y-79223333D01*
X111527676Y-79223333D02*
X111432438Y-79318571D01*
X111432438Y-79318571D02*
X111384819Y-79461428D01*
X111384819Y-79461428D02*
X111384819Y-79556666D01*
X111384819Y-79556666D02*
X111432438Y-79699523D01*
X111432438Y-79699523D02*
X111480057Y-79747142D01*
X111813390Y-80318571D02*
X111765771Y-80223333D01*
X111765771Y-80223333D02*
X111718152Y-80175714D01*
X111718152Y-80175714D02*
X111622914Y-80128095D01*
X111622914Y-80128095D02*
X111575295Y-80128095D01*
X111575295Y-80128095D02*
X111480057Y-80175714D01*
X111480057Y-80175714D02*
X111432438Y-80223333D01*
X111432438Y-80223333D02*
X111384819Y-80318571D01*
X111384819Y-80318571D02*
X111384819Y-80509047D01*
X111384819Y-80509047D02*
X111432438Y-80604285D01*
X111432438Y-80604285D02*
X111480057Y-80651904D01*
X111480057Y-80651904D02*
X111575295Y-80699523D01*
X111575295Y-80699523D02*
X111622914Y-80699523D01*
X111622914Y-80699523D02*
X111718152Y-80651904D01*
X111718152Y-80651904D02*
X111765771Y-80604285D01*
X111765771Y-80604285D02*
X111813390Y-80509047D01*
X111813390Y-80509047D02*
X111813390Y-80318571D01*
X111813390Y-80318571D02*
X111861009Y-80223333D01*
X111861009Y-80223333D02*
X111908628Y-80175714D01*
X111908628Y-80175714D02*
X112003866Y-80128095D01*
X112003866Y-80128095D02*
X112194342Y-80128095D01*
X112194342Y-80128095D02*
X112289580Y-80175714D01*
X112289580Y-80175714D02*
X112337200Y-80223333D01*
X112337200Y-80223333D02*
X112384819Y-80318571D01*
X112384819Y-80318571D02*
X112384819Y-80509047D01*
X112384819Y-80509047D02*
X112337200Y-80604285D01*
X112337200Y-80604285D02*
X112289580Y-80651904D01*
X112289580Y-80651904D02*
X112194342Y-80699523D01*
X112194342Y-80699523D02*
X112003866Y-80699523D01*
X112003866Y-80699523D02*
X111908628Y-80651904D01*
X111908628Y-80651904D02*
X111861009Y-80604285D01*
X111861009Y-80604285D02*
X111813390Y-80509047D01*
X111480057Y-81080476D02*
X111432438Y-81128095D01*
X111432438Y-81128095D02*
X111384819Y-81223333D01*
X111384819Y-81223333D02*
X111384819Y-81461428D01*
X111384819Y-81461428D02*
X111432438Y-81556666D01*
X111432438Y-81556666D02*
X111480057Y-81604285D01*
X111480057Y-81604285D02*
X111575295Y-81651904D01*
X111575295Y-81651904D02*
X111670533Y-81651904D01*
X111670533Y-81651904D02*
X111813390Y-81604285D01*
X111813390Y-81604285D02*
X112384819Y-81032857D01*
X112384819Y-81032857D02*
X112384819Y-81651904D01*
X132722857Y-81414819D02*
X133056190Y-80938628D01*
X133294285Y-81414819D02*
X133294285Y-80414819D01*
X133294285Y-80414819D02*
X132913333Y-80414819D01*
X132913333Y-80414819D02*
X132818095Y-80462438D01*
X132818095Y-80462438D02*
X132770476Y-80510057D01*
X132770476Y-80510057D02*
X132722857Y-80605295D01*
X132722857Y-80605295D02*
X132722857Y-80748152D01*
X132722857Y-80748152D02*
X132770476Y-80843390D01*
X132770476Y-80843390D02*
X132818095Y-80891009D01*
X132818095Y-80891009D02*
X132913333Y-80938628D01*
X132913333Y-80938628D02*
X133294285Y-80938628D01*
X131770476Y-81414819D02*
X132341904Y-81414819D01*
X132056190Y-81414819D02*
X132056190Y-80414819D01*
X132056190Y-80414819D02*
X132151428Y-80557676D01*
X132151428Y-80557676D02*
X132246666Y-80652914D01*
X132246666Y-80652914D02*
X132341904Y-80700533D01*
X130818095Y-81414819D02*
X131389523Y-81414819D01*
X131103809Y-81414819D02*
X131103809Y-80414819D01*
X131103809Y-80414819D02*
X131199047Y-80557676D01*
X131199047Y-80557676D02*
X131294285Y-80652914D01*
X131294285Y-80652914D02*
X131389523Y-80700533D01*
X135564819Y-82383333D02*
X135088628Y-82050000D01*
X135564819Y-81811905D02*
X134564819Y-81811905D01*
X134564819Y-81811905D02*
X134564819Y-82192857D01*
X134564819Y-82192857D02*
X134612438Y-82288095D01*
X134612438Y-82288095D02*
X134660057Y-82335714D01*
X134660057Y-82335714D02*
X134755295Y-82383333D01*
X134755295Y-82383333D02*
X134898152Y-82383333D01*
X134898152Y-82383333D02*
X134993390Y-82335714D01*
X134993390Y-82335714D02*
X135041009Y-82288095D01*
X135041009Y-82288095D02*
X135088628Y-82192857D01*
X135088628Y-82192857D02*
X135088628Y-81811905D01*
X134564819Y-83288095D02*
X134564819Y-82811905D01*
X134564819Y-82811905D02*
X135041009Y-82764286D01*
X135041009Y-82764286D02*
X134993390Y-82811905D01*
X134993390Y-82811905D02*
X134945771Y-82907143D01*
X134945771Y-82907143D02*
X134945771Y-83145238D01*
X134945771Y-83145238D02*
X134993390Y-83240476D01*
X134993390Y-83240476D02*
X135041009Y-83288095D01*
X135041009Y-83288095D02*
X135136247Y-83335714D01*
X135136247Y-83335714D02*
X135374342Y-83335714D01*
X135374342Y-83335714D02*
X135469580Y-83288095D01*
X135469580Y-83288095D02*
X135517200Y-83240476D01*
X135517200Y-83240476D02*
X135564819Y-83145238D01*
X135564819Y-83145238D02*
X135564819Y-82907143D01*
X135564819Y-82907143D02*
X135517200Y-82811905D01*
X135517200Y-82811905D02*
X135469580Y-82764286D01*
X123874580Y-54692142D02*
X123922200Y-54644523D01*
X123922200Y-54644523D02*
X123969819Y-54501666D01*
X123969819Y-54501666D02*
X123969819Y-54406428D01*
X123969819Y-54406428D02*
X123922200Y-54263571D01*
X123922200Y-54263571D02*
X123826961Y-54168333D01*
X123826961Y-54168333D02*
X123731723Y-54120714D01*
X123731723Y-54120714D02*
X123541247Y-54073095D01*
X123541247Y-54073095D02*
X123398390Y-54073095D01*
X123398390Y-54073095D02*
X123207914Y-54120714D01*
X123207914Y-54120714D02*
X123112676Y-54168333D01*
X123112676Y-54168333D02*
X123017438Y-54263571D01*
X123017438Y-54263571D02*
X122969819Y-54406428D01*
X122969819Y-54406428D02*
X122969819Y-54501666D01*
X122969819Y-54501666D02*
X123017438Y-54644523D01*
X123017438Y-54644523D02*
X123065057Y-54692142D01*
X123969819Y-55168333D02*
X123969819Y-55358809D01*
X123969819Y-55358809D02*
X123922200Y-55454047D01*
X123922200Y-55454047D02*
X123874580Y-55501666D01*
X123874580Y-55501666D02*
X123731723Y-55596904D01*
X123731723Y-55596904D02*
X123541247Y-55644523D01*
X123541247Y-55644523D02*
X123160295Y-55644523D01*
X123160295Y-55644523D02*
X123065057Y-55596904D01*
X123065057Y-55596904D02*
X123017438Y-55549285D01*
X123017438Y-55549285D02*
X122969819Y-55454047D01*
X122969819Y-55454047D02*
X122969819Y-55263571D01*
X122969819Y-55263571D02*
X123017438Y-55168333D01*
X123017438Y-55168333D02*
X123065057Y-55120714D01*
X123065057Y-55120714D02*
X123160295Y-55073095D01*
X123160295Y-55073095D02*
X123398390Y-55073095D01*
X123398390Y-55073095D02*
X123493628Y-55120714D01*
X123493628Y-55120714D02*
X123541247Y-55168333D01*
X123541247Y-55168333D02*
X123588866Y-55263571D01*
X123588866Y-55263571D02*
X123588866Y-55454047D01*
X123588866Y-55454047D02*
X123541247Y-55549285D01*
X123541247Y-55549285D02*
X123493628Y-55596904D01*
X123493628Y-55596904D02*
X123398390Y-55644523D01*
X123969819Y-56596904D02*
X123969819Y-56025476D01*
X123969819Y-56311190D02*
X122969819Y-56311190D01*
X122969819Y-56311190D02*
X123112676Y-56215952D01*
X123112676Y-56215952D02*
X123207914Y-56120714D01*
X123207914Y-56120714D02*
X123255533Y-56025476D01*
X148827857Y-115154580D02*
X148875476Y-115202200D01*
X148875476Y-115202200D02*
X149018333Y-115249819D01*
X149018333Y-115249819D02*
X149113571Y-115249819D01*
X149113571Y-115249819D02*
X149256428Y-115202200D01*
X149256428Y-115202200D02*
X149351666Y-115106961D01*
X149351666Y-115106961D02*
X149399285Y-115011723D01*
X149399285Y-115011723D02*
X149446904Y-114821247D01*
X149446904Y-114821247D02*
X149446904Y-114678390D01*
X149446904Y-114678390D02*
X149399285Y-114487914D01*
X149399285Y-114487914D02*
X149351666Y-114392676D01*
X149351666Y-114392676D02*
X149256428Y-114297438D01*
X149256428Y-114297438D02*
X149113571Y-114249819D01*
X149113571Y-114249819D02*
X149018333Y-114249819D01*
X149018333Y-114249819D02*
X148875476Y-114297438D01*
X148875476Y-114297438D02*
X148827857Y-114345057D01*
X147875476Y-115249819D02*
X148446904Y-115249819D01*
X148161190Y-115249819D02*
X148161190Y-114249819D01*
X148161190Y-114249819D02*
X148256428Y-114392676D01*
X148256428Y-114392676D02*
X148351666Y-114487914D01*
X148351666Y-114487914D02*
X148446904Y-114535533D01*
X146923095Y-115249819D02*
X147494523Y-115249819D01*
X147208809Y-115249819D02*
X147208809Y-114249819D01*
X147208809Y-114249819D02*
X147304047Y-114392676D01*
X147304047Y-114392676D02*
X147399285Y-114487914D01*
X147399285Y-114487914D02*
X147494523Y-114535533D01*
X121332857Y-85499580D02*
X121380476Y-85547200D01*
X121380476Y-85547200D02*
X121523333Y-85594819D01*
X121523333Y-85594819D02*
X121618571Y-85594819D01*
X121618571Y-85594819D02*
X121761428Y-85547200D01*
X121761428Y-85547200D02*
X121856666Y-85451961D01*
X121856666Y-85451961D02*
X121904285Y-85356723D01*
X121904285Y-85356723D02*
X121951904Y-85166247D01*
X121951904Y-85166247D02*
X121951904Y-85023390D01*
X121951904Y-85023390D02*
X121904285Y-84832914D01*
X121904285Y-84832914D02*
X121856666Y-84737676D01*
X121856666Y-84737676D02*
X121761428Y-84642438D01*
X121761428Y-84642438D02*
X121618571Y-84594819D01*
X121618571Y-84594819D02*
X121523333Y-84594819D01*
X121523333Y-84594819D02*
X121380476Y-84642438D01*
X121380476Y-84642438D02*
X121332857Y-84690057D01*
X120999523Y-84594819D02*
X120332857Y-84594819D01*
X120332857Y-84594819D02*
X120761428Y-85594819D01*
X120047142Y-84594819D02*
X119380476Y-84594819D01*
X119380476Y-84594819D02*
X119809047Y-85594819D01*
X118818580Y-91103632D02*
X118866200Y-91056013D01*
X118866200Y-91056013D02*
X118913819Y-90913156D01*
X118913819Y-90913156D02*
X118913819Y-90817918D01*
X118913819Y-90817918D02*
X118866200Y-90675061D01*
X118866200Y-90675061D02*
X118770961Y-90579823D01*
X118770961Y-90579823D02*
X118675723Y-90532204D01*
X118675723Y-90532204D02*
X118485247Y-90484585D01*
X118485247Y-90484585D02*
X118342390Y-90484585D01*
X118342390Y-90484585D02*
X118151914Y-90532204D01*
X118151914Y-90532204D02*
X118056676Y-90579823D01*
X118056676Y-90579823D02*
X117961438Y-90675061D01*
X117961438Y-90675061D02*
X117913819Y-90817918D01*
X117913819Y-90817918D02*
X117913819Y-90913156D01*
X117913819Y-90913156D02*
X117961438Y-91056013D01*
X117961438Y-91056013D02*
X118009057Y-91103632D01*
X117913819Y-91436966D02*
X117913819Y-92056013D01*
X117913819Y-92056013D02*
X118294771Y-91722680D01*
X118294771Y-91722680D02*
X118294771Y-91865537D01*
X118294771Y-91865537D02*
X118342390Y-91960775D01*
X118342390Y-91960775D02*
X118390009Y-92008394D01*
X118390009Y-92008394D02*
X118485247Y-92056013D01*
X118485247Y-92056013D02*
X118723342Y-92056013D01*
X118723342Y-92056013D02*
X118818580Y-92008394D01*
X118818580Y-92008394D02*
X118866200Y-91960775D01*
X118866200Y-91960775D02*
X118913819Y-91865537D01*
X118913819Y-91865537D02*
X118913819Y-91579823D01*
X118913819Y-91579823D02*
X118866200Y-91484585D01*
X118866200Y-91484585D02*
X118818580Y-91436966D01*
X114759757Y-61199919D02*
X115093090Y-60723728D01*
X115331185Y-61199919D02*
X115331185Y-60199919D01*
X115331185Y-60199919D02*
X114950233Y-60199919D01*
X114950233Y-60199919D02*
X114854995Y-60247538D01*
X114854995Y-60247538D02*
X114807376Y-60295157D01*
X114807376Y-60295157D02*
X114759757Y-60390395D01*
X114759757Y-60390395D02*
X114759757Y-60533252D01*
X114759757Y-60533252D02*
X114807376Y-60628490D01*
X114807376Y-60628490D02*
X114854995Y-60676109D01*
X114854995Y-60676109D02*
X114950233Y-60723728D01*
X114950233Y-60723728D02*
X115331185Y-60723728D01*
X114426423Y-60199919D02*
X113807376Y-60199919D01*
X113807376Y-60199919D02*
X114140709Y-60580871D01*
X114140709Y-60580871D02*
X113997852Y-60580871D01*
X113997852Y-60580871D02*
X113902614Y-60628490D01*
X113902614Y-60628490D02*
X113854995Y-60676109D01*
X113854995Y-60676109D02*
X113807376Y-60771347D01*
X113807376Y-60771347D02*
X113807376Y-61009442D01*
X113807376Y-61009442D02*
X113854995Y-61104680D01*
X113854995Y-61104680D02*
X113902614Y-61152300D01*
X113902614Y-61152300D02*
X113997852Y-61199919D01*
X113997852Y-61199919D02*
X114283566Y-61199919D01*
X114283566Y-61199919D02*
X114378804Y-61152300D01*
X114378804Y-61152300D02*
X114426423Y-61104680D01*
X113188328Y-60199919D02*
X113093090Y-60199919D01*
X113093090Y-60199919D02*
X112997852Y-60247538D01*
X112997852Y-60247538D02*
X112950233Y-60295157D01*
X112950233Y-60295157D02*
X112902614Y-60390395D01*
X112902614Y-60390395D02*
X112854995Y-60580871D01*
X112854995Y-60580871D02*
X112854995Y-60818966D01*
X112854995Y-60818966D02*
X112902614Y-61009442D01*
X112902614Y-61009442D02*
X112950233Y-61104680D01*
X112950233Y-61104680D02*
X112997852Y-61152300D01*
X112997852Y-61152300D02*
X113093090Y-61199919D01*
X113093090Y-61199919D02*
X113188328Y-61199919D01*
X113188328Y-61199919D02*
X113283566Y-61152300D01*
X113283566Y-61152300D02*
X113331185Y-61104680D01*
X113331185Y-61104680D02*
X113378804Y-61009442D01*
X113378804Y-61009442D02*
X113426423Y-60818966D01*
X113426423Y-60818966D02*
X113426423Y-60580871D01*
X113426423Y-60580871D02*
X113378804Y-60390395D01*
X113378804Y-60390395D02*
X113331185Y-60295157D01*
X113331185Y-60295157D02*
X113283566Y-60247538D01*
X113283566Y-60247538D02*
X113188328Y-60199919D01*
X133459819Y-54652142D02*
X132983628Y-54318809D01*
X133459819Y-54080714D02*
X132459819Y-54080714D01*
X132459819Y-54080714D02*
X132459819Y-54461666D01*
X132459819Y-54461666D02*
X132507438Y-54556904D01*
X132507438Y-54556904D02*
X132555057Y-54604523D01*
X132555057Y-54604523D02*
X132650295Y-54652142D01*
X132650295Y-54652142D02*
X132793152Y-54652142D01*
X132793152Y-54652142D02*
X132888390Y-54604523D01*
X132888390Y-54604523D02*
X132936009Y-54556904D01*
X132936009Y-54556904D02*
X132983628Y-54461666D01*
X132983628Y-54461666D02*
X132983628Y-54080714D01*
X132459819Y-54985476D02*
X132459819Y-55604523D01*
X132459819Y-55604523D02*
X132840771Y-55271190D01*
X132840771Y-55271190D02*
X132840771Y-55414047D01*
X132840771Y-55414047D02*
X132888390Y-55509285D01*
X132888390Y-55509285D02*
X132936009Y-55556904D01*
X132936009Y-55556904D02*
X133031247Y-55604523D01*
X133031247Y-55604523D02*
X133269342Y-55604523D01*
X133269342Y-55604523D02*
X133364580Y-55556904D01*
X133364580Y-55556904D02*
X133412200Y-55509285D01*
X133412200Y-55509285D02*
X133459819Y-55414047D01*
X133459819Y-55414047D02*
X133459819Y-55128333D01*
X133459819Y-55128333D02*
X133412200Y-55033095D01*
X133412200Y-55033095D02*
X133364580Y-54985476D01*
X133459819Y-56556904D02*
X133459819Y-55985476D01*
X133459819Y-56271190D02*
X132459819Y-56271190D01*
X132459819Y-56271190D02*
X132602676Y-56175952D01*
X132602676Y-56175952D02*
X132697914Y-56080714D01*
X132697914Y-56080714D02*
X132745533Y-55985476D01*
X132479580Y-47987142D02*
X132527200Y-47939523D01*
X132527200Y-47939523D02*
X132574819Y-47796666D01*
X132574819Y-47796666D02*
X132574819Y-47701428D01*
X132574819Y-47701428D02*
X132527200Y-47558571D01*
X132527200Y-47558571D02*
X132431961Y-47463333D01*
X132431961Y-47463333D02*
X132336723Y-47415714D01*
X132336723Y-47415714D02*
X132146247Y-47368095D01*
X132146247Y-47368095D02*
X132003390Y-47368095D01*
X132003390Y-47368095D02*
X131812914Y-47415714D01*
X131812914Y-47415714D02*
X131717676Y-47463333D01*
X131717676Y-47463333D02*
X131622438Y-47558571D01*
X131622438Y-47558571D02*
X131574819Y-47701428D01*
X131574819Y-47701428D02*
X131574819Y-47796666D01*
X131574819Y-47796666D02*
X131622438Y-47939523D01*
X131622438Y-47939523D02*
X131670057Y-47987142D01*
X132574819Y-48463333D02*
X132574819Y-48653809D01*
X132574819Y-48653809D02*
X132527200Y-48749047D01*
X132527200Y-48749047D02*
X132479580Y-48796666D01*
X132479580Y-48796666D02*
X132336723Y-48891904D01*
X132336723Y-48891904D02*
X132146247Y-48939523D01*
X132146247Y-48939523D02*
X131765295Y-48939523D01*
X131765295Y-48939523D02*
X131670057Y-48891904D01*
X131670057Y-48891904D02*
X131622438Y-48844285D01*
X131622438Y-48844285D02*
X131574819Y-48749047D01*
X131574819Y-48749047D02*
X131574819Y-48558571D01*
X131574819Y-48558571D02*
X131622438Y-48463333D01*
X131622438Y-48463333D02*
X131670057Y-48415714D01*
X131670057Y-48415714D02*
X131765295Y-48368095D01*
X131765295Y-48368095D02*
X132003390Y-48368095D01*
X132003390Y-48368095D02*
X132098628Y-48415714D01*
X132098628Y-48415714D02*
X132146247Y-48463333D01*
X132146247Y-48463333D02*
X132193866Y-48558571D01*
X132193866Y-48558571D02*
X132193866Y-48749047D01*
X132193866Y-48749047D02*
X132146247Y-48844285D01*
X132146247Y-48844285D02*
X132098628Y-48891904D01*
X132098628Y-48891904D02*
X132003390Y-48939523D01*
X132003390Y-49510952D02*
X131955771Y-49415714D01*
X131955771Y-49415714D02*
X131908152Y-49368095D01*
X131908152Y-49368095D02*
X131812914Y-49320476D01*
X131812914Y-49320476D02*
X131765295Y-49320476D01*
X131765295Y-49320476D02*
X131670057Y-49368095D01*
X131670057Y-49368095D02*
X131622438Y-49415714D01*
X131622438Y-49415714D02*
X131574819Y-49510952D01*
X131574819Y-49510952D02*
X131574819Y-49701428D01*
X131574819Y-49701428D02*
X131622438Y-49796666D01*
X131622438Y-49796666D02*
X131670057Y-49844285D01*
X131670057Y-49844285D02*
X131765295Y-49891904D01*
X131765295Y-49891904D02*
X131812914Y-49891904D01*
X131812914Y-49891904D02*
X131908152Y-49844285D01*
X131908152Y-49844285D02*
X131955771Y-49796666D01*
X131955771Y-49796666D02*
X132003390Y-49701428D01*
X132003390Y-49701428D02*
X132003390Y-49510952D01*
X132003390Y-49510952D02*
X132051009Y-49415714D01*
X132051009Y-49415714D02*
X132098628Y-49368095D01*
X132098628Y-49368095D02*
X132193866Y-49320476D01*
X132193866Y-49320476D02*
X132384342Y-49320476D01*
X132384342Y-49320476D02*
X132479580Y-49368095D01*
X132479580Y-49368095D02*
X132527200Y-49415714D01*
X132527200Y-49415714D02*
X132574819Y-49510952D01*
X132574819Y-49510952D02*
X132574819Y-49701428D01*
X132574819Y-49701428D02*
X132527200Y-49796666D01*
X132527200Y-49796666D02*
X132479580Y-49844285D01*
X132479580Y-49844285D02*
X132384342Y-49891904D01*
X132384342Y-49891904D02*
X132193866Y-49891904D01*
X132193866Y-49891904D02*
X132098628Y-49844285D01*
X132098628Y-49844285D02*
X132051009Y-49796666D01*
X132051009Y-49796666D02*
X132003390Y-49701428D01*
X113984580Y-82907142D02*
X114032200Y-82859523D01*
X114032200Y-82859523D02*
X114079819Y-82716666D01*
X114079819Y-82716666D02*
X114079819Y-82621428D01*
X114079819Y-82621428D02*
X114032200Y-82478571D01*
X114032200Y-82478571D02*
X113936961Y-82383333D01*
X113936961Y-82383333D02*
X113841723Y-82335714D01*
X113841723Y-82335714D02*
X113651247Y-82288095D01*
X113651247Y-82288095D02*
X113508390Y-82288095D01*
X113508390Y-82288095D02*
X113317914Y-82335714D01*
X113317914Y-82335714D02*
X113222676Y-82383333D01*
X113222676Y-82383333D02*
X113127438Y-82478571D01*
X113127438Y-82478571D02*
X113079819Y-82621428D01*
X113079819Y-82621428D02*
X113079819Y-82716666D01*
X113079819Y-82716666D02*
X113127438Y-82859523D01*
X113127438Y-82859523D02*
X113175057Y-82907142D01*
X113079819Y-83240476D02*
X113079819Y-83907142D01*
X113079819Y-83907142D02*
X114079819Y-83478571D01*
X114079819Y-84335714D02*
X114079819Y-84526190D01*
X114079819Y-84526190D02*
X114032200Y-84621428D01*
X114032200Y-84621428D02*
X113984580Y-84669047D01*
X113984580Y-84669047D02*
X113841723Y-84764285D01*
X113841723Y-84764285D02*
X113651247Y-84811904D01*
X113651247Y-84811904D02*
X113270295Y-84811904D01*
X113270295Y-84811904D02*
X113175057Y-84764285D01*
X113175057Y-84764285D02*
X113127438Y-84716666D01*
X113127438Y-84716666D02*
X113079819Y-84621428D01*
X113079819Y-84621428D02*
X113079819Y-84430952D01*
X113079819Y-84430952D02*
X113127438Y-84335714D01*
X113127438Y-84335714D02*
X113175057Y-84288095D01*
X113175057Y-84288095D02*
X113270295Y-84240476D01*
X113270295Y-84240476D02*
X113508390Y-84240476D01*
X113508390Y-84240476D02*
X113603628Y-84288095D01*
X113603628Y-84288095D02*
X113651247Y-84335714D01*
X113651247Y-84335714D02*
X113698866Y-84430952D01*
X113698866Y-84430952D02*
X113698866Y-84621428D01*
X113698866Y-84621428D02*
X113651247Y-84716666D01*
X113651247Y-84716666D02*
X113603628Y-84764285D01*
X113603628Y-84764285D02*
X113508390Y-84811904D01*
X140424580Y-54677142D02*
X140472200Y-54629523D01*
X140472200Y-54629523D02*
X140519819Y-54486666D01*
X140519819Y-54486666D02*
X140519819Y-54391428D01*
X140519819Y-54391428D02*
X140472200Y-54248571D01*
X140472200Y-54248571D02*
X140376961Y-54153333D01*
X140376961Y-54153333D02*
X140281723Y-54105714D01*
X140281723Y-54105714D02*
X140091247Y-54058095D01*
X140091247Y-54058095D02*
X139948390Y-54058095D01*
X139948390Y-54058095D02*
X139757914Y-54105714D01*
X139757914Y-54105714D02*
X139662676Y-54153333D01*
X139662676Y-54153333D02*
X139567438Y-54248571D01*
X139567438Y-54248571D02*
X139519819Y-54391428D01*
X139519819Y-54391428D02*
X139519819Y-54486666D01*
X139519819Y-54486666D02*
X139567438Y-54629523D01*
X139567438Y-54629523D02*
X139615057Y-54677142D01*
X140519819Y-55153333D02*
X140519819Y-55343809D01*
X140519819Y-55343809D02*
X140472200Y-55439047D01*
X140472200Y-55439047D02*
X140424580Y-55486666D01*
X140424580Y-55486666D02*
X140281723Y-55581904D01*
X140281723Y-55581904D02*
X140091247Y-55629523D01*
X140091247Y-55629523D02*
X139710295Y-55629523D01*
X139710295Y-55629523D02*
X139615057Y-55581904D01*
X139615057Y-55581904D02*
X139567438Y-55534285D01*
X139567438Y-55534285D02*
X139519819Y-55439047D01*
X139519819Y-55439047D02*
X139519819Y-55248571D01*
X139519819Y-55248571D02*
X139567438Y-55153333D01*
X139567438Y-55153333D02*
X139615057Y-55105714D01*
X139615057Y-55105714D02*
X139710295Y-55058095D01*
X139710295Y-55058095D02*
X139948390Y-55058095D01*
X139948390Y-55058095D02*
X140043628Y-55105714D01*
X140043628Y-55105714D02*
X140091247Y-55153333D01*
X140091247Y-55153333D02*
X140138866Y-55248571D01*
X140138866Y-55248571D02*
X140138866Y-55439047D01*
X140138866Y-55439047D02*
X140091247Y-55534285D01*
X140091247Y-55534285D02*
X140043628Y-55581904D01*
X140043628Y-55581904D02*
X139948390Y-55629523D01*
X139519819Y-55962857D02*
X139519819Y-56581904D01*
X139519819Y-56581904D02*
X139900771Y-56248571D01*
X139900771Y-56248571D02*
X139900771Y-56391428D01*
X139900771Y-56391428D02*
X139948390Y-56486666D01*
X139948390Y-56486666D02*
X139996009Y-56534285D01*
X139996009Y-56534285D02*
X140091247Y-56581904D01*
X140091247Y-56581904D02*
X140329342Y-56581904D01*
X140329342Y-56581904D02*
X140424580Y-56534285D01*
X140424580Y-56534285D02*
X140472200Y-56486666D01*
X140472200Y-56486666D02*
X140519819Y-56391428D01*
X140519819Y-56391428D02*
X140519819Y-56105714D01*
X140519819Y-56105714D02*
X140472200Y-56010476D01*
X140472200Y-56010476D02*
X140424580Y-55962857D01*
X128542856Y-66351580D02*
X128590475Y-66399200D01*
X128590475Y-66399200D02*
X128733332Y-66446819D01*
X128733332Y-66446819D02*
X128828570Y-66446819D01*
X128828570Y-66446819D02*
X128971427Y-66399200D01*
X128971427Y-66399200D02*
X129066665Y-66303961D01*
X129066665Y-66303961D02*
X129114284Y-66208723D01*
X129114284Y-66208723D02*
X129161903Y-66018247D01*
X129161903Y-66018247D02*
X129161903Y-65875390D01*
X129161903Y-65875390D02*
X129114284Y-65684914D01*
X129114284Y-65684914D02*
X129066665Y-65589676D01*
X129066665Y-65589676D02*
X128971427Y-65494438D01*
X128971427Y-65494438D02*
X128828570Y-65446819D01*
X128828570Y-65446819D02*
X128733332Y-65446819D01*
X128733332Y-65446819D02*
X128590475Y-65494438D01*
X128590475Y-65494438D02*
X128542856Y-65542057D01*
X128161903Y-65542057D02*
X128114284Y-65494438D01*
X128114284Y-65494438D02*
X128019046Y-65446819D01*
X128019046Y-65446819D02*
X127780951Y-65446819D01*
X127780951Y-65446819D02*
X127685713Y-65494438D01*
X127685713Y-65494438D02*
X127638094Y-65542057D01*
X127638094Y-65542057D02*
X127590475Y-65637295D01*
X127590475Y-65637295D02*
X127590475Y-65732533D01*
X127590475Y-65732533D02*
X127638094Y-65875390D01*
X127638094Y-65875390D02*
X128209522Y-66446819D01*
X128209522Y-66446819D02*
X127590475Y-66446819D01*
X126733332Y-65446819D02*
X126923808Y-65446819D01*
X126923808Y-65446819D02*
X127019046Y-65494438D01*
X127019046Y-65494438D02*
X127066665Y-65542057D01*
X127066665Y-65542057D02*
X127161903Y-65684914D01*
X127161903Y-65684914D02*
X127209522Y-65875390D01*
X127209522Y-65875390D02*
X127209522Y-66256342D01*
X127209522Y-66256342D02*
X127161903Y-66351580D01*
X127161903Y-66351580D02*
X127114284Y-66399200D01*
X127114284Y-66399200D02*
X127019046Y-66446819D01*
X127019046Y-66446819D02*
X126828570Y-66446819D01*
X126828570Y-66446819D02*
X126733332Y-66399200D01*
X126733332Y-66399200D02*
X126685713Y-66351580D01*
X126685713Y-66351580D02*
X126638094Y-66256342D01*
X126638094Y-66256342D02*
X126638094Y-66018247D01*
X126638094Y-66018247D02*
X126685713Y-65923009D01*
X126685713Y-65923009D02*
X126733332Y-65875390D01*
X126733332Y-65875390D02*
X126828570Y-65827771D01*
X126828570Y-65827771D02*
X127019046Y-65827771D01*
X127019046Y-65827771D02*
X127114284Y-65875390D01*
X127114284Y-65875390D02*
X127161903Y-65923009D01*
X127161903Y-65923009D02*
X127209522Y-66018247D01*
X120152857Y-80209580D02*
X120200476Y-80257200D01*
X120200476Y-80257200D02*
X120343333Y-80304819D01*
X120343333Y-80304819D02*
X120438571Y-80304819D01*
X120438571Y-80304819D02*
X120581428Y-80257200D01*
X120581428Y-80257200D02*
X120676666Y-80161961D01*
X120676666Y-80161961D02*
X120724285Y-80066723D01*
X120724285Y-80066723D02*
X120771904Y-79876247D01*
X120771904Y-79876247D02*
X120771904Y-79733390D01*
X120771904Y-79733390D02*
X120724285Y-79542914D01*
X120724285Y-79542914D02*
X120676666Y-79447676D01*
X120676666Y-79447676D02*
X120581428Y-79352438D01*
X120581428Y-79352438D02*
X120438571Y-79304819D01*
X120438571Y-79304819D02*
X120343333Y-79304819D01*
X120343333Y-79304819D02*
X120200476Y-79352438D01*
X120200476Y-79352438D02*
X120152857Y-79400057D01*
X119248095Y-79304819D02*
X119724285Y-79304819D01*
X119724285Y-79304819D02*
X119771904Y-79781009D01*
X119771904Y-79781009D02*
X119724285Y-79733390D01*
X119724285Y-79733390D02*
X119629047Y-79685771D01*
X119629047Y-79685771D02*
X119390952Y-79685771D01*
X119390952Y-79685771D02*
X119295714Y-79733390D01*
X119295714Y-79733390D02*
X119248095Y-79781009D01*
X119248095Y-79781009D02*
X119200476Y-79876247D01*
X119200476Y-79876247D02*
X119200476Y-80114342D01*
X119200476Y-80114342D02*
X119248095Y-80209580D01*
X119248095Y-80209580D02*
X119295714Y-80257200D01*
X119295714Y-80257200D02*
X119390952Y-80304819D01*
X119390952Y-80304819D02*
X119629047Y-80304819D01*
X119629047Y-80304819D02*
X119724285Y-80257200D01*
X119724285Y-80257200D02*
X119771904Y-80209580D01*
X118343333Y-79638152D02*
X118343333Y-80304819D01*
X118581428Y-79257200D02*
X118819523Y-79971485D01*
X118819523Y-79971485D02*
X118200476Y-79971485D01*
X111359580Y-71047142D02*
X111407200Y-70999523D01*
X111407200Y-70999523D02*
X111454819Y-70856666D01*
X111454819Y-70856666D02*
X111454819Y-70761428D01*
X111454819Y-70761428D02*
X111407200Y-70618571D01*
X111407200Y-70618571D02*
X111311961Y-70523333D01*
X111311961Y-70523333D02*
X111216723Y-70475714D01*
X111216723Y-70475714D02*
X111026247Y-70428095D01*
X111026247Y-70428095D02*
X110883390Y-70428095D01*
X110883390Y-70428095D02*
X110692914Y-70475714D01*
X110692914Y-70475714D02*
X110597676Y-70523333D01*
X110597676Y-70523333D02*
X110502438Y-70618571D01*
X110502438Y-70618571D02*
X110454819Y-70761428D01*
X110454819Y-70761428D02*
X110454819Y-70856666D01*
X110454819Y-70856666D02*
X110502438Y-70999523D01*
X110502438Y-70999523D02*
X110550057Y-71047142D01*
X110454819Y-71904285D02*
X110454819Y-71713809D01*
X110454819Y-71713809D02*
X110502438Y-71618571D01*
X110502438Y-71618571D02*
X110550057Y-71570952D01*
X110550057Y-71570952D02*
X110692914Y-71475714D01*
X110692914Y-71475714D02*
X110883390Y-71428095D01*
X110883390Y-71428095D02*
X111264342Y-71428095D01*
X111264342Y-71428095D02*
X111359580Y-71475714D01*
X111359580Y-71475714D02*
X111407200Y-71523333D01*
X111407200Y-71523333D02*
X111454819Y-71618571D01*
X111454819Y-71618571D02*
X111454819Y-71809047D01*
X111454819Y-71809047D02*
X111407200Y-71904285D01*
X111407200Y-71904285D02*
X111359580Y-71951904D01*
X111359580Y-71951904D02*
X111264342Y-71999523D01*
X111264342Y-71999523D02*
X111026247Y-71999523D01*
X111026247Y-71999523D02*
X110931009Y-71951904D01*
X110931009Y-71951904D02*
X110883390Y-71904285D01*
X110883390Y-71904285D02*
X110835771Y-71809047D01*
X110835771Y-71809047D02*
X110835771Y-71618571D01*
X110835771Y-71618571D02*
X110883390Y-71523333D01*
X110883390Y-71523333D02*
X110931009Y-71475714D01*
X110931009Y-71475714D02*
X111026247Y-71428095D01*
X110788152Y-72856666D02*
X111454819Y-72856666D01*
X110407200Y-72618571D02*
X111121485Y-72380476D01*
X111121485Y-72380476D02*
X111121485Y-72999523D01*
X135829580Y-54672142D02*
X135877200Y-54624523D01*
X135877200Y-54624523D02*
X135924819Y-54481666D01*
X135924819Y-54481666D02*
X135924819Y-54386428D01*
X135924819Y-54386428D02*
X135877200Y-54243571D01*
X135877200Y-54243571D02*
X135781961Y-54148333D01*
X135781961Y-54148333D02*
X135686723Y-54100714D01*
X135686723Y-54100714D02*
X135496247Y-54053095D01*
X135496247Y-54053095D02*
X135353390Y-54053095D01*
X135353390Y-54053095D02*
X135162914Y-54100714D01*
X135162914Y-54100714D02*
X135067676Y-54148333D01*
X135067676Y-54148333D02*
X134972438Y-54243571D01*
X134972438Y-54243571D02*
X134924819Y-54386428D01*
X134924819Y-54386428D02*
X134924819Y-54481666D01*
X134924819Y-54481666D02*
X134972438Y-54624523D01*
X134972438Y-54624523D02*
X135020057Y-54672142D01*
X135924819Y-55148333D02*
X135924819Y-55338809D01*
X135924819Y-55338809D02*
X135877200Y-55434047D01*
X135877200Y-55434047D02*
X135829580Y-55481666D01*
X135829580Y-55481666D02*
X135686723Y-55576904D01*
X135686723Y-55576904D02*
X135496247Y-55624523D01*
X135496247Y-55624523D02*
X135115295Y-55624523D01*
X135115295Y-55624523D02*
X135020057Y-55576904D01*
X135020057Y-55576904D02*
X134972438Y-55529285D01*
X134972438Y-55529285D02*
X134924819Y-55434047D01*
X134924819Y-55434047D02*
X134924819Y-55243571D01*
X134924819Y-55243571D02*
X134972438Y-55148333D01*
X134972438Y-55148333D02*
X135020057Y-55100714D01*
X135020057Y-55100714D02*
X135115295Y-55053095D01*
X135115295Y-55053095D02*
X135353390Y-55053095D01*
X135353390Y-55053095D02*
X135448628Y-55100714D01*
X135448628Y-55100714D02*
X135496247Y-55148333D01*
X135496247Y-55148333D02*
X135543866Y-55243571D01*
X135543866Y-55243571D02*
X135543866Y-55434047D01*
X135543866Y-55434047D02*
X135496247Y-55529285D01*
X135496247Y-55529285D02*
X135448628Y-55576904D01*
X135448628Y-55576904D02*
X135353390Y-55624523D01*
X134924819Y-56481666D02*
X134924819Y-56291190D01*
X134924819Y-56291190D02*
X134972438Y-56195952D01*
X134972438Y-56195952D02*
X135020057Y-56148333D01*
X135020057Y-56148333D02*
X135162914Y-56053095D01*
X135162914Y-56053095D02*
X135353390Y-56005476D01*
X135353390Y-56005476D02*
X135734342Y-56005476D01*
X135734342Y-56005476D02*
X135829580Y-56053095D01*
X135829580Y-56053095D02*
X135877200Y-56100714D01*
X135877200Y-56100714D02*
X135924819Y-56195952D01*
X135924819Y-56195952D02*
X135924819Y-56386428D01*
X135924819Y-56386428D02*
X135877200Y-56481666D01*
X135877200Y-56481666D02*
X135829580Y-56529285D01*
X135829580Y-56529285D02*
X135734342Y-56576904D01*
X135734342Y-56576904D02*
X135496247Y-56576904D01*
X135496247Y-56576904D02*
X135401009Y-56529285D01*
X135401009Y-56529285D02*
X135353390Y-56481666D01*
X135353390Y-56481666D02*
X135305771Y-56386428D01*
X135305771Y-56386428D02*
X135305771Y-56195952D01*
X135305771Y-56195952D02*
X135353390Y-56100714D01*
X135353390Y-56100714D02*
X135401009Y-56053095D01*
X135401009Y-56053095D02*
X135496247Y-56005476D01*
X123129580Y-71537142D02*
X123177200Y-71489523D01*
X123177200Y-71489523D02*
X123224819Y-71346666D01*
X123224819Y-71346666D02*
X123224819Y-71251428D01*
X123224819Y-71251428D02*
X123177200Y-71108571D01*
X123177200Y-71108571D02*
X123081961Y-71013333D01*
X123081961Y-71013333D02*
X122986723Y-70965714D01*
X122986723Y-70965714D02*
X122796247Y-70918095D01*
X122796247Y-70918095D02*
X122653390Y-70918095D01*
X122653390Y-70918095D02*
X122462914Y-70965714D01*
X122462914Y-70965714D02*
X122367676Y-71013333D01*
X122367676Y-71013333D02*
X122272438Y-71108571D01*
X122272438Y-71108571D02*
X122224819Y-71251428D01*
X122224819Y-71251428D02*
X122224819Y-71346666D01*
X122224819Y-71346666D02*
X122272438Y-71489523D01*
X122272438Y-71489523D02*
X122320057Y-71537142D01*
X122224819Y-72394285D02*
X122224819Y-72203809D01*
X122224819Y-72203809D02*
X122272438Y-72108571D01*
X122272438Y-72108571D02*
X122320057Y-72060952D01*
X122320057Y-72060952D02*
X122462914Y-71965714D01*
X122462914Y-71965714D02*
X122653390Y-71918095D01*
X122653390Y-71918095D02*
X123034342Y-71918095D01*
X123034342Y-71918095D02*
X123129580Y-71965714D01*
X123129580Y-71965714D02*
X123177200Y-72013333D01*
X123177200Y-72013333D02*
X123224819Y-72108571D01*
X123224819Y-72108571D02*
X123224819Y-72299047D01*
X123224819Y-72299047D02*
X123177200Y-72394285D01*
X123177200Y-72394285D02*
X123129580Y-72441904D01*
X123129580Y-72441904D02*
X123034342Y-72489523D01*
X123034342Y-72489523D02*
X122796247Y-72489523D01*
X122796247Y-72489523D02*
X122701009Y-72441904D01*
X122701009Y-72441904D02*
X122653390Y-72394285D01*
X122653390Y-72394285D02*
X122605771Y-72299047D01*
X122605771Y-72299047D02*
X122605771Y-72108571D01*
X122605771Y-72108571D02*
X122653390Y-72013333D01*
X122653390Y-72013333D02*
X122701009Y-71965714D01*
X122701009Y-71965714D02*
X122796247Y-71918095D01*
X122224819Y-72822857D02*
X122224819Y-73489523D01*
X122224819Y-73489523D02*
X123224819Y-73060952D01*
X118432857Y-77799580D02*
X118480476Y-77847200D01*
X118480476Y-77847200D02*
X118623333Y-77894819D01*
X118623333Y-77894819D02*
X118718571Y-77894819D01*
X118718571Y-77894819D02*
X118861428Y-77847200D01*
X118861428Y-77847200D02*
X118956666Y-77751961D01*
X118956666Y-77751961D02*
X119004285Y-77656723D01*
X119004285Y-77656723D02*
X119051904Y-77466247D01*
X119051904Y-77466247D02*
X119051904Y-77323390D01*
X119051904Y-77323390D02*
X119004285Y-77132914D01*
X119004285Y-77132914D02*
X118956666Y-77037676D01*
X118956666Y-77037676D02*
X118861428Y-76942438D01*
X118861428Y-76942438D02*
X118718571Y-76894819D01*
X118718571Y-76894819D02*
X118623333Y-76894819D01*
X118623333Y-76894819D02*
X118480476Y-76942438D01*
X118480476Y-76942438D02*
X118432857Y-76990057D01*
X117528095Y-76894819D02*
X118004285Y-76894819D01*
X118004285Y-76894819D02*
X118051904Y-77371009D01*
X118051904Y-77371009D02*
X118004285Y-77323390D01*
X118004285Y-77323390D02*
X117909047Y-77275771D01*
X117909047Y-77275771D02*
X117670952Y-77275771D01*
X117670952Y-77275771D02*
X117575714Y-77323390D01*
X117575714Y-77323390D02*
X117528095Y-77371009D01*
X117528095Y-77371009D02*
X117480476Y-77466247D01*
X117480476Y-77466247D02*
X117480476Y-77704342D01*
X117480476Y-77704342D02*
X117528095Y-77799580D01*
X117528095Y-77799580D02*
X117575714Y-77847200D01*
X117575714Y-77847200D02*
X117670952Y-77894819D01*
X117670952Y-77894819D02*
X117909047Y-77894819D01*
X117909047Y-77894819D02*
X118004285Y-77847200D01*
X118004285Y-77847200D02*
X118051904Y-77799580D01*
X117099523Y-76990057D02*
X117051904Y-76942438D01*
X117051904Y-76942438D02*
X116956666Y-76894819D01*
X116956666Y-76894819D02*
X116718571Y-76894819D01*
X116718571Y-76894819D02*
X116623333Y-76942438D01*
X116623333Y-76942438D02*
X116575714Y-76990057D01*
X116575714Y-76990057D02*
X116528095Y-77085295D01*
X116528095Y-77085295D02*
X116528095Y-77180533D01*
X116528095Y-77180533D02*
X116575714Y-77323390D01*
X116575714Y-77323390D02*
X117147142Y-77894819D01*
X117147142Y-77894819D02*
X116528095Y-77894819D01*
X128482857Y-61719580D02*
X128530476Y-61767200D01*
X128530476Y-61767200D02*
X128673333Y-61814819D01*
X128673333Y-61814819D02*
X128768571Y-61814819D01*
X128768571Y-61814819D02*
X128911428Y-61767200D01*
X128911428Y-61767200D02*
X129006666Y-61671961D01*
X129006666Y-61671961D02*
X129054285Y-61576723D01*
X129054285Y-61576723D02*
X129101904Y-61386247D01*
X129101904Y-61386247D02*
X129101904Y-61243390D01*
X129101904Y-61243390D02*
X129054285Y-61052914D01*
X129054285Y-61052914D02*
X129006666Y-60957676D01*
X129006666Y-60957676D02*
X128911428Y-60862438D01*
X128911428Y-60862438D02*
X128768571Y-60814819D01*
X128768571Y-60814819D02*
X128673333Y-60814819D01*
X128673333Y-60814819D02*
X128530476Y-60862438D01*
X128530476Y-60862438D02*
X128482857Y-60910057D01*
X128101904Y-60910057D02*
X128054285Y-60862438D01*
X128054285Y-60862438D02*
X127959047Y-60814819D01*
X127959047Y-60814819D02*
X127720952Y-60814819D01*
X127720952Y-60814819D02*
X127625714Y-60862438D01*
X127625714Y-60862438D02*
X127578095Y-60910057D01*
X127578095Y-60910057D02*
X127530476Y-61005295D01*
X127530476Y-61005295D02*
X127530476Y-61100533D01*
X127530476Y-61100533D02*
X127578095Y-61243390D01*
X127578095Y-61243390D02*
X128149523Y-61814819D01*
X128149523Y-61814819D02*
X127530476Y-61814819D01*
X126625714Y-60814819D02*
X127101904Y-60814819D01*
X127101904Y-60814819D02*
X127149523Y-61291009D01*
X127149523Y-61291009D02*
X127101904Y-61243390D01*
X127101904Y-61243390D02*
X127006666Y-61195771D01*
X127006666Y-61195771D02*
X126768571Y-61195771D01*
X126768571Y-61195771D02*
X126673333Y-61243390D01*
X126673333Y-61243390D02*
X126625714Y-61291009D01*
X126625714Y-61291009D02*
X126578095Y-61386247D01*
X126578095Y-61386247D02*
X126578095Y-61624342D01*
X126578095Y-61624342D02*
X126625714Y-61719580D01*
X126625714Y-61719580D02*
X126673333Y-61767200D01*
X126673333Y-61767200D02*
X126768571Y-61814819D01*
X126768571Y-61814819D02*
X127006666Y-61814819D01*
X127006666Y-61814819D02*
X127101904Y-61767200D01*
X127101904Y-61767200D02*
X127149523Y-61719580D01*
D12*
%TO.C,C71*%
X122985099Y-80977932D02*
X122985099Y-80762260D01*
X122265099Y-80977932D02*
X122265099Y-80762260D01*
D13*
%TO.C,J3*%
X135825000Y-121430000D02*
X135825000Y-128490000D01*
X135825000Y-131330000D02*
X135825000Y-134310000D01*
X137470000Y-119810000D02*
X140280000Y-119810000D01*
X150575000Y-121830000D02*
X150575000Y-128490000D01*
X150575000Y-131330000D02*
X150575000Y-134310000D01*
X150575000Y-134310000D02*
X135825000Y-134310000D01*
D14*
X141050000Y-117960000D02*
G75*
G02*
X140850000Y-117960000I-100000J0D01*
G01*
X140850000Y-117960000D02*
G75*
G02*
X141050000Y-117960000I100000J0D01*
G01*
D12*
%TO.C,C51*%
X124225100Y-75132261D02*
X124225100Y-75347933D01*
X123505100Y-75132261D02*
X123505100Y-75347933D01*
%TO.C,C7*%
X121582164Y-75270000D02*
X121797836Y-75270000D01*
X121582164Y-74550000D02*
X121797836Y-74550000D01*
%TO.C,C61*%
X115870000Y-72702164D02*
X115870000Y-72917836D01*
X116590000Y-72702164D02*
X116590000Y-72917836D01*
%TO.C,C70*%
X114440000Y-72099420D02*
X114440000Y-72380580D01*
X115460000Y-72099420D02*
X115460000Y-72380580D01*
%TO.C,C110*%
X104265581Y-82200000D02*
X103984419Y-82200000D01*
X104265581Y-83220000D02*
X103984419Y-83220000D01*
%TO.C,R6*%
X136713641Y-83610000D02*
X136406359Y-83610000D01*
X136713641Y-84370000D02*
X136406359Y-84370000D01*
%TO.C,C65*%
X112570000Y-75267836D02*
X112570000Y-75052164D01*
X113290000Y-75267836D02*
X113290000Y-75052164D01*
%TO.C,C76*%
X126832935Y-78580096D02*
X126617263Y-78580096D01*
X126832935Y-79300096D02*
X126617263Y-79300096D01*
D15*
%TO.C,U11*%
X113798300Y-61753400D02*
X113984860Y-61753400D01*
X113798300Y-61939960D02*
X113798300Y-61753400D01*
X113798300Y-66096800D02*
X113798300Y-65910240D01*
X113984860Y-66096800D02*
X113798300Y-66096800D01*
X117955140Y-61753400D02*
X118141700Y-61753400D01*
X118141700Y-61753400D02*
X118141700Y-61939960D01*
X118141700Y-65910240D02*
X118141700Y-66096800D01*
X118141700Y-66096800D02*
X117955140Y-66096800D01*
D16*
G36*
X113366500Y-63115599D02*
G01*
X113112500Y-63115599D01*
X113112500Y-62734599D01*
X113366500Y-62734599D01*
X113366500Y-63115599D01*
G37*
G36*
X116660499Y-66782600D02*
G01*
X116279499Y-66782600D01*
X116279499Y-66528600D01*
X116660499Y-66528600D01*
X116660499Y-66782600D01*
G37*
D12*
%TO.C,C57*%
X124465099Y-74592260D02*
X124465099Y-74807932D01*
X125185099Y-74592260D02*
X125185099Y-74807932D01*
%TO.C,C94*%
X137975000Y-52600581D02*
X137975000Y-52319419D01*
X138995000Y-52600581D02*
X138995000Y-52319419D01*
D15*
%TO.C,J7*%
X116314899Y-58738570D02*
X116314899Y-55761630D01*
X117624641Y-55023100D02*
X118459159Y-55023100D01*
X118459159Y-59477100D02*
X117624641Y-59477100D01*
X119768901Y-55761630D02*
X119768901Y-58738570D01*
X119243900Y-61551699D02*
G75*
G02*
X118989900Y-61551699I-127000J0D01*
G01*
X118989900Y-61551699D02*
G75*
G02*
X119243900Y-61551699I127000J0D01*
G01*
D12*
%TO.C,C88*%
X125925000Y-53142835D02*
X125925000Y-52927163D01*
X126645000Y-53142835D02*
X126645000Y-52927163D01*
%TO.C,C30*%
X120259418Y-65922000D02*
X120540580Y-65922000D01*
X120259418Y-66942000D02*
X120540580Y-66942000D01*
%TO.C,C75*%
X126052936Y-77620096D02*
X125837264Y-77620096D01*
X126052936Y-78340096D02*
X125837264Y-78340096D01*
%TO.C,R2*%
X139100000Y-84316359D02*
X139100000Y-84623641D01*
X139860000Y-84316359D02*
X139860000Y-84623641D01*
%TO.C,C74*%
X126782936Y-76700096D02*
X126567264Y-76700096D01*
X126782936Y-77420096D02*
X126567264Y-77420096D01*
%TO.C,C10*%
X145455580Y-115795000D02*
X145174420Y-115795000D01*
X145455580Y-116815000D02*
X145174420Y-116815000D01*
%TO.C,C72*%
X125232936Y-79520096D02*
X125017264Y-79520096D01*
X125232936Y-80240096D02*
X125017264Y-80240096D01*
%TO.C,C9*%
X144847836Y-117225000D02*
X144632164Y-117225000D01*
X144847836Y-117945000D02*
X144632164Y-117945000D01*
%TO.C,C17*%
X145047836Y-43335000D02*
X144832164Y-43335000D01*
X145047836Y-44055000D02*
X144832164Y-44055000D01*
%TO.C,C73*%
X124215099Y-81777932D02*
X124215099Y-81562260D01*
X124935099Y-81777932D02*
X124935099Y-81562260D01*
%TO.C,C16*%
X146802165Y-43335000D02*
X147017837Y-43335000D01*
X146802165Y-44055000D02*
X147017837Y-44055000D01*
%TO.C,C90*%
X119895000Y-52610581D02*
X119895000Y-52329419D01*
X120915000Y-52610581D02*
X120915000Y-52329419D01*
%TO.C,C80*%
X110640000Y-83264420D02*
X110640000Y-83545580D01*
X111660000Y-83264420D02*
X111660000Y-83545580D01*
%TO.C,C95*%
X136444999Y-52600581D02*
X136444999Y-52319419D01*
X137464999Y-52600581D02*
X137464999Y-52319419D01*
D15*
%TO.C,U2*%
X120447400Y-89384399D02*
X120674818Y-89384399D01*
X120447400Y-90104414D02*
X120447400Y-89384399D01*
X120447400Y-92635599D02*
X120447400Y-91915584D01*
X120674818Y-92635599D02*
X120447400Y-92635599D01*
X122963182Y-89384399D02*
X123190600Y-89384399D01*
X123190600Y-89384399D02*
X123190600Y-90104414D01*
X123190600Y-91915584D02*
X123190600Y-92635599D01*
X123190600Y-92635599D02*
X122963182Y-92635599D01*
D16*
G36*
X122259500Y-89358999D02*
G01*
X121878499Y-89358999D01*
X121878499Y-89104999D01*
X122259500Y-89104999D01*
X122259500Y-89358999D01*
G37*
D12*
%TO.C,R1*%
X134700000Y-84316359D02*
X134700000Y-84623641D01*
X135460000Y-84316359D02*
X135460000Y-84623641D01*
%TO.C,C28*%
X119711120Y-61941999D02*
X119495448Y-61941999D01*
X119711120Y-62661999D02*
X119495448Y-62661999D01*
%TO.C,R8*%
X138796359Y-81540000D02*
X139103641Y-81540000D01*
X138796359Y-82300000D02*
X139103641Y-82300000D01*
%TO.C,C59*%
X124220000Y-78362260D02*
X124220000Y-78577932D01*
X124940000Y-78362260D02*
X124940000Y-78577932D01*
%TO.C,C63*%
X115180000Y-77837836D02*
X115180000Y-77622164D01*
X115900000Y-77837836D02*
X115900000Y-77622164D01*
%TO.C,C66*%
X122250580Y-68630000D02*
X121969420Y-68630000D01*
X122250580Y-69650000D02*
X121969420Y-69650000D01*
D13*
%TO.C,U1*%
X127830000Y-51515000D02*
X127830000Y-51555000D01*
X127830000Y-51515000D02*
X128285000Y-51515000D01*
X127830000Y-54515000D02*
X127830000Y-54475000D01*
X127830000Y-54515000D02*
X128285000Y-54515000D01*
X130375000Y-51515000D02*
X130830000Y-51515000D01*
X130375000Y-54515000D02*
X130830000Y-54515000D01*
X130830000Y-51515000D02*
X130830000Y-51555000D01*
X130830000Y-54515000D02*
X130830000Y-54475000D01*
D17*
X127010000Y-54135000D02*
G75*
G02*
X126850000Y-54135000I-80000J0D01*
G01*
X126850000Y-54135000D02*
G75*
G02*
X127010000Y-54135000I80000J0D01*
G01*
D13*
%TO.C,U12*%
X103080000Y-86095000D02*
X103080000Y-84845000D01*
X105420000Y-86095000D02*
X105420000Y-84845000D01*
D14*
X105152000Y-87570000D02*
G75*
G02*
X104952000Y-87570000I-100000J0D01*
G01*
X104952000Y-87570000D02*
G75*
G02*
X105152000Y-87570000I100000J0D01*
G01*
D12*
%TO.C,R32*%
X131685000Y-51258641D02*
X131685000Y-50951359D01*
X132445000Y-51258641D02*
X132445000Y-50951359D01*
%TO.C,C27*%
X119502163Y-64062000D02*
X119717835Y-64062000D01*
X119502163Y-64782000D02*
X119717835Y-64782000D01*
%TO.C,C89*%
X124484999Y-52610581D02*
X124484999Y-52329419D01*
X125504999Y-52610581D02*
X125504999Y-52329419D01*
%TO.C,C69*%
X120800000Y-82695580D02*
X120800000Y-82414420D01*
X121820000Y-82695580D02*
X121820000Y-82414420D01*
%TO.C,C53*%
X122132935Y-77110096D02*
X121917263Y-77110096D01*
X122132935Y-77830096D02*
X121917263Y-77830096D01*
%TO.C,C4*%
X120696836Y-88300299D02*
X120481164Y-88300299D01*
X120696836Y-89020299D02*
X120481164Y-89020299D01*
%TO.C,R9*%
X131246359Y-83570000D02*
X131553641Y-83570000D01*
X131246359Y-84330000D02*
X131553641Y-84330000D01*
D13*
%TO.C,Y1*%
X123829998Y-63982000D02*
X123829998Y-63222000D01*
X125330000Y-63982000D02*
X125330000Y-63222000D01*
D12*
%TO.C,R12*%
X132463641Y-72050000D02*
X132156359Y-72050000D01*
X132463641Y-72810000D02*
X132156359Y-72810000D01*
%TO.C,C56*%
X123235099Y-80977932D02*
X123235099Y-80762260D01*
X123955099Y-80977932D02*
X123955099Y-80762260D01*
%TO.C,C29*%
X119913864Y-60522000D02*
X119632702Y-60522000D01*
X119913864Y-61542000D02*
X119632702Y-61542000D01*
%TO.C,C81*%
X115180000Y-79952164D02*
X115180000Y-80167836D01*
X115900000Y-79952164D02*
X115900000Y-80167836D01*
%TO.C,C78*%
X123720580Y-86120000D02*
X123439420Y-86120000D01*
X123720580Y-87140000D02*
X123439420Y-87140000D01*
%TO.C,C55*%
X122652164Y-79260000D02*
X122867836Y-79260000D01*
X122652164Y-78540000D02*
X122867836Y-78540000D01*
%TO.C,C58*%
X124922935Y-76650096D02*
X124707263Y-76650096D01*
X124922935Y-77370096D02*
X124707263Y-77370096D01*
%TO.C,C68*%
X126990580Y-84620000D02*
X126709420Y-84620000D01*
X126990580Y-85640000D02*
X126709420Y-85640000D01*
%TO.C,R3*%
X140060000Y-82226359D02*
X140060000Y-82533641D01*
X140820000Y-82226359D02*
X140820000Y-82533641D01*
%TO.C,R7*%
X138786359Y-82620000D02*
X139093641Y-82620000D01*
X138786359Y-83380000D02*
X139093641Y-83380000D01*
%TO.C,C87*%
X128645000Y-50102835D02*
X128645000Y-49887163D01*
X129365000Y-50102835D02*
X129365000Y-49887163D01*
%TO.C,FB1*%
X107349721Y-82120000D02*
X107675279Y-82120000D01*
X107349721Y-83140000D02*
X107675279Y-83140000D01*
%TO.C,C109*%
X104265581Y-88070000D02*
X103984419Y-88070000D01*
X104265581Y-89090000D02*
X103984419Y-89090000D01*
%TO.C,C111*%
X104265581Y-79450000D02*
X103984419Y-79450000D01*
X104265581Y-80470000D02*
X103984419Y-80470000D01*
%TO.C,C92*%
X121425000Y-52610581D02*
X121425000Y-52329419D01*
X122445000Y-52610581D02*
X122445000Y-52329419D01*
%TO.C,L1*%
X129596253Y-57145000D02*
X129073747Y-57145000D01*
X129596253Y-59365000D02*
X129073747Y-59365000D01*
%TO.C,C62*%
X113760000Y-77735580D02*
X113760000Y-77454420D01*
X114780000Y-77735580D02*
X114780000Y-77454420D01*
%TO.C,C97*%
X133795000Y-53132836D02*
X133795000Y-52917164D01*
X134515000Y-53132836D02*
X134515000Y-52917164D01*
%TO.C,R4*%
X132500000Y-84316359D02*
X132500000Y-84623641D01*
X133260000Y-84316359D02*
X133260000Y-84623641D01*
%TO.C,C82*%
X112860000Y-80509420D02*
X112860000Y-80790580D01*
X113880000Y-80509420D02*
X113880000Y-80790580D01*
%TO.C,R11*%
X132356359Y-81640000D02*
X132663641Y-81640000D01*
X132356359Y-82400000D02*
X132663641Y-82400000D01*
%TO.C,R5*%
X133600000Y-82406359D02*
X133600000Y-82713641D01*
X134360000Y-82406359D02*
X134360000Y-82713641D01*
%TO.C,C91*%
X122955000Y-52610581D02*
X122955000Y-52329419D01*
X123975000Y-52610581D02*
X123975000Y-52329419D01*
%TO.C,C11*%
X145455580Y-114255000D02*
X145174420Y-114255000D01*
X145455580Y-115275000D02*
X145174420Y-115275000D01*
%TO.C,C77*%
X123715580Y-84610000D02*
X123434420Y-84610000D01*
X123715580Y-85630000D02*
X123434420Y-85630000D01*
%TO.C,C3*%
X119259000Y-91378135D02*
X119259000Y-91162463D01*
X119979000Y-91378135D02*
X119979000Y-91162463D01*
%TO.C,R30*%
X116610542Y-60345100D02*
X116303260Y-60345100D01*
X116610542Y-61105100D02*
X116303260Y-61105100D01*
%TO.C,R31*%
X132725000Y-53158641D02*
X132725000Y-52851359D01*
X133485000Y-53158641D02*
X133485000Y-52851359D01*
%TO.C,C98*%
X130664999Y-50102835D02*
X130664999Y-49887163D01*
X131384999Y-50102835D02*
X131384999Y-49887163D01*
%TO.C,C79*%
X112115000Y-83017164D02*
X112115000Y-83232836D01*
X112835000Y-83017164D02*
X112835000Y-83232836D01*
%TO.C,C93*%
X139505000Y-52600581D02*
X139505000Y-52319419D01*
X140525000Y-52600581D02*
X140525000Y-52319419D01*
%TO.C,C26*%
X127677835Y-64492000D02*
X127462163Y-64492000D01*
X127677835Y-65212000D02*
X127462163Y-65212000D01*
%TO.C,C54*%
X121005099Y-79587836D02*
X121005099Y-79372164D01*
X121725099Y-79587836D02*
X121725099Y-79372164D01*
%TO.C,C64*%
X110380000Y-74725580D02*
X110380000Y-74444420D01*
X111400000Y-74725580D02*
X111400000Y-74444420D01*
%TO.C,C96*%
X134915000Y-52600581D02*
X134915000Y-52319419D01*
X135935000Y-52600581D02*
X135935000Y-52319419D01*
%TO.C,C67*%
X123820000Y-72109420D02*
X123820000Y-72390580D01*
X124840000Y-72109420D02*
X124840000Y-72390580D01*
%TO.C,C52*%
X120017263Y-77070096D02*
X120232935Y-77070096D01*
X120017263Y-77790096D02*
X120232935Y-77790096D01*
%TO.C,C25*%
X127677835Y-61992000D02*
X127462163Y-61992000D01*
X127677835Y-62712000D02*
X127462163Y-62712000D01*
%TD*%
M02*
