M48
; DRILL file {KiCad 9.0.6} date 2026-04-28T12:11:24+0200
; FORMAT={-:-/ absolute / metric / decimal}
; #@! TF.CreationDate,2026-04-28T12:11:24+02:00
; #@! TF.GenerationSoftware,Kicad,Pcbnew,9.0.6
; #@! TF.FileFunction,Plated,1,4,PTH
FMAT,2
METRIC
; #@! TA.AperFunction,Plated,PTH,ViaDrill
T1C0.200
; #@! TA.AperFunction,Plated,PTH,ComponentDrill
T2C0.203
; #@! TA.AperFunction,Plated,PTH,ViaDrill
T3C0.300
; #@! TA.AperFunction,Plated,PTH,ComponentDrill
T4C0.300
; #@! TA.AperFunction,Plated,PTH,ComponentDrill
T5C0.600
; #@! TA.AperFunction,Plated,PTH,ComponentDrill
T6C1.000
; #@! TA.AperFunction,Plated,PTH,ComponentDrill
T7C1.700
; #@! TA.AperFunction,Plated,PTH,ComponentDrill
T8C1.850
; #@! TA.AperFunction,Plated,PTH,ComponentDrill
T9C2.700
%
G90
G05
T1
X117.38Y-73.325
X117.38Y-75.725
X117.38Y-77.325
X117.38Y-78.125
X117.38Y-81.325
X117.38Y-82.125
X117.38Y-82.925
X118.18Y-76.525
X118.18Y-77.325
X118.18Y-81.325
X118.98Y-74.125
X118.98Y-74.925
X118.98Y-80.525
X119.38Y-80.09
X119.78Y-78.125
X119.78Y-78.925
X119.78Y-80.525
X120.58Y-78.925
X121.07Y-70.12
X121.37Y-74.125
X121.38Y-75.72
X121.38Y-76.525
X121.38Y-77.325
X121.38Y-78.925
X121.38Y-79.725
X121.38Y-82.925
X122.18Y-73.325
X122.18Y-75.725
X122.18Y-76.525
X122.18Y-78.125
X122.18Y-78.925
X122.18Y-79.725
X122.18Y-77.325
X122.61Y-80.99
X122.97Y-74.925
X122.98Y-71.725
X122.98Y-73.325
X122.98Y-74.125
X122.98Y-75.725
X122.98Y-77.325
X122.98Y-78.925
X122.98Y-79.725
X123.78Y-74.125
X123.78Y-74.925
X123.78Y-75.725
X123.78Y-76.525
X123.78Y-78.125
X123.78Y-79.725
X123.78Y-82.125
X124.04Y-63.53
X124.58Y-75.725
X124.58Y-77.325
X124.58Y-78.125
X124.58Y-78.925
X124.58Y-79.725
X124.58Y-80.525
X124.97Y-74.5
X125.295Y-77.01
X125.38Y-75.725
X125.38Y-78.125
X125.38Y-79.725
X125.394Y-71.727
X126.18Y-74.125
X126.18Y-74.925
X126.18Y-77.325
X126.18Y-78.125
X126.18Y-78.925
X126.18Y-82.925
X126.98Y-74.125
X126.98Y-79.725
X126.98Y-81.325
X126.98Y-82.125
X127.78Y-79.725
X127.78Y-80.525
X127.78Y-82.125
X128.58Y-71.725
X128.58Y-75.725
X128.58Y-78.125
X128.58Y-80.525
X129.05Y-83.3
X129.15Y-79.15
X130.21Y-82.526
X130.805Y-52.515
X140.775Y-127.59
X143.187Y-53.103
X143.194Y-53.703
X144.23Y-47.995
X144.42Y-41.045
X144.45Y-55.4
X145.22Y-117.585
X146.77Y-47.135
X147.42Y-41.085
X148.05Y-125.63
X148.3Y-52.0
X148.3Y-53.0
X148.51Y-124.11
X150.42Y-123.395
T2
X145.3Y-52.84
X145.3Y-55.365
X146.375Y-52.84
X146.375Y-54.255
X146.375Y-55.365
X146.375Y-56.475
X147.45Y-52.84
X147.45Y-55.365
T3
X102.62Y-39.05
X102.62Y-41.59
X102.62Y-44.13
X102.62Y-46.67
X102.62Y-49.21
X102.62Y-51.75
X102.62Y-54.29
X102.62Y-56.83
X102.62Y-59.37
X102.62Y-61.91
X102.62Y-64.45
X102.62Y-66.99
X102.62Y-69.53
X102.62Y-72.07
X102.62Y-74.61
X102.62Y-77.15
X102.62Y-79.69
X102.62Y-82.23
X102.62Y-84.77
X102.62Y-87.31
X102.62Y-89.85
X102.62Y-107.63
X102.62Y-110.17
X102.62Y-112.71
X102.62Y-115.25
X102.62Y-117.79
X102.62Y-120.33
X102.62Y-122.87
X102.62Y-125.41
X102.62Y-127.95
X102.62Y-129.78
X104.25Y-86.43
X104.87Y-111.15
X104.9Y-88.58
X105.52Y-109.0
X105.525Y-78.025
X105.625Y-74.0
X106.66Y-133.81
X106.67Y-77.36
X106.725Y-82.63
X106.867Y-61.52
X106.867Y-62.79
X106.867Y-64.06
X106.867Y-65.33
X106.867Y-66.6
X107.05Y-74.58
X107.325Y-71.975
X107.775Y-72.875
X108.2Y-78.925
X109.2Y-133.81
X110.5Y-91.1
X110.89Y-73.81
X110.89Y-75.36
X110.92Y-86.175
X111.645Y-77.045
X111.74Y-133.81
X111.825Y-87.95
X112.475Y-63.125
X112.475Y-82.645
X112.925Y-78.4
X112.93Y-74.68
X113.025Y-77.2
X113.3Y-60.85
X113.37Y-81.425
X113.625Y-59.225
X113.95Y-89.775
X114.1Y-84.475
X114.27Y-76.82
X114.285Y-78.385
X114.3Y-88.15
X114.6Y-81.45
X114.95Y-71.465
X114.95Y-73.015
X115.24Y-62.985
X115.33Y-63.765
X115.425Y-87.95
X115.54Y-80.54
X115.6Y-67.69
X115.716Y-81.966
X115.73Y-84.59
X115.947Y-60.725
X115.96Y-68.85
X116.0Y-69.925
X116.23Y-72.33
X116.44Y-67.39
X116.77Y-64.205
X116.92Y-86.23
X117.25Y-67.12
X118.52Y-52.635
X118.52Y-53.245
X118.92Y-86.23
X118.998Y-61.032
X119.117Y-54.045
X119.13Y-52.635
X119.13Y-53.245
X119.5Y-67.9
X119.619Y-90.79
X119.619Y-91.75
X119.625Y-66.432
X120.083Y-62.302
X120.548Y-61.032
X121.069Y-88.66
X121.325Y-58.915
X121.325Y-93.75
X121.88Y-91.46
X121.9Y-90.69
X121.9Y-133.81
X122.245Y-62.085
X122.35Y-88.95
X122.475Y-65.35
X123.505Y-92.395
X123.617Y-54.085
X124.355Y-87.875
X124.44Y-133.81
X124.495Y-58.665
X124.775Y-68.85
X126.0Y-84.03
X126.03Y-62.945
X126.7Y-60.356
X126.825Y-88.425
X126.92Y-86.23
X126.95Y-105.2
X126.98Y-133.81
X128.92Y-86.175
X129.52Y-133.81
X129.65Y-113.575
X130.525Y-73.0
X131.05Y-62.5
X131.2Y-79.74
X131.35Y-88.8
X131.65Y-60.625
X131.65Y-108.15
X131.799Y-72.43
X131.88Y-80.47
X132.0Y-82.02
X132.06Y-133.81
X132.12Y-78.87
X132.82Y-72.43
X132.88Y-79.68
X132.88Y-83.96
X132.975Y-60.651
X133.69Y-80.47
X133.98Y-82.05
X134.6Y-118.3
X134.6Y-133.81
X134.85Y-72.8
X135.08Y-83.96
X135.675Y-77.85
X136.58Y-79.66
X137.07Y-83.99
X137.14Y-133.81
X137.16Y-81.16
X137.73Y-79.64
X137.812Y-63.422
X137.94Y-80.47
X138.43Y-83.0
X138.5Y-118.52
X138.545Y-70.4
X138.545Y-71.67
X138.545Y-72.94
X138.545Y-74.21
X138.545Y-75.48
X138.91Y-124.09
X139.45Y-118.48
X139.48Y-83.96
X139.65Y-116.375
X139.68Y-133.81
X139.73Y-121.83
X139.8Y-124.67
X139.815Y-75.48
X139.875Y-97.55
X140.44Y-81.87
X141.1Y-53.7
X141.1Y-54.3
X141.48Y-98.43
X141.5Y-94.5
X141.7Y-53.7
X141.7Y-54.3
X142.025Y-86.075
X142.05Y-83.55
X142.22Y-133.81
X142.32Y-56.805
X142.4Y-81.45
X142.41Y-93.28
X142.8Y-122.44
X143.04Y-124.26
X143.38Y-121.7
X143.99Y-59.145
X144.2Y-124.23
X144.24Y-121.45
X144.4Y-93.325
X144.425Y-98.575
X144.45Y-54.6
X144.54Y-114.765
X144.76Y-133.81
X145.29Y-120.86
X145.33Y-124.92
X145.44Y-86.98
X145.475Y-81.45
X145.725Y-51.445
X146.42Y-93.52
X146.46Y-122.49
X146.51Y-99.89
X146.83Y-59.11
X147.3Y-133.81
X147.675Y-91.7
X149.01Y-126.045
X149.025Y-87.0
X149.17Y-52.445
X149.425Y-85.525
X149.43Y-121.335
X149.84Y-133.81
X149.92Y-56.445
X149.93Y-57.495
X150.4Y-105.625
X150.42Y-124.355
X150.82Y-84.39
X150.82Y-97.04
X150.94Y-56.445
X150.95Y-57.495
X151.85Y-124.35
X151.94Y-59.66
X152.03Y-86.72
X152.3Y-99.375
X152.35Y-93.15
X152.38Y-133.81
X152.4Y-85.75
X152.4Y-105.625
X152.52Y-90.44
X153.01Y-103.5
X153.01Y-109.34
X153.01Y-112.08
X153.55Y-93.5
X153.55Y-98.15
X153.843Y-117.223
X153.91Y-105.62
X154.41Y-50.645
X154.41Y-51.255
X154.56Y-103.5
X155.02Y-50.645
X155.02Y-51.255
X155.49Y-59.665
X156.41Y-39.06
X156.41Y-41.6
X156.41Y-44.14
X156.41Y-46.68
X156.41Y-49.22
X156.41Y-61.92
X156.41Y-64.46
X156.41Y-67.0
X156.41Y-69.54
X156.41Y-72.08
X156.41Y-74.62
X156.41Y-77.16
X156.41Y-79.7
X156.41Y-82.24
X156.41Y-84.04
X156.41Y-86.58
X156.41Y-89.12
X156.41Y-91.66
X156.41Y-94.2
X156.41Y-96.74
X156.41Y-99.28
X156.41Y-101.82
X156.41Y-104.36
X156.41Y-106.9
X156.41Y-109.44
X156.41Y-111.98
X156.41Y-114.52
X156.41Y-117.06
X156.41Y-119.6
X156.41Y-122.14
X156.41Y-124.68
X156.41Y-127.22
X156.41Y-129.76
X156.42Y-51.51
T4
X128.83Y-52.515
X128.83Y-53.515
X129.33Y-53.015
X129.83Y-52.515
X129.83Y-53.515
T6
X109.39Y-37.621
X120.39Y-37.621
T7
X112.39Y-47.621
X117.39Y-47.621
T8
X123.97Y-36.142
X125.875Y-45.672
X130.575Y-45.672
X135.275Y-45.672
X137.18Y-36.142
T9
X104.675Y-37.075
X104.68Y-131.755
X154.35Y-37.075
X154.37Y-131.755
T5
G00X141.85Y-37.665
M15
G01X141.85Y-36.865
M16
G05
G00X141.85Y-41.995
M15
G01X141.85Y-40.895
M16
G05
G00X150.49Y-37.665
M15
G01X150.49Y-36.865
M16
G05
G00X150.49Y-41.995
M15
G01X150.49Y-40.895
M16
G05
M30
