%TF.GenerationSoftware,KiCad,Pcbnew,9.0.6*%
%TF.CreationDate,2026-04-28T12:11:22+02:00*%
%TF.ProjectId,CANSAT-M2-2026,43414e53-4154-42d4-9d32-2d323032362e,rev?*%
%TF.SameCoordinates,Original*%
%TF.FileFunction,Soldermask,Bot*%
%TF.FilePolarity,Negative*%
%FSLAX46Y46*%
G04 Gerber Fmt 4.6, Leading zero omitted, Abs format (unit mm)*
G04 Created by KiCad (PCBNEW 9.0.6) date 2026-04-28 12:11:22*
%MOMM*%
%LPD*%
G01*
G04 APERTURE LIST*
G04 Aperture macros list*
%AMRoundRect*
0 Rectangle with rounded corners*
0 $1 Rounding radius*
0 $2 $3 $4 $5 $6 $7 $8 $9 X,Y pos of 4 corners*
0 Add a 4 corners polygon primitive as box body*
4,1,4,$2,$3,$4,$5,$6,$7,$8,$9,$2,$3,0*
0 Add four circle primitives for the rounded corners*
1,1,$1+$1,$2,$3*
1,1,$1+$1,$4,$5*
1,1,$1+$1,$6,$7*
1,1,$1+$1,$8,$9*
0 Add four rect primitives between the rounded corners*
20,1,$1+$1,$2,$3,$4,$5,0*
20,1,$1+$1,$4,$5,$6,$7,0*
20,1,$1+$1,$6,$7,$8,$9,0*
20,1,$1+$1,$8,$9,$2,$3,0*%
G04 Aperture macros list end*
%ADD10C,0.010000*%
%ADD11RoundRect,0.140000X0.170000X-0.140000X0.170000X0.140000X-0.170000X0.140000X-0.170000X-0.140000X0*%
%ADD12C,1.000000*%
%ADD13RoundRect,0.102000X0.350000X0.800000X-0.350000X0.800000X-0.350000X-0.800000X0.350000X-0.800000X0*%
%ADD14RoundRect,0.102000X0.600000X0.900000X-0.600000X0.900000X-0.600000X-0.900000X0.600000X-0.900000X0*%
%ADD15RoundRect,0.102000X0.800000X0.750000X-0.800000X0.750000X-0.800000X-0.750000X0.800000X-0.750000X0*%
%ADD16RoundRect,0.102000X0.600000X1.100000X-0.600000X1.100000X-0.600000X-1.100000X0.600000X-1.100000X0*%
%ADD17RoundRect,0.140000X-0.170000X0.140000X-0.170000X-0.140000X0.170000X-0.140000X0.170000X0.140000X0*%
%ADD18RoundRect,0.140000X-0.140000X-0.170000X0.140000X-0.170000X0.140000X0.170000X-0.140000X0.170000X0*%
%ADD19RoundRect,0.102000X-1.387500X-1.387500X1.387500X-1.387500X1.387500X1.387500X-1.387500X1.387500X0*%
%ADD20C,2.979000*%
%ADD21C,0.499999*%
%ADD22C,2.754000*%
%ADD23RoundRect,0.102000X-1.275000X-1.275000X1.275000X-1.275000X1.275000X1.275000X-1.275000X1.275000X0*%
%ADD24C,1.712000*%
%ADD25C,0.650000*%
%ADD26O,1.254000X2.304000*%
%ADD27O,1.104000X2.004000*%
%ADD28C,2.374900*%
%ADD29C,0.990600*%
%ADD30C,4.700000*%
%ADD31RoundRect,0.225000X-0.250000X0.225000X-0.250000X-0.225000X0.250000X-0.225000X0.250000X0.225000X0*%
%ADD32RoundRect,0.225000X0.225000X0.250000X-0.225000X0.250000X-0.225000X-0.250000X0.225000X-0.250000X0*%
%ADD33RoundRect,0.135000X0.135000X0.185000X-0.135000X0.185000X-0.135000X-0.185000X0.135000X-0.185000X0*%
%ADD34RoundRect,0.140000X0.140000X0.170000X-0.140000X0.170000X-0.140000X-0.170000X0.140000X-0.170000X0*%
%ADD35R,0.558800X0.304800*%
%ADD36R,0.812800X0.304800*%
%ADD37R,0.304800X0.558800*%
%ADD38R,0.304800X0.812800*%
%ADD39RoundRect,0.225000X0.250000X-0.225000X0.250000X0.225000X-0.250000X0.225000X-0.250000X-0.225000X0*%
%ADD40R,0.650000X1.050000*%
%ADD41RoundRect,0.225000X-0.225000X-0.250000X0.225000X-0.250000X0.225000X0.250000X-0.225000X0.250000X0*%
%ADD42RoundRect,0.135000X-0.185000X0.135000X-0.185000X-0.135000X0.185000X-0.135000X0.185000X0.135000X0*%
%ADD43R,0.304800X0.533400*%
%ADD44R,0.533400X0.304800*%
%ADD45RoundRect,0.135000X-0.135000X-0.185000X0.135000X-0.185000X0.135000X0.185000X-0.135000X0.185000X0*%
%ADD46RoundRect,0.075500X0.226500X-0.621500X0.226500X0.621500X-0.226500X0.621500X-0.226500X-0.621500X0*%
%ADD47RoundRect,0.135000X0.185000X-0.135000X0.185000X0.135000X-0.185000X0.135000X-0.185000X-0.135000X0*%
%ADD48RoundRect,0.102000X0.950000X-0.550000X0.950000X0.550000X-0.950000X0.550000X-0.950000X-0.550000X0*%
%ADD49RoundRect,0.218750X-0.218750X-0.256250X0.218750X-0.256250X0.218750X0.256250X-0.218750X0.256250X0*%
%ADD50RoundRect,0.250000X0.375000X0.850000X-0.375000X0.850000X-0.375000X-0.850000X0.375000X-0.850000X0*%
G04 APERTURE END LIST*
D10*
%TO.C,U1*%
X128925000Y-51870000D02*
X128935000Y-51870000D01*
X128935000Y-51170000D01*
X129324999Y-51170000D01*
X129325000Y-51870000D01*
X129335000Y-51870000D01*
X129335001Y-51170000D01*
X129725000Y-51170000D01*
X129725000Y-51870000D01*
X129735000Y-51870000D01*
X129735000Y-51170000D01*
X130125000Y-51170000D01*
X130125000Y-51870000D01*
X130250000Y-51870000D01*
X130250000Y-54160000D01*
X130125000Y-54160000D01*
X130125000Y-54860000D01*
X129735000Y-54860000D01*
X129735000Y-54160000D01*
X129725000Y-54160000D01*
X129725000Y-54860000D01*
X129335001Y-54860000D01*
X129335000Y-54160000D01*
X129325000Y-54160000D01*
X129324999Y-54860000D01*
X128935000Y-54860000D01*
X128935000Y-54160000D01*
X128925000Y-54160000D01*
X128925000Y-54860000D01*
X128535000Y-54860000D01*
X128535000Y-54160000D01*
X128410000Y-54160000D01*
X128410000Y-51870000D01*
X128535000Y-51870000D01*
X128535000Y-51170000D01*
X128925000Y-51170000D01*
X128925000Y-51870000D01*
G36*
X128925000Y-51870000D02*
G01*
X128935000Y-51870000D01*
X128935000Y-51170000D01*
X129324999Y-51170000D01*
X129325000Y-51870000D01*
X129335000Y-51870000D01*
X129335001Y-51170000D01*
X129725000Y-51170000D01*
X129725000Y-51870000D01*
X129735000Y-51870000D01*
X129735000Y-51170000D01*
X130125000Y-51170000D01*
X130125000Y-51870000D01*
X130250000Y-51870000D01*
X130250000Y-54160000D01*
X130125000Y-54160000D01*
X130125000Y-54860000D01*
X129735000Y-54860000D01*
X129735000Y-54160000D01*
X129725000Y-54160000D01*
X129725000Y-54860000D01*
X129335001Y-54860000D01*
X129335000Y-54160000D01*
X129325000Y-54160000D01*
X129324999Y-54860000D01*
X128935000Y-54860000D01*
X128935000Y-54160000D01*
X128925000Y-54160000D01*
X128925000Y-54860000D01*
X128535000Y-54860000D01*
X128535000Y-54160000D01*
X128410000Y-54160000D01*
X128410000Y-51870000D01*
X128535000Y-51870000D01*
X128535000Y-51170000D01*
X128925000Y-51170000D01*
X128925000Y-51870000D01*
G37*
X128162000Y-51806000D02*
X128173000Y-51808001D01*
X128184000Y-51810000D01*
X128194000Y-51812000D01*
X128205000Y-51815000D01*
X128215000Y-51819000D01*
X128225000Y-51823000D01*
X128235000Y-51828000D01*
X128245000Y-51833000D01*
X128254001Y-51839000D01*
X128263000Y-51845000D01*
X128272000Y-51852000D01*
X128281000Y-51859001D01*
X128288000Y-51867000D01*
X128296000Y-51874000D01*
X128303000Y-51883000D01*
X128310000Y-51892000D01*
X128316000Y-51901000D01*
X128321999Y-51910000D01*
X128327000Y-51920000D01*
X128332000Y-51930001D01*
X128336000Y-51940000D01*
X128340000Y-51950000D01*
X128343000Y-51961000D01*
X128345000Y-51971000D01*
X128347000Y-51982000D01*
X128349000Y-51993000D01*
X128349999Y-52004000D01*
X128350000Y-52015000D01*
X128350000Y-52026000D01*
X128349000Y-52037000D01*
X128347000Y-52048000D01*
X128345000Y-52059000D01*
X128343001Y-52069000D01*
X128340000Y-52080000D01*
X128336000Y-52090000D01*
X128332000Y-52100000D01*
X128327000Y-52109999D01*
X128322000Y-52120000D01*
X128316000Y-52129000D01*
X128310000Y-52138000D01*
X128303000Y-52147000D01*
X128296000Y-52156000D01*
X128288000Y-52163000D01*
X128281000Y-52171000D01*
X128272000Y-52178001D01*
X128263000Y-52184999D01*
X128254000Y-52191000D01*
X128245000Y-52197000D01*
X128235000Y-52202000D01*
X128225000Y-52207000D01*
X128215000Y-52211000D01*
X128204999Y-52215000D01*
X128194000Y-52218000D01*
X128184001Y-52220000D01*
X128173000Y-52222000D01*
X128162000Y-52224000D01*
X128151000Y-52225001D01*
X128140000Y-52225001D01*
X127360000Y-52225000D01*
X127360000Y-51805000D01*
X128140000Y-51805000D01*
X128151000Y-51805000D01*
X128162000Y-51806000D01*
G36*
X128162000Y-51806000D02*
G01*
X128173000Y-51808001D01*
X128184000Y-51810000D01*
X128194000Y-51812000D01*
X128205000Y-51815000D01*
X128215000Y-51819000D01*
X128225000Y-51823000D01*
X128235000Y-51828000D01*
X128245000Y-51833000D01*
X128254001Y-51839000D01*
X128263000Y-51845000D01*
X128272000Y-51852000D01*
X128281000Y-51859001D01*
X128288000Y-51867000D01*
X128296000Y-51874000D01*
X128303000Y-51883000D01*
X128310000Y-51892000D01*
X128316000Y-51901000D01*
X128321999Y-51910000D01*
X128327000Y-51920000D01*
X128332000Y-51930001D01*
X128336000Y-51940000D01*
X128340000Y-51950000D01*
X128343000Y-51961000D01*
X128345000Y-51971000D01*
X128347000Y-51982000D01*
X128349000Y-51993000D01*
X128349999Y-52004000D01*
X128350000Y-52015000D01*
X128350000Y-52026000D01*
X128349000Y-52037000D01*
X128347000Y-52048000D01*
X128345000Y-52059000D01*
X128343001Y-52069000D01*
X128340000Y-52080000D01*
X128336000Y-52090000D01*
X128332000Y-52100000D01*
X128327000Y-52109999D01*
X128322000Y-52120000D01*
X128316000Y-52129000D01*
X128310000Y-52138000D01*
X128303000Y-52147000D01*
X128296000Y-52156000D01*
X128288000Y-52163000D01*
X128281000Y-52171000D01*
X128272000Y-52178001D01*
X128263000Y-52184999D01*
X128254000Y-52191000D01*
X128245000Y-52197000D01*
X128235000Y-52202000D01*
X128225000Y-52207000D01*
X128215000Y-52211000D01*
X128204999Y-52215000D01*
X128194000Y-52218000D01*
X128184001Y-52220000D01*
X128173000Y-52222000D01*
X128162000Y-52224000D01*
X128151000Y-52225001D01*
X128140000Y-52225001D01*
X127360000Y-52225000D01*
X127360000Y-51805000D01*
X128140000Y-51805000D01*
X128151000Y-51805000D01*
X128162000Y-51806000D01*
G37*
X128162000Y-52806000D02*
X128173000Y-52807999D01*
X128184001Y-52810000D01*
X128194000Y-52812000D01*
X128205000Y-52815001D01*
X128215000Y-52819000D01*
X128225001Y-52823000D01*
X128235000Y-52828000D01*
X128245001Y-52833000D01*
X128254000Y-52839000D01*
X128263000Y-52845000D01*
X128272000Y-52852001D01*
X128281000Y-52859000D01*
X128288000Y-52867000D01*
X128296001Y-52874000D01*
X128303000Y-52883000D01*
X128310000Y-52892000D01*
X128316000Y-52901000D01*
X128322000Y-52910000D01*
X128327000Y-52920000D01*
X128332000Y-52929999D01*
X128336000Y-52940000D01*
X128340000Y-52950000D01*
X128343000Y-52961000D01*
X128345000Y-52971000D01*
X128347001Y-52982000D01*
X128349000Y-52993000D01*
X128350000Y-53004000D01*
X128349999Y-53015000D01*
X128350000Y-53026000D01*
X128349000Y-53037000D01*
X128347001Y-53048000D01*
X128345000Y-53059000D01*
X128343000Y-53069000D01*
X128340000Y-53080000D01*
X128336000Y-53090000D01*
X128332000Y-53100001D01*
X128327000Y-53110000D01*
X128322000Y-53120000D01*
X128316000Y-53129000D01*
X128310000Y-53138000D01*
X128303000Y-53147000D01*
X128296001Y-53156000D01*
X128288000Y-53163000D01*
X128281000Y-53171000D01*
X128272000Y-53177999D01*
X128263000Y-53185000D01*
X128254000Y-53191000D01*
X128245001Y-53197000D01*
X128235000Y-53202000D01*
X128225001Y-53207000D01*
X128215000Y-53211000D01*
X128205000Y-53214999D01*
X128194000Y-53218000D01*
X128184001Y-53220000D01*
X128173000Y-53222001D01*
X128162000Y-53224000D01*
X128151001Y-53225000D01*
X128140000Y-53224999D01*
X127360000Y-53225000D01*
X127360000Y-52805000D01*
X128140000Y-52805001D01*
X128151001Y-52805000D01*
X128162000Y-52806000D01*
G36*
X128162000Y-52806000D02*
G01*
X128173000Y-52807999D01*
X128184001Y-52810000D01*
X128194000Y-52812000D01*
X128205000Y-52815001D01*
X128215000Y-52819000D01*
X128225001Y-52823000D01*
X128235000Y-52828000D01*
X128245001Y-52833000D01*
X128254000Y-52839000D01*
X128263000Y-52845000D01*
X128272000Y-52852001D01*
X128281000Y-52859000D01*
X128288000Y-52867000D01*
X128296001Y-52874000D01*
X128303000Y-52883000D01*
X128310000Y-52892000D01*
X128316000Y-52901000D01*
X128322000Y-52910000D01*
X128327000Y-52920000D01*
X128332000Y-52929999D01*
X128336000Y-52940000D01*
X128340000Y-52950000D01*
X128343000Y-52961000D01*
X128345000Y-52971000D01*
X128347001Y-52982000D01*
X128349000Y-52993000D01*
X128350000Y-53004000D01*
X128349999Y-53015000D01*
X128350000Y-53026000D01*
X128349000Y-53037000D01*
X128347001Y-53048000D01*
X128345000Y-53059000D01*
X128343000Y-53069000D01*
X128340000Y-53080000D01*
X128336000Y-53090000D01*
X128332000Y-53100001D01*
X128327000Y-53110000D01*
X128322000Y-53120000D01*
X128316000Y-53129000D01*
X128310000Y-53138000D01*
X128303000Y-53147000D01*
X128296001Y-53156000D01*
X128288000Y-53163000D01*
X128281000Y-53171000D01*
X128272000Y-53177999D01*
X128263000Y-53185000D01*
X128254000Y-53191000D01*
X128245001Y-53197000D01*
X128235000Y-53202000D01*
X128225001Y-53207000D01*
X128215000Y-53211000D01*
X128205000Y-53214999D01*
X128194000Y-53218000D01*
X128184001Y-53220000D01*
X128173000Y-53222001D01*
X128162000Y-53224000D01*
X128151001Y-53225000D01*
X128140000Y-53224999D01*
X127360000Y-53225000D01*
X127360000Y-52805000D01*
X128140000Y-52805001D01*
X128151001Y-52805000D01*
X128162000Y-52806000D01*
G37*
X128162000Y-53306000D02*
X128173000Y-53308000D01*
X128184000Y-53310000D01*
X128194000Y-53312000D01*
X128205000Y-53315000D01*
X128214999Y-53319000D01*
X128225000Y-53323000D01*
X128235000Y-53327999D01*
X128245000Y-53333000D01*
X128254001Y-53339000D01*
X128263000Y-53345000D01*
X128272000Y-53352000D01*
X128281000Y-53359000D01*
X128288000Y-53367000D01*
X128296000Y-53374000D01*
X128303000Y-53383000D01*
X128310000Y-53392000D01*
X128316000Y-53401000D01*
X128322000Y-53410000D01*
X128327000Y-53420000D01*
X128332000Y-53430000D01*
X128335999Y-53440000D01*
X128340000Y-53450000D01*
X128343000Y-53461000D01*
X128345000Y-53471000D01*
X128347000Y-53482000D01*
X128349000Y-53493000D01*
X128350000Y-53504000D01*
X128350000Y-53515000D01*
X128350000Y-53526000D01*
X128349000Y-53537000D01*
X128347000Y-53548000D01*
X128345000Y-53559000D01*
X128343000Y-53569000D01*
X128340000Y-53580000D01*
X128335999Y-53590000D01*
X128332000Y-53600000D01*
X128326999Y-53610000D01*
X128322000Y-53620000D01*
X128316000Y-53629000D01*
X128310001Y-53638000D01*
X128303000Y-53647000D01*
X128296000Y-53656000D01*
X128288000Y-53663000D01*
X128281000Y-53671000D01*
X128272000Y-53678000D01*
X128263001Y-53685000D01*
X128254000Y-53691000D01*
X128245000Y-53697000D01*
X128235000Y-53701999D01*
X128225000Y-53707000D01*
X128215000Y-53711000D01*
X128205000Y-53715000D01*
X128194000Y-53718000D01*
X128184000Y-53720000D01*
X128173000Y-53722000D01*
X128162000Y-53724000D01*
X128151000Y-53725000D01*
X128140000Y-53725000D01*
X127360000Y-53725000D01*
X127360001Y-53305000D01*
X128140000Y-53305000D01*
X128151000Y-53305000D01*
X128162000Y-53306000D01*
G36*
X128162000Y-53306000D02*
G01*
X128173000Y-53308000D01*
X128184000Y-53310000D01*
X128194000Y-53312000D01*
X128205000Y-53315000D01*
X128214999Y-53319000D01*
X128225000Y-53323000D01*
X128235000Y-53327999D01*
X128245000Y-53333000D01*
X128254001Y-53339000D01*
X128263000Y-53345000D01*
X128272000Y-53352000D01*
X128281000Y-53359000D01*
X128288000Y-53367000D01*
X128296000Y-53374000D01*
X128303000Y-53383000D01*
X128310000Y-53392000D01*
X128316000Y-53401000D01*
X128322000Y-53410000D01*
X128327000Y-53420000D01*
X128332000Y-53430000D01*
X128335999Y-53440000D01*
X128340000Y-53450000D01*
X128343000Y-53461000D01*
X128345000Y-53471000D01*
X128347000Y-53482000D01*
X128349000Y-53493000D01*
X128350000Y-53504000D01*
X128350000Y-53515000D01*
X128350000Y-53526000D01*
X128349000Y-53537000D01*
X128347000Y-53548000D01*
X128345000Y-53559000D01*
X128343000Y-53569000D01*
X128340000Y-53580000D01*
X128335999Y-53590000D01*
X128332000Y-53600000D01*
X128326999Y-53610000D01*
X128322000Y-53620000D01*
X128316000Y-53629000D01*
X128310001Y-53638000D01*
X128303000Y-53647000D01*
X128296000Y-53656000D01*
X128288000Y-53663000D01*
X128281000Y-53671000D01*
X128272000Y-53678000D01*
X128263001Y-53685000D01*
X128254000Y-53691000D01*
X128245000Y-53697000D01*
X128235000Y-53701999D01*
X128225000Y-53707000D01*
X128215000Y-53711000D01*
X128205000Y-53715000D01*
X128194000Y-53718000D01*
X128184000Y-53720000D01*
X128173000Y-53722000D01*
X128162000Y-53724000D01*
X128151000Y-53725000D01*
X128140000Y-53725000D01*
X127360000Y-53725000D01*
X127360001Y-53305000D01*
X128140000Y-53305000D01*
X128151000Y-53305000D01*
X128162000Y-53306000D01*
G37*
X128162000Y-53806000D02*
X128173000Y-53808000D01*
X128184001Y-53810000D01*
X128194000Y-53812000D01*
X128204999Y-53815000D01*
X128215000Y-53819000D01*
X128225000Y-53823000D01*
X128235000Y-53828000D01*
X128245000Y-53833000D01*
X128254000Y-53839000D01*
X128263000Y-53845001D01*
X128272000Y-53851999D01*
X128281000Y-53859000D01*
X128288000Y-53867000D01*
X128296000Y-53874000D01*
X128303000Y-53883000D01*
X128310000Y-53892000D01*
X128316000Y-53901000D01*
X128322000Y-53910000D01*
X128327000Y-53920001D01*
X128332000Y-53930000D01*
X128336000Y-53940000D01*
X128340000Y-53950000D01*
X128343001Y-53961000D01*
X128345000Y-53971000D01*
X128347000Y-53982000D01*
X128349000Y-53993000D01*
X128350000Y-54004000D01*
X128350000Y-54015000D01*
X128349999Y-54026000D01*
X128349000Y-54037000D01*
X128347000Y-54048000D01*
X128345000Y-54059000D01*
X128343000Y-54069000D01*
X128340000Y-54080000D01*
X128336000Y-54090000D01*
X128332000Y-54099999D01*
X128327000Y-54110000D01*
X128321999Y-54120000D01*
X128316000Y-54129000D01*
X128310000Y-54138000D01*
X128303000Y-54147000D01*
X128296000Y-54156000D01*
X128288000Y-54163000D01*
X128281000Y-54170999D01*
X128272000Y-54178000D01*
X128263000Y-54185000D01*
X128254001Y-54191000D01*
X128245000Y-54197000D01*
X128235000Y-54202000D01*
X128225000Y-54207000D01*
X128215000Y-54211000D01*
X128205000Y-54215000D01*
X128194000Y-54218000D01*
X128184000Y-54220000D01*
X128173000Y-54221999D01*
X128162000Y-54224000D01*
X128151000Y-54225000D01*
X128140000Y-54225000D01*
X127360000Y-54225000D01*
X127360000Y-53805000D01*
X128140000Y-53804999D01*
X128151000Y-53804999D01*
X128162000Y-53806000D01*
G36*
X128162000Y-53806000D02*
G01*
X128173000Y-53808000D01*
X128184001Y-53810000D01*
X128194000Y-53812000D01*
X128204999Y-53815000D01*
X128215000Y-53819000D01*
X128225000Y-53823000D01*
X128235000Y-53828000D01*
X128245000Y-53833000D01*
X128254000Y-53839000D01*
X128263000Y-53845001D01*
X128272000Y-53851999D01*
X128281000Y-53859000D01*
X128288000Y-53867000D01*
X128296000Y-53874000D01*
X128303000Y-53883000D01*
X128310000Y-53892000D01*
X128316000Y-53901000D01*
X128322000Y-53910000D01*
X128327000Y-53920001D01*
X128332000Y-53930000D01*
X128336000Y-53940000D01*
X128340000Y-53950000D01*
X128343001Y-53961000D01*
X128345000Y-53971000D01*
X128347000Y-53982000D01*
X128349000Y-53993000D01*
X128350000Y-54004000D01*
X128350000Y-54015000D01*
X128349999Y-54026000D01*
X128349000Y-54037000D01*
X128347000Y-54048000D01*
X128345000Y-54059000D01*
X128343000Y-54069000D01*
X128340000Y-54080000D01*
X128336000Y-54090000D01*
X128332000Y-54099999D01*
X128327000Y-54110000D01*
X128321999Y-54120000D01*
X128316000Y-54129000D01*
X128310000Y-54138000D01*
X128303000Y-54147000D01*
X128296000Y-54156000D01*
X128288000Y-54163000D01*
X128281000Y-54170999D01*
X128272000Y-54178000D01*
X128263000Y-54185000D01*
X128254001Y-54191000D01*
X128245000Y-54197000D01*
X128235000Y-54202000D01*
X128225000Y-54207000D01*
X128215000Y-54211000D01*
X128205000Y-54215000D01*
X128194000Y-54218000D01*
X128184000Y-54220000D01*
X128173000Y-54221999D01*
X128162000Y-54224000D01*
X128151000Y-54225000D01*
X128140000Y-54225000D01*
X127360000Y-54225000D01*
X127360000Y-53805000D01*
X128140000Y-53804999D01*
X128151000Y-53804999D01*
X128162000Y-53806000D01*
G37*
X128162000Y-52306000D02*
X128173000Y-52308000D01*
X128184000Y-52310000D01*
X128194000Y-52312000D01*
X128205000Y-52315000D01*
X128215000Y-52319000D01*
X128225000Y-52323000D01*
X128235000Y-52328001D01*
X128245000Y-52333000D01*
X128254000Y-52339000D01*
X128263001Y-52345000D01*
X128272000Y-52352000D01*
X128281000Y-52359000D01*
X128288000Y-52367000D01*
X128296000Y-52374000D01*
X128303000Y-52383000D01*
X128310001Y-52392000D01*
X128316000Y-52401000D01*
X128322000Y-52410000D01*
X128326999Y-52420000D01*
X128332000Y-52430000D01*
X128335999Y-52440000D01*
X128340000Y-52450000D01*
X128343000Y-52461000D01*
X128345000Y-52471000D01*
X128347000Y-52482000D01*
X128349000Y-52493000D01*
X128350000Y-52504000D01*
X128350000Y-52515000D01*
X128350000Y-52526000D01*
X128349000Y-52537000D01*
X128347000Y-52548000D01*
X128345000Y-52559000D01*
X128343000Y-52569000D01*
X128340000Y-52580000D01*
X128335999Y-52590000D01*
X128332000Y-52600000D01*
X128327000Y-52610000D01*
X128322000Y-52620000D01*
X128316000Y-52629000D01*
X128310000Y-52638000D01*
X128303000Y-52647000D01*
X128296000Y-52656000D01*
X128288000Y-52663000D01*
X128281000Y-52671000D01*
X128272000Y-52678000D01*
X128263000Y-52685000D01*
X128254001Y-52691000D01*
X128245000Y-52697000D01*
X128235000Y-52702001D01*
X128225000Y-52707000D01*
X128214999Y-52711000D01*
X128205000Y-52715000D01*
X128194000Y-52718000D01*
X128184000Y-52720000D01*
X128173000Y-52722000D01*
X128162000Y-52724000D01*
X128151000Y-52725000D01*
X128140000Y-52725000D01*
X127360001Y-52725000D01*
X127360000Y-52305000D01*
X128140000Y-52305000D01*
X128151000Y-52305000D01*
X128162000Y-52306000D01*
G36*
X128162000Y-52306000D02*
G01*
X128173000Y-52308000D01*
X128184000Y-52310000D01*
X128194000Y-52312000D01*
X128205000Y-52315000D01*
X128215000Y-52319000D01*
X128225000Y-52323000D01*
X128235000Y-52328001D01*
X128245000Y-52333000D01*
X128254000Y-52339000D01*
X128263001Y-52345000D01*
X128272000Y-52352000D01*
X128281000Y-52359000D01*
X128288000Y-52367000D01*
X128296000Y-52374000D01*
X128303000Y-52383000D01*
X128310001Y-52392000D01*
X128316000Y-52401000D01*
X128322000Y-52410000D01*
X128326999Y-52420000D01*
X128332000Y-52430000D01*
X128335999Y-52440000D01*
X128340000Y-52450000D01*
X128343000Y-52461000D01*
X128345000Y-52471000D01*
X128347000Y-52482000D01*
X128349000Y-52493000D01*
X128350000Y-52504000D01*
X128350000Y-52515000D01*
X128350000Y-52526000D01*
X128349000Y-52537000D01*
X128347000Y-52548000D01*
X128345000Y-52559000D01*
X128343000Y-52569000D01*
X128340000Y-52580000D01*
X128335999Y-52590000D01*
X128332000Y-52600000D01*
X128327000Y-52610000D01*
X128322000Y-52620000D01*
X128316000Y-52629000D01*
X128310000Y-52638000D01*
X128303000Y-52647000D01*
X128296000Y-52656000D01*
X128288000Y-52663000D01*
X128281000Y-52671000D01*
X128272000Y-52678000D01*
X128263000Y-52685000D01*
X128254001Y-52691000D01*
X128245000Y-52697000D01*
X128235000Y-52702001D01*
X128225000Y-52707000D01*
X128214999Y-52711000D01*
X128205000Y-52715000D01*
X128194000Y-52718000D01*
X128184000Y-52720000D01*
X128173000Y-52722000D01*
X128162000Y-52724000D01*
X128151000Y-52725000D01*
X128140000Y-52725000D01*
X127360001Y-52725000D01*
X127360000Y-52305000D01*
X128140000Y-52305000D01*
X128151000Y-52305000D01*
X128162000Y-52306000D01*
G37*
X131299999Y-52725000D02*
X130520000Y-52725000D01*
X130509000Y-52725000D01*
X130498000Y-52724000D01*
X130487000Y-52722000D01*
X130476000Y-52720000D01*
X130466000Y-52718000D01*
X130455000Y-52715000D01*
X130445001Y-52711000D01*
X130435000Y-52707000D01*
X130425000Y-52702001D01*
X130415000Y-52697000D01*
X130405999Y-52691000D01*
X130397000Y-52685000D01*
X130388000Y-52678000D01*
X130379000Y-52671000D01*
X130372000Y-52663000D01*
X130364000Y-52656000D01*
X130357000Y-52647000D01*
X130350000Y-52638000D01*
X130344000Y-52629000D01*
X130338000Y-52620000D01*
X130333000Y-52610000D01*
X130328000Y-52600000D01*
X130324001Y-52590000D01*
X130320000Y-52580000D01*
X130317000Y-52569000D01*
X130315000Y-52559000D01*
X130313000Y-52548000D01*
X130311000Y-52537000D01*
X130310000Y-52526000D01*
X130310000Y-52515000D01*
X130310000Y-52504000D01*
X130311000Y-52493000D01*
X130313000Y-52482000D01*
X130315000Y-52471000D01*
X130317000Y-52461000D01*
X130320000Y-52450000D01*
X130324001Y-52440000D01*
X130328000Y-52430000D01*
X130333001Y-52420000D01*
X130338000Y-52410000D01*
X130344000Y-52401000D01*
X130349999Y-52392000D01*
X130357000Y-52383000D01*
X130364000Y-52374000D01*
X130372000Y-52367000D01*
X130379000Y-52359000D01*
X130388000Y-52352000D01*
X130396999Y-52345000D01*
X130406000Y-52339000D01*
X130415000Y-52333000D01*
X130425000Y-52328001D01*
X130435000Y-52323000D01*
X130445000Y-52319000D01*
X130455000Y-52315000D01*
X130466000Y-52312000D01*
X130476000Y-52310000D01*
X130487000Y-52308000D01*
X130498000Y-52306000D01*
X130509000Y-52305000D01*
X130520000Y-52305000D01*
X131300000Y-52305000D01*
X131299999Y-52725000D01*
G36*
X131299999Y-52725000D02*
G01*
X130520000Y-52725000D01*
X130509000Y-52725000D01*
X130498000Y-52724000D01*
X130487000Y-52722000D01*
X130476000Y-52720000D01*
X130466000Y-52718000D01*
X130455000Y-52715000D01*
X130445001Y-52711000D01*
X130435000Y-52707000D01*
X130425000Y-52702001D01*
X130415000Y-52697000D01*
X130405999Y-52691000D01*
X130397000Y-52685000D01*
X130388000Y-52678000D01*
X130379000Y-52671000D01*
X130372000Y-52663000D01*
X130364000Y-52656000D01*
X130357000Y-52647000D01*
X130350000Y-52638000D01*
X130344000Y-52629000D01*
X130338000Y-52620000D01*
X130333000Y-52610000D01*
X130328000Y-52600000D01*
X130324001Y-52590000D01*
X130320000Y-52580000D01*
X130317000Y-52569000D01*
X130315000Y-52559000D01*
X130313000Y-52548000D01*
X130311000Y-52537000D01*
X130310000Y-52526000D01*
X130310000Y-52515000D01*
X130310000Y-52504000D01*
X130311000Y-52493000D01*
X130313000Y-52482000D01*
X130315000Y-52471000D01*
X130317000Y-52461000D01*
X130320000Y-52450000D01*
X130324001Y-52440000D01*
X130328000Y-52430000D01*
X130333001Y-52420000D01*
X130338000Y-52410000D01*
X130344000Y-52401000D01*
X130349999Y-52392000D01*
X130357000Y-52383000D01*
X130364000Y-52374000D01*
X130372000Y-52367000D01*
X130379000Y-52359000D01*
X130388000Y-52352000D01*
X130396999Y-52345000D01*
X130406000Y-52339000D01*
X130415000Y-52333000D01*
X130425000Y-52328001D01*
X130435000Y-52323000D01*
X130445000Y-52319000D01*
X130455000Y-52315000D01*
X130466000Y-52312000D01*
X130476000Y-52310000D01*
X130487000Y-52308000D01*
X130498000Y-52306000D01*
X130509000Y-52305000D01*
X130520000Y-52305000D01*
X131300000Y-52305000D01*
X131299999Y-52725000D01*
G37*
X131300000Y-52225000D02*
X130520000Y-52225001D01*
X130509000Y-52225001D01*
X130498000Y-52224000D01*
X130487000Y-52222000D01*
X130475999Y-52220000D01*
X130466000Y-52218000D01*
X130455001Y-52215000D01*
X130445000Y-52211000D01*
X130435000Y-52207000D01*
X130425000Y-52202000D01*
X130415000Y-52197000D01*
X130406000Y-52191000D01*
X130397000Y-52184999D01*
X130388000Y-52178001D01*
X130379000Y-52171000D01*
X130372000Y-52163000D01*
X130364000Y-52156000D01*
X130357000Y-52147000D01*
X130350000Y-52138000D01*
X130344000Y-52129000D01*
X130338000Y-52120000D01*
X130333000Y-52109999D01*
X130328000Y-52100000D01*
X130324000Y-52090000D01*
X130320000Y-52080000D01*
X130316999Y-52069000D01*
X130315000Y-52059000D01*
X130313000Y-52048000D01*
X130311000Y-52037000D01*
X130310000Y-52026000D01*
X130310000Y-52015000D01*
X130310001Y-52004000D01*
X130311000Y-51993000D01*
X130313000Y-51982000D01*
X130315000Y-51971000D01*
X130317000Y-51961000D01*
X130320000Y-51950000D01*
X130324000Y-51940000D01*
X130328000Y-51930001D01*
X130333000Y-51920000D01*
X130338001Y-51910000D01*
X130344000Y-51901000D01*
X130350000Y-51892000D01*
X130357000Y-51883000D01*
X130364000Y-51874000D01*
X130372000Y-51867000D01*
X130379000Y-51859001D01*
X130388000Y-51852000D01*
X130397000Y-51845000D01*
X130405999Y-51839000D01*
X130415000Y-51833000D01*
X130425000Y-51828000D01*
X130435000Y-51823000D01*
X130445000Y-51819000D01*
X130455000Y-51815000D01*
X130466000Y-51812000D01*
X130476000Y-51810000D01*
X130487000Y-51808001D01*
X130498000Y-51806000D01*
X130509000Y-51805000D01*
X130520000Y-51805000D01*
X131300000Y-51805000D01*
X131300000Y-52225000D01*
G36*
X131300000Y-52225000D02*
G01*
X130520000Y-52225001D01*
X130509000Y-52225001D01*
X130498000Y-52224000D01*
X130487000Y-52222000D01*
X130475999Y-52220000D01*
X130466000Y-52218000D01*
X130455001Y-52215000D01*
X130445000Y-52211000D01*
X130435000Y-52207000D01*
X130425000Y-52202000D01*
X130415000Y-52197000D01*
X130406000Y-52191000D01*
X130397000Y-52184999D01*
X130388000Y-52178001D01*
X130379000Y-52171000D01*
X130372000Y-52163000D01*
X130364000Y-52156000D01*
X130357000Y-52147000D01*
X130350000Y-52138000D01*
X130344000Y-52129000D01*
X130338000Y-52120000D01*
X130333000Y-52109999D01*
X130328000Y-52100000D01*
X130324000Y-52090000D01*
X130320000Y-52080000D01*
X130316999Y-52069000D01*
X130315000Y-52059000D01*
X130313000Y-52048000D01*
X130311000Y-52037000D01*
X130310000Y-52026000D01*
X130310000Y-52015000D01*
X130310001Y-52004000D01*
X130311000Y-51993000D01*
X130313000Y-51982000D01*
X130315000Y-51971000D01*
X130317000Y-51961000D01*
X130320000Y-51950000D01*
X130324000Y-51940000D01*
X130328000Y-51930001D01*
X130333000Y-51920000D01*
X130338001Y-51910000D01*
X130344000Y-51901000D01*
X130350000Y-51892000D01*
X130357000Y-51883000D01*
X130364000Y-51874000D01*
X130372000Y-51867000D01*
X130379000Y-51859001D01*
X130388000Y-51852000D01*
X130397000Y-51845000D01*
X130405999Y-51839000D01*
X130415000Y-51833000D01*
X130425000Y-51828000D01*
X130435000Y-51823000D01*
X130445000Y-51819000D01*
X130455000Y-51815000D01*
X130466000Y-51812000D01*
X130476000Y-51810000D01*
X130487000Y-51808001D01*
X130498000Y-51806000D01*
X130509000Y-51805000D01*
X130520000Y-51805000D01*
X131300000Y-51805000D01*
X131300000Y-52225000D01*
G37*
X131300000Y-53225000D02*
X130520000Y-53224999D01*
X130508999Y-53225000D01*
X130498000Y-53224000D01*
X130487000Y-53222001D01*
X130475999Y-53220000D01*
X130466000Y-53218000D01*
X130455000Y-53214999D01*
X130445000Y-53211000D01*
X130434999Y-53207000D01*
X130425000Y-53202000D01*
X130414999Y-53197000D01*
X130406000Y-53191000D01*
X130397000Y-53185000D01*
X130388000Y-53177999D01*
X130379000Y-53171000D01*
X130372000Y-53163000D01*
X130363999Y-53156000D01*
X130357000Y-53147000D01*
X130350000Y-53138000D01*
X130344000Y-53129000D01*
X130338000Y-53120000D01*
X130333000Y-53110000D01*
X130328000Y-53100001D01*
X130324000Y-53090000D01*
X130320000Y-53080000D01*
X130317000Y-53069000D01*
X130315000Y-53059000D01*
X130312999Y-53048000D01*
X130311000Y-53037000D01*
X130310000Y-53026000D01*
X130310001Y-53015000D01*
X130310000Y-53004000D01*
X130311000Y-52993000D01*
X130312999Y-52982000D01*
X130315000Y-52971000D01*
X130317000Y-52961000D01*
X130320000Y-52950000D01*
X130324000Y-52940000D01*
X130328000Y-52929999D01*
X130333000Y-52920000D01*
X130338000Y-52910000D01*
X130344000Y-52901000D01*
X130350000Y-52892000D01*
X130357000Y-52883000D01*
X130363999Y-52874000D01*
X130372000Y-52867000D01*
X130379000Y-52859000D01*
X130388000Y-52852001D01*
X130397000Y-52845000D01*
X130406000Y-52839000D01*
X130414999Y-52833000D01*
X130425000Y-52828000D01*
X130434999Y-52823000D01*
X130445000Y-52819000D01*
X130455000Y-52815001D01*
X130466000Y-52812000D01*
X130475999Y-52810000D01*
X130487000Y-52807999D01*
X130498000Y-52806000D01*
X130508999Y-52805000D01*
X130520000Y-52805001D01*
X131300000Y-52805000D01*
X131300000Y-53225000D01*
G36*
X131300000Y-53225000D02*
G01*
X130520000Y-53224999D01*
X130508999Y-53225000D01*
X130498000Y-53224000D01*
X130487000Y-53222001D01*
X130475999Y-53220000D01*
X130466000Y-53218000D01*
X130455000Y-53214999D01*
X130445000Y-53211000D01*
X130434999Y-53207000D01*
X130425000Y-53202000D01*
X130414999Y-53197000D01*
X130406000Y-53191000D01*
X130397000Y-53185000D01*
X130388000Y-53177999D01*
X130379000Y-53171000D01*
X130372000Y-53163000D01*
X130363999Y-53156000D01*
X130357000Y-53147000D01*
X130350000Y-53138000D01*
X130344000Y-53129000D01*
X130338000Y-53120000D01*
X130333000Y-53110000D01*
X130328000Y-53100001D01*
X130324000Y-53090000D01*
X130320000Y-53080000D01*
X130317000Y-53069000D01*
X130315000Y-53059000D01*
X130312999Y-53048000D01*
X130311000Y-53037000D01*
X130310000Y-53026000D01*
X130310001Y-53015000D01*
X130310000Y-53004000D01*
X130311000Y-52993000D01*
X130312999Y-52982000D01*
X130315000Y-52971000D01*
X130317000Y-52961000D01*
X130320000Y-52950000D01*
X130324000Y-52940000D01*
X130328000Y-52929999D01*
X130333000Y-52920000D01*
X130338000Y-52910000D01*
X130344000Y-52901000D01*
X130350000Y-52892000D01*
X130357000Y-52883000D01*
X130363999Y-52874000D01*
X130372000Y-52867000D01*
X130379000Y-52859000D01*
X130388000Y-52852001D01*
X130397000Y-52845000D01*
X130406000Y-52839000D01*
X130414999Y-52833000D01*
X130425000Y-52828000D01*
X130434999Y-52823000D01*
X130445000Y-52819000D01*
X130455000Y-52815001D01*
X130466000Y-52812000D01*
X130475999Y-52810000D01*
X130487000Y-52807999D01*
X130498000Y-52806000D01*
X130508999Y-52805000D01*
X130520000Y-52805001D01*
X131300000Y-52805000D01*
X131300000Y-53225000D01*
G37*
X131300000Y-53725000D02*
X130520000Y-53725000D01*
X130509000Y-53725000D01*
X130498000Y-53724000D01*
X130487000Y-53722000D01*
X130476000Y-53720000D01*
X130466000Y-53718000D01*
X130455000Y-53715000D01*
X130445000Y-53711000D01*
X130435000Y-53707000D01*
X130425000Y-53701999D01*
X130415000Y-53697000D01*
X130406000Y-53691000D01*
X130396999Y-53685000D01*
X130388000Y-53678000D01*
X130379000Y-53671000D01*
X130372000Y-53663000D01*
X130364000Y-53656000D01*
X130357000Y-53647000D01*
X130349999Y-53638000D01*
X130344000Y-53629000D01*
X130338000Y-53620000D01*
X130333001Y-53610000D01*
X130328000Y-53600000D01*
X130324001Y-53590000D01*
X130320000Y-53580000D01*
X130317000Y-53569000D01*
X130315000Y-53559000D01*
X130313000Y-53548000D01*
X130311000Y-53537000D01*
X130310000Y-53526000D01*
X130310000Y-53515000D01*
X130310000Y-53504000D01*
X130311000Y-53493000D01*
X130313000Y-53482000D01*
X130315000Y-53471000D01*
X130317000Y-53461000D01*
X130320000Y-53450000D01*
X130324001Y-53440000D01*
X130328000Y-53430000D01*
X130333000Y-53420000D01*
X130338000Y-53410000D01*
X130344000Y-53401000D01*
X130350000Y-53392000D01*
X130357000Y-53383000D01*
X130364000Y-53374000D01*
X130372000Y-53367000D01*
X130379000Y-53359000D01*
X130388000Y-53352000D01*
X130397000Y-53345000D01*
X130405999Y-53339000D01*
X130415000Y-53333000D01*
X130425000Y-53327999D01*
X130435000Y-53323000D01*
X130445001Y-53319000D01*
X130455000Y-53315000D01*
X130466000Y-53312000D01*
X130476000Y-53310000D01*
X130487000Y-53308000D01*
X130498000Y-53306000D01*
X130509000Y-53305000D01*
X130520000Y-53305000D01*
X131299999Y-53305000D01*
X131300000Y-53725000D01*
G36*
X131300000Y-53725000D02*
G01*
X130520000Y-53725000D01*
X130509000Y-53725000D01*
X130498000Y-53724000D01*
X130487000Y-53722000D01*
X130476000Y-53720000D01*
X130466000Y-53718000D01*
X130455000Y-53715000D01*
X130445000Y-53711000D01*
X130435000Y-53707000D01*
X130425000Y-53701999D01*
X130415000Y-53697000D01*
X130406000Y-53691000D01*
X130396999Y-53685000D01*
X130388000Y-53678000D01*
X130379000Y-53671000D01*
X130372000Y-53663000D01*
X130364000Y-53656000D01*
X130357000Y-53647000D01*
X130349999Y-53638000D01*
X130344000Y-53629000D01*
X130338000Y-53620000D01*
X130333001Y-53610000D01*
X130328000Y-53600000D01*
X130324001Y-53590000D01*
X130320000Y-53580000D01*
X130317000Y-53569000D01*
X130315000Y-53559000D01*
X130313000Y-53548000D01*
X130311000Y-53537000D01*
X130310000Y-53526000D01*
X130310000Y-53515000D01*
X130310000Y-53504000D01*
X130311000Y-53493000D01*
X130313000Y-53482000D01*
X130315000Y-53471000D01*
X130317000Y-53461000D01*
X130320000Y-53450000D01*
X130324001Y-53440000D01*
X130328000Y-53430000D01*
X130333000Y-53420000D01*
X130338000Y-53410000D01*
X130344000Y-53401000D01*
X130350000Y-53392000D01*
X130357000Y-53383000D01*
X130364000Y-53374000D01*
X130372000Y-53367000D01*
X130379000Y-53359000D01*
X130388000Y-53352000D01*
X130397000Y-53345000D01*
X130405999Y-53339000D01*
X130415000Y-53333000D01*
X130425000Y-53327999D01*
X130435000Y-53323000D01*
X130445001Y-53319000D01*
X130455000Y-53315000D01*
X130466000Y-53312000D01*
X130476000Y-53310000D01*
X130487000Y-53308000D01*
X130498000Y-53306000D01*
X130509000Y-53305000D01*
X130520000Y-53305000D01*
X131299999Y-53305000D01*
X131300000Y-53725000D01*
G37*
X131300000Y-53805000D02*
X131300000Y-54225000D01*
X130520000Y-54225000D01*
X130509000Y-54225000D01*
X130498000Y-54224000D01*
X130487000Y-54221999D01*
X130476000Y-54220000D01*
X130466000Y-54218000D01*
X130455000Y-54215000D01*
X130445000Y-54211000D01*
X130435000Y-54207000D01*
X130425000Y-54202000D01*
X130415000Y-54197000D01*
X130405999Y-54191000D01*
X130397000Y-54185000D01*
X130388000Y-54178000D01*
X130379000Y-54170999D01*
X130372000Y-54163000D01*
X130364000Y-54156000D01*
X130357000Y-54147000D01*
X130350000Y-54138000D01*
X130344000Y-54129000D01*
X130338001Y-54120000D01*
X130333000Y-54110000D01*
X130328000Y-54099999D01*
X130324000Y-54090000D01*
X130320000Y-54080000D01*
X130317000Y-54069000D01*
X130315000Y-54059000D01*
X130313000Y-54048000D01*
X130311000Y-54037000D01*
X130310001Y-54026000D01*
X130310000Y-54015000D01*
X130310000Y-54004000D01*
X130311000Y-53993000D01*
X130313000Y-53982000D01*
X130315000Y-53971000D01*
X130316999Y-53961000D01*
X130320000Y-53950000D01*
X130324000Y-53940000D01*
X130328000Y-53930000D01*
X130333000Y-53920001D01*
X130338000Y-53910000D01*
X130344000Y-53901000D01*
X130350000Y-53892000D01*
X130357000Y-53883000D01*
X130364000Y-53874000D01*
X130372000Y-53867000D01*
X130379000Y-53859000D01*
X130388000Y-53851999D01*
X130397000Y-53845001D01*
X130406000Y-53839000D01*
X130415000Y-53833000D01*
X130425000Y-53828000D01*
X130435000Y-53823000D01*
X130445000Y-53819000D01*
X130455001Y-53815000D01*
X130466000Y-53812000D01*
X130475999Y-53810000D01*
X130487000Y-53808000D01*
X130498000Y-53806000D01*
X130509000Y-53804999D01*
X130520000Y-53804999D01*
X131300000Y-53805000D01*
G36*
X131300000Y-53805000D02*
G01*
X131300000Y-54225000D01*
X130520000Y-54225000D01*
X130509000Y-54225000D01*
X130498000Y-54224000D01*
X130487000Y-54221999D01*
X130476000Y-54220000D01*
X130466000Y-54218000D01*
X130455000Y-54215000D01*
X130445000Y-54211000D01*
X130435000Y-54207000D01*
X130425000Y-54202000D01*
X130415000Y-54197000D01*
X130405999Y-54191000D01*
X130397000Y-54185000D01*
X130388000Y-54178000D01*
X130379000Y-54170999D01*
X130372000Y-54163000D01*
X130364000Y-54156000D01*
X130357000Y-54147000D01*
X130350000Y-54138000D01*
X130344000Y-54129000D01*
X130338001Y-54120000D01*
X130333000Y-54110000D01*
X130328000Y-54099999D01*
X130324000Y-54090000D01*
X130320000Y-54080000D01*
X130317000Y-54069000D01*
X130315000Y-54059000D01*
X130313000Y-54048000D01*
X130311000Y-54037000D01*
X130310001Y-54026000D01*
X130310000Y-54015000D01*
X130310000Y-54004000D01*
X130311000Y-53993000D01*
X130313000Y-53982000D01*
X130315000Y-53971000D01*
X130316999Y-53961000D01*
X130320000Y-53950000D01*
X130324000Y-53940000D01*
X130328000Y-53930000D01*
X130333000Y-53920001D01*
X130338000Y-53910000D01*
X130344000Y-53901000D01*
X130350000Y-53892000D01*
X130357000Y-53883000D01*
X130364000Y-53874000D01*
X130372000Y-53867000D01*
X130379000Y-53859000D01*
X130388000Y-53851999D01*
X130397000Y-53845001D01*
X130406000Y-53839000D01*
X130415000Y-53833000D01*
X130425000Y-53828000D01*
X130435000Y-53823000D01*
X130445000Y-53819000D01*
X130455001Y-53815000D01*
X130466000Y-53812000D01*
X130475999Y-53810000D01*
X130487000Y-53808000D01*
X130498000Y-53806000D01*
X130509000Y-53804999D01*
X130520000Y-53804999D01*
X131300000Y-53805000D01*
G37*
%TD*%
D11*
%TO.C,C71*%
X122625099Y-81350096D03*
X122625099Y-80390096D03*
%TD*%
D12*
%TO.C,J3*%
X148150000Y-130310000D03*
X140150000Y-130310000D03*
D13*
X140950000Y-119310000D03*
X142050000Y-119310000D03*
X143150000Y-119310000D03*
X144250000Y-119310000D03*
X145350000Y-119310000D03*
X146450000Y-119310000D03*
X147550000Y-119310000D03*
X148650000Y-119310000D03*
X149750000Y-119310000D03*
D14*
X150950000Y-120610000D03*
D15*
X136350000Y-120360000D03*
D16*
X150950000Y-129910000D03*
X135450000Y-129910000D03*
%TD*%
D17*
%TO.C,C51*%
X123865100Y-75720097D03*
X123865100Y-74760097D03*
%TD*%
D18*
%TO.C,C7*%
X122170000Y-74910000D03*
X121210000Y-74910000D03*
%TD*%
D19*
%TO.C,S1*%
X125875000Y-45672500D03*
D20*
X130575000Y-45672500D03*
X135275000Y-45672500D03*
X123970000Y-36142500D03*
X137180000Y-36142500D03*
%TD*%
D21*
%TO.C,U10*%
X146375000Y-56475001D03*
X145300001Y-55364999D03*
X146375000Y-55364999D03*
X147449999Y-55364999D03*
X146375000Y-54254999D03*
X145300001Y-52840001D03*
X146375000Y-52840001D03*
X147449999Y-52840001D03*
%TD*%
D22*
%TO.C,J9*%
X117390000Y-47620750D03*
D23*
X112390000Y-47620750D03*
D24*
X120390000Y-37620750D03*
X109390000Y-37620750D03*
%TD*%
D25*
%TO.C,J1*%
X149060001Y-40945000D03*
X143279999Y-40945000D03*
D26*
X150490000Y-41445000D03*
X141850000Y-41445000D03*
D27*
X150490000Y-37265000D03*
X141850000Y-37265000D03*
%TD*%
D28*
%TO.C,J5*%
X110041900Y-60250100D03*
D29*
X107501900Y-60250100D03*
D28*
X104961900Y-60250100D03*
X110041900Y-65965100D03*
X104961900Y-65965100D03*
D29*
X108516900Y-67870100D03*
X106486900Y-67870100D03*
%TD*%
D30*
%TO.C,REF\u002A\u002A*%
X154370000Y-131755000D03*
%TD*%
%TO.C,REF\u002A\u002A*%
X154350000Y-37075000D03*
%TD*%
D28*
%TO.C,J4*%
X141720000Y-69130000D03*
D29*
X139180000Y-69130000D03*
D28*
X136640000Y-69130000D03*
X141720000Y-74845000D03*
X136640000Y-74845000D03*
D29*
X140195000Y-76750000D03*
X138165000Y-76750000D03*
%TD*%
D30*
%TO.C,REF\u002A\u002A*%
X104680000Y-131755000D03*
%TD*%
%TO.C,REF\u002A\u002A*%
X104675000Y-37075000D03*
%TD*%
D17*
%TO.C,C61*%
X116230000Y-72330000D03*
X116230000Y-73290000D03*
%TD*%
D31*
%TO.C,C70*%
X114950000Y-71465000D03*
X114950000Y-73015000D03*
%TD*%
D32*
%TO.C,C110*%
X104900000Y-82710000D03*
X103350000Y-82710000D03*
%TD*%
D33*
%TO.C,R6*%
X137070000Y-83990000D03*
X136050000Y-83990000D03*
%TD*%
D11*
%TO.C,C65*%
X112930000Y-75640000D03*
X112930000Y-74680000D03*
%TD*%
D34*
%TO.C,C76*%
X127205099Y-78940096D03*
X126245099Y-78940096D03*
%TD*%
D35*
%TO.C,U11*%
X118040100Y-62425100D03*
D36*
X117913100Y-62925099D03*
X117913100Y-63425101D03*
X117913100Y-63925100D03*
X117913100Y-64425099D03*
X117913100Y-64925101D03*
D35*
X118040100Y-65425100D03*
D37*
X117470000Y-65995200D03*
D38*
X116970001Y-65868200D03*
X116469999Y-65868200D03*
X115970000Y-65868200D03*
X115470001Y-65868200D03*
X114969999Y-65868200D03*
D37*
X114470000Y-65995200D03*
D35*
X113899900Y-65425100D03*
D36*
X114026900Y-64925101D03*
X114026900Y-64425099D03*
X114026900Y-63925100D03*
X114026900Y-63425101D03*
X114026900Y-62925099D03*
D35*
X113899900Y-62425100D03*
D37*
X114470000Y-61855000D03*
D38*
X114969999Y-61982000D03*
X115470001Y-61982000D03*
X115970000Y-61982000D03*
X116469999Y-61982000D03*
X116970001Y-61982000D03*
D37*
X117470000Y-61855000D03*
%TD*%
D17*
%TO.C,C57*%
X124825099Y-74220096D03*
X124825099Y-75180096D03*
%TD*%
D39*
%TO.C,C94*%
X138485000Y-53235000D03*
X138485000Y-51685000D03*
%TD*%
D40*
%TO.C,J7*%
X119116900Y-59325100D03*
X119116900Y-55175100D03*
X116966900Y-59325100D03*
X116966900Y-55175100D03*
%TD*%
D11*
%TO.C,C88*%
X126285000Y-53514999D03*
X126285000Y-52554999D03*
%TD*%
D41*
%TO.C,C30*%
X119624999Y-66432000D03*
X121174999Y-66432000D03*
%TD*%
D34*
%TO.C,C75*%
X126425100Y-77980096D03*
X125465100Y-77980096D03*
%TD*%
D42*
%TO.C,R2*%
X139480000Y-83960000D03*
X139480000Y-84980000D03*
%TD*%
D34*
%TO.C,C74*%
X127155100Y-77060096D03*
X126195100Y-77060096D03*
%TD*%
D32*
%TO.C,C10*%
X146090000Y-116305000D03*
X144540000Y-116305000D03*
%TD*%
D34*
%TO.C,C72*%
X125605100Y-79880096D03*
X124645100Y-79880096D03*
%TD*%
%TO.C,C9*%
X145220000Y-117585000D03*
X144260000Y-117585000D03*
%TD*%
%TO.C,C17*%
X145420000Y-43695000D03*
X144460000Y-43695000D03*
%TD*%
D11*
%TO.C,C73*%
X124575099Y-82150096D03*
X124575099Y-81190096D03*
%TD*%
D18*
%TO.C,C16*%
X146430001Y-43695000D03*
X147390001Y-43695000D03*
%TD*%
D39*
%TO.C,C90*%
X120405000Y-53245000D03*
X120405000Y-51695000D03*
%TD*%
D31*
%TO.C,C80*%
X111150000Y-82630000D03*
X111150000Y-84180000D03*
%TD*%
D39*
%TO.C,C95*%
X136954999Y-53235000D03*
X136954999Y-51685000D03*
%TD*%
D43*
%TO.C,U2*%
X122569001Y-92140299D03*
X122069000Y-92140299D03*
X121569000Y-92140299D03*
X121068999Y-92140299D03*
D44*
X120930000Y-91509998D03*
X120930000Y-91009999D03*
X120930000Y-90510000D03*
D43*
X121068999Y-89879699D03*
X121569000Y-89879699D03*
X122069000Y-89879699D03*
X122569001Y-89879699D03*
D44*
X122708000Y-90510000D03*
X122708000Y-91009999D03*
X122708000Y-91509998D03*
%TD*%
D42*
%TO.C,R1*%
X135080000Y-83960000D03*
X135080000Y-84980000D03*
%TD*%
D34*
%TO.C,C28*%
X120083284Y-62301999D03*
X119123284Y-62301999D03*
%TD*%
D45*
%TO.C,R8*%
X138440000Y-81920000D03*
X139460000Y-81920000D03*
%TD*%
D17*
%TO.C,C59*%
X124580000Y-77990096D03*
X124580000Y-78950096D03*
%TD*%
D11*
%TO.C,C63*%
X115540000Y-78210000D03*
X115540000Y-77250000D03*
%TD*%
D32*
%TO.C,C66*%
X122885000Y-69140000D03*
X121335000Y-69140000D03*
%TD*%
D46*
%TO.C,U12*%
X104900000Y-86430000D03*
X104250000Y-86430000D03*
X103600000Y-86430000D03*
X103600000Y-84510000D03*
X104250000Y-84510000D03*
X104900000Y-84510000D03*
%TD*%
D47*
%TO.C,R32*%
X132065000Y-51614999D03*
X132065000Y-50595001D03*
%TD*%
D18*
%TO.C,C27*%
X119129999Y-64422000D03*
X120089999Y-64422000D03*
%TD*%
D39*
%TO.C,C89*%
X124994999Y-53245000D03*
X124994999Y-51695000D03*
%TD*%
%TO.C,C69*%
X121310000Y-83330000D03*
X121310000Y-81780000D03*
%TD*%
D34*
%TO.C,C53*%
X122505099Y-77470096D03*
X121545099Y-77470096D03*
%TD*%
%TO.C,C4*%
X121069000Y-88660299D03*
X120109000Y-88660299D03*
%TD*%
D45*
%TO.C,R9*%
X130890000Y-83950000D03*
X131910000Y-83950000D03*
%TD*%
D48*
%TO.C,Y1*%
X124579999Y-64851999D03*
X124579999Y-62352001D03*
%TD*%
D33*
%TO.C,R12*%
X132820000Y-72430000D03*
X131800000Y-72430000D03*
%TD*%
D11*
%TO.C,C56*%
X123595099Y-81350096D03*
X123595099Y-80390096D03*
%TD*%
D32*
%TO.C,C29*%
X120548283Y-61032000D03*
X118998283Y-61032000D03*
%TD*%
D17*
%TO.C,C81*%
X115540000Y-79580000D03*
X115540000Y-80540000D03*
%TD*%
D32*
%TO.C,C78*%
X124355000Y-86630000D03*
X122805000Y-86630000D03*
%TD*%
D18*
%TO.C,C55*%
X122280000Y-78900000D03*
X123240000Y-78900000D03*
%TD*%
D34*
%TO.C,C58*%
X125295099Y-77010096D03*
X124335099Y-77010096D03*
%TD*%
D32*
%TO.C,C68*%
X127625000Y-85130000D03*
X126075000Y-85130000D03*
%TD*%
D42*
%TO.C,R3*%
X140440000Y-81870000D03*
X140440000Y-82890000D03*
%TD*%
D45*
%TO.C,R7*%
X138430000Y-83000000D03*
X139450000Y-83000000D03*
%TD*%
D11*
%TO.C,C87*%
X129005000Y-50474999D03*
X129005000Y-49514999D03*
%TD*%
D49*
%TO.C,FB1*%
X106725000Y-82630000D03*
X108300000Y-82630000D03*
%TD*%
D32*
%TO.C,C109*%
X104900000Y-88580000D03*
X103350000Y-88580000D03*
%TD*%
%TO.C,C111*%
X104900000Y-79960000D03*
X103350000Y-79960000D03*
%TD*%
D39*
%TO.C,C92*%
X121935000Y-53245000D03*
X121935000Y-51695000D03*
%TD*%
D50*
%TO.C,L1*%
X130410000Y-58255000D03*
X128260000Y-58255000D03*
%TD*%
D39*
%TO.C,C62*%
X114270000Y-78370000D03*
X114270000Y-76820000D03*
%TD*%
D11*
%TO.C,C97*%
X134155000Y-53505000D03*
X134155000Y-52545000D03*
%TD*%
D42*
%TO.C,R4*%
X132880000Y-83960000D03*
X132880000Y-84980000D03*
%TD*%
D31*
%TO.C,C82*%
X113370000Y-79875000D03*
X113370000Y-81425000D03*
%TD*%
D45*
%TO.C,R11*%
X132000000Y-82020000D03*
X133020000Y-82020000D03*
%TD*%
D42*
%TO.C,R5*%
X133980000Y-82050000D03*
X133980000Y-83070000D03*
%TD*%
D39*
%TO.C,C91*%
X123465000Y-53245000D03*
X123465000Y-51695000D03*
%TD*%
D32*
%TO.C,C11*%
X146090000Y-114765000D03*
X144540000Y-114765000D03*
%TD*%
%TO.C,C77*%
X124350000Y-85120000D03*
X122800000Y-85120000D03*
%TD*%
D11*
%TO.C,C3*%
X119619000Y-91750299D03*
X119619000Y-90790299D03*
%TD*%
D33*
%TO.C,R30*%
X116966900Y-60725100D03*
X115946902Y-60725100D03*
%TD*%
D47*
%TO.C,R31*%
X133105000Y-53514999D03*
X133105000Y-52495001D03*
%TD*%
D11*
%TO.C,C98*%
X131024999Y-50474999D03*
X131024999Y-49514999D03*
%TD*%
D17*
%TO.C,C79*%
X112475000Y-82645000D03*
X112475000Y-83605000D03*
%TD*%
D39*
%TO.C,C93*%
X140015000Y-53235000D03*
X140015000Y-51685000D03*
%TD*%
D34*
%TO.C,C26*%
X128049999Y-64852000D03*
X127089999Y-64852000D03*
%TD*%
D11*
%TO.C,C54*%
X121365099Y-79960000D03*
X121365099Y-79000000D03*
%TD*%
D39*
%TO.C,C64*%
X110890000Y-75360000D03*
X110890000Y-73810000D03*
%TD*%
%TO.C,C96*%
X135425000Y-53235000D03*
X135425000Y-51685000D03*
%TD*%
D31*
%TO.C,C67*%
X124330000Y-71475000D03*
X124330000Y-73025000D03*
%TD*%
D18*
%TO.C,C52*%
X119645099Y-77430096D03*
X120605099Y-77430096D03*
%TD*%
D34*
%TO.C,C25*%
X128049999Y-62352000D03*
X127089999Y-62352000D03*
%TD*%
M02*
