%TF.GenerationSoftware,KiCad,Pcbnew,9.0.6*%
%TF.CreationDate,2026-04-28T12:11:22+02:00*%
%TF.ProjectId,CANSAT-M2-2026,43414e53-4154-42d4-9d32-2d323032362e,rev?*%
%TF.SameCoordinates,Original*%
%TF.FileFunction,Paste,Bot*%
%TF.FilePolarity,Positive*%
%FSLAX46Y46*%
G04 Gerber Fmt 4.6, Leading zero omitted, Abs format (unit mm)*
G04 Created by KiCad (PCBNEW 9.0.6) date 2026-04-28 12:11:22*
%MOMM*%
%LPD*%
G01*
G04 APERTURE LIST*
G04 Aperture macros list*
%AMRoundRect*
0 Rectangle with rounded corners*
0 $1 Rounding radius*
0 $2 $3 $4 $5 $6 $7 $8 $9 X,Y pos of 4 corners*
0 Add a 4 corners polygon primitive as box body*
4,1,4,$2,$3,$4,$5,$6,$7,$8,$9,$2,$3,0*
0 Add four circle primitives for the rounded corners*
1,1,$1+$1,$2,$3*
1,1,$1+$1,$4,$5*
1,1,$1+$1,$6,$7*
1,1,$1+$1,$8,$9*
0 Add four rect primitives between the rounded corners*
20,1,$1+$1,$2,$3,$4,$5,0*
20,1,$1+$1,$4,$5,$6,$7,0*
20,1,$1+$1,$6,$7,$8,$9,0*
20,1,$1+$1,$8,$9,$2,$3,0*%
G04 Aperture macros list end*
%ADD10C,0.010000*%
%ADD11RoundRect,0.140000X0.170000X-0.140000X0.170000X0.140000X-0.170000X0.140000X-0.170000X-0.140000X0*%
%ADD12R,0.700000X1.600000*%
%ADD13R,1.200000X1.800000*%
%ADD14R,1.600000X1.500000*%
%ADD15R,1.200000X2.200000*%
%ADD16RoundRect,0.140000X-0.170000X0.140000X-0.170000X-0.140000X0.170000X-0.140000X0.170000X0.140000X0*%
%ADD17RoundRect,0.140000X-0.140000X-0.170000X0.140000X-0.170000X0.140000X0.170000X-0.140000X0.170000X0*%
%ADD18RoundRect,0.225000X-0.250000X0.225000X-0.250000X-0.225000X0.250000X-0.225000X0.250000X0.225000X0*%
%ADD19RoundRect,0.225000X0.225000X0.250000X-0.225000X0.250000X-0.225000X-0.250000X0.225000X-0.250000X0*%
%ADD20RoundRect,0.135000X0.135000X0.185000X-0.135000X0.185000X-0.135000X-0.185000X0.135000X-0.185000X0*%
%ADD21RoundRect,0.140000X0.140000X0.170000X-0.140000X0.170000X-0.140000X-0.170000X0.140000X-0.170000X0*%
%ADD22R,0.558800X0.304800*%
%ADD23R,0.812800X0.304800*%
%ADD24R,0.304800X0.558800*%
%ADD25R,0.304800X0.812800*%
%ADD26RoundRect,0.225000X0.250000X-0.225000X0.250000X0.225000X-0.250000X0.225000X-0.250000X-0.225000X0*%
%ADD27R,0.650000X1.050000*%
%ADD28RoundRect,0.225000X-0.225000X-0.250000X0.225000X-0.250000X0.225000X0.250000X-0.225000X0.250000X0*%
%ADD29RoundRect,0.135000X-0.185000X0.135000X-0.185000X-0.135000X0.185000X-0.135000X0.185000X0.135000X0*%
%ADD30R,0.304800X0.533400*%
%ADD31R,0.533400X0.304800*%
%ADD32RoundRect,0.135000X-0.135000X-0.185000X0.135000X-0.185000X0.135000X0.185000X-0.135000X0.185000X0*%
%ADD33RoundRect,0.050000X0.150000X-0.545000X0.150000X0.545000X-0.150000X0.545000X-0.150000X-0.545000X0*%
%ADD34RoundRect,0.135000X0.185000X-0.135000X0.185000X0.135000X-0.185000X0.135000X-0.185000X-0.135000X0*%
%ADD35R,1.900000X1.100000*%
%ADD36RoundRect,0.218750X-0.218750X-0.256250X0.218750X-0.256250X0.218750X0.256250X-0.218750X0.256250X0*%
%ADD37RoundRect,0.250000X0.375000X0.850000X-0.375000X0.850000X-0.375000X-0.850000X0.375000X-0.850000X0*%
G04 APERTURE END LIST*
D10*
%TO.C,U1*%
X129220000Y-52905000D02*
X128570000Y-52905000D01*
X128570000Y-52005000D01*
X129220000Y-52005000D01*
X129220000Y-52905000D01*
G36*
X129220000Y-52905000D02*
G01*
X128570000Y-52905000D01*
X128570000Y-52005000D01*
X129220000Y-52005000D01*
X129220000Y-52905000D01*
G37*
X129220000Y-54025000D02*
X128570000Y-54025000D01*
X128570000Y-53125000D01*
X129220000Y-53125000D01*
X129220000Y-54025000D01*
G36*
X129220000Y-54025000D02*
G01*
X128570000Y-54025000D01*
X128570000Y-53125000D01*
X129220000Y-53125000D01*
X129220000Y-54025000D01*
G37*
X128845000Y-51855000D02*
X128615000Y-51855000D01*
X128615000Y-51255000D01*
X128845000Y-51255000D01*
X128845000Y-51855000D01*
G36*
X128845000Y-51855000D02*
G01*
X128615000Y-51855000D01*
X128615000Y-51255000D01*
X128845000Y-51255000D01*
X128845000Y-51855000D01*
G37*
X128845000Y-54775000D02*
X128615000Y-54775000D01*
X128615000Y-54175000D01*
X128845000Y-54175000D01*
X128845000Y-54775000D01*
G36*
X128845000Y-54775000D02*
G01*
X128615000Y-54775000D01*
X128615000Y-54175000D01*
X128845000Y-54175000D01*
X128845000Y-54775000D01*
G37*
X129245000Y-51855000D02*
X129014999Y-51855000D01*
X129014999Y-51255000D01*
X129245000Y-51255000D01*
X129245000Y-51855000D01*
G36*
X129245000Y-51855000D02*
G01*
X129014999Y-51855000D01*
X129014999Y-51255000D01*
X129245000Y-51255000D01*
X129245000Y-51855000D01*
G37*
X129245000Y-54775000D02*
X129014999Y-54775000D01*
X129014999Y-54175000D01*
X129245000Y-54175000D01*
X129245000Y-54775000D01*
G36*
X129245000Y-54775000D02*
G01*
X129014999Y-54775000D01*
X129014999Y-54175000D01*
X129245000Y-54175000D01*
X129245000Y-54775000D01*
G37*
X129645001Y-51855000D02*
X129415000Y-51855000D01*
X129415000Y-51255000D01*
X129645001Y-51255000D01*
X129645001Y-51855000D01*
G36*
X129645001Y-51855000D02*
G01*
X129415000Y-51855000D01*
X129415000Y-51255000D01*
X129645001Y-51255000D01*
X129645001Y-51855000D01*
G37*
X129645001Y-54775000D02*
X129415000Y-54775000D01*
X129415000Y-54175000D01*
X129645001Y-54175000D01*
X129645001Y-54775000D01*
G36*
X129645001Y-54775000D02*
G01*
X129415000Y-54775000D01*
X129415000Y-54175000D01*
X129645001Y-54175000D01*
X129645001Y-54775000D01*
G37*
X130090000Y-52905000D02*
X129440000Y-52905000D01*
X129440000Y-52005000D01*
X130090000Y-52005000D01*
X130090000Y-52905000D01*
G36*
X130090000Y-52905000D02*
G01*
X129440000Y-52905000D01*
X129440000Y-52005000D01*
X130090000Y-52005000D01*
X130090000Y-52905000D01*
G37*
X130090000Y-54025000D02*
X129440000Y-54025000D01*
X129440000Y-53125000D01*
X130090000Y-53125000D01*
X130090000Y-54025000D01*
G36*
X130090000Y-54025000D02*
G01*
X129440000Y-54025000D01*
X129440000Y-53125000D01*
X130090000Y-53125000D01*
X130090000Y-54025000D01*
G37*
X130045000Y-51855000D02*
X129815000Y-51855000D01*
X129815000Y-51255000D01*
X130045000Y-51255000D01*
X130045000Y-51855000D01*
G36*
X130045000Y-51855000D02*
G01*
X129815000Y-51855000D01*
X129815000Y-51255000D01*
X130045000Y-51255000D01*
X130045000Y-51855000D01*
G37*
X130045000Y-54775000D02*
X129815000Y-54775000D01*
X129815000Y-54175000D01*
X130045000Y-54175000D01*
X130045000Y-54775000D01*
G36*
X130045000Y-54775000D02*
G01*
X129815000Y-54775000D01*
X129815000Y-54175000D01*
X130045000Y-54175000D01*
X130045000Y-54775000D01*
G37*
X128134000Y-51900000D02*
X128141000Y-51900000D01*
X128148000Y-51901000D01*
X128154000Y-51902000D01*
X128161000Y-51904000D01*
X128167000Y-51906000D01*
X128173000Y-51908000D01*
X128180000Y-51910000D01*
X128186000Y-51913000D01*
X128192000Y-51917000D01*
X128197000Y-51920000D01*
X128203000Y-51924000D01*
X128208000Y-51928000D01*
X128213000Y-51932000D01*
X128218000Y-51937000D01*
X128223000Y-51942000D01*
X128227000Y-51947000D01*
X128231000Y-51952000D01*
X128235000Y-51958000D01*
X128238000Y-51963000D01*
X128242000Y-51969000D01*
X128245000Y-51975000D01*
X128247000Y-51982000D01*
X128249000Y-51988000D01*
X128251000Y-51994000D01*
X128253000Y-52001000D01*
X128254000Y-52006999D01*
X128255000Y-52015000D01*
X128254000Y-52023000D01*
X128253000Y-52029000D01*
X128251000Y-52036000D01*
X128249000Y-52042001D01*
X128247000Y-52048000D01*
X128245001Y-52055000D01*
X128242000Y-52061000D01*
X128238000Y-52067000D01*
X128235000Y-52072000D01*
X128231000Y-52078000D01*
X128227000Y-52083000D01*
X128223000Y-52088000D01*
X128218000Y-52093000D01*
X128213000Y-52098000D01*
X128208000Y-52102000D01*
X128203000Y-52106000D01*
X128197000Y-52109999D01*
X128192000Y-52113000D01*
X128186000Y-52117000D01*
X128180000Y-52120000D01*
X128173000Y-52122000D01*
X128167000Y-52124000D01*
X128161000Y-52126000D01*
X128154000Y-52128000D01*
X128148000Y-52129000D01*
X128141001Y-52130000D01*
X128134000Y-52130000D01*
X128127000Y-52131000D01*
X128120999Y-52130000D01*
X128115000Y-52130000D01*
X127455000Y-52130000D01*
X127455000Y-51900000D01*
X128115000Y-51900000D01*
X128121000Y-51900000D01*
X128127000Y-51899000D01*
X128134000Y-51900000D01*
G36*
X128134000Y-51900000D02*
G01*
X128141000Y-51900000D01*
X128148000Y-51901000D01*
X128154000Y-51902000D01*
X128161000Y-51904000D01*
X128167000Y-51906000D01*
X128173000Y-51908000D01*
X128180000Y-51910000D01*
X128186000Y-51913000D01*
X128192000Y-51917000D01*
X128197000Y-51920000D01*
X128203000Y-51924000D01*
X128208000Y-51928000D01*
X128213000Y-51932000D01*
X128218000Y-51937000D01*
X128223000Y-51942000D01*
X128227000Y-51947000D01*
X128231000Y-51952000D01*
X128235000Y-51958000D01*
X128238000Y-51963000D01*
X128242000Y-51969000D01*
X128245000Y-51975000D01*
X128247000Y-51982000D01*
X128249000Y-51988000D01*
X128251000Y-51994000D01*
X128253000Y-52001000D01*
X128254000Y-52006999D01*
X128255000Y-52015000D01*
X128254000Y-52023000D01*
X128253000Y-52029000D01*
X128251000Y-52036000D01*
X128249000Y-52042001D01*
X128247000Y-52048000D01*
X128245001Y-52055000D01*
X128242000Y-52061000D01*
X128238000Y-52067000D01*
X128235000Y-52072000D01*
X128231000Y-52078000D01*
X128227000Y-52083000D01*
X128223000Y-52088000D01*
X128218000Y-52093000D01*
X128213000Y-52098000D01*
X128208000Y-52102000D01*
X128203000Y-52106000D01*
X128197000Y-52109999D01*
X128192000Y-52113000D01*
X128186000Y-52117000D01*
X128180000Y-52120000D01*
X128173000Y-52122000D01*
X128167000Y-52124000D01*
X128161000Y-52126000D01*
X128154000Y-52128000D01*
X128148000Y-52129000D01*
X128141001Y-52130000D01*
X128134000Y-52130000D01*
X128127000Y-52131000D01*
X128120999Y-52130000D01*
X128115000Y-52130000D01*
X127455000Y-52130000D01*
X127455000Y-51900000D01*
X128115000Y-51900000D01*
X128121000Y-51900000D01*
X128127000Y-51899000D01*
X128134000Y-51900000D01*
G37*
X128134000Y-52400000D02*
X128141000Y-52400000D01*
X128148000Y-52401000D01*
X128154000Y-52402000D01*
X128161000Y-52404000D01*
X128167000Y-52406000D01*
X128173000Y-52408000D01*
X128180000Y-52410000D01*
X128186000Y-52413000D01*
X128192000Y-52417001D01*
X128197000Y-52419999D01*
X128203000Y-52424000D01*
X128208000Y-52428000D01*
X128213000Y-52432000D01*
X128218000Y-52437000D01*
X128223000Y-52442000D01*
X128227000Y-52447000D01*
X128231000Y-52452000D01*
X128235001Y-52458000D01*
X128237999Y-52463000D01*
X128242000Y-52469000D01*
X128245000Y-52475000D01*
X128246999Y-52482000D01*
X128249000Y-52488000D01*
X128251000Y-52494000D01*
X128253000Y-52501000D01*
X128254000Y-52507000D01*
X128255000Y-52515000D01*
X128254001Y-52523000D01*
X128253000Y-52529000D01*
X128251000Y-52536000D01*
X128249000Y-52542000D01*
X128246999Y-52548000D01*
X128245000Y-52555000D01*
X128242000Y-52561000D01*
X128238000Y-52567000D01*
X128235000Y-52572000D01*
X128231000Y-52578000D01*
X128227000Y-52583000D01*
X128223000Y-52588000D01*
X128218000Y-52593000D01*
X128213000Y-52598000D01*
X128208000Y-52602000D01*
X128203000Y-52606000D01*
X128197000Y-52610000D01*
X128192000Y-52613001D01*
X128186000Y-52617000D01*
X128180000Y-52620000D01*
X128172999Y-52622000D01*
X128167000Y-52624000D01*
X128161000Y-52626000D01*
X128154000Y-52628000D01*
X128148000Y-52629000D01*
X128141000Y-52630000D01*
X128134000Y-52630000D01*
X128127001Y-52631000D01*
X128121000Y-52630000D01*
X128115000Y-52630000D01*
X127455000Y-52630000D01*
X127455000Y-52400000D01*
X128115000Y-52400000D01*
X128121000Y-52400000D01*
X128127000Y-52399000D01*
X128134000Y-52400000D01*
G36*
X128134000Y-52400000D02*
G01*
X128141000Y-52400000D01*
X128148000Y-52401000D01*
X128154000Y-52402000D01*
X128161000Y-52404000D01*
X128167000Y-52406000D01*
X128173000Y-52408000D01*
X128180000Y-52410000D01*
X128186000Y-52413000D01*
X128192000Y-52417001D01*
X128197000Y-52419999D01*
X128203000Y-52424000D01*
X128208000Y-52428000D01*
X128213000Y-52432000D01*
X128218000Y-52437000D01*
X128223000Y-52442000D01*
X128227000Y-52447000D01*
X128231000Y-52452000D01*
X128235001Y-52458000D01*
X128237999Y-52463000D01*
X128242000Y-52469000D01*
X128245000Y-52475000D01*
X128246999Y-52482000D01*
X128249000Y-52488000D01*
X128251000Y-52494000D01*
X128253000Y-52501000D01*
X128254000Y-52507000D01*
X128255000Y-52515000D01*
X128254001Y-52523000D01*
X128253000Y-52529000D01*
X128251000Y-52536000D01*
X128249000Y-52542000D01*
X128246999Y-52548000D01*
X128245000Y-52555000D01*
X128242000Y-52561000D01*
X128238000Y-52567000D01*
X128235000Y-52572000D01*
X128231000Y-52578000D01*
X128227000Y-52583000D01*
X128223000Y-52588000D01*
X128218000Y-52593000D01*
X128213000Y-52598000D01*
X128208000Y-52602000D01*
X128203000Y-52606000D01*
X128197000Y-52610000D01*
X128192000Y-52613001D01*
X128186000Y-52617000D01*
X128180000Y-52620000D01*
X128172999Y-52622000D01*
X128167000Y-52624000D01*
X128161000Y-52626000D01*
X128154000Y-52628000D01*
X128148000Y-52629000D01*
X128141000Y-52630000D01*
X128134000Y-52630000D01*
X128127001Y-52631000D01*
X128121000Y-52630000D01*
X128115000Y-52630000D01*
X127455000Y-52630000D01*
X127455000Y-52400000D01*
X128115000Y-52400000D01*
X128121000Y-52400000D01*
X128127000Y-52399000D01*
X128134000Y-52400000D01*
G37*
X128134000Y-52900000D02*
X128141000Y-52900000D01*
X128148000Y-52901000D01*
X128153999Y-52902000D01*
X128161000Y-52904000D01*
X128167000Y-52906000D01*
X128173000Y-52908000D01*
X128180000Y-52910000D01*
X128186000Y-52913000D01*
X128192000Y-52917000D01*
X128197000Y-52920000D01*
X128203000Y-52924000D01*
X128208000Y-52928000D01*
X128213000Y-52932000D01*
X128218000Y-52937000D01*
X128223000Y-52942000D01*
X128227000Y-52947000D01*
X128231000Y-52952000D01*
X128235000Y-52958000D01*
X128238000Y-52963000D01*
X128242000Y-52969000D01*
X128245000Y-52975000D01*
X128247000Y-52982000D01*
X128249000Y-52988001D01*
X128251000Y-52994000D01*
X128253000Y-53001001D01*
X128254000Y-53007000D01*
X128255000Y-53015000D01*
X128254000Y-53023000D01*
X128253000Y-53028999D01*
X128251000Y-53036000D01*
X128249000Y-53041999D01*
X128247000Y-53048000D01*
X128245000Y-53055000D01*
X128242000Y-53061000D01*
X128238000Y-53067000D01*
X128235000Y-53072000D01*
X128231000Y-53078000D01*
X128227000Y-53083000D01*
X128223000Y-53088000D01*
X128218000Y-53093000D01*
X128213000Y-53098000D01*
X128208000Y-53102000D01*
X128203000Y-53106000D01*
X128197000Y-53110000D01*
X128192000Y-53113000D01*
X128186000Y-53117000D01*
X128180000Y-53120000D01*
X128173000Y-53122000D01*
X128167000Y-53124000D01*
X128161000Y-53126000D01*
X128153999Y-53128000D01*
X128148000Y-53129000D01*
X128141000Y-53130000D01*
X128134000Y-53130000D01*
X128127000Y-53131000D01*
X128121000Y-53130000D01*
X128115000Y-53130000D01*
X127455000Y-53130000D01*
X127455000Y-52900000D01*
X128115000Y-52900000D01*
X128121000Y-52900000D01*
X128127000Y-52899000D01*
X128134000Y-52900000D01*
G36*
X128134000Y-52900000D02*
G01*
X128141000Y-52900000D01*
X128148000Y-52901000D01*
X128153999Y-52902000D01*
X128161000Y-52904000D01*
X128167000Y-52906000D01*
X128173000Y-52908000D01*
X128180000Y-52910000D01*
X128186000Y-52913000D01*
X128192000Y-52917000D01*
X128197000Y-52920000D01*
X128203000Y-52924000D01*
X128208000Y-52928000D01*
X128213000Y-52932000D01*
X128218000Y-52937000D01*
X128223000Y-52942000D01*
X128227000Y-52947000D01*
X128231000Y-52952000D01*
X128235000Y-52958000D01*
X128238000Y-52963000D01*
X128242000Y-52969000D01*
X128245000Y-52975000D01*
X128247000Y-52982000D01*
X128249000Y-52988001D01*
X128251000Y-52994000D01*
X128253000Y-53001001D01*
X128254000Y-53007000D01*
X128255000Y-53015000D01*
X128254000Y-53023000D01*
X128253000Y-53028999D01*
X128251000Y-53036000D01*
X128249000Y-53041999D01*
X128247000Y-53048000D01*
X128245000Y-53055000D01*
X128242000Y-53061000D01*
X128238000Y-53067000D01*
X128235000Y-53072000D01*
X128231000Y-53078000D01*
X128227000Y-53083000D01*
X128223000Y-53088000D01*
X128218000Y-53093000D01*
X128213000Y-53098000D01*
X128208000Y-53102000D01*
X128203000Y-53106000D01*
X128197000Y-53110000D01*
X128192000Y-53113000D01*
X128186000Y-53117000D01*
X128180000Y-53120000D01*
X128173000Y-53122000D01*
X128167000Y-53124000D01*
X128161000Y-53126000D01*
X128153999Y-53128000D01*
X128148000Y-53129000D01*
X128141000Y-53130000D01*
X128134000Y-53130000D01*
X128127000Y-53131000D01*
X128121000Y-53130000D01*
X128115000Y-53130000D01*
X127455000Y-53130000D01*
X127455000Y-52900000D01*
X128115000Y-52900000D01*
X128121000Y-52900000D01*
X128127000Y-52899000D01*
X128134000Y-52900000D01*
G37*
X128134000Y-53400000D02*
X128141000Y-53400000D01*
X128148000Y-53401000D01*
X128154000Y-53402000D01*
X128161000Y-53404000D01*
X128167000Y-53406000D01*
X128172999Y-53408000D01*
X128180000Y-53410000D01*
X128186000Y-53413000D01*
X128192000Y-53416999D01*
X128197000Y-53420000D01*
X128203000Y-53424000D01*
X128208000Y-53428000D01*
X128213000Y-53432000D01*
X128218000Y-53437000D01*
X128223000Y-53442000D01*
X128227000Y-53447000D01*
X128231000Y-53452000D01*
X128235000Y-53458000D01*
X128238000Y-53463000D01*
X128242000Y-53469000D01*
X128245000Y-53475000D01*
X128246999Y-53482000D01*
X128249000Y-53488000D01*
X128251000Y-53494000D01*
X128253000Y-53501000D01*
X128254001Y-53507000D01*
X128255000Y-53515000D01*
X128254000Y-53523000D01*
X128253000Y-53529000D01*
X128251000Y-53536000D01*
X128249000Y-53542000D01*
X128246999Y-53548000D01*
X128245000Y-53555000D01*
X128242000Y-53561000D01*
X128237999Y-53567000D01*
X128235001Y-53572000D01*
X128231000Y-53578000D01*
X128227000Y-53583000D01*
X128223000Y-53588000D01*
X128218000Y-53593000D01*
X128213000Y-53598000D01*
X128208000Y-53602000D01*
X128203000Y-53606000D01*
X128197000Y-53610001D01*
X128192000Y-53612999D01*
X128186000Y-53617000D01*
X128180000Y-53620000D01*
X128173000Y-53622000D01*
X128167000Y-53624000D01*
X128161000Y-53626000D01*
X128154000Y-53628000D01*
X128148000Y-53629000D01*
X128141000Y-53630000D01*
X128134000Y-53630000D01*
X128127000Y-53631000D01*
X128121000Y-53630000D01*
X128115000Y-53630000D01*
X127455000Y-53630000D01*
X127455000Y-53400000D01*
X128115000Y-53400000D01*
X128121000Y-53400000D01*
X128127001Y-53399000D01*
X128134000Y-53400000D01*
G36*
X128134000Y-53400000D02*
G01*
X128141000Y-53400000D01*
X128148000Y-53401000D01*
X128154000Y-53402000D01*
X128161000Y-53404000D01*
X128167000Y-53406000D01*
X128172999Y-53408000D01*
X128180000Y-53410000D01*
X128186000Y-53413000D01*
X128192000Y-53416999D01*
X128197000Y-53420000D01*
X128203000Y-53424000D01*
X128208000Y-53428000D01*
X128213000Y-53432000D01*
X128218000Y-53437000D01*
X128223000Y-53442000D01*
X128227000Y-53447000D01*
X128231000Y-53452000D01*
X128235000Y-53458000D01*
X128238000Y-53463000D01*
X128242000Y-53469000D01*
X128245000Y-53475000D01*
X128246999Y-53482000D01*
X128249000Y-53488000D01*
X128251000Y-53494000D01*
X128253000Y-53501000D01*
X128254001Y-53507000D01*
X128255000Y-53515000D01*
X128254000Y-53523000D01*
X128253000Y-53529000D01*
X128251000Y-53536000D01*
X128249000Y-53542000D01*
X128246999Y-53548000D01*
X128245000Y-53555000D01*
X128242000Y-53561000D01*
X128237999Y-53567000D01*
X128235001Y-53572000D01*
X128231000Y-53578000D01*
X128227000Y-53583000D01*
X128223000Y-53588000D01*
X128218000Y-53593000D01*
X128213000Y-53598000D01*
X128208000Y-53602000D01*
X128203000Y-53606000D01*
X128197000Y-53610001D01*
X128192000Y-53612999D01*
X128186000Y-53617000D01*
X128180000Y-53620000D01*
X128173000Y-53622000D01*
X128167000Y-53624000D01*
X128161000Y-53626000D01*
X128154000Y-53628000D01*
X128148000Y-53629000D01*
X128141000Y-53630000D01*
X128134000Y-53630000D01*
X128127000Y-53631000D01*
X128121000Y-53630000D01*
X128115000Y-53630000D01*
X127455000Y-53630000D01*
X127455000Y-53400000D01*
X128115000Y-53400000D01*
X128121000Y-53400000D01*
X128127001Y-53399000D01*
X128134000Y-53400000D01*
G37*
X128134000Y-53900000D02*
X128141001Y-53900000D01*
X128148000Y-53901000D01*
X128154000Y-53902000D01*
X128161000Y-53904000D01*
X128167000Y-53906000D01*
X128173000Y-53908000D01*
X128180000Y-53910000D01*
X128186000Y-53913000D01*
X128192000Y-53917000D01*
X128197000Y-53920001D01*
X128203000Y-53924000D01*
X128208000Y-53928000D01*
X128213000Y-53932000D01*
X128218000Y-53937000D01*
X128223000Y-53942000D01*
X128227000Y-53947000D01*
X128231000Y-53952000D01*
X128235000Y-53958000D01*
X128238000Y-53963000D01*
X128242000Y-53969000D01*
X128245001Y-53975000D01*
X128247000Y-53982000D01*
X128249000Y-53987999D01*
X128251000Y-53994000D01*
X128253000Y-54001000D01*
X128254000Y-54007000D01*
X128255000Y-54015000D01*
X128254000Y-54023001D01*
X128253000Y-54029000D01*
X128251000Y-54036000D01*
X128249000Y-54042000D01*
X128247000Y-54048000D01*
X128245000Y-54055000D01*
X128242000Y-54061000D01*
X128238000Y-54067000D01*
X128235000Y-54072000D01*
X128231000Y-54078000D01*
X128227000Y-54083000D01*
X128223000Y-54088000D01*
X128218000Y-54093000D01*
X128213000Y-54098000D01*
X128208000Y-54102000D01*
X128203000Y-54106000D01*
X128197000Y-54110000D01*
X128192000Y-54113000D01*
X128186000Y-54117000D01*
X128180000Y-54120000D01*
X128173000Y-54122000D01*
X128167000Y-54124000D01*
X128161000Y-54126000D01*
X128154000Y-54128000D01*
X128148000Y-54129000D01*
X128141000Y-54130000D01*
X128134000Y-54130000D01*
X128127000Y-54131000D01*
X128121000Y-54130000D01*
X128115000Y-54130000D01*
X127455000Y-54130000D01*
X127455000Y-53900000D01*
X128115000Y-53900000D01*
X128120999Y-53900000D01*
X128127000Y-53899000D01*
X128134000Y-53900000D01*
G36*
X128134000Y-53900000D02*
G01*
X128141001Y-53900000D01*
X128148000Y-53901000D01*
X128154000Y-53902000D01*
X128161000Y-53904000D01*
X128167000Y-53906000D01*
X128173000Y-53908000D01*
X128180000Y-53910000D01*
X128186000Y-53913000D01*
X128192000Y-53917000D01*
X128197000Y-53920001D01*
X128203000Y-53924000D01*
X128208000Y-53928000D01*
X128213000Y-53932000D01*
X128218000Y-53937000D01*
X128223000Y-53942000D01*
X128227000Y-53947000D01*
X128231000Y-53952000D01*
X128235000Y-53958000D01*
X128238000Y-53963000D01*
X128242000Y-53969000D01*
X128245001Y-53975000D01*
X128247000Y-53982000D01*
X128249000Y-53987999D01*
X128251000Y-53994000D01*
X128253000Y-54001000D01*
X128254000Y-54007000D01*
X128255000Y-54015000D01*
X128254000Y-54023001D01*
X128253000Y-54029000D01*
X128251000Y-54036000D01*
X128249000Y-54042000D01*
X128247000Y-54048000D01*
X128245000Y-54055000D01*
X128242000Y-54061000D01*
X128238000Y-54067000D01*
X128235000Y-54072000D01*
X128231000Y-54078000D01*
X128227000Y-54083000D01*
X128223000Y-54088000D01*
X128218000Y-54093000D01*
X128213000Y-54098000D01*
X128208000Y-54102000D01*
X128203000Y-54106000D01*
X128197000Y-54110000D01*
X128192000Y-54113000D01*
X128186000Y-54117000D01*
X128180000Y-54120000D01*
X128173000Y-54122000D01*
X128167000Y-54124000D01*
X128161000Y-54126000D01*
X128154000Y-54128000D01*
X128148000Y-54129000D01*
X128141000Y-54130000D01*
X128134000Y-54130000D01*
X128127000Y-54131000D01*
X128121000Y-54130000D01*
X128115000Y-54130000D01*
X127455000Y-54130000D01*
X127455000Y-53900000D01*
X128115000Y-53900000D01*
X128120999Y-53900000D01*
X128127000Y-53899000D01*
X128134000Y-53900000D01*
G37*
X130539000Y-51900000D02*
X130545000Y-51900000D01*
X131205000Y-51900000D01*
X131205000Y-52130000D01*
X130545000Y-52130000D01*
X130539001Y-52130000D01*
X130533000Y-52131000D01*
X130526000Y-52130000D01*
X130518999Y-52130000D01*
X130512000Y-52129000D01*
X130506000Y-52128000D01*
X130499000Y-52126000D01*
X130493000Y-52124000D01*
X130487000Y-52122000D01*
X130480000Y-52120000D01*
X130474000Y-52117000D01*
X130468000Y-52113000D01*
X130463000Y-52109999D01*
X130457000Y-52106000D01*
X130452000Y-52102000D01*
X130447000Y-52098000D01*
X130442000Y-52093000D01*
X130437000Y-52088000D01*
X130433000Y-52083000D01*
X130429000Y-52078000D01*
X130425000Y-52072000D01*
X130422000Y-52067000D01*
X130418000Y-52061000D01*
X130414999Y-52055000D01*
X130413000Y-52048000D01*
X130411000Y-52042001D01*
X130409000Y-52036000D01*
X130407000Y-52029000D01*
X130406000Y-52023000D01*
X130405000Y-52015000D01*
X130406000Y-52006999D01*
X130407000Y-52001000D01*
X130409000Y-51994000D01*
X130411000Y-51988000D01*
X130413000Y-51982000D01*
X130415000Y-51975000D01*
X130418000Y-51969000D01*
X130422000Y-51963000D01*
X130425000Y-51958000D01*
X130429000Y-51952000D01*
X130433000Y-51947000D01*
X130437000Y-51942000D01*
X130442000Y-51937000D01*
X130447000Y-51932000D01*
X130452000Y-51928000D01*
X130457000Y-51924000D01*
X130463000Y-51920000D01*
X130468000Y-51917000D01*
X130474000Y-51913000D01*
X130480000Y-51910000D01*
X130487000Y-51908000D01*
X130493000Y-51906000D01*
X130499000Y-51904000D01*
X130506000Y-51902000D01*
X130512000Y-51901000D01*
X130519000Y-51900000D01*
X130526000Y-51900000D01*
X130533000Y-51899000D01*
X130539000Y-51900000D01*
G36*
X130539000Y-51900000D02*
G01*
X130545000Y-51900000D01*
X131205000Y-51900000D01*
X131205000Y-52130000D01*
X130545000Y-52130000D01*
X130539001Y-52130000D01*
X130533000Y-52131000D01*
X130526000Y-52130000D01*
X130518999Y-52130000D01*
X130512000Y-52129000D01*
X130506000Y-52128000D01*
X130499000Y-52126000D01*
X130493000Y-52124000D01*
X130487000Y-52122000D01*
X130480000Y-52120000D01*
X130474000Y-52117000D01*
X130468000Y-52113000D01*
X130463000Y-52109999D01*
X130457000Y-52106000D01*
X130452000Y-52102000D01*
X130447000Y-52098000D01*
X130442000Y-52093000D01*
X130437000Y-52088000D01*
X130433000Y-52083000D01*
X130429000Y-52078000D01*
X130425000Y-52072000D01*
X130422000Y-52067000D01*
X130418000Y-52061000D01*
X130414999Y-52055000D01*
X130413000Y-52048000D01*
X130411000Y-52042001D01*
X130409000Y-52036000D01*
X130407000Y-52029000D01*
X130406000Y-52023000D01*
X130405000Y-52015000D01*
X130406000Y-52006999D01*
X130407000Y-52001000D01*
X130409000Y-51994000D01*
X130411000Y-51988000D01*
X130413000Y-51982000D01*
X130415000Y-51975000D01*
X130418000Y-51969000D01*
X130422000Y-51963000D01*
X130425000Y-51958000D01*
X130429000Y-51952000D01*
X130433000Y-51947000D01*
X130437000Y-51942000D01*
X130442000Y-51937000D01*
X130447000Y-51932000D01*
X130452000Y-51928000D01*
X130457000Y-51924000D01*
X130463000Y-51920000D01*
X130468000Y-51917000D01*
X130474000Y-51913000D01*
X130480000Y-51910000D01*
X130487000Y-51908000D01*
X130493000Y-51906000D01*
X130499000Y-51904000D01*
X130506000Y-51902000D01*
X130512000Y-51901000D01*
X130519000Y-51900000D01*
X130526000Y-51900000D01*
X130533000Y-51899000D01*
X130539000Y-51900000D01*
G37*
X130539000Y-52400000D02*
X130545000Y-52400000D01*
X131205000Y-52400000D01*
X131205000Y-52630000D01*
X130545000Y-52630000D01*
X130539000Y-52630000D01*
X130532999Y-52631000D01*
X130526000Y-52630000D01*
X130519000Y-52630000D01*
X130512000Y-52629000D01*
X130506000Y-52628000D01*
X130499000Y-52626000D01*
X130493000Y-52624000D01*
X130487001Y-52622000D01*
X130480000Y-52620000D01*
X130474000Y-52617000D01*
X130468000Y-52613001D01*
X130463000Y-52610000D01*
X130457000Y-52606000D01*
X130452000Y-52602000D01*
X130447000Y-52598000D01*
X130442000Y-52593000D01*
X130437000Y-52588000D01*
X130433000Y-52583000D01*
X130429000Y-52578000D01*
X130425000Y-52572000D01*
X130422000Y-52567000D01*
X130418000Y-52561000D01*
X130415000Y-52555000D01*
X130413001Y-52548000D01*
X130411000Y-52542000D01*
X130409000Y-52536000D01*
X130407000Y-52529000D01*
X130405999Y-52523000D01*
X130405000Y-52515000D01*
X130406000Y-52507000D01*
X130407000Y-52501000D01*
X130409000Y-52494000D01*
X130411000Y-52488000D01*
X130413001Y-52482000D01*
X130415000Y-52475000D01*
X130418000Y-52469000D01*
X130422001Y-52463000D01*
X130424999Y-52458000D01*
X130429000Y-52452000D01*
X130433000Y-52447000D01*
X130437000Y-52442000D01*
X130442000Y-52437000D01*
X130447000Y-52432000D01*
X130452000Y-52428000D01*
X130457000Y-52424000D01*
X130463000Y-52419999D01*
X130468000Y-52417001D01*
X130474000Y-52413000D01*
X130480000Y-52410000D01*
X130487000Y-52408000D01*
X130493000Y-52406000D01*
X130499000Y-52404000D01*
X130506000Y-52402000D01*
X130512000Y-52401000D01*
X130519000Y-52400000D01*
X130526000Y-52400000D01*
X130533000Y-52399000D01*
X130539000Y-52400000D01*
G36*
X130539000Y-52400000D02*
G01*
X130545000Y-52400000D01*
X131205000Y-52400000D01*
X131205000Y-52630000D01*
X130545000Y-52630000D01*
X130539000Y-52630000D01*
X130532999Y-52631000D01*
X130526000Y-52630000D01*
X130519000Y-52630000D01*
X130512000Y-52629000D01*
X130506000Y-52628000D01*
X130499000Y-52626000D01*
X130493000Y-52624000D01*
X130487001Y-52622000D01*
X130480000Y-52620000D01*
X130474000Y-52617000D01*
X130468000Y-52613001D01*
X130463000Y-52610000D01*
X130457000Y-52606000D01*
X130452000Y-52602000D01*
X130447000Y-52598000D01*
X130442000Y-52593000D01*
X130437000Y-52588000D01*
X130433000Y-52583000D01*
X130429000Y-52578000D01*
X130425000Y-52572000D01*
X130422000Y-52567000D01*
X130418000Y-52561000D01*
X130415000Y-52555000D01*
X130413001Y-52548000D01*
X130411000Y-52542000D01*
X130409000Y-52536000D01*
X130407000Y-52529000D01*
X130405999Y-52523000D01*
X130405000Y-52515000D01*
X130406000Y-52507000D01*
X130407000Y-52501000D01*
X130409000Y-52494000D01*
X130411000Y-52488000D01*
X130413001Y-52482000D01*
X130415000Y-52475000D01*
X130418000Y-52469000D01*
X130422001Y-52463000D01*
X130424999Y-52458000D01*
X130429000Y-52452000D01*
X130433000Y-52447000D01*
X130437000Y-52442000D01*
X130442000Y-52437000D01*
X130447000Y-52432000D01*
X130452000Y-52428000D01*
X130457000Y-52424000D01*
X130463000Y-52419999D01*
X130468000Y-52417001D01*
X130474000Y-52413000D01*
X130480000Y-52410000D01*
X130487000Y-52408000D01*
X130493000Y-52406000D01*
X130499000Y-52404000D01*
X130506000Y-52402000D01*
X130512000Y-52401000D01*
X130519000Y-52400000D01*
X130526000Y-52400000D01*
X130533000Y-52399000D01*
X130539000Y-52400000D01*
G37*
X130539000Y-52900000D02*
X130545000Y-52900000D01*
X131205000Y-52900000D01*
X131205000Y-53130000D01*
X130545000Y-53130000D01*
X130539000Y-53130000D01*
X130533000Y-53131000D01*
X130526000Y-53130000D01*
X130519000Y-53130000D01*
X130512000Y-53129000D01*
X130506001Y-53128000D01*
X130499000Y-53126000D01*
X130493000Y-53124000D01*
X130487000Y-53122000D01*
X130480000Y-53120000D01*
X130474000Y-53117000D01*
X130468000Y-53113000D01*
X130463000Y-53110000D01*
X130457000Y-53106000D01*
X130452000Y-53102000D01*
X130447000Y-53098000D01*
X130442000Y-53093000D01*
X130437000Y-53088000D01*
X130433000Y-53083000D01*
X130429000Y-53078000D01*
X130425000Y-53072000D01*
X130422000Y-53067000D01*
X130418000Y-53061000D01*
X130415000Y-53055000D01*
X130413000Y-53048000D01*
X130411000Y-53041999D01*
X130409000Y-53036000D01*
X130407000Y-53028999D01*
X130406000Y-53023000D01*
X130405000Y-53015000D01*
X130406000Y-53007000D01*
X130407000Y-53001001D01*
X130409000Y-52994000D01*
X130411000Y-52988001D01*
X130413000Y-52982000D01*
X130415000Y-52975000D01*
X130418000Y-52969000D01*
X130422000Y-52963000D01*
X130425000Y-52958000D01*
X130429000Y-52952000D01*
X130433000Y-52947000D01*
X130437000Y-52942000D01*
X130442000Y-52937000D01*
X130447000Y-52932000D01*
X130452000Y-52928000D01*
X130457000Y-52924000D01*
X130463000Y-52920000D01*
X130468000Y-52917000D01*
X130474000Y-52913000D01*
X130480000Y-52910000D01*
X130487000Y-52908000D01*
X130493000Y-52906000D01*
X130499000Y-52904000D01*
X130506001Y-52902000D01*
X130512000Y-52901000D01*
X130519000Y-52900000D01*
X130526000Y-52900000D01*
X130533000Y-52899000D01*
X130539000Y-52900000D01*
G36*
X130539000Y-52900000D02*
G01*
X130545000Y-52900000D01*
X131205000Y-52900000D01*
X131205000Y-53130000D01*
X130545000Y-53130000D01*
X130539000Y-53130000D01*
X130533000Y-53131000D01*
X130526000Y-53130000D01*
X130519000Y-53130000D01*
X130512000Y-53129000D01*
X130506001Y-53128000D01*
X130499000Y-53126000D01*
X130493000Y-53124000D01*
X130487000Y-53122000D01*
X130480000Y-53120000D01*
X130474000Y-53117000D01*
X130468000Y-53113000D01*
X130463000Y-53110000D01*
X130457000Y-53106000D01*
X130452000Y-53102000D01*
X130447000Y-53098000D01*
X130442000Y-53093000D01*
X130437000Y-53088000D01*
X130433000Y-53083000D01*
X130429000Y-53078000D01*
X130425000Y-53072000D01*
X130422000Y-53067000D01*
X130418000Y-53061000D01*
X130415000Y-53055000D01*
X130413000Y-53048000D01*
X130411000Y-53041999D01*
X130409000Y-53036000D01*
X130407000Y-53028999D01*
X130406000Y-53023000D01*
X130405000Y-53015000D01*
X130406000Y-53007000D01*
X130407000Y-53001001D01*
X130409000Y-52994000D01*
X130411000Y-52988001D01*
X130413000Y-52982000D01*
X130415000Y-52975000D01*
X130418000Y-52969000D01*
X130422000Y-52963000D01*
X130425000Y-52958000D01*
X130429000Y-52952000D01*
X130433000Y-52947000D01*
X130437000Y-52942000D01*
X130442000Y-52937000D01*
X130447000Y-52932000D01*
X130452000Y-52928000D01*
X130457000Y-52924000D01*
X130463000Y-52920000D01*
X130468000Y-52917000D01*
X130474000Y-52913000D01*
X130480000Y-52910000D01*
X130487000Y-52908000D01*
X130493000Y-52906000D01*
X130499000Y-52904000D01*
X130506001Y-52902000D01*
X130512000Y-52901000D01*
X130519000Y-52900000D01*
X130526000Y-52900000D01*
X130533000Y-52899000D01*
X130539000Y-52900000D01*
G37*
X130539000Y-53400000D02*
X130545000Y-53400000D01*
X131205000Y-53400000D01*
X131205000Y-53630000D01*
X130545000Y-53630000D01*
X130539000Y-53630000D01*
X130533000Y-53631000D01*
X130526000Y-53630000D01*
X130519000Y-53630000D01*
X130512000Y-53629000D01*
X130506000Y-53628000D01*
X130499000Y-53626000D01*
X130493000Y-53624000D01*
X130487000Y-53622000D01*
X130480000Y-53620000D01*
X130474000Y-53617000D01*
X130468000Y-53612999D01*
X130463000Y-53610001D01*
X130457000Y-53606000D01*
X130452000Y-53602000D01*
X130447000Y-53598000D01*
X130442000Y-53593000D01*
X130437000Y-53588000D01*
X130433000Y-53583000D01*
X130429000Y-53578000D01*
X130424999Y-53572000D01*
X130422001Y-53567000D01*
X130418000Y-53561000D01*
X130415000Y-53555000D01*
X130413001Y-53548000D01*
X130411000Y-53542000D01*
X130409000Y-53536000D01*
X130407000Y-53529000D01*
X130406000Y-53523000D01*
X130405000Y-53515000D01*
X130405999Y-53507000D01*
X130407000Y-53501000D01*
X130409000Y-53494000D01*
X130411000Y-53488000D01*
X130413001Y-53482000D01*
X130415000Y-53475000D01*
X130418000Y-53469000D01*
X130422000Y-53463000D01*
X130425000Y-53458000D01*
X130429000Y-53452000D01*
X130433000Y-53447000D01*
X130437000Y-53442000D01*
X130442000Y-53437000D01*
X130447000Y-53432000D01*
X130452000Y-53428000D01*
X130457000Y-53424000D01*
X130463000Y-53420000D01*
X130468000Y-53416999D01*
X130474000Y-53413000D01*
X130480000Y-53410000D01*
X130487001Y-53408000D01*
X130493000Y-53406000D01*
X130499000Y-53404000D01*
X130506000Y-53402000D01*
X130512000Y-53401000D01*
X130519000Y-53400000D01*
X130526000Y-53400000D01*
X130532999Y-53399000D01*
X130539000Y-53400000D01*
G36*
X130539000Y-53400000D02*
G01*
X130545000Y-53400000D01*
X131205000Y-53400000D01*
X131205000Y-53630000D01*
X130545000Y-53630000D01*
X130539000Y-53630000D01*
X130533000Y-53631000D01*
X130526000Y-53630000D01*
X130519000Y-53630000D01*
X130512000Y-53629000D01*
X130506000Y-53628000D01*
X130499000Y-53626000D01*
X130493000Y-53624000D01*
X130487000Y-53622000D01*
X130480000Y-53620000D01*
X130474000Y-53617000D01*
X130468000Y-53612999D01*
X130463000Y-53610001D01*
X130457000Y-53606000D01*
X130452000Y-53602000D01*
X130447000Y-53598000D01*
X130442000Y-53593000D01*
X130437000Y-53588000D01*
X130433000Y-53583000D01*
X130429000Y-53578000D01*
X130424999Y-53572000D01*
X130422001Y-53567000D01*
X130418000Y-53561000D01*
X130415000Y-53555000D01*
X130413001Y-53548000D01*
X130411000Y-53542000D01*
X130409000Y-53536000D01*
X130407000Y-53529000D01*
X130406000Y-53523000D01*
X130405000Y-53515000D01*
X130405999Y-53507000D01*
X130407000Y-53501000D01*
X130409000Y-53494000D01*
X130411000Y-53488000D01*
X130413001Y-53482000D01*
X130415000Y-53475000D01*
X130418000Y-53469000D01*
X130422000Y-53463000D01*
X130425000Y-53458000D01*
X130429000Y-53452000D01*
X130433000Y-53447000D01*
X130437000Y-53442000D01*
X130442000Y-53437000D01*
X130447000Y-53432000D01*
X130452000Y-53428000D01*
X130457000Y-53424000D01*
X130463000Y-53420000D01*
X130468000Y-53416999D01*
X130474000Y-53413000D01*
X130480000Y-53410000D01*
X130487001Y-53408000D01*
X130493000Y-53406000D01*
X130499000Y-53404000D01*
X130506000Y-53402000D01*
X130512000Y-53401000D01*
X130519000Y-53400000D01*
X130526000Y-53400000D01*
X130532999Y-53399000D01*
X130539000Y-53400000D01*
G37*
X130539001Y-53900000D02*
X130545000Y-53900000D01*
X131205000Y-53900000D01*
X131205000Y-54130000D01*
X130545000Y-54130000D01*
X130539000Y-54130000D01*
X130533000Y-54131000D01*
X130526000Y-54130000D01*
X130519000Y-54130000D01*
X130512000Y-54129000D01*
X130506000Y-54128000D01*
X130499000Y-54126000D01*
X130493000Y-54124000D01*
X130487000Y-54122000D01*
X130480000Y-54120000D01*
X130474000Y-54117000D01*
X130468000Y-54113000D01*
X130463000Y-54110000D01*
X130457000Y-54106000D01*
X130452000Y-54102000D01*
X130447000Y-54098000D01*
X130442000Y-54093000D01*
X130437000Y-54088000D01*
X130433000Y-54083000D01*
X130429000Y-54078000D01*
X130425000Y-54072000D01*
X130422000Y-54067000D01*
X130418000Y-54061000D01*
X130415000Y-54055000D01*
X130413000Y-54048000D01*
X130411000Y-54042000D01*
X130409000Y-54036000D01*
X130407000Y-54029000D01*
X130406000Y-54023001D01*
X130405000Y-54015000D01*
X130406000Y-54007000D01*
X130407000Y-54001000D01*
X130409000Y-53994000D01*
X130411000Y-53987999D01*
X130413000Y-53982000D01*
X130414999Y-53975000D01*
X130418000Y-53969000D01*
X130422000Y-53963000D01*
X130425000Y-53958000D01*
X130429000Y-53952000D01*
X130433000Y-53947000D01*
X130437000Y-53942000D01*
X130442000Y-53937000D01*
X130447000Y-53932000D01*
X130452000Y-53928000D01*
X130457000Y-53924000D01*
X130463000Y-53920001D01*
X130468000Y-53917000D01*
X130474000Y-53913000D01*
X130480000Y-53910000D01*
X130487000Y-53908000D01*
X130493000Y-53906000D01*
X130499000Y-53904000D01*
X130506000Y-53902000D01*
X130512000Y-53901000D01*
X130518999Y-53900000D01*
X130526000Y-53900000D01*
X130533000Y-53899000D01*
X130539001Y-53900000D01*
G36*
X130539001Y-53900000D02*
G01*
X130545000Y-53900000D01*
X131205000Y-53900000D01*
X131205000Y-54130000D01*
X130545000Y-54130000D01*
X130539000Y-54130000D01*
X130533000Y-54131000D01*
X130526000Y-54130000D01*
X130519000Y-54130000D01*
X130512000Y-54129000D01*
X130506000Y-54128000D01*
X130499000Y-54126000D01*
X130493000Y-54124000D01*
X130487000Y-54122000D01*
X130480000Y-54120000D01*
X130474000Y-54117000D01*
X130468000Y-54113000D01*
X130463000Y-54110000D01*
X130457000Y-54106000D01*
X130452000Y-54102000D01*
X130447000Y-54098000D01*
X130442000Y-54093000D01*
X130437000Y-54088000D01*
X130433000Y-54083000D01*
X130429000Y-54078000D01*
X130425000Y-54072000D01*
X130422000Y-54067000D01*
X130418000Y-54061000D01*
X130415000Y-54055000D01*
X130413000Y-54048000D01*
X130411000Y-54042000D01*
X130409000Y-54036000D01*
X130407000Y-54029000D01*
X130406000Y-54023001D01*
X130405000Y-54015000D01*
X130406000Y-54007000D01*
X130407000Y-54001000D01*
X130409000Y-53994000D01*
X130411000Y-53987999D01*
X130413000Y-53982000D01*
X130414999Y-53975000D01*
X130418000Y-53969000D01*
X130422000Y-53963000D01*
X130425000Y-53958000D01*
X130429000Y-53952000D01*
X130433000Y-53947000D01*
X130437000Y-53942000D01*
X130442000Y-53937000D01*
X130447000Y-53932000D01*
X130452000Y-53928000D01*
X130457000Y-53924000D01*
X130463000Y-53920001D01*
X130468000Y-53917000D01*
X130474000Y-53913000D01*
X130480000Y-53910000D01*
X130487000Y-53908000D01*
X130493000Y-53906000D01*
X130499000Y-53904000D01*
X130506000Y-53902000D01*
X130512000Y-53901000D01*
X130518999Y-53900000D01*
X130526000Y-53900000D01*
X130533000Y-53899000D01*
X130539001Y-53900000D01*
G37*
%TD*%
D11*
%TO.C,C71*%
X122625099Y-81350096D03*
X122625099Y-80390096D03*
%TD*%
D12*
%TO.C,J3*%
X140950000Y-119310000D03*
X142050000Y-119310000D03*
X143150000Y-119310000D03*
X144250000Y-119310000D03*
X145350000Y-119310000D03*
X146450000Y-119310000D03*
X147550000Y-119310000D03*
X148650000Y-119310000D03*
X149750000Y-119310000D03*
D13*
X150950000Y-120610000D03*
D14*
X136350000Y-120360000D03*
D15*
X150950000Y-129910000D03*
X135450000Y-129910000D03*
%TD*%
D16*
%TO.C,C51*%
X123865100Y-75720097D03*
X123865100Y-74760097D03*
%TD*%
D17*
%TO.C,C7*%
X122170000Y-74910000D03*
X121210000Y-74910000D03*
%TD*%
D16*
%TO.C,C61*%
X116230000Y-72330000D03*
X116230000Y-73290000D03*
%TD*%
D18*
%TO.C,C70*%
X114950000Y-71465000D03*
X114950000Y-73015000D03*
%TD*%
D19*
%TO.C,C110*%
X104900000Y-82710000D03*
X103350000Y-82710000D03*
%TD*%
D20*
%TO.C,R6*%
X137070000Y-83990000D03*
X136050000Y-83990000D03*
%TD*%
D11*
%TO.C,C65*%
X112930000Y-75640000D03*
X112930000Y-74680000D03*
%TD*%
D21*
%TO.C,C76*%
X127205099Y-78940096D03*
X126245099Y-78940096D03*
%TD*%
D22*
%TO.C,U11*%
X118040100Y-62425100D03*
D23*
X117913100Y-62925099D03*
X117913100Y-63425101D03*
X117913100Y-63925100D03*
X117913100Y-64425099D03*
X117913100Y-64925101D03*
D22*
X118040100Y-65425100D03*
D24*
X117470000Y-65995200D03*
D25*
X116970001Y-65868200D03*
X116469999Y-65868200D03*
X115970000Y-65868200D03*
X115470001Y-65868200D03*
X114969999Y-65868200D03*
D24*
X114470000Y-65995200D03*
D22*
X113899900Y-65425100D03*
D23*
X114026900Y-64925101D03*
X114026900Y-64425099D03*
X114026900Y-63925100D03*
X114026900Y-63425101D03*
X114026900Y-62925099D03*
D22*
X113899900Y-62425100D03*
D24*
X114470000Y-61855000D03*
D25*
X114969999Y-61982000D03*
X115470001Y-61982000D03*
X115970000Y-61982000D03*
X116469999Y-61982000D03*
X116970001Y-61982000D03*
D24*
X117470000Y-61855000D03*
%TD*%
D16*
%TO.C,C57*%
X124825099Y-74220096D03*
X124825099Y-75180096D03*
%TD*%
D26*
%TO.C,C94*%
X138485000Y-53235000D03*
X138485000Y-51685000D03*
%TD*%
D27*
%TO.C,J7*%
X119116900Y-59325100D03*
X119116900Y-55175100D03*
X116966900Y-59325100D03*
X116966900Y-55175100D03*
%TD*%
D11*
%TO.C,C88*%
X126285000Y-53514999D03*
X126285000Y-52554999D03*
%TD*%
D28*
%TO.C,C30*%
X119624999Y-66432000D03*
X121174999Y-66432000D03*
%TD*%
D21*
%TO.C,C75*%
X126425100Y-77980096D03*
X125465100Y-77980096D03*
%TD*%
D29*
%TO.C,R2*%
X139480000Y-83960000D03*
X139480000Y-84980000D03*
%TD*%
D21*
%TO.C,C74*%
X127155100Y-77060096D03*
X126195100Y-77060096D03*
%TD*%
D19*
%TO.C,C10*%
X146090000Y-116305000D03*
X144540000Y-116305000D03*
%TD*%
D21*
%TO.C,C72*%
X125605100Y-79880096D03*
X124645100Y-79880096D03*
%TD*%
%TO.C,C9*%
X145220000Y-117585000D03*
X144260000Y-117585000D03*
%TD*%
%TO.C,C17*%
X145420000Y-43695000D03*
X144460000Y-43695000D03*
%TD*%
D11*
%TO.C,C73*%
X124575099Y-82150096D03*
X124575099Y-81190096D03*
%TD*%
D17*
%TO.C,C16*%
X146430001Y-43695000D03*
X147390001Y-43695000D03*
%TD*%
D26*
%TO.C,C90*%
X120405000Y-53245000D03*
X120405000Y-51695000D03*
%TD*%
D18*
%TO.C,C80*%
X111150000Y-82630000D03*
X111150000Y-84180000D03*
%TD*%
D26*
%TO.C,C95*%
X136954999Y-53235000D03*
X136954999Y-51685000D03*
%TD*%
D30*
%TO.C,U2*%
X122569001Y-92140299D03*
X122069000Y-92140299D03*
X121569000Y-92140299D03*
X121068999Y-92140299D03*
D31*
X120930000Y-91509998D03*
X120930000Y-91009999D03*
X120930000Y-90510000D03*
D30*
X121068999Y-89879699D03*
X121569000Y-89879699D03*
X122069000Y-89879699D03*
X122569001Y-89879699D03*
D31*
X122708000Y-90510000D03*
X122708000Y-91009999D03*
X122708000Y-91509998D03*
%TD*%
D29*
%TO.C,R1*%
X135080000Y-83960000D03*
X135080000Y-84980000D03*
%TD*%
D21*
%TO.C,C28*%
X120083284Y-62301999D03*
X119123284Y-62301999D03*
%TD*%
D32*
%TO.C,R8*%
X138440000Y-81920000D03*
X139460000Y-81920000D03*
%TD*%
D16*
%TO.C,C59*%
X124580000Y-77990096D03*
X124580000Y-78950096D03*
%TD*%
D11*
%TO.C,C63*%
X115540000Y-78210000D03*
X115540000Y-77250000D03*
%TD*%
D19*
%TO.C,C66*%
X122885000Y-69140000D03*
X121335000Y-69140000D03*
%TD*%
D33*
%TO.C,U12*%
X104900000Y-86430000D03*
X104250000Y-86430000D03*
X103600000Y-86430000D03*
X103600000Y-84510000D03*
X104250000Y-84510000D03*
X104900000Y-84510000D03*
%TD*%
D34*
%TO.C,R32*%
X132065000Y-51614999D03*
X132065000Y-50595001D03*
%TD*%
D17*
%TO.C,C27*%
X119129999Y-64422000D03*
X120089999Y-64422000D03*
%TD*%
D26*
%TO.C,C89*%
X124994999Y-53245000D03*
X124994999Y-51695000D03*
%TD*%
%TO.C,C69*%
X121310000Y-83330000D03*
X121310000Y-81780000D03*
%TD*%
D21*
%TO.C,C53*%
X122505099Y-77470096D03*
X121545099Y-77470096D03*
%TD*%
%TO.C,C4*%
X121069000Y-88660299D03*
X120109000Y-88660299D03*
%TD*%
D32*
%TO.C,R9*%
X130890000Y-83950000D03*
X131910000Y-83950000D03*
%TD*%
D35*
%TO.C,Y1*%
X124579999Y-64851999D03*
X124579999Y-62352001D03*
%TD*%
D20*
%TO.C,R12*%
X132820000Y-72430000D03*
X131800000Y-72430000D03*
%TD*%
D11*
%TO.C,C56*%
X123595099Y-81350096D03*
X123595099Y-80390096D03*
%TD*%
D19*
%TO.C,C29*%
X120548283Y-61032000D03*
X118998283Y-61032000D03*
%TD*%
D16*
%TO.C,C81*%
X115540000Y-79580000D03*
X115540000Y-80540000D03*
%TD*%
D19*
%TO.C,C78*%
X124355000Y-86630000D03*
X122805000Y-86630000D03*
%TD*%
D17*
%TO.C,C55*%
X122280000Y-78900000D03*
X123240000Y-78900000D03*
%TD*%
D21*
%TO.C,C58*%
X125295099Y-77010096D03*
X124335099Y-77010096D03*
%TD*%
D19*
%TO.C,C68*%
X127625000Y-85130000D03*
X126075000Y-85130000D03*
%TD*%
D29*
%TO.C,R3*%
X140440000Y-81870000D03*
X140440000Y-82890000D03*
%TD*%
D32*
%TO.C,R7*%
X138430000Y-83000000D03*
X139450000Y-83000000D03*
%TD*%
D11*
%TO.C,C87*%
X129005000Y-50474999D03*
X129005000Y-49514999D03*
%TD*%
D36*
%TO.C,FB1*%
X106725000Y-82630000D03*
X108300000Y-82630000D03*
%TD*%
D19*
%TO.C,C109*%
X104900000Y-88580000D03*
X103350000Y-88580000D03*
%TD*%
%TO.C,C111*%
X104900000Y-79960000D03*
X103350000Y-79960000D03*
%TD*%
D26*
%TO.C,C92*%
X121935000Y-53245000D03*
X121935000Y-51695000D03*
%TD*%
D37*
%TO.C,L1*%
X130410000Y-58255000D03*
X128260000Y-58255000D03*
%TD*%
D26*
%TO.C,C62*%
X114270000Y-78370000D03*
X114270000Y-76820000D03*
%TD*%
D11*
%TO.C,C97*%
X134155000Y-53505000D03*
X134155000Y-52545000D03*
%TD*%
D29*
%TO.C,R4*%
X132880000Y-83960000D03*
X132880000Y-84980000D03*
%TD*%
D18*
%TO.C,C82*%
X113370000Y-79875000D03*
X113370000Y-81425000D03*
%TD*%
D32*
%TO.C,R11*%
X132000000Y-82020000D03*
X133020000Y-82020000D03*
%TD*%
D29*
%TO.C,R5*%
X133980000Y-82050000D03*
X133980000Y-83070000D03*
%TD*%
D26*
%TO.C,C91*%
X123465000Y-53245000D03*
X123465000Y-51695000D03*
%TD*%
D19*
%TO.C,C11*%
X146090000Y-114765000D03*
X144540000Y-114765000D03*
%TD*%
%TO.C,C77*%
X124350000Y-85120000D03*
X122800000Y-85120000D03*
%TD*%
D11*
%TO.C,C3*%
X119619000Y-91750299D03*
X119619000Y-90790299D03*
%TD*%
D20*
%TO.C,R30*%
X116966900Y-60725100D03*
X115946902Y-60725100D03*
%TD*%
D34*
%TO.C,R31*%
X133105000Y-53514999D03*
X133105000Y-52495001D03*
%TD*%
D11*
%TO.C,C98*%
X131024999Y-50474999D03*
X131024999Y-49514999D03*
%TD*%
D16*
%TO.C,C79*%
X112475000Y-82645000D03*
X112475000Y-83605000D03*
%TD*%
D26*
%TO.C,C93*%
X140015000Y-53235000D03*
X140015000Y-51685000D03*
%TD*%
D21*
%TO.C,C26*%
X128049999Y-64852000D03*
X127089999Y-64852000D03*
%TD*%
D11*
%TO.C,C54*%
X121365099Y-79960000D03*
X121365099Y-79000000D03*
%TD*%
D26*
%TO.C,C64*%
X110890000Y-75360000D03*
X110890000Y-73810000D03*
%TD*%
%TO.C,C96*%
X135425000Y-53235000D03*
X135425000Y-51685000D03*
%TD*%
D18*
%TO.C,C67*%
X124330000Y-71475000D03*
X124330000Y-73025000D03*
%TD*%
D17*
%TO.C,C52*%
X119645099Y-77430096D03*
X120605099Y-77430096D03*
%TD*%
D21*
%TO.C,C25*%
X128049999Y-62352000D03*
X127089999Y-62352000D03*
%TD*%
M02*
