%TF.GenerationSoftware,KiCad,Pcbnew,9.0.6*%
%TF.CreationDate,2026-04-28T12:41:16+02:00*%
%TF.ProjectId,bottom_asm,626f7474-6f6d-45f6-9173-6d2e6b696361,rev?*%
%TF.SameCoordinates,Original*%
%TF.FileFunction,Copper,L1,Top*%
%TF.FilePolarity,Positive*%
%FSLAX46Y46*%
G04 Gerber Fmt 4.6, Leading zero omitted, Abs format (unit mm)*
G04 Created by KiCad (PCBNEW 9.0.6) date 2026-04-28 12:41:16*
%MOMM*%
%LPD*%
G01*
G04 APERTURE LIST*
G04 Aperture macros list*
%AMRoundRect*
0 Rectangle with rounded corners*
0 $1 Rounding radius*
0 $2 $3 $4 $5 $6 $7 $8 $9 X,Y pos of 4 corners*
0 Add a 4 corners polygon primitive as box body*
4,1,4,$2,$3,$4,$5,$6,$7,$8,$9,$2,$3,0*
0 Add four circle primitives for the rounded corners*
1,1,$1+$1,$2,$3*
1,1,$1+$1,$4,$5*
1,1,$1+$1,$6,$7*
1,1,$1+$1,$8,$9*
0 Add four rect primitives between the rounded corners*
20,1,$1+$1,$2,$3,$4,$5,0*
20,1,$1+$1,$4,$5,$6,$7,0*
20,1,$1+$1,$6,$7,$8,$9,0*
20,1,$1+$1,$8,$9,$2,$3,0*%
G04 Aperture macros list end*
%TA.AperFunction,ComponentPad*%
%ADD10C,3.800000*%
%TD*%
%TA.AperFunction,SMDPad,CuDef*%
%ADD11RoundRect,0.135000X-0.135000X-0.185000X0.135000X-0.185000X0.135000X0.185000X-0.135000X0.185000X0*%
%TD*%
%TA.AperFunction,SMDPad,CuDef*%
%ADD12RoundRect,0.135000X0.135000X0.185000X-0.135000X0.185000X-0.135000X-0.185000X0.135000X-0.185000X0*%
%TD*%
%TA.AperFunction,SMDPad,CuDef*%
%ADD13RoundRect,0.140000X-0.140000X-0.170000X0.140000X-0.170000X0.140000X0.170000X-0.140000X0.170000X0*%
%TD*%
%TA.AperFunction,SMDPad,CuDef*%
%ADD14RoundRect,0.225000X-0.225000X-0.250000X0.225000X-0.250000X0.225000X0.250000X-0.225000X0.250000X0*%
%TD*%
%TA.AperFunction,SMDPad,CuDef*%
%ADD15R,0.400000X0.800000*%
%TD*%
%TA.AperFunction,SMDPad,CuDef*%
%ADD16R,0.300000X0.800000*%
%TD*%
%TA.AperFunction,ViaPad*%
%ADD17C,0.600000*%
%TD*%
%TA.AperFunction,Conductor*%
%ADD18C,0.200000*%
%TD*%
G04 APERTURE END LIST*
D10*
%TO.P,M2,1*%
%TO.N,N/C*%
X145250000Y-100890000D03*
%TD*%
%TO.P,,1*%
%TO.N,N/C*%
X128220000Y-100890000D03*
%TD*%
%TO.P,M2,1*%
%TO.N,N/C*%
X128220000Y-100890000D03*
%TD*%
D11*
%TO.P,R1,2*%
%TO.N,/SCL*%
X133680000Y-100350000D03*
%TO.P,R1,1*%
%TO.N,/VDD*%
X132660000Y-100350000D03*
%TD*%
D12*
%TO.P,R2,2*%
%TO.N,/SDA*%
X134540000Y-100340000D03*
%TO.P,R2,1*%
%TO.N,/VDD*%
X135560000Y-100340000D03*
%TD*%
D13*
%TO.P,C3,1*%
%TO.N,/VDD*%
X138320000Y-105770000D03*
%TO.P,C3,2*%
%TO.N,GND*%
X139280000Y-105770000D03*
%TD*%
D14*
%TO.P,C2,1*%
%TO.N,/VDD*%
X133155000Y-105550000D03*
%TO.P,C2,2*%
%TO.N,GND*%
X134705000Y-105550000D03*
%TD*%
D13*
%TO.P,C1,1*%
%TO.N,/VDD*%
X132880000Y-104290000D03*
%TO.P,C1,2*%
%TO.N,GND*%
X133840000Y-104290000D03*
%TD*%
D15*
%TO.P,J1,S2,SHIELD*%
%TO.N,GND*%
X133500000Y-97250000D03*
%TO.P,J1,S1,SHIELD*%
X140000000Y-97250000D03*
D16*
%TO.P,J1,10,10*%
X134500000Y-94750000D03*
%TO.P,J1,9,9*%
%TO.N,/VDD*%
X135000000Y-94750000D03*
%TO.P,J1,8,8*%
%TO.N,/XSHUT*%
X135500000Y-94750000D03*
%TO.P,J1,7,7*%
%TO.N,/INT*%
X136000000Y-94750000D03*
%TO.P,J1,6,6*%
%TO.N,/SDA*%
X136500000Y-94750000D03*
%TO.P,J1,5,5*%
%TO.N,/SCL*%
X137000000Y-94750000D03*
%TO.P,J1,4,4*%
%TO.N,/SPI_SCK*%
X137500000Y-94750000D03*
%TO.P,J1,3,3*%
%TO.N,/SPI_CS*%
X138000000Y-94750000D03*
%TO.P,J1,2,2*%
%TO.N,/SPI_SDO*%
X138500000Y-94750000D03*
%TO.P,J1,1,1*%
%TO.N,GND*%
X139000000Y-94750000D03*
%TD*%
D17*
%TO.N,/SDA*%
X136534295Y-97284295D03*
%TO.N,/SCL*%
X137000000Y-96331422D03*
%TO.N,/SPI_SCK*%
X138480000Y-98880000D03*
%TO.N,/SPI_CS*%
X139380000Y-98900000D03*
%TO.N,/SPI_SDO*%
X140320000Y-98920000D03*
%TO.N,/XSHUT*%
X136980000Y-101350000D03*
%TO.N,/INT*%
X136960000Y-99250000D03*
%TO.N,/VDD*%
X131450000Y-100340000D03*
%TO.N,GND*%
X133720000Y-103300000D03*
X139400000Y-104130000D03*
%TO.N,/VDD*%
X138440000Y-104060000D03*
X132880000Y-103460000D03*
%TO.N,/SCL*%
X133710000Y-99310000D03*
%TO.N,/SDA*%
X134510003Y-99310000D03*
%TD*%
D18*
%TO.N,/VDD*%
X132350000Y-105550000D02*
X133155000Y-105550000D01*
X132000000Y-105200000D02*
X132350000Y-105550000D01*
X132000000Y-103000000D02*
X132000000Y-105200000D01*
X132660000Y-102340000D02*
X132000000Y-103000000D01*
X132660000Y-100350000D02*
X132660000Y-102340000D01*
X135000000Y-98467946D02*
X134758946Y-98709000D01*
X135000000Y-94750000D02*
X135000000Y-98467946D01*
%TO.N,/XSHUT*%
X135500000Y-97665628D02*
X135500000Y-94750000D01*
X136359000Y-98524628D02*
X135500000Y-97665628D01*
X136359000Y-100729000D02*
X136359000Y-98524628D01*
X136980000Y-101350000D02*
X136359000Y-100729000D01*
%TO.N,/SDA*%
X136300000Y-97050000D02*
X136534295Y-97284295D01*
X136300000Y-95762855D02*
X136300000Y-97050000D01*
X136500000Y-95562855D02*
X136300000Y-95762855D01*
%TO.N,/INT*%
X136960000Y-98559942D02*
X136960000Y-99250000D01*
X135900000Y-97499942D02*
X136960000Y-98559942D01*
%TO.N,/SDA*%
X136500000Y-94750000D02*
X136500000Y-95562855D01*
%TO.N,/INT*%
X135900000Y-95597170D02*
X135900000Y-97499942D01*
X136000000Y-95497170D02*
X135900000Y-95597170D01*
X136000000Y-94750000D02*
X136000000Y-95497170D01*
%TO.N,/SCL*%
X137000000Y-94750000D02*
X137000000Y-96331422D01*
%TO.N,/SPI_SCK*%
X137500000Y-95981479D02*
X137500000Y-94750000D01*
X138480000Y-96961479D02*
X137500000Y-95981479D01*
X138480000Y-98880000D02*
X138480000Y-96961479D01*
%TO.N,/SPI_SDO*%
X139280000Y-96630107D02*
X138500000Y-95850108D01*
X140320000Y-98920000D02*
X139280000Y-97880000D01*
%TO.N,/SPI_CS*%
X138000000Y-95915794D02*
X138000000Y-94750000D01*
X138880000Y-96795793D02*
X138000000Y-95915794D01*
X138880000Y-98400000D02*
X138880000Y-96795793D01*
X139380000Y-98900000D02*
X138880000Y-98400000D01*
%TO.N,/SPI_SDO*%
X138500000Y-95850108D02*
X138500000Y-94750000D01*
X139280000Y-97880000D02*
X139280000Y-96630107D01*
%TO.N,/VDD*%
X137691000Y-106399000D02*
X138320000Y-105770000D01*
X134004000Y-106399000D02*
X137691000Y-106399000D01*
X133155000Y-105550000D02*
X134004000Y-106399000D01*
X132660000Y-99510057D02*
X132660000Y-100350000D01*
X134758946Y-98709000D02*
X133461057Y-98709000D01*
X135560000Y-99510054D02*
X134758946Y-98709000D01*
X133461057Y-98709000D02*
X132660000Y-99510057D01*
X135560000Y-100340000D02*
X135560000Y-99510054D01*
%TO.N,GND*%
X133840000Y-104685000D02*
X134705000Y-105550000D01*
X133840000Y-104290000D02*
X133840000Y-104685000D01*
X133720000Y-104170000D02*
X133840000Y-104290000D01*
X133720000Y-103300000D02*
X133720000Y-104170000D01*
X139400000Y-105650000D02*
X139280000Y-105770000D01*
X139400000Y-104130000D02*
X139400000Y-105650000D01*
%TO.N,/VDD*%
X138440000Y-105650000D02*
X138320000Y-105770000D01*
X138440000Y-104060000D02*
X138440000Y-105650000D01*
X132880000Y-105275000D02*
X133155000Y-105550000D01*
X132880000Y-104290000D02*
X132880000Y-105275000D01*
X132880000Y-103460000D02*
X132880000Y-104290000D01*
X131460000Y-100350000D02*
X131450000Y-100340000D01*
X132660000Y-100350000D02*
X131460000Y-100350000D01*
%TO.N,/SCL*%
X133710000Y-100320000D02*
X133680000Y-100350000D01*
X133710000Y-99310000D02*
X133710000Y-100320000D01*
%TO.N,/SDA*%
X134540000Y-99339997D02*
X134510003Y-99310000D01*
X134540000Y-100340000D02*
X134540000Y-99339997D01*
%TD*%
%TA.AperFunction,Conductor*%
%TO.N,GND*%
G36*
X140755394Y-94250972D02*
G01*
X140785721Y-94253625D01*
X140912755Y-94264739D01*
X140934035Y-94268491D01*
X141051188Y-94299882D01*
X141081369Y-94307969D01*
X141101681Y-94315362D01*
X141239915Y-94379822D01*
X141258633Y-94390629D01*
X141383582Y-94478119D01*
X141400140Y-94492013D01*
X141507986Y-94599859D01*
X141521880Y-94616417D01*
X141609370Y-94741366D01*
X141620177Y-94760084D01*
X141684637Y-94898318D01*
X141692030Y-94918630D01*
X141731507Y-95065961D01*
X141735260Y-95087246D01*
X141749028Y-95244605D01*
X141749500Y-95255413D01*
X141749500Y-97131127D01*
X141765151Y-97250000D01*
X141783730Y-97391116D01*
X141851079Y-97642466D01*
X141851602Y-97644418D01*
X141851605Y-97644428D01*
X141951953Y-97886690D01*
X141951958Y-97886700D01*
X142083075Y-98113803D01*
X142242718Y-98321851D01*
X142242726Y-98321860D01*
X142428140Y-98507274D01*
X142428148Y-98507281D01*
X142428149Y-98507282D01*
X142445219Y-98520380D01*
X142636196Y-98666924D01*
X142863299Y-98798041D01*
X142863309Y-98798046D01*
X143103886Y-98897696D01*
X143105581Y-98898398D01*
X143358884Y-98966270D01*
X143618880Y-99000500D01*
X143684108Y-99000500D01*
X143896703Y-99000500D01*
X143963742Y-99020185D01*
X144009497Y-99072989D01*
X144019441Y-99142147D01*
X143990416Y-99205703D01*
X143972189Y-99222876D01*
X143862073Y-99307370D01*
X143862066Y-99307376D01*
X143667376Y-99502066D01*
X143667370Y-99502073D01*
X143499754Y-99720516D01*
X143499751Y-99720520D01*
X143499751Y-99720521D01*
X143493267Y-99731752D01*
X143362080Y-99958971D01*
X143362075Y-99958982D01*
X143256704Y-100213369D01*
X143185441Y-100479331D01*
X143185438Y-100479344D01*
X143149501Y-100752315D01*
X143149500Y-100752332D01*
X143149500Y-101027667D01*
X143149501Y-101027684D01*
X143185438Y-101300655D01*
X143185439Y-101300660D01*
X143185440Y-101300666D01*
X143216314Y-101415890D01*
X143256704Y-101566630D01*
X143362075Y-101821017D01*
X143362080Y-101821028D01*
X143444861Y-101964407D01*
X143499751Y-102059479D01*
X143499753Y-102059482D01*
X143499754Y-102059483D01*
X143667370Y-102277926D01*
X143667376Y-102277933D01*
X143862066Y-102472623D01*
X143862073Y-102472629D01*
X143933092Y-102527124D01*
X143974295Y-102583552D01*
X143978450Y-102653298D01*
X143944238Y-102714218D01*
X143882521Y-102746971D01*
X143857606Y-102749500D01*
X143618872Y-102749500D01*
X143387772Y-102779926D01*
X143358884Y-102783730D01*
X143240335Y-102815495D01*
X143105581Y-102851602D01*
X143105571Y-102851605D01*
X142863309Y-102951953D01*
X142863299Y-102951958D01*
X142636196Y-103083075D01*
X142428148Y-103242718D01*
X142242718Y-103428148D01*
X142083075Y-103636196D01*
X141951958Y-103863299D01*
X141951953Y-103863309D01*
X141851605Y-104105571D01*
X141851602Y-104105581D01*
X141802188Y-104290000D01*
X141783730Y-104358885D01*
X141749500Y-104618872D01*
X141749500Y-105244586D01*
X141749028Y-105255394D01*
X141735260Y-105412753D01*
X141731507Y-105434038D01*
X141692030Y-105581369D01*
X141684637Y-105601681D01*
X141620177Y-105739915D01*
X141609370Y-105758633D01*
X141521880Y-105883582D01*
X141507986Y-105900140D01*
X141400140Y-106007986D01*
X141383582Y-106021880D01*
X141258633Y-106109370D01*
X141239915Y-106120177D01*
X141101681Y-106184637D01*
X141081369Y-106192030D01*
X140934038Y-106231507D01*
X140912753Y-106235260D01*
X140755395Y-106249028D01*
X140744587Y-106249500D01*
X140161698Y-106249500D01*
X140094659Y-106229815D01*
X140048904Y-106177011D01*
X140038960Y-106107853D01*
X140042621Y-106090906D01*
X140057145Y-106040912D01*
X140058790Y-106020000D01*
X139404000Y-106020000D01*
X139336961Y-106000315D01*
X139291206Y-105947511D01*
X139280000Y-105896000D01*
X139280000Y-105770000D01*
X139154000Y-105770000D01*
X139086961Y-105750315D01*
X139041206Y-105697511D01*
X139030000Y-105646000D01*
X139030000Y-104965494D01*
X139530000Y-104965494D01*
X139530000Y-105520000D01*
X140058790Y-105520000D01*
X140057145Y-105499089D01*
X140012031Y-105343804D01*
X139929721Y-105204625D01*
X139929714Y-105204616D01*
X139815383Y-105090285D01*
X139815374Y-105090278D01*
X139676193Y-105007967D01*
X139676190Y-105007965D01*
X139530001Y-104965493D01*
X139530000Y-104965494D01*
X139030000Y-104965494D01*
X139029998Y-104965493D01*
X138899095Y-105003525D01*
X138829226Y-105003326D01*
X138770556Y-104965384D01*
X138741712Y-104901746D01*
X138740500Y-104884449D01*
X138740500Y-104518676D01*
X138760185Y-104451637D01*
X138776819Y-104430995D01*
X138799663Y-104408151D01*
X138840500Y-104367314D01*
X138906392Y-104253186D01*
X138940500Y-104125892D01*
X138940500Y-103994108D01*
X138906392Y-103866814D01*
X138904368Y-103863309D01*
X138897563Y-103851521D01*
X138840500Y-103752686D01*
X138747314Y-103659500D01*
X138690250Y-103626554D01*
X138633187Y-103593608D01*
X138569539Y-103576554D01*
X138505892Y-103559500D01*
X138374108Y-103559500D01*
X138246812Y-103593608D01*
X138132686Y-103659500D01*
X138132683Y-103659502D01*
X138039502Y-103752683D01*
X138039500Y-103752686D01*
X137973608Y-103866812D01*
X137939500Y-103994108D01*
X137939500Y-104125891D01*
X137973608Y-104253187D01*
X137998498Y-104296297D01*
X138039500Y-104367314D01*
X138039502Y-104367316D01*
X138103181Y-104430995D01*
X138136666Y-104492318D01*
X138139500Y-104518676D01*
X138139500Y-105164187D01*
X138119815Y-105231226D01*
X138067906Y-105276568D01*
X137981685Y-105316774D01*
X137896776Y-105401683D01*
X137846027Y-105510514D01*
X137839500Y-105560098D01*
X137839500Y-105774166D01*
X137819815Y-105841205D01*
X137803181Y-105861847D01*
X137602848Y-106062181D01*
X137541525Y-106095666D01*
X137515167Y-106098500D01*
X135765908Y-106098500D01*
X135698869Y-106078815D01*
X135653114Y-106026011D01*
X135643170Y-105956853D01*
X135644657Y-105948536D01*
X135644856Y-105947606D01*
X135654999Y-105848322D01*
X135655000Y-105848309D01*
X135655000Y-105800000D01*
X134829000Y-105800000D01*
X134761961Y-105780315D01*
X134716206Y-105727511D01*
X134705000Y-105676000D01*
X134705000Y-105550000D01*
X134579000Y-105550000D01*
X134511961Y-105530315D01*
X134466206Y-105477511D01*
X134455000Y-105426000D01*
X134455000Y-105300000D01*
X134955000Y-105300000D01*
X135654999Y-105300000D01*
X135654999Y-105251692D01*
X135654998Y-105251677D01*
X135644855Y-105152392D01*
X135591547Y-104991518D01*
X135591542Y-104991507D01*
X135502575Y-104847271D01*
X135502572Y-104847267D01*
X135382732Y-104727427D01*
X135382728Y-104727424D01*
X135238492Y-104638457D01*
X135238481Y-104638452D01*
X135077606Y-104585144D01*
X134978322Y-104575000D01*
X134955000Y-104575000D01*
X134955000Y-105300000D01*
X134455000Y-105300000D01*
X134455000Y-104540000D01*
X133964000Y-104540000D01*
X133896961Y-104520315D01*
X133851206Y-104467511D01*
X133840000Y-104416000D01*
X133840000Y-104290000D01*
X133714000Y-104290000D01*
X133646961Y-104270315D01*
X133601206Y-104217511D01*
X133590000Y-104166000D01*
X133590000Y-103525127D01*
X133479502Y-103502959D01*
X133474392Y-103500275D01*
X133468619Y-103500259D01*
X133445788Y-103485494D01*
X134090000Y-103485494D01*
X134090000Y-104040000D01*
X134618790Y-104040000D01*
X134617145Y-104019089D01*
X134572031Y-103863804D01*
X134489721Y-103724625D01*
X134489714Y-103724616D01*
X134375383Y-103610285D01*
X134375374Y-103610278D01*
X134236193Y-103527967D01*
X134236190Y-103527965D01*
X134090001Y-103485493D01*
X134090000Y-103485494D01*
X133445788Y-103485494D01*
X133443803Y-103484210D01*
X133417645Y-103470472D01*
X133414796Y-103465451D01*
X133409949Y-103462316D01*
X133397749Y-103435399D01*
X133383171Y-103409700D01*
X133383489Y-103403936D01*
X133381106Y-103398678D01*
X133380955Y-103397565D01*
X133380500Y-103394110D01*
X133380500Y-103394108D01*
X133346392Y-103266814D01*
X133280500Y-103152686D01*
X133187314Y-103059500D01*
X133130250Y-103026554D01*
X133073187Y-102993608D01*
X133009539Y-102976554D01*
X132945892Y-102959500D01*
X132814108Y-102959500D01*
X132784862Y-102967336D01*
X132715013Y-102965671D01*
X132657151Y-102926507D01*
X132629649Y-102862278D01*
X132641237Y-102793376D01*
X132665088Y-102759882D01*
X132900460Y-102524511D01*
X132940021Y-102455989D01*
X132960500Y-102379562D01*
X132960500Y-100895331D01*
X132969119Y-100865975D01*
X132975581Y-100836063D01*
X132979405Y-100830946D01*
X132980185Y-100828292D01*
X132996691Y-100807778D01*
X132996819Y-100807650D01*
X133074065Y-100730404D01*
X133074263Y-100729978D01*
X133082191Y-100722028D01*
X133103765Y-100710206D01*
X133122977Y-100694843D01*
X133133864Y-100693713D01*
X133143465Y-100688453D01*
X133168008Y-100690172D01*
X133192474Y-100687635D01*
X133202243Y-100692570D01*
X133213164Y-100693336D01*
X133232879Y-100708049D01*
X133254835Y-100719143D01*
X133258093Y-100722903D01*
X133258264Y-100722733D01*
X133265935Y-100730404D01*
X133349596Y-100814065D01*
X133456827Y-100864068D01*
X133505683Y-100870500D01*
X133505684Y-100870500D01*
X133854317Y-100870500D01*
X133870601Y-100868356D01*
X133903173Y-100864068D01*
X134010404Y-100814065D01*
X134027319Y-100797150D01*
X134088642Y-100763665D01*
X134158334Y-100768649D01*
X134202681Y-100797150D01*
X134209596Y-100804065D01*
X134316827Y-100854068D01*
X134365683Y-100860500D01*
X134365684Y-100860500D01*
X134714317Y-100860500D01*
X134730601Y-100858356D01*
X134763173Y-100854068D01*
X134870404Y-100804065D01*
X134954065Y-100720404D01*
X134954065Y-100720403D01*
X134961736Y-100712733D01*
X134964564Y-100715561D01*
X135002977Y-100684843D01*
X135072474Y-100677635D01*
X135134835Y-100709143D01*
X135138093Y-100712903D01*
X135138264Y-100712733D01*
X135145935Y-100720404D01*
X135229596Y-100804065D01*
X135336827Y-100854068D01*
X135385683Y-100860500D01*
X135385684Y-100860500D01*
X135734317Y-100860500D01*
X135750601Y-100858356D01*
X135783173Y-100854068D01*
X135890404Y-100804065D01*
X135890407Y-100804061D01*
X135897010Y-100799438D01*
X135963215Y-100777107D01*
X136030983Y-100794114D01*
X136075526Y-100839009D01*
X136118537Y-100913507D01*
X136118541Y-100913512D01*
X136443181Y-101238152D01*
X136476666Y-101299475D01*
X136479500Y-101325833D01*
X136479500Y-101415891D01*
X136513608Y-101543187D01*
X136546554Y-101600250D01*
X136579500Y-101657314D01*
X136672686Y-101750500D01*
X136786814Y-101816392D01*
X136914108Y-101850500D01*
X136914110Y-101850500D01*
X137045890Y-101850500D01*
X137045892Y-101850500D01*
X137173186Y-101816392D01*
X137287314Y-101750500D01*
X137380500Y-101657314D01*
X137446392Y-101543186D01*
X137480500Y-101415892D01*
X137480500Y-101284108D01*
X137446392Y-101156814D01*
X137380500Y-101042686D01*
X137287314Y-100949500D01*
X137224979Y-100913511D01*
X137173187Y-100883608D01*
X137086945Y-100860500D01*
X137045892Y-100849500D01*
X136955833Y-100849500D01*
X136926392Y-100840855D01*
X136896406Y-100834332D01*
X136891390Y-100830577D01*
X136888794Y-100829815D01*
X136868152Y-100813181D01*
X136695819Y-100640848D01*
X136662334Y-100579525D01*
X136659500Y-100553167D01*
X136659500Y-99849236D01*
X136679185Y-99782197D01*
X136731989Y-99736442D01*
X136801147Y-99726498D01*
X136815571Y-99729456D01*
X136894108Y-99750500D01*
X136894111Y-99750500D01*
X137025890Y-99750500D01*
X137025892Y-99750500D01*
X137153186Y-99716392D01*
X137267314Y-99650500D01*
X137360500Y-99557314D01*
X137426392Y-99443186D01*
X137460500Y-99315892D01*
X137460500Y-99184108D01*
X137426392Y-99056814D01*
X137360500Y-98942686D01*
X137296818Y-98879004D01*
X137263334Y-98817680D01*
X137260500Y-98791323D01*
X137260500Y-98520381D01*
X137260500Y-98520380D01*
X137240021Y-98443953D01*
X137220912Y-98410855D01*
X137200464Y-98375437D01*
X137200458Y-98375429D01*
X136745534Y-97920505D01*
X136712049Y-97859182D01*
X136717033Y-97789490D01*
X136758905Y-97733557D01*
X136771215Y-97725437D01*
X136841609Y-97684795D01*
X136934795Y-97591609D01*
X137000687Y-97477481D01*
X137034795Y-97350187D01*
X137034795Y-97218403D01*
X137000687Y-97091109D01*
X137000685Y-97091105D01*
X136958433Y-97017922D01*
X136941960Y-96950022D01*
X136964813Y-96883995D01*
X137019734Y-96840804D01*
X137057893Y-96833449D01*
X137057832Y-96832983D01*
X137065669Y-96831951D01*
X137065820Y-96831922D01*
X137065890Y-96831922D01*
X137065892Y-96831922D01*
X137193186Y-96797814D01*
X137307314Y-96731922D01*
X137400500Y-96638736D01*
X137441142Y-96568341D01*
X137491708Y-96520126D01*
X137560315Y-96506902D01*
X137625180Y-96532870D01*
X137636210Y-96542660D01*
X138143181Y-97049631D01*
X138176666Y-97110954D01*
X138179500Y-97137312D01*
X138179500Y-98421323D01*
X138159815Y-98488362D01*
X138143182Y-98509004D01*
X138079500Y-98572686D01*
X138013608Y-98686812D01*
X137979500Y-98814108D01*
X137979500Y-98945891D01*
X138013608Y-99073187D01*
X138046554Y-99130250D01*
X138079500Y-99187314D01*
X138172686Y-99280500D01*
X138286814Y-99346392D01*
X138414108Y-99380500D01*
X138414110Y-99380500D01*
X138545890Y-99380500D01*
X138545892Y-99380500D01*
X138673186Y-99346392D01*
X138787314Y-99280500D01*
X138832319Y-99235495D01*
X138893642Y-99202010D01*
X138963334Y-99206994D01*
X139007681Y-99235495D01*
X139072686Y-99300500D01*
X139186814Y-99366392D01*
X139314108Y-99400500D01*
X139314110Y-99400500D01*
X139445890Y-99400500D01*
X139445892Y-99400500D01*
X139573186Y-99366392D01*
X139687314Y-99300500D01*
X139752319Y-99235495D01*
X139813642Y-99202010D01*
X139883334Y-99206994D01*
X139927681Y-99235495D01*
X140012686Y-99320500D01*
X140126814Y-99386392D01*
X140254108Y-99420500D01*
X140254110Y-99420500D01*
X140385890Y-99420500D01*
X140385892Y-99420500D01*
X140513186Y-99386392D01*
X140627314Y-99320500D01*
X140720500Y-99227314D01*
X140786392Y-99113186D01*
X140820500Y-98985892D01*
X140820500Y-98854108D01*
X140786392Y-98726814D01*
X140720500Y-98612686D01*
X140627314Y-98519500D01*
X140551217Y-98475565D01*
X140513187Y-98453608D01*
X140449539Y-98436554D01*
X140385892Y-98419500D01*
X140295833Y-98419500D01*
X140266392Y-98410855D01*
X140236406Y-98404332D01*
X140231390Y-98400577D01*
X140228794Y-98399815D01*
X140208152Y-98383181D01*
X140184724Y-98359753D01*
X140151239Y-98298430D01*
X140156223Y-98228738D01*
X140198095Y-98172805D01*
X140259150Y-98148782D01*
X140307380Y-98143596D01*
X140442086Y-98093354D01*
X140442093Y-98093350D01*
X140557187Y-98007190D01*
X140557190Y-98007187D01*
X140643350Y-97892093D01*
X140643354Y-97892086D01*
X140693596Y-97757379D01*
X140693598Y-97757372D01*
X140699999Y-97697844D01*
X140700000Y-97697827D01*
X140700000Y-97450000D01*
X140124000Y-97450000D01*
X140056961Y-97430315D01*
X140011206Y-97377511D01*
X140000000Y-97326000D01*
X140000000Y-97250000D01*
X139924000Y-97250000D01*
X139856961Y-97230315D01*
X139811206Y-97177511D01*
X139800000Y-97126000D01*
X139800000Y-97050000D01*
X140200000Y-97050000D01*
X140700000Y-97050000D01*
X140700000Y-96802172D01*
X140699999Y-96802155D01*
X140693598Y-96742627D01*
X140693596Y-96742620D01*
X140643354Y-96607913D01*
X140643350Y-96607906D01*
X140557190Y-96492812D01*
X140557187Y-96492809D01*
X140442093Y-96406649D01*
X140442086Y-96406645D01*
X140307379Y-96356403D01*
X140307372Y-96356401D01*
X140247844Y-96350000D01*
X140200000Y-96350000D01*
X140200000Y-97050000D01*
X139800000Y-97050000D01*
X139800000Y-96350000D01*
X139752155Y-96350000D01*
X139692627Y-96356401D01*
X139692620Y-96356403D01*
X139576930Y-96399553D01*
X139507239Y-96404537D01*
X139445916Y-96371052D01*
X138875113Y-95800249D01*
X138841628Y-95738926D01*
X138846612Y-95669234D01*
X138850000Y-95663962D01*
X138850000Y-95650000D01*
X139150000Y-95650000D01*
X139197828Y-95650000D01*
X139197844Y-95649999D01*
X139257372Y-95643598D01*
X139257379Y-95643596D01*
X139392086Y-95593354D01*
X139392093Y-95593350D01*
X139507187Y-95507190D01*
X139507190Y-95507187D01*
X139593350Y-95392093D01*
X139593354Y-95392086D01*
X139643596Y-95257379D01*
X139643598Y-95257372D01*
X139649999Y-95197844D01*
X139650000Y-95197827D01*
X139650000Y-94900000D01*
X139150000Y-94900000D01*
X139150000Y-95650000D01*
X138850000Y-95650000D01*
X138850000Y-95180915D01*
X138850500Y-95170747D01*
X138850500Y-94874000D01*
X138853050Y-94865314D01*
X138851762Y-94856353D01*
X138862740Y-94832312D01*
X138870185Y-94806961D01*
X138877025Y-94801033D01*
X138880787Y-94792797D01*
X138903021Y-94778507D01*
X138922989Y-94761206D01*
X138933503Y-94758918D01*
X138939565Y-94755023D01*
X138974500Y-94750000D01*
X139000000Y-94750000D01*
X139000000Y-94724000D01*
X139019685Y-94656961D01*
X139072489Y-94611206D01*
X139124000Y-94600000D01*
X139650000Y-94600000D01*
X139650000Y-94374500D01*
X139669685Y-94307461D01*
X139722489Y-94261706D01*
X139774000Y-94250500D01*
X140684108Y-94250500D01*
X140744587Y-94250500D01*
X140755394Y-94250972D01*
G37*
%TD.AperFunction*%
%TA.AperFunction,Conductor*%
G36*
X133793039Y-94270185D02*
G01*
X133838794Y-94322989D01*
X133850000Y-94374500D01*
X133850000Y-94600000D01*
X134376000Y-94600000D01*
X134384685Y-94602550D01*
X134393647Y-94601262D01*
X134417687Y-94612240D01*
X134443039Y-94619685D01*
X134448966Y-94626525D01*
X134457203Y-94630287D01*
X134471492Y-94652521D01*
X134488794Y-94672489D01*
X134491081Y-94683003D01*
X134494977Y-94689065D01*
X134500000Y-94724000D01*
X134500000Y-94750000D01*
X134525500Y-94750000D01*
X134592539Y-94769685D01*
X134638294Y-94822489D01*
X134649500Y-94874000D01*
X134649500Y-95170747D01*
X134650000Y-95180915D01*
X134650000Y-95650000D01*
X134663181Y-95663181D01*
X134696666Y-95724504D01*
X134699500Y-95750862D01*
X134699500Y-98284500D01*
X134679815Y-98351539D01*
X134627011Y-98397294D01*
X134575500Y-98408500D01*
X133421495Y-98408500D01*
X133345067Y-98428978D01*
X133276546Y-98468540D01*
X133276543Y-98468542D01*
X132419541Y-99325544D01*
X132419535Y-99325552D01*
X132379982Y-99394061D01*
X132379979Y-99394066D01*
X132359500Y-99470496D01*
X132359500Y-99804669D01*
X132351965Y-99830326D01*
X132348021Y-99856774D01*
X132341427Y-99866217D01*
X132339815Y-99871708D01*
X132328784Y-99886365D01*
X132326090Y-99889440D01*
X132245935Y-99969596D01*
X132234595Y-99993913D01*
X132222963Y-100007196D01*
X132207776Y-100016843D01*
X132195890Y-100030343D01*
X132178690Y-100035319D01*
X132163986Y-100044660D01*
X132146722Y-100044568D01*
X132129679Y-100049500D01*
X131918677Y-100049500D01*
X131851638Y-100029815D01*
X131830996Y-100013182D01*
X131795081Y-99977267D01*
X131757314Y-99939500D01*
X131665282Y-99886365D01*
X131643187Y-99873608D01*
X131575314Y-99855422D01*
X131515892Y-99839500D01*
X131384108Y-99839500D01*
X131256812Y-99873608D01*
X131142686Y-99939500D01*
X131142683Y-99939502D01*
X131049502Y-100032683D01*
X131049500Y-100032686D01*
X130983608Y-100146812D01*
X130949500Y-100274108D01*
X130949500Y-100405891D01*
X130983608Y-100533187D01*
X130995144Y-100553167D01*
X131049500Y-100647314D01*
X131142686Y-100740500D01*
X131235548Y-100794114D01*
X131252783Y-100804065D01*
X131256814Y-100806392D01*
X131384108Y-100840500D01*
X131384110Y-100840500D01*
X131515890Y-100840500D01*
X131515892Y-100840500D01*
X131643186Y-100806392D01*
X131757314Y-100740500D01*
X131810995Y-100686819D01*
X131837922Y-100672115D01*
X131863741Y-100655523D01*
X131869941Y-100654631D01*
X131872318Y-100653334D01*
X131898676Y-100650500D01*
X132129679Y-100650500D01*
X132196718Y-100670185D01*
X132242060Y-100722095D01*
X132245935Y-100730404D01*
X132323181Y-100807650D01*
X132356666Y-100868973D01*
X132359500Y-100895331D01*
X132359500Y-102164167D01*
X132339815Y-102231206D01*
X132323181Y-102251848D01*
X131759541Y-102815487D01*
X131759535Y-102815495D01*
X131719982Y-102884004D01*
X131719979Y-102884009D01*
X131708592Y-102926507D01*
X131699752Y-102959500D01*
X131699500Y-102960439D01*
X131699500Y-103662859D01*
X131679815Y-103729898D01*
X131627011Y-103775653D01*
X131557853Y-103785597D01*
X131494297Y-103756572D01*
X131468113Y-103724859D01*
X131416924Y-103636196D01*
X131257281Y-103428148D01*
X131257274Y-103428140D01*
X131071860Y-103242726D01*
X131071851Y-103242718D01*
X130863803Y-103083075D01*
X130636700Y-102951958D01*
X130636690Y-102951953D01*
X130394428Y-102851605D01*
X130394421Y-102851603D01*
X130394419Y-102851602D01*
X130141116Y-102783730D01*
X130083339Y-102776123D01*
X129881127Y-102749500D01*
X129881120Y-102749500D01*
X129815892Y-102749500D01*
X129612394Y-102749500D01*
X129545355Y-102729815D01*
X129499600Y-102677011D01*
X129489656Y-102607853D01*
X129518681Y-102544297D01*
X129536908Y-102527124D01*
X129577214Y-102496194D01*
X129607928Y-102472628D01*
X129802628Y-102277928D01*
X129970249Y-102059479D01*
X130107923Y-101821021D01*
X130213295Y-101566632D01*
X130284560Y-101300666D01*
X130320500Y-101027674D01*
X130320500Y-100752326D01*
X130284560Y-100479334D01*
X130213295Y-100213368D01*
X130107923Y-99958979D01*
X130107921Y-99958976D01*
X130107919Y-99958971D01*
X130042970Y-99846478D01*
X129970249Y-99720521D01*
X129891053Y-99617310D01*
X129802629Y-99502073D01*
X129802623Y-99502066D01*
X129607933Y-99307376D01*
X129607926Y-99307370D01*
X129497811Y-99222876D01*
X129456608Y-99166448D01*
X129452453Y-99096702D01*
X129486665Y-99035782D01*
X129548382Y-99003029D01*
X129573297Y-99000500D01*
X129881113Y-99000500D01*
X129881120Y-99000500D01*
X130141116Y-98966270D01*
X130394419Y-98898398D01*
X130636697Y-98798043D01*
X130863803Y-98666924D01*
X131071851Y-98507282D01*
X131071855Y-98507277D01*
X131071860Y-98507274D01*
X131257274Y-98321860D01*
X131257277Y-98321855D01*
X131257282Y-98321851D01*
X131416924Y-98113803D01*
X131548043Y-97886697D01*
X131626269Y-97697844D01*
X132800000Y-97697844D01*
X132806401Y-97757372D01*
X132806403Y-97757379D01*
X132856645Y-97892086D01*
X132856649Y-97892093D01*
X132942809Y-98007187D01*
X132942812Y-98007190D01*
X133057906Y-98093350D01*
X133057913Y-98093354D01*
X133192620Y-98143596D01*
X133192627Y-98143598D01*
X133252155Y-98149999D01*
X133252172Y-98150000D01*
X133300000Y-98150000D01*
X133700000Y-98150000D01*
X133747828Y-98150000D01*
X133747844Y-98149999D01*
X133807372Y-98143598D01*
X133807379Y-98143596D01*
X133942086Y-98093354D01*
X133942093Y-98093350D01*
X134057187Y-98007190D01*
X134057190Y-98007187D01*
X134143350Y-97892093D01*
X134143354Y-97892086D01*
X134193596Y-97757379D01*
X134193598Y-97757372D01*
X134199999Y-97697844D01*
X134200000Y-97697827D01*
X134200000Y-97450000D01*
X133700000Y-97450000D01*
X133700000Y-98150000D01*
X133300000Y-98150000D01*
X133300000Y-97450000D01*
X132800000Y-97450000D01*
X132800000Y-97697844D01*
X131626269Y-97697844D01*
X131648398Y-97644419D01*
X131716270Y-97391116D01*
X131750500Y-97131120D01*
X131750500Y-97000000D01*
X131750500Y-96934108D01*
X131750500Y-96802155D01*
X132800000Y-96802155D01*
X132800000Y-97050000D01*
X133300000Y-97050000D01*
X133700000Y-97050000D01*
X134200000Y-97050000D01*
X134200000Y-96802172D01*
X134199999Y-96802155D01*
X134193598Y-96742627D01*
X134193596Y-96742620D01*
X134143354Y-96607913D01*
X134143350Y-96607906D01*
X134057190Y-96492812D01*
X134057187Y-96492809D01*
X133942093Y-96406649D01*
X133942086Y-96406645D01*
X133807379Y-96356403D01*
X133807372Y-96356401D01*
X133747844Y-96350000D01*
X133700000Y-96350000D01*
X133700000Y-97050000D01*
X133300000Y-97050000D01*
X133300000Y-96350000D01*
X133252155Y-96350000D01*
X133192627Y-96356401D01*
X133192620Y-96356403D01*
X133057913Y-96406645D01*
X133057906Y-96406649D01*
X132942812Y-96492809D01*
X132942809Y-96492812D01*
X132856649Y-96607906D01*
X132856645Y-96607913D01*
X132806403Y-96742620D01*
X132806401Y-96742627D01*
X132800000Y-96802155D01*
X131750500Y-96802155D01*
X131750500Y-95255413D01*
X131750972Y-95244606D01*
X131755063Y-95197844D01*
X133850000Y-95197844D01*
X133856401Y-95257372D01*
X133856403Y-95257379D01*
X133906645Y-95392086D01*
X133906649Y-95392093D01*
X133992809Y-95507187D01*
X133992812Y-95507190D01*
X134107906Y-95593350D01*
X134107913Y-95593354D01*
X134242620Y-95643596D01*
X134242627Y-95643598D01*
X134302155Y-95649999D01*
X134302172Y-95650000D01*
X134350000Y-95650000D01*
X134350000Y-94900000D01*
X133850000Y-94900000D01*
X133850000Y-95197844D01*
X131755063Y-95197844D01*
X131757521Y-95169748D01*
X131764739Y-95087240D01*
X131768490Y-95065966D01*
X131807969Y-94918627D01*
X131815362Y-94898318D01*
X131830752Y-94865314D01*
X131879823Y-94760081D01*
X131890629Y-94741366D01*
X131978119Y-94616417D01*
X131992007Y-94599865D01*
X132099865Y-94492007D01*
X132116417Y-94478119D01*
X132241366Y-94390629D01*
X132260081Y-94379823D01*
X132398320Y-94315361D01*
X132418627Y-94307969D01*
X132565966Y-94268490D01*
X132587242Y-94264739D01*
X132719885Y-94253134D01*
X132744606Y-94250972D01*
X132755413Y-94250500D01*
X132815892Y-94250500D01*
X133726000Y-94250500D01*
X133793039Y-94270185D01*
G37*
%TD.AperFunction*%
%TD*%
M02*
